<svg width="75" height="88" viewBox="0 0 75 88" fill="none" xmlns="http://www.w3.org/2000/svg">
<g clip-path="url(#clip0_1116_128)">
<path d="M1.01607 87.9848H22.1226C22.6768 87.9848 23.1386 87.5444 23.1386 86.9826C23.1386 86.4207 22.6922 85.9803 22.1226 85.9803H2.01674V74.0293C2.01674 73.6801 2.10911 65.6166 10.2838 63.3843C10.2992 63.3843 10.4378 63.3387 10.4532 63.3387C10.5455 63.3387 10.6379 63.2932 10.6687 63.278C10.915 63.2173 11.1613 63.1565 11.4231 63.0806C11.6848 63.0198 11.9465 62.9439 12.239 62.868L15.5181 61.9265C15.5181 61.9265 15.6567 61.8809 15.749 61.8506L15.8876 61.805C16.4264 61.638 16.9652 61.4709 17.4733 61.2887L17.8889 61.152C18.905 60.8028 19.8441 60.4535 20.737 60.1194L23.3695 65.8899L21.3528 69.0181C21.1065 69.3978 21.1527 69.8837 21.4452 70.2178L35.6393 85.9803H29.2042C28.65 85.9803 28.1882 86.4207 28.1882 86.9826C28.1882 87.5444 28.6346 87.9848 29.2042 87.9848H73.8496C74.4038 87.9848 74.8657 87.5444 74.8657 86.9826V74.0293C74.8657 73.6193 74.7425 63.7943 64.6896 61.3494C63.9968 61.1672 63.3195 60.985 62.6421 60.8028C61.7338 55.7308 61.3951 45.025 61.1026 35.5341C60.8717 28.4121 60.6869 22.2619 60.2867 19.8171C59.0089 11.9358 48.8328 0 36.3629 0C23.893 0 13.8709 8.39758 12.3006 20.4093C12.2236 20.956 12.6239 21.4571 13.1781 21.533C13.7323 21.609 14.2403 21.2141 14.3173 20.6675C15.9954 7.83572 26.9258 2.00449 36.3783 2.00449C47.4011 2.00449 57.1153 12.8318 58.3007 20.136C58.6856 22.4594 58.8857 28.8373 59.0858 35.5948C59.363 44.5846 59.6862 54.6678 60.5022 60.1802C60.4406 60.1802 60.3944 60.1498 60.3328 60.1346C59.3783 59.8461 58.4393 59.5424 57.5156 59.2235C57.3154 59.1627 57.1307 59.0868 56.9459 59.0261C56.0069 58.692 55.0832 58.3579 54.221 58.0238C54.1749 58.0238 54.1287 57.9783 54.0825 57.9631C54.0825 57.9631 54.0363 57.9327 54.0055 57.9327C53.6976 57.8112 53.4205 57.6897 53.1434 57.5986L52.3275 57.2645C52.035 57.1431 51.7578 57.0368 51.4653 56.8849C49.1869 55.8978 47.5396 55.0626 46.7545 54.6526V45.2984C46.7545 45.2984 46.8315 45.2072 46.8623 45.1465C47.124 44.8124 47.3857 44.4632 47.632 44.0987C47.7706 43.8861 47.9091 43.6583 48.0477 43.4457C48.1862 43.2331 48.3248 43.0357 48.4479 42.8079C48.9868 41.8816 49.4794 40.8794 49.9104 39.8164C52.5276 33.4233 51.5577 27.0909 50.2183 22.7934C49.6949 21.1382 49.1253 19.7715 48.6942 18.83C48.4017 18.2378 47.8783 17.8885 47.2009 17.8733H47.1086C46.9854 17.8733 46.8623 17.9037 46.7391 17.9341C46.7083 17.9341 46.6621 17.9341 46.6159 17.9493C46.1387 18.1011 45.7538 18.4656 45.5537 18.9363C44.3991 21.8368 41.982 23.2034 40.1654 23.8261C36.7786 25.0105 32.6527 24.6764 29.6507 22.9909C27.8803 22.0038 26.233 21.7305 24.7397 22.2012C23.8776 22.4745 23.231 22.9453 22.7384 23.416C22.0302 24.0994 21.6915 24.7827 21.6761 24.8283C21.6299 24.9194 21.6145 25.0105 21.5991 25.1016C21.2296 27.3946 21.0757 29.3991 21.1373 31.3884C21.1373 31.4795 21.1527 31.5555 21.1527 31.6466C21.1835 32.497 21.245 33.317 21.3374 34.0915C21.3528 34.2129 21.3682 34.3496 21.3836 34.4863C21.4914 35.2911 21.6453 36.0504 21.8147 36.7793C21.8454 36.9008 21.8762 37.0374 21.907 37.1589C22.0918 37.8726 22.3073 38.5408 22.5382 39.1786C22.5844 39.2849 22.6152 39.4064 22.6614 39.5127C22.9077 40.1353 23.1694 40.7123 23.4465 41.2742C23.4927 41.3805 23.5543 41.4716 23.6005 41.5779C23.893 42.1246 24.2009 42.6257 24.5088 43.0965C24.5704 43.1876 24.6165 43.2635 24.6781 43.3546C25.0014 43.8102 25.3247 44.2506 25.6634 44.6454C25.725 44.7213 25.7866 44.7972 25.8635 44.8732C26.2022 45.2528 26.5409 45.6173 26.8796 45.9513L27.0951 46.1639C27.4338 46.4828 27.7571 46.7714 28.0804 47.0295L28.1728 47.1206V54.6526C28.1728 54.6526 28.0188 54.7437 27.9265 54.7893C27.8033 54.85 27.6801 54.9108 27.5416 54.9715L27.326 55.0778C26.9874 55.2449 26.5871 55.4423 26.1406 55.6549C26.1098 55.6549 26.0791 55.6852 26.0637 55.7004C25.8789 55.7764 25.6788 55.8675 25.5248 55.9586C24.3856 56.4749 22.8307 57.1734 20.9525 57.9175H20.9217C19.8133 58.3579 18.5971 58.7983 17.2885 59.2538C16.6266 59.4816 15.9184 59.7094 15.1948 59.9372C15.0255 59.9979 14.8407 60.0435 14.656 60.1042L11.654 60.9698C11.4846 61.0154 11.3307 61.0609 11.1613 61.0913C11.3769 58.5097 11.7156 55.2601 12.1004 51.5852C12.5007 47.7432 12.9318 43.5368 13.3012 39.376C13.3474 38.8293 12.9318 38.3434 12.3775 38.2978C11.8233 38.2523 11.3307 38.6623 11.2845 39.209C10.915 43.3698 10.484 47.561 10.0837 51.3877C9.66803 55.4423 9.29855 58.9653 9.08302 61.6987C0.138555 64.5991 0 73.6497 0 74.0445V86.9978C0 87.5444 0.446454 88 1.01607 88V87.9848ZM25.3709 24.1146C26.2946 23.8261 27.403 24.0387 28.65 24.7524C29.4659 25.2079 30.3589 25.5724 31.2979 25.8609C31.3595 25.8761 31.4211 25.9065 31.4827 25.9217C31.6212 25.9672 31.7752 25.9824 31.9291 26.028C32.2986 26.1191 32.6527 26.2102 33.0222 26.2861H33.0838C33.5764 26.3772 34.0844 26.438 34.5925 26.4835C34.885 26.5139 35.1621 26.4987 35.4546 26.5139C35.7009 26.5139 35.9472 26.5443 36.1935 26.5291C37.7946 26.4987 39.3957 26.2406 40.8582 25.7242C43.7987 24.6916 45.9539 22.839 47.1548 20.3334C47.8937 22.019 48.8482 24.6764 49.2947 27.8198C49.7719 31.191 49.6641 35.1393 48.0323 39.0875C47.5858 40.1808 47.0778 41.1831 46.5082 42.1246C46.0309 42.899 45.5229 43.6431 44.9533 44.3113C44.9533 44.3113 44.9379 44.3569 44.9225 44.372C44.9225 44.372 44.9225 44.372 44.9071 44.4024C44.6762 44.6758 44.4298 44.9339 44.1989 45.1769C44.1373 45.2376 44.0758 45.3135 44.0142 45.3743C43.0443 46.331 41.9974 47.1054 40.9198 47.6521C38.4566 48.9125 35.5162 48.9277 32.822 47.6521C32.0215 47.2725 31.2826 46.8473 30.5898 46.3765C30.3281 46.2095 30.051 46.0424 29.8046 45.845C25.5248 42.6409 23.2926 37.7815 23.154 31.3733C23.1078 29.5206 23.231 27.6832 23.5543 25.6179C23.6621 25.4357 23.9238 25.0713 24.3086 24.7372C24.5857 24.4942 24.9244 24.2664 25.3555 24.1298H25.3709V24.1146ZM30.2049 48.5177C30.4358 48.6544 30.6821 48.7607 30.9131 48.8973C31.2518 49.0796 31.5751 49.277 31.9445 49.444C32.7605 49.8236 33.6072 50.1122 34.4539 50.2944C34.5463 50.2944 34.654 50.3248 34.7464 50.3399C35.0697 50.4007 35.393 50.4614 35.7009 50.507C35.8703 50.507 36.0396 50.507 36.2089 50.5374C36.4553 50.5374 36.7016 50.5829 36.9325 50.5829H36.9633C37.2096 50.5829 37.4405 50.5525 37.6869 50.5374C37.8716 50.5374 38.0409 50.5374 38.2257 50.507C38.472 50.4766 38.7029 50.4311 38.9338 50.3855C39.1186 50.3551 39.2879 50.3248 39.4727 50.2944C39.642 50.2488 39.8114 50.1881 39.9807 50.1425C40.6119 49.9603 41.2431 49.7325 41.8435 49.4288C42.3207 49.1858 42.7826 48.9125 43.229 48.6088C43.383 48.5025 43.5215 48.3962 43.6755 48.2899C43.968 48.0773 44.2605 47.8495 44.553 47.6217C44.6146 47.561 44.6916 47.5306 44.7531 47.4699V55.1689L37.4867 82.5484L30.2203 55.1538V48.5177H30.2049ZM72.8951 74.0293V85.9803H39.2417L53.4359 70.2178C53.7438 69.8837 53.7746 69.3978 53.5283 69.0181L51.5115 65.8899L54.1441 60.1194C56.4995 61.0305 58.9781 61.8506 61.5182 62.5491C62.3958 62.8072 63.2887 63.0502 64.2278 63.278C72.772 65.3584 72.8797 73.6801 72.8797 74.0293H72.8951ZM50.6032 58.6768C50.9111 58.8135 51.2036 58.9501 51.5269 59.0868L51.958 59.269C52.0504 59.3146 52.1581 59.345 52.2505 59.3905L49.4332 65.5558C49.2947 65.8595 49.3254 66.224 49.4948 66.4973L51.4038 69.4433L39.5035 82.6547L46.385 56.6875C47.3087 57.1582 48.725 57.8568 50.6032 58.6616V58.6768ZM28.2344 56.8545L28.4653 56.733C28.4653 56.733 28.5115 56.733 28.5269 56.7027L35.4084 82.6547L23.5081 69.4433L25.4171 66.4973C25.6018 66.2088 25.6326 65.8595 25.4787 65.5558L22.6614 59.3753C24.1393 58.7679 25.4017 58.206 26.3562 57.7657C26.5717 57.6745 26.7872 57.5682 26.972 57.4771C27.0028 57.4771 27.0335 57.4468 27.0797 57.4164C27.5108 57.2038 27.8957 57.0216 28.219 56.8545H28.2344Z" fill="#93D5FE"/>
<path d="M12.7628 33.2411H12.8244C13.3632 33.2411 13.8097 32.8311 13.8404 32.2996V32.0111C13.9482 30.4926 14.0252 29.0196 14.0714 27.6073C14.0868 27.0606 13.6557 26.5899 13.0861 26.5747C12.5473 26.5747 12.0546 26.9847 12.0392 27.5466C11.9931 28.9436 11.9161 30.4015 11.8237 31.9048V32.1933C11.7775 32.74 12.2086 33.2108 12.7628 33.2411Z" fill="#93D5FE"/>
</g>
<defs>
<clipPath id="clip0_1116_128">
<rect width="74.8657" height="88" fill="white"/>
</clipPath>
</defs>
</svg>
