<svg width="73" height="88" viewBox="0 0 73 88" fill="none" xmlns="http://www.w3.org/2000/svg">
<path d="M12.5136 87.9709C12.1122 87.9709 11.7969 87.6535 11.7969 87.2496V78.7091C11.7969 78.3052 12.1122 77.9878 12.5136 77.9878C12.9149 77.9878 13.2302 78.3052 13.2302 78.7091V87.2496C13.2302 87.6535 12.9149 87.9709 12.5136 87.9709Z" fill="#93D5FE"/>
<path d="M36.1787 47.606C33.9856 47.606 31.7782 46.8702 29.9435 45.3843C29.2555 44.8361 28.6105 44.2302 28.0228 43.581C24.9841 40.2773 23.178 36.0071 22.189 33.0208C21.028 29.5584 20.6266 26.8895 20.6123 26.7741C20.512 25.3892 19.8669 13.6893 25.4571 13.1411C25.6004 13.1411 25.7581 13.1555 25.9014 13.2421C25.9014 13.2421 26.0448 13.3287 26.2741 13.4441L26.5608 13.6028C26.7614 13.7037 27.0051 13.8192 27.2775 13.949C27.4781 14.05 27.5641 14.0933 27.6645 14.1221C27.9225 14.2375 28.0945 14.3097 28.2665 14.3962L28.4528 14.4828C28.8112 14.6415 28.9832 15.0743 28.8255 15.4349C28.6678 15.7956 28.2378 15.9687 27.8795 15.81L27.6931 15.7235C27.4925 15.6369 27.2918 15.5503 27.1198 15.4638C27.0481 15.4493 26.8904 15.3772 26.7471 15.3051C26.3744 15.132 26.1308 15.0021 25.9158 14.9011L25.7151 14.8002C25.5717 14.728 25.4571 14.6703 25.3711 14.6126C22.0027 15.2618 21.802 23.456 22.0313 26.6299C22.2607 29.8037 22.4327 29.2411 23.5364 32.5736C24.4824 35.43 26.2024 39.4983 29.0548 42.6144C29.5995 43.2059 30.2015 43.7685 30.8322 44.2734C33.9856 46.8125 38.3717 46.8125 41.4965 44.2734C42.2132 43.6964 42.8869 43.0328 43.5749 42.2682C43.9619 41.8209 44.3346 41.3593 44.6642 40.8832C44.8936 40.5514 45.3379 40.4793 45.6676 40.7101C45.9973 40.9409 46.0689 41.3881 45.8396 41.72C45.4813 42.2249 45.0942 42.7298 44.6642 43.2203C43.9332 44.0426 43.1735 44.7784 42.4138 45.3987C40.5791 46.8846 38.3861 47.6204 36.193 47.6204H36.1787V47.606Z" fill="#93D5FE"/>
<path d="M48.5052 36.1799C48.4192 36.1799 48.3188 36.1655 48.2328 36.1222C47.8745 35.9635 47.6881 35.5452 47.8458 35.1845C48.2328 34.2468 48.5625 33.3668 48.8205 32.5733C48.8205 32.5445 48.8205 32.53 48.8205 32.5012C49.9242 29.1831 50.3112 26.5863 50.3112 26.5575C50.3112 18.1036 48.3331 15.478 47.5305 14.7566C44.8501 17.0793 41.453 18.1901 37.4109 18.0603C37.2675 18.0314 37.0382 18.0459 36.8519 18.0314C36.0778 17.9882 35.3468 17.9016 34.6015 17.7862L33.7844 17.6419C33.3974 17.5842 33.1251 17.2091 33.1824 16.8196C33.2398 16.4301 33.6124 16.156 33.9995 16.2137L34.8165 16.358C35.5188 16.4734 36.2068 16.5599 36.8662 16.6032C37.1099 16.6032 37.2675 16.6321 37.4252 16.6321C41.3096 16.7619 44.5061 15.6511 46.9714 13.3284C47.1721 13.1409 47.4445 13.0832 47.7025 13.1697C48.1181 13.314 51.7302 14.9442 51.7302 26.6585C51.7016 26.8749 51.3146 29.4716 50.1965 32.8907C50.1965 32.9196 50.1965 32.934 50.1965 32.9628C49.9242 33.7996 49.5658 34.7373 49.1645 35.7183C49.0498 35.9924 48.7775 36.1655 48.5052 36.1655V36.1799Z" fill="#93D5FE"/>
<path d="M50.2113 33.6987C49.767 33.6987 49.38 33.5689 49.0646 33.3092C48.907 33.1794 48.8066 32.963 48.8066 32.761C48.8066 32.6889 48.8066 32.5879 48.8496 32.5157C49.9533 29.1977 50.3403 26.6009 50.3403 26.572C50.3403 26.4566 50.3977 26.3412 50.4693 26.2547C50.4693 26.2547 50.9424 25.5766 51.5157 23.8743C51.616 23.5858 51.8884 23.3838 52.1894 23.3838C52.8774 23.3838 53.9381 23.6867 54.6261 24.5379C55.3141 25.3746 55.5148 26.5288 55.2281 27.957C54.6118 31.0154 52.7341 32.963 51.143 33.54C50.8134 33.6554 50.498 33.7131 50.2113 33.7131V33.6987ZM51.7307 26.9471C51.6304 27.5242 51.272 29.5872 50.4407 32.2272C50.5123 32.2272 50.584 32.1984 50.67 32.1695C51.6447 31.8233 53.2931 30.3374 53.8234 27.6685C54.0241 26.673 53.9238 25.9228 53.5224 25.4468C53.2788 25.1582 52.9491 24.9851 52.6767 24.8986C52.2611 26.0383 51.9027 26.673 51.7307 26.9471Z" fill="#93D5FE"/>
<path d="M22.2321 33.6984C21.9024 33.6984 21.5298 33.6262 21.1571 33.4676C19.6234 32.8472 17.8173 30.8996 17.2296 27.9422C16.943 26.5428 17.158 25.3887 17.8603 24.552C18.663 23.5854 19.9387 23.3402 20.4834 23.3546C20.7987 23.3546 21.0711 23.571 21.1571 23.8739C21.5871 25.4032 21.9741 26.3842 21.9741 26.3986C21.9884 26.4563 22.0028 26.4996 22.0171 26.5573C22.0171 26.5861 22.4041 29.2117 23.5365 32.5443C23.6368 32.8472 23.5365 33.179 23.2641 33.3666C22.9631 33.5685 22.6048 33.684 22.2178 33.684H22.2321V33.6984ZM19.953 24.8694C19.6377 24.9559 19.2364 25.1291 18.964 25.4753C18.5627 25.9658 18.448 26.7015 18.6487 27.6537C19.1217 30.0629 20.5551 31.6642 21.7018 32.1259C21.7878 32.1547 21.8594 32.1836 21.9311 32.198C21.0567 29.4137 20.6984 27.3075 20.6267 26.8602C20.5407 26.6294 20.2684 25.9225 19.9674 24.8694H19.953Z" fill="#93D5FE"/>
<path d="M33.7849 55.0355C33.6416 55.0355 33.4982 54.9922 33.3836 54.9056C33.2116 54.7902 29.1121 51.9626 27.0481 49.6111C26.8761 49.4091 26.8187 49.135 26.9047 48.8898C27.2201 47.9809 27.7648 46.0045 27.8221 43.0615C27.8221 42.773 28.0084 42.5133 28.2808 42.3979C28.5531 42.2969 28.8685 42.369 29.0548 42.5854C29.5995 43.1769 30.2015 43.7395 30.8322 44.2445C33.9856 46.7835 38.3717 46.7835 41.4965 44.2445C42.2131 43.6674 42.8868 43.0038 43.5748 42.2392C43.7755 42.0084 44.0765 41.9362 44.3632 42.0372C44.6355 42.1382 44.8219 42.4123 44.8362 42.7008C44.8649 45.6006 45.3665 47.6058 45.7822 48.7744C45.8682 49.0196 45.8252 49.2937 45.6532 49.4813C43.6322 51.8472 39.4467 54.7325 39.2747 54.8624C39.1601 54.9345 39.0454 54.9778 38.9164 54.9922C38.429 55.021 35.1753 55.021 33.7849 55.021V55.0355ZM28.3954 48.9619C30.1728 50.8518 33.2402 53.059 34.0143 53.5928C35.9063 53.5928 37.956 53.5928 38.644 53.5928C39.4037 53.059 42.5571 50.7941 44.3059 48.8898C43.9762 47.8655 43.6322 46.394 43.4888 44.4609C43.1305 44.7927 42.7721 45.1101 42.4138 45.3986C38.7587 48.3704 33.6272 48.3704 29.9435 45.3986C29.6855 45.1822 29.4275 44.9658 29.1695 44.735C29.0118 46.6537 28.6678 48.0819 28.3954 48.9619Z" fill="#93D5FE"/>
<path d="M60.4169 87.9709C60.0155 87.9709 59.7002 87.6535 59.7002 87.2496V78.7091C59.7002 78.3052 60.0155 77.9878 60.4169 77.9878C60.8182 77.9878 61.1336 78.3052 61.1336 78.7091V87.2496C61.1336 87.6535 60.8182 87.9709 60.4169 87.9709Z" fill="#93D5FE"/>
<path d="M30.7458 87.971H0.716685C0.516013 87.971 0.329675 87.8844 0.200672 87.7402C0.0716685 87.5959 0 87.4084 0 87.2064C1.26137 65.0185 4.51511 58.2958 4.54378 58.238C4.68712 57.9784 4.81612 57.7187 9.44591 55.7855C9.80425 55.6269 10.2343 55.7855 10.3776 56.1751C10.5353 56.5357 10.3489 56.9685 9.99059 57.1128C6.86584 58.4112 5.99149 58.8872 5.74781 59.0315C5.34647 59.9692 2.6374 67.0526 1.46204 86.5139H30.0148C30.0434 83.9749 30.2728 81.0319 30.6741 77.7571C30.7171 77.3676 31.0755 77.079 31.4768 77.1367C31.8638 77.18 32.1505 77.5407 32.0931 77.9446C31.6631 81.4791 31.4338 84.6096 31.4338 87.2497C31.4338 87.6536 31.1185 87.971 30.7171 87.971H30.7458Z" fill="#93D5FE"/>
<path d="M32.3946 72.0296H32.2656C31.8786 71.9574 31.6206 71.5824 31.6779 71.1928C32.452 66.7639 33.269 63.2294 33.527 62.1186C32.7243 61.1376 31.7926 59.291 31.2479 58.1225C29.8719 59.7959 27.3778 62.7389 27.3778 62.7389C27.2058 62.9409 26.9192 63.0419 26.6612 62.9698C26.4031 62.8976 26.1881 62.6957 26.1308 62.4216C26.1308 62.3638 24.7548 56.3913 21.888 52.3374C20.555 52.8568 18.6199 53.607 16.5416 54.4437C16.1689 54.588 15.7532 54.4149 15.6099 54.0398C15.4665 53.6647 15.6385 53.2463 16.0112 53.1021C18.3763 52.1499 20.5693 51.2987 21.888 50.7938C22.189 50.6784 22.5187 50.7938 22.7051 51.0246C25.1274 54.1985 26.5608 58.5408 27.1772 60.7337C28.0945 59.6517 29.4849 57.9926 30.3162 56.9828C30.4882 56.7664 30.6889 56.5355 30.9039 56.3047C31.0759 56.1316 31.3196 56.0451 31.5489 56.0883C31.7926 56.1316 31.9933 56.2903 32.0936 56.5067C32.925 58.4254 34.1433 60.7337 34.817 61.3973C35.0034 61.5704 35.075 61.8301 35.0034 62.0897C35.0034 62.133 34.0143 66.1436 33.0826 71.4525C33.0253 71.7988 32.7243 72.044 32.3803 72.044H32.3946V72.0296Z" fill="#93D5FE"/>
<path d="M71.1245 75.3191C70.7662 75.3191 70.4508 75.045 70.4078 74.6843C70.2215 73.1118 70.0208 71.6403 69.8058 70.3275C69.7485 69.938 70.0065 69.5629 70.3935 69.5052C70.7805 69.4331 71.1532 69.7072 71.2105 70.0967C71.4255 71.4383 71.6262 72.9243 71.8125 74.5112C71.8555 74.9007 71.5689 75.2614 71.1818 75.3046H71.0958H71.1245V75.3191Z" fill="#93D5FE"/>
<path d="M72.2138 87.9713H41.8693C41.468 87.9713 41.1527 87.6539 41.1527 87.25C41.1527 76.5599 37.6266 62.22 37.5836 62.0758C37.5262 61.8305 37.5836 61.5564 37.7842 61.3833C38.3576 60.8207 39.2463 59.1328 40.4073 56.3773C40.5076 56.1465 40.7083 55.9878 40.952 55.9445C41.1957 55.9012 41.4393 55.9878 41.6113 56.1753C41.812 56.4062 42.0127 56.637 42.199 56.8678C43.0877 57.9498 44.5067 59.6377 45.4241 60.7341C46.0261 58.5701 47.4308 54.3143 49.7815 51.1549C49.7815 51.1116 49.8102 51.0684 49.8245 51.0395C49.9822 50.7221 50.3119 50.5346 50.6559 50.65L50.5269 51.1982L50.8136 50.7077C67.928 57.416 68.2004 57.9065 68.401 58.2672C68.6447 58.7144 69.2897 60.3734 69.9921 63.4607C70.0781 63.8502 69.8344 64.2397 69.4474 64.3263C69.0604 64.4129 68.6734 64.1676 68.5874 63.7781C67.9137 60.7774 67.3547 59.4213 67.1827 59.0606C66.423 58.5701 61.7502 56.5504 50.7706 52.2369C47.8465 56.2908 46.4848 62.3499 46.4705 62.422C46.4131 62.6817 46.2125 62.8981 45.9401 62.9702C45.6821 63.0279 45.3954 62.9414 45.2234 62.7394C45.2234 62.7394 42.6147 59.6666 41.2673 58.0219C40.3643 60.0849 39.662 61.3833 39.0743 62.1191C39.619 64.4129 42.4427 76.7619 42.586 86.5431H71.4541C71.3394 84.6821 71.2248 82.9509 71.0671 81.3063C71.0241 80.9167 71.3251 80.5561 71.7121 80.5272C72.0991 80.4984 72.4575 80.7869 72.4861 81.1764C72.6581 83.0519 72.7871 85.0716 72.9161 87.2355C72.9161 87.4375 72.8588 87.6251 72.7298 87.7693C72.6008 87.9136 72.4001 88.0001 72.2138 88.0001V87.9713Z" fill="#93D5FE"/>
<path d="M41.8689 87.9711H30.746C30.3446 87.9711 30.0293 87.6537 30.0293 87.2497C30.0293 84.552 30.2586 81.3637 30.6886 77.7716C30.7316 77.382 31.09 77.0935 31.4913 77.1512C31.8783 77.1945 32.165 77.5552 32.1077 77.9591C31.7063 81.1762 31.4913 84.0615 31.4627 86.5428H41.1379C41.0089 77.1368 38.3428 65.2926 37.7122 62.6382H34.8884C34.5874 63.9077 33.8277 67.2835 33.0967 71.4528C33.025 71.8423 32.6524 72.1164 32.2654 72.0442C31.8783 71.9721 31.6203 71.597 31.6777 71.2075C32.6237 65.8553 33.6127 61.787 33.6271 61.7582C33.7131 61.4408 33.9997 61.21 34.3294 61.21H38.2855C38.6152 61.21 38.9019 61.4408 38.9879 61.7582C39.0165 61.9024 42.5856 76.4155 42.5856 87.2786C42.5856 87.6825 42.2703 87.9999 41.8689 87.9999V87.9711Z" fill="#93D5FE"/>
<path d="M38.2854 62.6236H34.3293C34.1429 62.6236 33.9566 62.5514 33.8276 62.4216C32.6236 61.2386 30.9752 57.5022 30.7888 57.0694C30.6742 56.8097 30.7172 56.5212 30.9035 56.3048C32.0645 54.9487 33.2399 53.8234 33.2972 53.7801C33.4262 53.6503 33.6126 53.5782 33.7846 53.5782C35.992 53.5782 38.4717 53.5782 38.83 53.5493C39.0307 53.5493 39.2314 53.607 39.3747 53.7513C39.4177 53.7946 40.4784 54.8477 41.6108 56.1605C41.7828 56.3625 41.8401 56.6654 41.7255 56.9107C40.4354 59.9835 39.5324 61.6714 38.787 62.3927C38.658 62.5226 38.4717 62.5947 38.2854 62.5947V62.6236ZM34.6446 61.1809H37.97C38.5147 60.5173 39.2744 59.0458 40.2347 56.7808C39.5467 56.0018 38.9017 55.3382 38.5864 55.0064C37.669 55.0064 35.3613 55.0064 34.0713 55.0064C33.7272 55.3382 33.0249 56.0451 32.2939 56.8818C33.0392 58.5409 33.9996 60.3586 34.6446 61.1521V61.1809Z" fill="#93D5FE"/>
<path d="M51.0424 27.3942C51.0424 27.3942 50.899 27.3942 50.813 27.3509C50.512 27.2499 50.3257 26.9758 50.3257 26.6729C50.3257 18.1324 48.3476 15.4924 47.5593 14.771C44.8789 17.0937 41.4818 18.2045 37.4397 18.0747C37.2533 18.0458 37.11 18.0747 36.9237 18.0458C36.1067 18.0026 35.3756 17.916 34.6303 17.7862C34.3436 17.7429 34.0713 17.6996 33.7846 17.6419C33.3976 17.5553 33.1539 17.1803 33.2256 16.7907C33.3116 16.4012 33.6843 16.1416 34.0713 16.2281C34.3293 16.2858 34.5873 16.3291 34.8596 16.3724C35.562 16.4878 36.25 16.5743 36.9093 16.6176C37.1817 16.632 37.325 16.6465 37.4683 16.6465C41.3528 16.7763 44.5492 15.6655 47.0146 13.3428C47.2153 13.1553 47.4876 13.0976 47.7456 13.1841C48.1183 13.314 51.071 14.6412 51.673 23.4125C52.1461 21.8833 52.5331 20.1233 52.8484 18.1613C53.2641 15.4779 52.9057 13.3572 51.802 11.8569C50.469 10.0536 48.448 9.76505 48.4193 9.76505C48.0896 9.72177 47.8316 9.46209 47.8029 9.13028C47.7743 8.89946 46.9573 3.31642 38.9591 1.75836C30.3015 0.0560328 23.7653 5.23514 21.2426 7.91846C21.5006 7.94731 21.7156 8.00502 21.859 8.06273C22.074 8.14928 22.246 8.33683 22.289 8.58208C22.3463 8.8129 22.2746 9.05815 22.117 9.23127C19.1929 12.3762 19.8236 18.118 20.6406 21.8112C20.9416 18.0458 22.0166 13.4871 25.4567 13.1553C25.6001 13.1553 25.7577 13.1697 25.9011 13.2563C25.9011 13.2563 26.0444 13.3428 26.2737 13.4582L26.5604 13.6169C26.7611 13.7179 27.0048 13.8333 27.2771 13.9632L27.7071 14.1507C27.9221 14.2517 28.0941 14.3238 28.2661 14.4104L28.4525 14.4969C28.8108 14.6556 28.9828 15.0884 28.8251 15.4491C28.6675 15.8097 28.2375 15.9829 27.8791 15.8242L27.6928 15.7376C27.4921 15.651 27.2914 15.5645 27.1194 15.4779L26.8184 15.3481C26.8184 15.3481 26.6894 15.2904 26.6751 15.276C26.3741 15.1317 26.1304 15.0163 25.9154 14.9153L25.7147 14.8143C25.5714 14.7422 25.4567 14.6845 25.3707 14.6268C22.0023 15.276 21.8016 23.4702 22.031 26.644C22.0596 27.0047 21.816 27.3221 21.4719 27.3942C21.1279 27.4808 20.7696 27.2932 20.6406 26.9614C20.6263 26.9181 20.2249 25.8938 19.7662 24.2925C18.6769 20.4983 17.4012 13.8622 20.0816 9.5198C20.0099 9.54865 19.9239 9.59193 19.8379 9.63521C19.5656 9.7939 19.1929 9.75062 18.9635 9.5198C18.7342 9.28897 18.7055 8.88503 18.8632 8.61093C19.6229 7.15386 27.4204 -1.93482 39.1884 0.373415C46.8856 1.87377 48.6916 6.82205 49.0786 8.46667C49.9243 8.68306 51.63 9.3034 52.8914 10.9913C54.2531 12.809 54.7118 15.3048 54.2244 18.4065C53.8661 20.6426 53.4074 22.6479 52.8484 24.3502C52.2034 26.2834 51.6587 27.048 51.6014 27.1345C51.458 27.3221 51.243 27.4231 51.028 27.4231V27.3942H51.0424Z" fill="#93D5FE"/>
<path d="M26.8476 62.9697C26.8476 62.9697 26.7329 62.9697 26.6756 62.9697C26.4176 62.8976 26.2026 62.6956 26.1453 62.4215C26.1453 62.3638 24.6832 55.9584 21.5871 51.919C21.5585 51.8757 21.5298 51.8325 21.5155 51.7892C21.3721 51.6449 21.3435 51.4862 21.3578 51.2698C21.3721 51.0679 21.5298 50.9236 21.6875 50.7938L26.3746 47.4468C26.5323 47.3314 26.7473 47.2881 26.9336 47.3314C27.1343 47.3747 27.292 47.4901 27.4066 47.6632L27.5356 47.8796C27.6933 48.1393 27.9083 48.399 28.1376 48.6875C30.0727 50.8803 34.1578 53.6935 34.2008 53.7223C34.3728 53.8522 34.4875 54.0397 34.5161 54.2561C34.5305 54.4725 34.4588 54.6889 34.2868 54.8332C34.2868 54.8332 33.1114 55.944 32.0077 57.2424C31.8071 57.4732 31.6207 57.6608 31.4631 57.8772C30.1444 59.4929 27.4066 62.71 27.4066 62.71C27.2633 62.8687 27.0626 62.9553 26.8619 62.9553V62.9841L26.8476 62.9697ZM23.1065 51.5439C25.2996 54.6456 26.6183 58.6562 27.1916 60.7336C28.109 59.6516 29.4993 57.9926 30.3307 56.9827C30.5027 56.7663 30.7034 56.5355 30.9184 56.3047C31.5491 55.5545 32.2084 54.8764 32.6671 54.4148C31.3627 53.4771 28.6107 51.4141 27.0483 49.6252C26.8906 49.4232 26.7329 49.2357 26.6039 49.0626L23.1208 51.5584H23.1065V51.5439Z" fill="#93D5FE"/>
<path d="M45.7679 62.9697C45.5673 62.9697 45.3666 62.8831 45.2233 62.7244C45.2233 62.7244 42.4712 59.4929 41.1668 57.8916C40.9088 57.5742 40.7225 57.3578 40.5218 57.1414C39.4324 55.8719 38.3718 54.8187 38.3574 54.8043C38.1998 54.6456 38.1281 54.4437 38.1424 54.2273C38.1568 54.0109 38.2714 53.8233 38.4578 53.6935C38.5008 53.6646 42.6575 50.7938 44.5496 48.5721C44.8219 48.2691 45.0369 47.9662 45.1803 47.6921C45.2806 47.5045 45.4526 47.3747 45.6533 47.3314C45.8539 47.2881 46.0689 47.3314 46.241 47.4468L50.8277 50.736C50.9854 50.8515 51.1431 51.0534 51.1717 51.241C51.2004 51.4285 51.1717 51.6593 51.0714 51.818C47.9467 55.8574 46.4703 62.3494 46.456 62.4071C46.3986 62.6667 46.198 62.8831 45.9256 62.9553C45.8683 62.9553 45.8109 62.9553 45.7536 62.9553L45.7679 62.9697ZM39.9771 54.3859C40.3928 54.8332 40.9948 55.4679 41.6112 56.1748C41.8118 56.3912 41.9982 56.6221 42.1989 56.8529C43.0875 57.9349 44.5066 59.6228 45.4239 60.7192C45.9973 58.6418 47.316 54.6456 49.509 51.5295L46.0259 49.0482C45.9113 49.2068 45.7823 49.3511 45.6533 49.5098C44.1052 51.3275 41.2958 53.4482 39.9771 54.3859Z" fill="#93D5FE"/>
</svg>
