<svg width="97" height="88" viewBox="0 0 97 88" fill="none" xmlns="http://www.w3.org/2000/svg">
<path d="M72.3828 39.5445C64.2909 39.5445 57.1402 43.6298 52.8001 49.8702C52.3164 44.9519 52.0942 37.601 51.885 30.9375C51.6889 24.7368 51.5321 19.3822 51.1922 17.2536C50.1072 10.3918 41.4662 0 30.8774 0C20.2886 0 11.7784 7.3113 10.445 17.7692C10.3796 18.2452 10.7195 18.6815 11.1901 18.7476C11.6607 18.8137 12.0921 18.47 12.1575 17.994C13.5824 6.82212 22.8639 1.74519 30.8905 1.74519C40.2504 1.74519 48.4992 11.1719 49.5058 17.5312C49.8326 19.5541 50.0026 25.107 50.1725 30.9904C50.4078 38.7115 50.6824 47.3582 51.3491 52.1971C51.3229 52.25 51.2968 52.3161 51.2575 52.369H51.2314C50.4209 52.1178 49.6235 51.8534 48.8391 51.5757C48.6692 51.5228 48.5123 51.4567 48.3554 51.4039C47.558 51.113 46.7737 50.8221 46.0416 50.5313C46.0024 50.5313 45.9632 50.4916 45.9239 50.4784C45.9109 50.4784 45.8847 50.4519 45.8586 50.4519C45.8324 50.4519 45.8586 50.4519 45.8455 50.4519C45.584 50.3462 45.3487 50.2404 45.1134 50.1611L44.4206 49.8702C44.1722 49.7644 43.9369 49.6719 43.6885 49.5397C41.7538 48.6803 40.355 47.9531 39.6883 47.5962V39.4519C39.6883 39.4519 39.7537 39.3726 39.7798 39.3197C40.0021 39.0288 40.2243 38.7248 40.4335 38.4075C40.5511 38.2224 40.6688 38.024 40.7864 37.8389C40.9041 37.6538 41.0217 37.482 41.1263 37.2837C41.5838 36.4772 42.0022 35.6046 42.3682 34.6791C44.5905 29.113 43.767 23.5998 42.6297 19.8582C42.1852 18.4171 41.7015 17.2272 41.3355 16.4075C41.0871 15.8918 40.6426 15.5877 40.0674 15.5745H39.989C39.8844 15.5745 39.7798 15.601 39.6752 15.6274C39.6491 15.6274 39.6099 15.6274 39.5707 15.6406C39.1654 15.7728 38.8386 16.0901 38.6687 16.5C37.6882 19.0252 35.6358 20.2151 34.0933 20.7572C31.2173 21.7885 27.7138 21.4976 25.1647 20.03C23.6614 19.1707 22.2626 18.9327 20.9945 19.3425C20.2625 19.5805 19.7134 19.9904 19.2951 20.4002C18.6938 20.9952 18.4062 21.5901 18.3931 21.6298C18.3539 21.7091 18.3408 21.7885 18.3277 21.8678C18.014 23.8642 17.8833 25.6094 17.9356 27.3413C17.9356 27.4207 17.9356 27.4868 17.9356 27.5661C17.9617 28.3065 18.014 29.0204 18.0924 29.6947C18.0924 29.8005 18.1186 29.9195 18.1317 30.0385C18.2232 30.7392 18.3539 31.4002 18.4977 32.0349C18.5238 32.1406 18.55 32.2596 18.5761 32.3654C18.733 32.9868 18.916 33.5685 19.1121 34.1238C19.1513 34.2163 19.1775 34.3221 19.2167 34.4147C19.4258 34.9567 19.6481 35.4591 19.8834 35.9483C19.9226 36.0409 19.9749 36.1202 20.0141 36.2127C20.2625 36.6887 20.5239 37.125 20.7854 37.5349C20.8377 37.6142 20.8769 37.6803 20.9292 37.7596C21.2037 38.1562 21.4782 38.5397 21.7658 38.8834C21.8181 38.9495 21.8704 39.0156 21.9358 39.0817C22.2234 39.4123 22.511 39.7296 22.7986 40.0204L22.9816 40.2055C23.2692 40.4832 23.5437 40.7344 23.8182 40.9591L23.8967 41.0385V47.5962C23.8967 47.5962 23.7659 47.6755 23.6875 47.7151C23.5829 47.768 23.4783 47.8209 23.3607 47.8738L23.1777 47.9663C22.8901 48.1118 22.5502 48.2837 22.1711 48.4688C22.1449 48.4688 22.1188 48.4952 22.1057 48.5084C21.9488 48.5745 21.7789 48.6538 21.6482 48.7332C20.6808 49.1827 19.3605 49.7909 17.7656 50.4387H17.7395C16.7983 50.8221 15.7655 51.2055 14.6544 51.6022C14.0922 51.8005 13.4909 51.9988 12.8765 52.1971C12.7327 52.25 12.5758 52.2897 12.4189 52.3425L9.86979 53.0962C9.72599 53.1358 9.59527 53.1755 9.45147 53.2019C9.63448 50.9543 9.92208 48.125 10.2489 44.9255C10.5888 41.5805 10.9548 37.9183 11.2686 34.2957C11.3078 33.8197 10.9548 33.3966 10.4842 33.357C10.0136 33.3173 9.59527 33.6743 9.55605 34.1502C9.24231 37.7728 8.87628 41.4219 8.53639 44.7536C8.18343 48.2837 7.86969 51.351 7.68667 53.7308C0.117653 56.2428 0 64.1226 0 64.4663V75.744C0 76.22 0.379105 76.6166 0.86279 76.6166L18.7853 76.6034C19.2559 76.6034 19.6481 76.22 19.6481 75.7308C19.6481 75.2416 19.269 74.8582 18.7853 74.8582H1.71251V64.4531C1.71251 64.149 1.79094 57.1286 8.73248 55.1851C8.74555 55.1851 8.8632 55.1454 8.87627 55.1454C8.95471 55.1322 9.03314 55.1058 9.05929 55.0925C9.26845 55.0397 9.47761 54.9868 9.69985 54.9207C9.92208 54.8678 10.1443 54.8017 10.3927 54.7356L13.1771 53.9159C13.1771 53.9159 13.2948 53.8762 13.3732 53.8498L13.4909 53.8101C13.9484 53.6647 14.406 53.5192 14.8374 53.3606L15.1903 53.2416C16.0531 52.9375 16.8505 52.6334 17.6088 52.3425L19.8442 57.3666L18.1317 60.0901C17.9225 60.4207 17.9617 60.8438 18.2101 61.1346L30.263 74.8582H24.7987C24.3281 74.8582 23.9359 75.2416 23.9359 75.7308C23.9359 76.22 24.315 76.6034 24.7987 76.6034H52.0942C56.3297 83.4387 63.8334 88 72.3828 88C85.5861 88 96.3318 77.1322 96.3318 63.7656C96.3318 50.399 85.5861 39.5445 72.3828 39.5445ZM42.9695 51.0733C43.231 51.2055 43.4794 51.3245 43.7539 51.4435L44.1199 51.6022C44.1984 51.6418 44.2899 51.6683 44.3683 51.7079L41.976 57.0757C41.8584 57.3401 41.8845 57.6575 42.0283 57.8954L43.6493 60.4603L33.5442 71.9627L39.3876 49.3546C40.172 49.7644 41.3747 50.3726 42.9695 51.0733ZM19.6611 27.3149C19.6219 25.7019 19.7265 24.1022 20.001 22.3041C20.0925 22.1454 20.3148 21.8281 20.6416 21.5373C20.8769 21.3257 21.1645 21.1274 21.5305 21.0084H21.5436C22.3279 20.744 23.2692 20.9291 24.3281 21.5505C25.0209 21.9471 25.7791 22.2644 26.5765 22.5156C26.6288 22.5288 26.6811 22.5553 26.7334 22.5685C26.8511 22.6082 26.9818 22.6214 27.1125 22.6611C27.4263 22.7404 27.7269 22.8197 28.0407 22.8858H28.093C28.5113 22.9651 28.9427 23.018 29.3741 23.0577C29.6224 23.0841 29.8577 23.0709 30.1061 23.0841C30.3153 23.0841 30.5245 23.1106 30.7336 23.0974C32.0932 23.0709 33.4527 22.8462 34.6946 22.3966C37.1915 21.4976 39.0216 19.8846 40.0413 17.7031C40.6688 19.1707 41.4793 21.4844 41.8584 24.2212C42.2636 27.1562 42.1721 30.5938 40.7864 34.0312C40.4073 34.9832 39.9759 35.8558 39.4922 36.6755C39.087 37.3498 38.6556 37.9976 38.1719 38.5793C38.1719 38.5793 38.1588 38.619 38.1458 38.6322C38.1458 38.6322 38.1458 38.6454 38.1458 38.6587C37.9497 38.8966 37.7405 39.1214 37.5444 39.3329C37.4921 39.3858 37.4398 39.4519 37.3876 39.5048C36.564 40.3377 35.675 41.012 34.76 41.488C32.6684 42.5853 30.1715 42.5986 27.8838 41.488C27.204 41.1575 26.5765 40.7873 25.9883 40.3774C25.766 40.232 25.5307 40.0865 25.3216 39.9147C21.6874 37.125 19.7919 32.8942 19.6742 27.3149H19.6611ZM19.9618 60.4603L21.5828 57.8954C21.7397 57.6442 21.7658 57.3401 21.6351 57.0757L19.2428 51.6947C20.4978 51.1659 21.5697 50.6767 22.3802 50.2933C22.5633 50.2139 22.7463 50.1214 22.9031 50.0421C22.9293 50.0288 22.9554 50.0156 22.9946 49.9892C23.3607 49.8041 23.6875 49.6454 23.962 49.5H23.9751L24.1712 49.3942C24.1712 49.3942 24.2104 49.381 24.2235 49.3678L30.0669 71.9627L19.9618 60.4603ZM25.6615 48.0192V42.2416C25.8445 42.3606 26.0536 42.4531 26.2497 42.5721C26.5373 42.7308 26.8118 42.9026 27.1256 43.0481C27.8184 43.3786 28.5374 43.6298 29.2564 43.7885C29.3348 43.7885 29.4264 43.8149 29.5048 43.8281C29.7793 43.881 30.0538 43.9339 30.3153 43.9736C30.4591 43.9868 30.6029 43.9868 30.7467 44C30.9558 44.0132 31.165 44.0397 31.3611 44.0397H31.3872C31.5964 44.0397 31.7925 44.0132 32.0016 44C32.1585 44 32.3023 44 32.4592 43.9736C32.6684 43.9471 32.8644 43.9075 33.0605 43.8678C33.2174 43.8413 33.3612 43.8149 33.5181 43.7885C33.6619 43.7488 33.8057 43.6959 33.9495 43.6562C34.4854 43.4976 35.0214 43.2993 35.5312 43.0349C35.9365 42.8233 36.3287 42.5853 36.7078 42.3209C36.8385 42.2284 36.9562 42.1358 37.0869 42.0433C37.3353 41.8582 37.5836 41.6599 37.832 41.4615C37.8843 41.4087 37.9497 41.3822 38.002 41.3293V48.0325L31.8317 71.8702L25.6615 48.0192ZM33.322 74.8582L45.3749 61.1346C45.6363 60.8438 45.6625 60.4207 45.4533 60.0901L43.7408 57.3666L45.9762 52.3425C47.4404 52.9243 48.9698 53.4399 50.5124 53.9291C49.179 56.9435 48.4208 60.2752 48.4208 63.7789C48.4208 67.7716 49.4012 71.5397 51.1007 74.8582H33.322ZM53.1923 52.9375C56.9572 46.1418 64.1471 41.5276 72.3828 41.5276C84.5142 41.5276 94.3709 51.5096 94.3709 63.7656C94.3709 76.0216 84.5011 86.0168 72.3828 86.0168C64.9837 86.0168 58.4344 82.2885 54.4473 76.6034L53.3361 74.8582C51.4667 71.5926 50.3817 67.8113 50.3817 63.7789C50.3817 60.4736 51.1137 57.3401 52.4079 54.5108" fill="#93D5FE"/>
<path d="M72.3945 72.0688L72.3945 55.3792" stroke="#93D5FE" stroke-width="2" stroke-linecap="round" stroke-linejoin="round"/>
<path d="M79.5472 62.5322L72.3945 55.3795" stroke="#93D5FE" stroke-width="2" stroke-linecap="round" stroke-linejoin="round"/>
<path d="M65.2412 62.5322L72.3939 55.3795" stroke="#93D5FE" stroke-width="2" stroke-linecap="round" stroke-linejoin="round"/>
</svg>
