<svg width="88" height="88" viewBox="0 0 88 88" fill="none" xmlns="http://www.w3.org/2000/svg">
<path d="M44 88C19.7396 88 0 68.2604 0 44C0 35.994 2.17411 28.1539 6.28334 21.3295C6.75468 20.5429 7.77701 20.2906 8.56035 20.7652C9.34701 21.2366 9.59928 22.2589 9.12462 23.0422C5.32408 29.3488 3.31593 36.5981 3.31593 44C3.31593 66.4315 21.5652 84.6807 43.9967 84.6807C66.4282 84.6807 84.6774 66.4315 84.6774 44C84.6774 21.5685 66.4315 3.31925 44 3.31925C34.1053 3.31925 24.5691 6.914 17.1473 13.4397C16.4602 14.0438 15.4113 13.9774 14.8039 13.2903C14.1998 12.6032 14.2661 11.5543 14.9532 10.9469C22.9825 3.88684 33.2987 0 44 0C68.2604 0 88 19.7396 88 44C88 68.2604 68.2604 88 44 88Z" fill="#93D5FE"/>
<path d="M54.9527 55.5113L45.3866 45.9452V22.8266C45.3866 21.9105 44.6431 21.167 43.727 21.167C42.8109 21.167 42.0674 21.9105 42.0674 22.8266V46.536C42.0674 46.6655 42.0873 46.7916 42.1139 46.9144C42.167 47.2463 42.3163 47.5683 42.5752 47.8272L52.606 57.858C52.9313 58.1833 53.3562 58.3426 53.781 58.3426C54.2059 58.3426 54.6308 58.18 54.956 57.858C55.6033 57.2107 55.6033 56.1585 54.956 55.5113H54.9527Z" fill="#93D5FE"/>
</svg>
