<svg width="88" height="88" viewBox="0 0 88 88" fill="none" xmlns="http://www.w3.org/2000/svg">
<path d="M44.9883 61.2207L44.9883 27.7678" stroke="#93D5FE" stroke-width="3" stroke-linecap="round" stroke-linejoin="round"/>
<path d="M59.3253 42.105L44.9883 27.768" stroke="#93D5FE" stroke-width="3" stroke-linecap="round" stroke-linejoin="round"/>
<path d="M30.6523 42.105L44.9893 27.768" stroke="#93D5FE" stroke-width="3" stroke-linecap="round" stroke-linejoin="round"/>
<path d="M44 88C19.7396 88 0 68.2604 0 44C0 35.994 2.17079 28.1539 6.28334 21.3295C6.75468 20.5429 7.77701 20.2906 8.56035 20.7652C9.34701 21.2366 9.59928 22.2589 9.12462 23.0422C5.3274 29.3488 3.31925 36.5981 3.31925 44C3.31925 66.4315 21.5685 84.6807 44 84.6807C66.4315 84.6807 84.6807 66.4315 84.6807 44C84.6807 21.5685 66.4315 3.31925 44 3.31925C34.1053 3.31925 24.5691 6.914 17.1473 13.4397C16.4602 14.0438 15.4113 13.9774 14.8039 13.2903C14.1998 12.6032 14.2661 11.5543 14.9532 10.9469C22.9825 3.88684 33.2987 0 44 0C68.2604 0 88 19.7396 88 44C88 68.2604 68.2604 88 44 88Z" fill="#93D5FE"/>
</svg>
