<svg width="92" height="88" viewBox="0 0 92 88" fill="none" xmlns="http://www.w3.org/2000/svg">
<path d="M47.6634 88C41.8062 88 36.0084 86.8283 30.6007 84.5248C29.7611 84.1664 29.3677 83.1938 29.7247 82.3508C30.0817 81.5077 31.0502 81.1127 31.8898 81.4712C38.818 84.4186 46.7577 85.3712 54.2578 84.1464C61.2984 82.998 67.9556 79.9543 73.5088 75.344C78.9628 70.8167 83.1607 64.8986 85.6497 58.2271C88.304 51.1141 88.9023 43.3771 87.3851 35.8559C85.967 28.8292 82.6748 22.2639 77.8687 16.867C73.1287 11.5497 67.0499 7.56002 60.287 5.33286C53.1769 2.98953 45.5347 2.68748 38.1933 4.45328C31.2552 6.12282 24.8393 9.65109 19.6398 14.663C14.4734 19.6418 10.7018 25.925 8.73509 32.8388C8.48387 33.7217 7.56826 34.2295 6.69231 33.9773C5.81306 33.725 5.30733 32.8056 5.55854 31.926C7.68395 24.4479 11.7629 17.6503 17.3524 12.2666C22.9684 6.8464 29.9098 3.02936 37.4198 1.22373C45.3595 -0.68479 53.6232 -0.356193 61.315 2.17633C68.6299 4.58604 75.2045 8.89764 80.3312 14.6498C85.5307 20.4848 89.0907 27.5912 90.6245 35.1921C92.264 43.3273 91.6161 51.6916 88.7436 59.3888C86.053 66.6013 81.5113 73.004 75.6144 77.8998C69.6084 82.8852 62.4091 86.1745 54.7867 87.4191C52.4167 87.8042 50.0368 87.9967 47.6634 87.9967V88Z" fill="#93D5FE"/>
<path d="M58.4099 55.5119L48.8836 45.946V22.828C48.8836 21.912 48.1432 21.1685 47.2309 21.1685C46.3185 21.1685 45.5781 21.912 45.5781 22.828V46.5368C45.5781 46.6663 45.598 46.7924 45.6244 46.9152C45.6773 47.2471 45.826 47.5691 46.0839 47.828L56.0729 57.8585C56.3969 58.1838 56.82 58.3431 57.2431 58.3431C57.6662 58.3431 58.0893 58.1805 58.4132 57.8585C59.0578 57.2113 59.0578 56.1591 58.4132 55.5119H58.4099Z" fill="#93D5FE"/>
<path d="M35.7087 45.0901C35.0211 44.7117 34.3038 44.3765 33.5733 44.0877C32.8527 43.8056 32.1057 43.5633 31.3521 43.3708C30.605 43.1816 29.8415 43.0355 29.0779 42.9426C27.5541 42.7534 25.9972 42.7534 24.4734 42.9426C23.7099 43.0388 22.943 43.1816 22.1993 43.3708C21.4489 43.5633 20.7019 43.8022 19.978 44.0877C19.2475 44.3765 18.5269 44.7117 17.8394 45.0901C17.8162 45.1034 17.7964 45.1166 17.7766 45.1299C17.7633 45.1399 17.7468 45.1498 17.7336 45.1565C17.6807 45.1963 17.6278 45.2361 17.5815 45.2826C17.5749 45.2892 17.5683 45.2959 17.565 45.3025C17.5254 45.3457 17.489 45.3888 17.4559 45.4353C17.446 45.4485 17.4361 45.4651 17.4262 45.4784C17.3898 45.5348 17.3568 45.5913 17.3336 45.651C17.3336 45.6543 17.3303 45.661 17.327 45.6676C17.3039 45.724 17.2874 45.7838 17.2708 45.8435C17.2675 45.8634 17.2642 45.88 17.2609 45.9C17.2477 45.9663 17.2411 46.036 17.2411 46.1057V69.7814C17.0989 69.7216 16.9601 69.6552 16.8147 69.5988C16.0908 69.3134 15.3438 69.0744 14.5934 68.8819C13.8464 68.6927 13.0828 68.5466 12.3193 68.4537C10.7954 68.2645 9.23857 68.2645 7.71476 68.4537C6.9512 68.5499 6.18433 68.6927 5.44061 68.8819C4.69027 69.0711 3.94323 69.3134 3.21934 69.5988C3.0772 69.6552 2.93838 69.7216 2.79624 69.7814V46.8094C3.21273 46.6036 3.63583 46.4144 4.06554 46.2451C4.69688 45.9962 5.35136 45.7871 6.00914 45.6178C6.66362 45.4519 7.33463 45.3257 8.00233 45.2428C9.33774 45.0768 10.7029 45.0768 12.0383 45.2428C12.6729 45.3224 13.2514 44.871 13.3274 44.2337C13.4068 43.5965 12.9572 43.0156 12.3226 42.9393C10.7987 42.7501 9.24188 42.7501 7.71806 42.9393C6.9545 43.0355 6.18764 43.1782 5.44391 43.3674C4.69357 43.5599 3.94654 43.7989 3.22264 44.0844C2.49214 44.3731 1.77486 44.7084 1.08401 45.0868C0.713804 45.2892 0.482422 45.6809 0.482422 46.1057V71.6202C0.482422 71.6401 0.485727 71.6567 0.489033 71.6733C0.489033 71.7131 0.495644 71.7563 0.502255 71.7961C0.508866 71.8326 0.515476 71.8691 0.525393 71.9056C0.535309 71.9421 0.545226 71.9753 0.558447 72.0118C0.571669 72.0517 0.588196 72.0882 0.608029 72.128C0.61464 72.1446 0.621251 72.1612 0.627862 72.1778C0.637778 72.1911 0.647695 72.2043 0.657611 72.2176C0.677444 72.2541 0.703887 72.2873 0.727026 72.3205C0.750164 72.3504 0.769997 72.3769 0.79644 72.4035C0.822884 72.43 0.849327 72.4566 0.875771 72.4832C0.902215 72.5064 0.931964 72.5329 0.961713 72.5529C0.991462 72.5728 1.02452 72.596 1.05427 72.6126C1.08732 72.6325 1.11707 72.6491 1.15012 72.6657C1.18318 72.6823 1.21954 72.6956 1.2559 72.7089C1.29226 72.7221 1.32531 72.7321 1.36167 72.742C1.39473 72.752 1.43109 72.7553 1.46745 72.762C1.50711 72.7686 1.55008 72.7719 1.59306 72.7752C1.60958 72.7752 1.62611 72.7786 1.64264 72.7786C1.65916 72.7786 1.67569 72.7752 1.69552 72.7719C1.7385 72.7719 1.78147 72.7653 1.82444 72.7586C1.8608 72.752 1.89385 72.7454 1.92691 72.7387C1.96327 72.7288 1.99963 72.7188 2.03599 72.7055C2.07565 72.6923 2.11201 72.6757 2.14837 72.6591C2.1649 72.6524 2.18143 72.6458 2.19795 72.6358C2.79955 72.3039 3.43089 72.0085 4.06884 71.7563C4.70349 71.5073 5.35797 71.2949 6.01245 71.1289C6.66693 70.963 7.33794 70.8368 8.00564 70.7539C9.34104 70.5879 10.7062 70.5879 12.0416 70.7539C12.7126 70.8368 13.3803 70.963 14.0348 71.1289C14.6926 71.2949 15.3471 71.5073 15.9784 71.7563C16.4081 71.9255 16.8312 72.1214 17.2477 72.3272V78.1357C17.2477 78.7763 17.7667 79.2974 18.4046 79.2974C19.0426 79.2974 19.5615 78.7763 19.5615 78.1357V46.8028C19.978 46.597 20.4011 46.4078 20.8308 46.2385C21.4622 45.9896 22.1166 45.7805 22.7744 45.6112C23.4289 45.4452 24.0966 45.3191 24.7676 45.2361C26.103 45.0702 27.4682 45.0702 28.8036 45.2361C29.4713 45.3191 30.1423 45.4452 30.7968 45.6112C31.4545 45.7805 32.109 45.9896 32.7404 46.2385C33.1701 46.4078 33.5932 46.597 34.0097 46.8028V69.7648C33.8675 69.705 33.7287 69.6486 33.5866 69.5922C32.866 69.3067 32.1189 69.0677 31.3653 68.8752C30.6183 68.686 29.8547 68.54 29.0911 68.447C27.5673 68.2579 26.0105 68.2579 24.4866 68.447C23.852 68.5267 23.4025 69.1076 23.4818 69.7415C23.5611 70.3788 24.1363 70.8335 24.7709 70.7505C26.1063 70.5846 27.4715 70.5846 28.8069 70.7505C29.4746 70.8335 30.1456 70.9597 30.8001 71.1256C31.4578 71.2916 32.1123 71.504 32.7437 71.7529C33.3816 72.0052 34.013 72.3006 34.6146 72.6325C34.9715 72.8283 35.4079 72.8217 35.7582 72.6126C36.1086 72.4035 36.3268 72.0251 36.3268 71.6135V46.0991C36.3268 45.6743 36.0987 45.2826 35.7252 45.0801L35.7087 45.0901Z" fill="#93D5FE"/>
</svg>
