<svg width="73" height="88" viewBox="0 0 73 88" fill="none" xmlns="http://www.w3.org/2000/svg">
<path d="M12.5132 87.9714C12.1119 87.9714 11.7966 87.654 11.7966 87.2501V78.7096C11.7966 78.3057 12.1119 77.9883 12.5132 77.9883C12.9146 77.9883 13.2299 78.3057 13.2299 78.7096V87.2501C13.2299 87.654 12.9146 87.9714 12.5132 87.9714Z" fill="#93D5FE"/>
<path d="M36.1782 47.6055C33.9852 47.6055 31.7778 46.8697 29.9431 45.3838C29.255 44.8356 28.61 44.2297 28.0223 43.5805C24.9836 40.2768 23.1776 36.0066 22.1885 33.0203C21.0275 29.558 20.6262 26.8891 20.6118 26.7736C20.5115 25.3887 19.8665 13.6888 25.4566 13.1406C25.5999 13.1406 25.7576 13.1551 25.901 13.2416C25.901 13.2416 26.0443 13.3282 26.2736 13.4436L26.5603 13.6023C26.761 13.7033 27.0047 13.8187 27.277 13.9485C27.4777 14.0495 27.5637 14.0928 27.664 14.1216C27.922 14.237 28.094 14.3092 28.266 14.3957L28.4524 14.4823C28.8107 14.641 28.9827 15.0738 28.825 15.4344C28.6674 15.7951 28.2373 15.9682 27.879 15.8095L27.6927 15.723C27.492 15.6364 27.2913 15.5498 27.1193 15.4633C27.0477 15.4489 26.89 15.3767 26.7466 15.3046C26.374 15.1315 26.1303 15.0016 25.9153 14.9007L25.7146 14.7997C25.5713 14.7275 25.4566 14.6698 25.3706 14.6121C22.0022 15.2613 21.8015 23.4556 22.0309 26.6294C22.2602 29.8032 22.4322 29.2406 23.5359 32.5731C24.4819 35.4295 26.202 39.4978 29.0544 42.6139C29.5991 43.2054 30.2011 43.768 30.8317 44.273C33.9852 46.812 38.3713 46.812 41.496 44.273C42.2127 43.6959 42.8864 43.0323 43.5744 42.2677C43.9614 41.8205 44.3341 41.3588 44.6638 40.8827C44.8931 40.5509 45.3375 40.4788 45.6671 40.7096C45.9968 40.9404 46.0685 41.3877 45.8391 41.7195C45.4808 42.2244 45.0938 42.7293 44.6638 43.2198C43.9327 44.0421 43.1731 44.7779 42.4134 45.3982C40.5787 46.8841 38.3856 47.6199 36.1925 47.6199H36.1782V47.6055Z" fill="#93D5FE"/>
<path d="M48.5052 36.1785C48.4192 36.1785 48.3189 36.1641 48.2329 36.1208C47.8746 35.9621 47.6882 35.5437 47.8459 35.1831C48.2329 34.2453 48.5626 33.3653 48.8206 32.5719C48.8206 32.543 48.8206 32.5286 48.8206 32.4997C49.9243 29.1816 50.3113 26.5849 50.3113 26.556C50.3113 18.1021 48.3332 15.4765 47.5306 14.7552C44.8502 17.0778 41.4531 18.1887 37.411 18.0588C37.2676 18.03 37.0383 18.0444 36.8519 18.03C36.0779 17.9867 35.3469 17.9001 34.6016 17.7847L33.7845 17.6405C33.3975 17.5828 33.1252 17.2077 33.1825 16.8182C33.2399 16.4286 33.6125 16.1545 33.9995 16.2122L34.8166 16.3565C35.5189 16.4719 36.2069 16.5585 36.8663 16.6018C37.11 16.6018 37.2676 16.6306 37.4253 16.6306C41.3097 16.7604 44.5061 15.6496 46.9715 13.3269C47.1722 13.1394 47.4446 13.0817 47.7026 13.1683C48.1182 13.3125 51.7303 14.9427 51.7303 26.657C51.7017 26.8734 51.3147 29.4702 50.1966 32.8892C50.1966 32.9181 50.1966 32.9325 50.1966 32.9614C49.9243 33.7981 49.5659 34.7358 49.1646 35.7168C49.0499 35.9909 48.7776 36.1641 48.5052 36.1641V36.1785Z" fill="#93D5FE"/>
<path d="M50.2115 33.6977C49.7671 33.6977 49.3801 33.5679 49.0648 33.3082C48.9071 33.1784 48.8068 32.962 48.8068 32.76C48.8068 32.6879 48.8068 32.5869 48.8498 32.5148C49.9535 29.1967 50.3405 26.5999 50.3405 26.5711C50.3405 26.4557 50.3978 26.3402 50.4695 26.2537C50.4695 26.2537 50.9425 25.5756 51.5158 23.8733C51.6162 23.5848 51.8885 23.3828 52.1895 23.3828C52.8776 23.3828 53.9382 23.6858 54.6263 24.5369C55.3143 25.3737 55.515 26.5278 55.2283 27.956C54.6119 31.0144 52.7342 32.962 51.1432 33.5391C50.8135 33.6545 50.4982 33.7122 50.2115 33.7122V33.6977ZM51.7309 26.9462C51.6305 27.5232 51.2722 29.5862 50.4408 32.2262C50.5125 32.2262 50.5842 32.1974 50.6702 32.1685C51.6449 31.8223 53.2932 30.3364 53.8236 27.6675C54.0242 26.672 53.9239 25.9219 53.5226 25.4458C53.2789 25.1573 52.9492 24.9842 52.6769 24.8976C52.2612 26.0373 51.9029 26.672 51.7309 26.9462Z" fill="#93D5FE"/>
<path d="M22.2316 33.6998C21.9019 33.6998 21.5293 33.6277 21.1566 33.469C19.6229 32.8487 17.8168 30.9011 17.2291 27.9437C16.9425 26.5443 17.1575 25.3902 17.8598 24.5535C18.6625 23.5869 19.9382 23.3416 20.4829 23.3561C20.7982 23.3561 21.0706 23.5725 21.1566 23.8754C21.5866 25.4046 21.9736 26.3856 21.9736 26.4C21.9879 26.4578 22.0023 26.501 22.0166 26.5587C22.0166 26.5876 22.4036 29.2132 23.536 32.5457C23.6363 32.8487 23.536 33.1805 23.2636 33.368C22.9626 33.57 22.6043 33.6854 22.2173 33.6854H22.2316V33.6998ZM19.9525 24.8708C19.6372 24.9574 19.2359 25.1305 18.9635 25.4768C18.5622 25.9673 18.4475 26.703 18.6482 27.6551C19.1212 30.0644 20.5546 31.6657 21.7013 32.1274C21.7873 32.1562 21.8589 32.1851 21.9306 32.1995C21.0562 29.4152 20.6979 27.3089 20.6262 26.8617C20.5402 26.6309 20.2679 25.924 19.9669 24.8708H19.9525Z" fill="#93D5FE"/>
<path d="M33.785 55.035C33.6417 55.035 33.4984 54.9917 33.3837 54.9051C33.2117 54.7897 29.1122 51.9621 27.0482 49.6106C26.8762 49.4087 26.8188 49.1346 26.9049 48.8893C27.2202 47.9804 27.7649 46.004 27.8222 43.061C27.8222 42.7725 28.0085 42.5128 28.2809 42.3974C28.5532 42.2964 28.8686 42.3685 29.0549 42.5849C29.5996 43.1764 30.2016 43.7391 30.8323 44.244C33.9857 46.783 38.3718 46.783 41.4966 44.244C42.2132 43.6669 42.8869 43.0033 43.5749 42.2387C43.7756 42.0079 44.0766 41.9357 44.3633 42.0367C44.6356 42.1377 44.822 42.4118 44.8363 42.7004C44.865 45.6001 45.3667 47.6054 45.7823 48.7739C45.8683 49.0191 45.8253 49.2932 45.6533 49.4808C43.6323 51.8467 39.4468 54.732 39.2748 54.8619C39.1602 54.934 39.0455 54.9773 38.9165 54.9917C38.4291 55.0206 35.1754 55.0206 33.785 55.0206V55.035ZM28.3956 48.9614C30.1729 50.8513 33.2403 53.0586 34.0144 53.5923C35.9064 53.5923 37.9561 53.5923 38.6441 53.5923C39.4038 53.0586 42.5572 50.7936 44.306 48.8893C43.9763 47.865 43.6323 46.3935 43.4889 44.4604C43.1306 44.7922 42.7723 45.1096 42.4139 45.3981C38.7588 48.37 33.6274 48.37 29.9436 45.3981C29.6856 45.1817 29.4276 44.9653 29.1696 44.7345C29.0119 46.6532 28.6679 48.0814 28.3956 48.9614Z" fill="#93D5FE"/>
<path d="M60.4164 87.9714C60.0151 87.9714 59.6997 87.654 59.6997 87.2501V78.7096C59.6997 78.3057 60.0151 77.9883 60.4164 77.9883C60.8178 77.9883 61.1331 78.3057 61.1331 78.7096V87.2501C61.1331 87.654 60.8178 87.9714 60.4164 87.9714Z" fill="#93D5FE"/>
<path d="M30.7458 87.9691H0.716691C0.516019 87.9691 0.329681 87.8825 0.200677 87.7382C0.0716742 87.594 5.72205e-06 87.4064 5.72205e-06 87.2045C1.26137 65.0165 4.51512 58.2938 4.54379 58.2361C4.68712 57.9764 4.81613 57.7167 9.44591 55.7836C9.80426 55.6249 10.2343 55.7836 10.3776 56.1731C10.5353 56.5338 10.3489 56.9666 9.99059 57.1108C6.86585 58.4092 5.99149 58.8853 5.74782 59.0295C5.34648 59.9673 2.63741 67.0507 1.46204 86.512H30.0148C30.0434 83.9729 30.2728 81.0299 30.6741 77.7551C30.7171 77.3656 31.0755 77.0771 31.4768 77.1348C31.8638 77.1781 32.1505 77.5387 32.0932 77.9427C31.6631 81.4771 31.4338 84.6077 31.4338 87.2477C31.4338 87.6517 31.1185 87.9691 30.7171 87.9691H30.7458Z" fill="#93D5FE"/>
<path d="M32.3941 72.031H32.2651C31.8781 71.9589 31.6201 71.5838 31.6774 71.1943C32.4514 66.7654 33.2685 63.2309 33.5265 62.1201C32.7238 61.1391 31.7921 59.2925 31.2474 58.1239C29.8714 59.7974 27.3773 62.7404 27.3773 62.7404C27.2053 62.9424 26.9186 63.0434 26.6606 62.9712C26.4026 62.8991 26.1876 62.6971 26.1303 62.423C26.1303 62.3653 24.7542 56.3927 21.8875 52.3389C20.5545 52.8583 18.6194 53.6084 16.541 54.4452C16.1684 54.5894 15.7527 54.4163 15.6093 54.0412C15.466 53.6661 15.638 53.2478 16.0107 53.1035C18.3758 52.1514 20.5688 51.3002 21.8875 50.7953C22.1885 50.6799 22.5182 50.7953 22.7045 51.0261C25.1269 54.1999 26.5603 58.5423 27.1766 60.7351C28.094 59.6531 29.4844 57.9941 30.3157 56.9842C30.4877 56.7678 30.6884 56.537 30.9034 56.3062C31.0754 56.1331 31.3191 56.0465 31.5484 56.0898C31.7921 56.1331 31.9928 56.2918 32.0931 56.5082C32.9245 58.4269 34.1428 60.7351 34.8165 61.3987C35.0028 61.5719 35.0745 61.8315 35.0028 62.0912C35.0028 62.1345 34.0138 66.145 33.0821 71.454C33.0248 71.8002 32.7238 72.0455 32.3798 72.0455H32.3941V72.031Z" fill="#93D5FE"/>
<path d="M71.1238 75.3176C70.7655 75.3176 70.4501 75.0435 70.4071 74.6828C70.2208 73.1104 70.0201 71.6389 69.8051 70.326C69.7478 69.9365 70.0058 69.5614 70.3928 69.5037C70.7798 69.4316 71.1525 69.7057 71.2098 70.0952C71.4248 71.4369 71.6255 72.9228 71.8118 74.5097C71.8548 74.8992 71.5682 75.2599 71.1812 75.3032H71.0952H71.1238V75.3176Z" fill="#93D5FE"/>
<path d="M72.2132 87.9728H41.8687C41.4674 87.9728 41.152 87.6554 41.152 87.2514C41.152 76.5614 37.6259 62.2215 37.5829 62.0772C37.5256 61.832 37.5829 61.5579 37.7836 61.3848C38.357 60.8221 39.2457 59.1342 40.4067 56.3788C40.507 56.148 40.7077 55.9893 40.9514 55.946C41.195 55.9027 41.4387 55.9893 41.6107 56.1768C41.8114 56.4076 42.0121 56.6385 42.1984 56.8693C43.0871 57.9513 44.5061 59.6392 45.4235 60.7356C46.0255 58.5716 47.4302 54.3158 49.7809 51.1564C49.7809 51.1131 49.8096 51.0698 49.8239 51.041C49.9816 50.7236 50.3113 50.5361 50.6553 50.6515L50.5263 51.1997L50.813 50.7092C67.9274 57.4175 68.1997 57.908 68.4004 58.2686C68.6441 58.7159 69.2891 60.3749 69.9914 63.4622C70.0774 63.8517 69.8338 64.2412 69.4468 64.3278C69.0597 64.4143 68.6727 64.1691 68.5867 63.7796C67.913 60.7789 67.354 59.4228 67.182 59.0621C66.4223 58.5716 61.7496 56.5519 50.7699 52.2384C47.8459 56.2922 46.4842 62.3513 46.4698 62.4235C46.4125 62.6831 46.2118 62.8995 45.9395 62.9717C45.6815 63.0294 45.3948 62.9428 45.2228 62.7409C45.2228 62.7409 42.6141 59.668 41.2667 58.0234C40.3637 60.0864 39.6613 61.3848 39.0737 62.1205C39.6183 64.4143 42.4421 76.7634 42.5854 86.5445H71.4535C71.3388 84.6835 71.2241 82.9523 71.0665 81.3077C71.0235 80.9182 71.3245 80.5575 71.7115 80.5287C72.0985 80.4998 72.4568 80.7884 72.4855 81.1779C72.6575 83.0533 72.7865 85.073 72.9155 87.237C72.9155 87.439 72.8582 87.6265 72.7292 87.7708C72.6002 87.915 72.3995 88.0016 72.2132 88.0016V87.9728Z" fill="#93D5FE"/>
<path d="M41.8692 87.972H30.7462C30.3449 87.972 30.0295 87.6547 30.0295 87.2507C30.0295 84.553 30.2589 81.3647 30.6889 77.7725C30.7319 77.383 31.0902 77.0945 31.4916 77.1522C31.8786 77.1955 32.1652 77.5561 32.1079 77.9601C31.7066 81.1772 31.4916 84.0625 31.4629 86.5438H41.1381C41.0091 77.1378 38.3431 65.2936 37.7124 62.6392H34.8887C34.5876 63.9087 33.828 67.2845 33.0969 71.4537C33.0253 71.8432 32.6526 72.1173 32.2656 72.0452C31.8786 71.9731 31.6206 71.598 31.6779 71.2085C32.6239 65.8563 33.613 61.788 33.6273 61.7591C33.7133 61.4418 34 61.2109 34.3296 61.2109H38.2857C38.6154 61.2109 38.9021 61.4418 38.9881 61.7591C39.0168 61.9034 42.5858 76.4164 42.5858 87.2796C42.5858 87.6835 42.2705 88.0009 41.8692 88.0009V87.972Z" fill="#93D5FE"/>
<path d="M38.285 62.625H34.3289C34.1426 62.625 33.9562 62.5529 33.8272 62.4231C32.6232 61.2401 30.9748 57.5036 30.7885 57.0708C30.6738 56.8112 30.7168 56.5226 30.9031 56.3062C32.0642 54.9501 33.2395 53.8249 33.2969 53.7816C33.4259 53.6518 33.6122 53.5796 33.7842 53.5796C35.9916 53.5796 38.4713 53.5796 38.8297 53.5508C39.0304 53.5508 39.231 53.6085 39.3744 53.7528C39.4174 53.796 40.4781 54.8492 41.6104 56.162C41.7824 56.3639 41.8398 56.6669 41.7251 56.9122C40.4351 59.985 39.532 61.6729 38.7867 62.3942C38.6577 62.524 38.4713 62.5962 38.285 62.5962V62.625ZM34.6442 61.1824H37.9697C38.5143 60.5188 39.274 59.0473 40.2344 56.7823C39.5464 56.0033 38.9014 55.3397 38.586 55.0079C37.6687 55.0079 35.3609 55.0079 34.0709 55.0079C33.7269 55.3397 33.0245 56.0466 32.2935 56.8833C33.0389 58.5423 33.9992 60.3601 34.6442 61.1535V61.1824Z" fill="#93D5FE"/>
<path d="M51.0424 27.3942C51.0424 27.3942 50.8991 27.3942 50.8131 27.3509C50.5121 27.2499 50.3257 26.9758 50.3257 26.6729C50.3257 18.1324 48.3477 15.4924 47.5593 14.771C44.8789 17.0937 41.4818 18.2045 37.4397 18.0747C37.2534 18.0458 37.1101 18.0747 36.9237 18.0458C36.1067 18.0026 35.3757 17.916 34.6303 17.7862C34.3437 17.7429 34.0713 17.6996 33.7846 17.6419C33.3976 17.5553 33.154 17.1803 33.2256 16.7907C33.3116 16.4012 33.6843 16.1416 34.0713 16.2281C34.3293 16.2858 34.5873 16.3291 34.8597 16.3724C35.562 16.4878 36.25 16.5743 36.9094 16.6176C37.1817 16.632 37.3251 16.6465 37.4684 16.6465C41.3528 16.7763 44.5493 15.6655 47.0146 13.3428C47.2153 13.1553 47.4877 13.0976 47.7457 13.1841C48.1183 13.314 51.0711 14.6412 51.6731 23.4125C52.1461 21.8833 52.5331 20.1233 52.8485 18.1613C53.2641 15.4779 52.9058 13.3572 51.8021 11.8569C50.4691 10.0536 48.448 9.76505 48.4193 9.76505C48.0897 9.72177 47.8317 9.46209 47.803 9.13028C47.7743 8.89946 46.9573 3.31642 38.9591 1.75836C30.3016 0.0560328 23.7654 5.23514 21.2427 7.91846C21.5007 7.94731 21.7157 8.00502 21.859 8.06273C22.074 8.14928 22.246 8.33683 22.289 8.58208C22.3464 8.8129 22.2747 9.05815 22.117 9.23127C19.1929 12.3762 19.8236 18.118 20.6406 21.8112C20.9417 18.0458 22.0167 13.4871 25.4568 13.1553C25.6001 13.1553 25.7578 13.1697 25.9011 13.2563C25.9011 13.2563 26.0445 13.3428 26.2738 13.4582L26.5605 13.6169C26.7611 13.7179 27.0048 13.8333 27.2771 13.9632L27.7072 14.1507C27.9222 14.2517 28.0942 14.3238 28.2662 14.4104L28.4525 14.4969C28.8109 14.6556 28.9829 15.0884 28.8252 15.4491C28.6675 15.8097 28.2375 15.9829 27.8792 15.8242L27.6928 15.7376C27.4922 15.651 27.2915 15.5645 27.1195 15.4779L26.8185 15.3481C26.8185 15.3481 26.6895 15.2904 26.6751 15.276C26.3741 15.1317 26.1305 15.0163 25.9154 14.9153L25.7148 14.8143C25.5714 14.7422 25.4568 14.6845 25.3708 14.6268C22.0023 15.276 21.8017 23.4702 22.031 26.644C22.0597 27.0047 21.816 27.3221 21.472 27.3942C21.128 27.4808 20.7696 27.2932 20.6406 26.9614C20.6263 26.9181 20.225 25.8938 19.7663 24.2925C18.6769 20.4983 17.4012 13.8622 20.0816 9.5198C20.01 9.54865 19.924 9.59193 19.838 9.63521C19.5656 9.7939 19.1929 9.75062 18.9636 9.5198C18.7343 9.28897 18.7056 8.88503 18.8633 8.61093C19.623 7.15386 27.4205 -1.93482 39.1884 0.373415C46.8856 1.87377 48.6917 6.82205 49.0787 8.46667C49.9244 8.68306 51.6301 9.3034 52.8915 10.9913C54.2532 12.809 54.7118 15.3048 54.2245 18.4065C53.8662 20.6426 53.4075 22.6479 52.8485 24.3502C52.2034 26.2834 51.6588 27.048 51.6014 27.1345C51.4581 27.3221 51.2431 27.4231 51.0281 27.4231V27.3942H51.0424Z" fill="#93D5FE"/>
<path d="M26.8469 62.9712C26.8469 62.9712 26.7322 62.9712 26.6749 62.9712C26.4169 62.899 26.2019 62.6971 26.1445 62.423C26.1445 62.3653 24.6825 55.9599 21.5864 51.9205C21.5578 51.8772 21.5291 51.8339 21.5148 51.7906C21.3714 51.6464 21.3428 51.4877 21.3571 51.2713C21.3714 51.0693 21.5291 50.9251 21.6868 50.7952L26.3739 47.4483C26.5316 47.3329 26.7466 47.2896 26.9329 47.3329C27.1336 47.3761 27.2912 47.4916 27.4059 47.6647L27.5349 47.8811C27.6926 48.1407 27.9076 48.4004 28.1369 48.689C30.072 50.8818 34.1571 53.6949 34.2001 53.7238C34.3721 53.8536 34.4868 54.0412 34.5154 54.2576C34.5298 54.474 34.4581 54.6904 34.2861 54.8346C34.2861 54.8346 33.1107 55.9455 32.007 57.2439C31.8064 57.4747 31.62 57.6622 31.4624 57.8786C30.1437 59.4944 27.4059 62.7115 27.4059 62.7115C27.2626 62.8702 27.0619 62.9567 26.8612 62.9567V62.9856L26.8469 62.9712ZM23.1058 51.5454C25.2989 54.6471 26.6176 58.6576 27.1909 60.7351C28.1083 59.6531 29.4986 57.994 30.33 56.9842C30.502 56.7678 30.7027 56.537 30.9177 56.3061C31.5484 55.556 32.2077 54.8779 32.6664 54.4163C31.362 53.4785 28.6099 51.4156 27.0476 49.6267C26.8899 49.4247 26.7322 49.2372 26.6032 49.064L23.1201 51.5598H23.1058V51.5454Z" fill="#93D5FE"/>
<path d="M45.7678 62.9712C45.5672 62.9712 45.3665 62.8846 45.2232 62.7259C45.2232 62.7259 42.4711 59.4944 41.1667 57.893C40.9087 57.5757 40.7224 57.3593 40.5217 57.1429C39.4324 55.8733 38.3717 54.8202 38.3573 54.8058C38.1997 54.6471 38.128 54.4451 38.1423 54.2287C38.1567 54.0123 38.2713 53.8248 38.4577 53.6949C38.5007 53.6661 42.6574 50.7952 44.5495 48.5735C44.8218 48.2706 45.0368 47.9676 45.1802 47.6935C45.2805 47.506 45.4525 47.3761 45.6532 47.3329C45.8538 47.2896 46.0689 47.3329 46.2409 47.4483L50.8276 50.7375C50.9853 50.8529 51.143 51.0549 51.1717 51.2424C51.2003 51.43 51.1717 51.6608 51.0713 51.8195C47.9466 55.8589 46.4702 62.3508 46.4559 62.4085C46.3985 62.6682 46.1979 62.8846 45.9255 62.9567C45.8682 62.9567 45.8108 62.9567 45.7535 62.9567L45.7678 62.9712ZM39.977 54.3874C40.3927 54.8346 40.9947 55.4694 41.6111 56.1763C41.8117 56.3927 41.9981 56.6235 42.1988 56.8543C43.0874 57.9363 44.5065 59.6242 45.4238 60.7206C45.9972 58.6432 47.3159 54.6471 49.5089 51.531L46.0259 49.0496C45.9112 49.2083 45.7822 49.3526 45.6532 49.5113C44.1051 51.329 41.2957 53.4497 39.977 54.3874Z" fill="#93D5FE"/>
</svg>
