<svg width="57" height="45" viewBox="0 0 57 45" fill="none" xmlns="http://www.w3.org/2000/svg">
<path d="M57 40.1743V41.405C57 43.3864 55.3501 45 53.3217 45H3.67383C1.64988 45 0.00333984 43.3875 0.00333984 41.4061V40.182C0.00333984 39.7935 0.325078 39.479 0.723633 39.479C1.12219 39.479 1.44393 39.7935 1.44393 40.182V41.4061C1.44393 42.6127 2.44477 43.5942 3.67494 43.5942H53.3228C54.5575 43.5942 55.5616 42.6127 55.5616 41.4061V40.1754C55.5616 39.787 55.8834 39.4725 56.2808 39.4725C56.6783 39.4725 57.0011 39.787 57.0011 40.1754L57 40.1743ZM56.2797 33.3303C55.8823 33.3303 55.5605 33.6447 55.5605 34.0332V35.2638C55.5605 36.4705 54.5563 37.4519 53.3217 37.4519H3.67383C2.44365 37.4519 1.44281 36.4705 1.44281 35.2638V34.0397C1.44281 33.6513 1.11996 33.3368 0.72252 33.3368C0.325078 33.3368 0.00333984 33.6523 0.00333984 34.0408V35.2649C0.00333984 37.2463 1.64988 38.8599 3.67383 38.8599H53.3217C55.3501 38.8599 57 37.2474 57 35.2649V34.0343C57 33.6458 56.6783 33.3314 56.2797 33.3314V33.3303ZM57 3.59177V29.1237C57 31.104 55.3512 32.7155 53.3251 32.7155H3.67494C1.64877 32.7155 0 31.104 0 29.1237V3.59177C0 1.61146 1.64877 0 3.67494 0H53.3251C55.3512 0 57 1.61146 57 3.59177ZM55.5605 3.59177C55.5605 2.38726 54.5575 1.4069 53.3251 1.4069H3.67494C2.44254 1.4069 1.43947 2.38726 1.43947 3.59177V29.1237C1.43947 30.3282 2.44254 31.3086 3.67494 31.3086H53.3251C54.5575 31.3086 55.5605 30.3282 55.5605 29.1237V3.59177ZM53.4542 8.79174V23.9249C53.4542 24.3133 53.1325 24.6278 52.735 24.6278C50.524 24.6278 48.7261 26.385 48.7261 28.546C48.7261 28.9344 48.4044 29.2489 48.0069 29.2489H8.9942C8.59676 29.2489 8.27502 28.9344 8.27502 28.546C8.27502 26.385 6.47707 24.6278 4.26609 24.6278C3.86865 24.6278 3.5458 24.3133 3.5458 23.9249V8.79174C3.5458 8.40329 3.86865 8.08884 4.26609 8.08884C6.47707 8.08884 8.27502 6.33158 8.27502 4.17064C8.27502 3.78219 8.59676 3.46773 8.9942 3.46773H48.0047C48.4021 3.46773 48.7239 3.78219 48.7239 4.17064C48.7239 6.33158 50.5218 8.08884 52.7328 8.08884C53.1302 8.08884 53.4531 8.40329 53.4531 8.79174H53.4542ZM52.0147 9.44894C49.5844 9.13449 47.6551 7.24883 47.3334 4.87354H9.66662C9.34488 7.24883 7.41557 9.13449 4.98527 9.44894V23.2676C7.41557 23.5821 9.34488 25.4678 9.66662 27.8431H47.3323C47.654 25.4678 49.5833 23.5821 52.0136 23.2676V9.44894H52.0147ZM35.7742 16.3583C35.7742 21.432 32.5123 25.5613 28.5011 25.5613C24.49 25.5613 21.2247 21.4331 21.2247 16.3583C21.2247 11.2835 24.4888 7.15526 28.5011 7.15526C32.5112 7.15526 35.7742 11.2835 35.7742 16.3583ZM34.3347 16.3583C34.3347 12.0593 31.7174 8.56215 28.5022 8.56215C25.2871 8.56215 22.6653 12.0593 22.6653 16.3583C22.6653 20.6573 25.2837 24.1544 28.5022 24.1544C31.7185 24.1544 34.3347 20.6573 34.3347 16.3583ZM28.4911 13.4825C28.4911 13.4825 28.4955 13.4836 28.4978 13.4836C28.5 13.4836 28.5022 13.4825 28.5045 13.4825C29.1168 13.4857 29.6133 13.971 29.6133 14.5684C29.6133 14.9568 29.935 15.2713 30.3325 15.2713C30.7299 15.2713 31.0516 14.9558 31.0516 14.5684C31.0516 13.439 30.2735 12.4934 29.2158 12.1887V11.8612C29.2158 11.4728 28.8941 11.1583 28.4967 11.1583C28.0992 11.1583 27.7775 11.4739 27.7775 11.8612V12.1898C26.7232 12.4956 25.9472 13.4411 25.9472 14.5695C25.9472 15.9448 27.0917 17.0623 28.4989 17.0623C29.1134 17.0623 29.6144 17.5497 29.6144 18.1482C29.6144 18.7466 29.1179 19.2308 28.5056 19.2341C28.5033 19.2341 28.5011 19.233 28.4978 19.233C28.4955 19.233 28.4933 19.2341 28.4911 19.2341C27.8821 19.2298 27.3867 18.7456 27.3867 18.1482C27.3867 17.7598 27.0639 17.4453 26.6675 17.4453C26.2712 17.4453 25.9484 17.7608 25.9484 18.1482C25.9484 19.2765 26.7243 20.2221 27.7786 20.5278V20.8564C27.7786 21.2449 28.1014 21.5593 28.4978 21.5593C28.8941 21.5593 29.217 21.2438 29.217 20.8564V20.5289C30.2735 20.2232 31.0528 19.2776 31.0528 18.1482C31.0528 16.7739 29.9072 15.6554 28.4978 15.6554C27.8844 15.6554 27.3856 15.1679 27.3856 14.5684C27.3856 13.9689 27.881 13.4868 28.49 13.4836L28.4911 13.4825ZM49.1647 16.3605C49.1647 18.3517 47.507 19.9718 45.4697 19.9718C43.4324 19.9718 41.7737 18.3517 41.7737 16.3605C41.7737 14.3693 43.4313 12.7426 45.4697 12.7426C47.507 12.7426 49.1647 14.3649 49.1647 16.3605ZM47.7253 16.3605C47.7253 15.1418 46.7133 14.1495 45.4697 14.1495C44.2262 14.1495 43.2131 15.1407 43.2131 16.3605C43.2131 17.5802 44.2251 18.5649 45.4697 18.5649C46.7144 18.5649 47.7253 17.5759 47.7253 16.3605ZM15.2252 16.3605C15.2252 18.3517 13.5676 19.9718 11.5303 19.9718C9.49295 19.9718 7.83527 18.3517 7.83527 16.3605C7.83527 14.3693 9.49295 12.7426 11.5303 12.7426C13.5676 12.7426 15.2252 14.3649 15.2252 16.3605ZM13.7858 16.3605C13.7858 15.1418 12.7738 14.1495 11.5303 14.1495C10.2867 14.1495 9.27475 15.1407 9.27475 16.3605C9.27475 17.5802 10.2867 18.5649 11.5303 18.5649C12.7738 18.5649 13.7858 17.5759 13.7858 16.3605Z" fill="#061D8B"/>
</svg>
