<svg width="40" height="49" viewBox="0 0 40 49" fill="none" xmlns="http://www.w3.org/2000/svg">
<path d="M39.9896 13.6764V13.6137C39.9792 13.5772 39.9688 13.5406 39.9584 13.5041L39.9272 13.4258L39.8803 13.3371L39.8283 13.264C39.8283 13.264 39.7971 13.2118 39.7762 13.1909L39.6878 13.1126L39.641 13.0761L22.6668 0.11484L22.5888 0.0678598L22.5159 0.0260999H22.4327L22.3546 0C22.3286 0 22.2974 0 22.2714 0H3.55926C1.5923 0 0 1.60254 0 3.57047V45.4347C0 47.4027 1.5975 49 3.55926 49H36.4459C38.4077 49 40 47.4027 40 45.4347V13.7964C40 13.7547 40 13.7181 39.9896 13.6764ZM23.0155 2.59433L36.5188 12.9142H23.0155V2.59433ZM38.2412 45.4347C38.2412 46.4265 37.4346 47.2304 36.4459 47.2356H3.55926C2.56537 47.2356 1.76402 46.4318 1.75881 45.4347V3.50261C1.75881 2.50559 2.56537 1.6965 3.55926 1.6965H21.2515V13.7964C21.2515 14.2819 21.6469 14.6786 22.1309 14.6786H38.2412V45.4347Z" fill="#061D8B"/>
<path d="M7.39941 30.9597C7.39941 37.944 13.0401 43.6025 20.0025 43.6025C26.9649 43.6025 32.6056 37.944 32.6056 30.9597C32.6056 23.9754 26.9649 18.3169 20.0025 18.3169C13.0453 18.3273 7.40982 23.9806 7.39941 30.9597ZM30.8468 30.9597C30.8468 36.9679 25.9918 41.8381 20.0025 41.8381C14.0132 41.8381 9.15823 36.9679 9.15823 30.9597C9.15823 24.9515 14.0132 20.0813 20.0025 20.0813C25.9918 20.0865 30.8416 24.9515 30.8468 30.9597Z" fill="#061D8B"/>
<path d="M13.3001 30.8606C12.9566 30.5161 12.3998 30.5213 12.0564 30.8658C11.7182 31.2103 11.7182 31.7636 12.0564 32.1082L16.5887 36.6548C16.7553 36.8218 16.979 36.9158 17.2132 36.9158C17.4473 36.9158 17.6711 36.8218 17.8324 36.6548L27.9534 26.5071C28.2968 26.1626 28.302 25.6041 27.9586 25.2595C27.6151 24.915 27.0584 24.9098 26.7149 25.2543C26.7149 25.2543 26.7149 25.2543 26.7097 25.2595L17.2132 34.786L13.3001 30.8606Z" fill="#061D8B"/>
</svg>
