<svg width="40" height="49" viewBox="0 0 40 49" fill="none" xmlns="http://www.w3.org/2000/svg">
<path d="M34.5667 19.6H32.2222V11.9778C32.2222 5.36278 26.75 0 20 0C13.25 0 7.77778 5.36278 7.77778 11.9778C7.77778 12.5794 8.275 13.0667 8.88889 13.0667C9.50278 13.0667 10 12.5794 10 11.9778C10 6.566 14.4778 2.17778 20 2.17778C25.5222 2.17778 30 6.566 30 11.9778V19.6H5.43333C2.43194 19.6 0 21.9833 0 24.9247V43.6753C0 46.6167 2.43194 49 5.43333 49H34.5667C37.5681 49 40 46.6167 40 43.6753V24.9247C40 21.9833 37.5681 19.6 34.5667 19.6ZM37.7778 43.6753C37.7722 45.4108 36.3375 46.8168 34.5667 46.8222H5.43333C3.6625 46.8168 2.22778 45.4108 2.22222 43.6753V24.9247C2.22778 23.1892 3.6625 21.7832 5.43333 21.7778H34.5667C36.3375 21.7832 37.7722 23.1892 37.7778 24.9247V43.6753Z" fill="#061D8B"/>
</svg>
