<svg width="52" height="52" viewBox="0 0 52 52" fill="none" xmlns="http://www.w3.org/2000/svg">
<path d="M26 0C11.6406 0 0 11.6406 0 26C0 40.3594 11.6406 52 26 52C40.3594 52 52 40.3594 52 26C51.9843 11.6473 40.3527 0.0156897 26 0ZM11.9936 6.27586H14.8704L17.0345 8.43991V11.2842L13.7105 14.6082C13.5424 14.7763 13.4483 15.0038 13.4483 15.2425V18.4578L10.3877 21.5184H8.06897C7.57362 21.5184 7.17241 21.9196 7.17241 22.4149V25.1046C7.17241 25.3422 7.26655 25.5708 7.43465 25.7389L11.6552 29.9594V31.9072L9.22776 34.3346C9.05966 34.5027 8.96552 34.7302 8.96552 34.9689V37.2876L6.26241 39.9896C-1.46698 29.1155 1.07922 14.0366 11.9499 6.30612C11.9645 6.29603 11.9791 6.28595 11.9936 6.27586ZM7.35957 41.4252L10.4975 38.2872C10.6645 38.1191 10.7586 37.8916 10.7586 37.6552V35.3365L13.186 32.909C13.3541 32.7409 13.4483 32.5134 13.4483 32.2747V29.5851C13.4483 29.3475 13.3541 29.1189 13.186 28.9508L8.96552 24.7303V23.3081H10.7586C10.9962 23.3081 11.2248 23.214 11.3929 23.0459L14.9791 19.4597C15.1472 19.2916 15.2414 19.0641 15.2414 18.8253V15.6101L18.5653 12.2861C18.7334 12.118 18.8276 11.8905 18.8276 11.6518V8.0656C18.8276 7.82802 18.7334 7.5994 18.5653 7.43129L15.8757 4.74164C15.7076 4.57353 15.4801 4.4794 15.2414 4.4794H14.9321C17.2766 3.26681 19.8037 2.44871 22.4138 2.05871V8.0656C22.4138 8.30319 22.5079 8.53181 22.676 8.69991L26.2622 12.2861C26.4303 12.4542 26.6578 12.5484 26.8966 12.5484H31.0084L34.9655 16.5055V21.1429L33.4347 22.6738C33.2666 22.8419 33.1724 23.0694 33.1724 23.3081V26.8943C33.1724 27.1319 33.2666 27.3605 33.4347 27.5286L36.7586 30.8526V34.9644C36.7586 35.202 36.8528 35.4306 37.0209 35.5987L41.2414 39.8192V44.7884C37.4131 47.9061 32.7174 49.7732 27.7931 50.1341V46.9961L30.2205 44.5687C30.3897 44.3995 30.4839 44.1697 30.4828 43.931V40.7158L32.0136 39.1849C32.1817 39.0168 32.2759 38.7893 32.2759 38.5506V34.9644C32.2759 34.7268 32.1817 34.4982 32.0136 34.3301L27.5309 29.8473C27.3628 29.6792 27.1353 29.5851 26.8966 29.5851H19.7241C19.4866 29.5851 19.2579 29.6792 19.0898 29.8473L15.5036 33.4335C15.3355 33.6016 15.2414 33.8291 15.2414 34.0678V36.7575C15.2414 36.9951 15.3355 37.2237 15.5036 37.3918L17.2967 39.1849C17.4648 39.353 17.6923 39.4472 17.931 39.4472H20.6207V42.1368C20.6207 42.3744 20.7148 42.603 20.8829 42.7711L22.4138 44.302V49.9379C16.519 49.0503 11.1587 46.02 7.35957 41.4252ZM24.2069 50.1329V43.931C24.2069 43.6934 24.1128 43.4648 23.9447 43.2967L22.4138 41.7659V38.5506C22.4138 38.0553 22.0126 37.654 21.5172 37.654H18.302L17.0345 36.3866V34.4388L20.0951 31.3782H26.5256L30.4828 35.3353V38.1797L28.9519 39.7105C28.7838 39.8786 28.6897 40.1061 28.6897 40.3448V43.5601L26.2622 45.9875C26.0941 46.1556 26 46.3831 26 46.6218V50.208C25.3971 50.208 24.7997 50.1789 24.2069 50.1341V50.1329ZM43.0345 43.1802V39.4483C43.0345 39.2107 42.9403 38.9821 42.7722 38.814L38.5517 34.5934V30.4816C38.5517 30.2441 38.4576 30.0154 38.2895 29.8473L34.9655 26.5234V23.6791L36.4964 22.1482C36.6645 21.9801 36.7586 21.7526 36.7586 21.5139V16.1346C36.7586 15.897 36.6645 15.6684 36.4964 15.5003L32.0136 11.0175C31.8455 10.8494 31.618 10.7553 31.3793 10.7553H27.2675L24.2069 7.69466V1.87043C24.7997 1.82336 25.3971 1.7931 26 1.7931C39.362 1.78526 50.1991 12.6111 50.2069 25.9731C50.2103 32.4361 47.6282 38.6324 43.0345 43.1802Z" fill="#061D8B"/>
</svg>
