<svg width="45" height="56" viewBox="0 0 45 56" fill="none" xmlns="http://www.w3.org/2000/svg">
<path d="M22.4999 29.8682C26.1271 29.8682 29.0671 26.9436 29.0671 23.3354C29.0671 19.7273 26.1271 16.8027 22.4999 16.8027C18.8727 16.8027 15.9326 19.7273 15.9326 23.3354C15.937 26.9414 18.8749 29.8638 22.4999 29.8682ZM22.4999 18.6686C25.0903 18.6686 27.1914 20.7576 27.1914 23.3354C27.1914 25.9133 25.0914 28.0023 22.4999 28.0023C19.9084 28.0023 17.8083 25.9133 17.8083 23.3354C17.8116 20.7598 19.9095 18.6719 22.4999 18.6686Z" fill="#061D8B"/>
<path d="M1.17015 54.5551C1.39005 55.3469 2.08163 55.9189 2.90405 55.99C2.96672 55.9966 3.02939 55.9998 3.09206 55.9998C3.85071 55.9998 4.54229 55.5711 4.87434 54.893C6.34985 51.6677 8.6203 48.8645 11.4757 46.7449C11.8297 47.1102 12.2772 47.3727 12.7698 47.5039L13.5471 49.8893C13.9957 51.3078 15.3206 52.2703 16.8148 52.2659H19.6394C20.2177 54.4019 21.1204 55.9987 22.5003 55.9987C23.8801 55.9987 24.7828 54.4019 25.3612 52.2659H28.1858C29.6789 52.2714 31.0016 51.31 31.4513 49.8948L32.2297 47.5039C32.7223 47.3727 33.1687 47.1102 33.5227 46.7449C36.3792 48.8634 38.6496 51.6666 40.1251 54.893C40.4572 55.5711 41.1499 56.0009 41.9085 55.9998C41.9712 55.9998 42.0339 55.9966 42.0965 55.99C42.9189 55.9189 43.6094 55.3469 43.8304 54.5561C45.2037 49.7766 47.2597 38.2588 37.3676 33.0823C37.4545 31.9744 37.5117 30.8566 37.5117 29.7279C37.6513 18.4758 32.6959 7.75751 24.0176 0.537948C23.1347 -0.180618 21.8648 -0.180618 20.9819 0.537948C12.3025 7.75642 7.34709 18.4747 7.48673 29.7279C7.48673 30.8566 7.545 31.9744 7.63076 33.0823C-2.25917 38.2599 -0.205317 49.7777 1.17015 54.5551ZM16.8148 50.4001C16.1364 50.4012 15.5361 49.9637 15.3338 49.3195L14.7742 47.6002H18.8863C18.9632 48.5331 19.0743 49.4835 19.2348 50.4001H16.8137H16.8148ZM22.5003 54.1121C21.9044 53.702 20.6235 50.5313 20.6235 44.3344C20.6235 38.1374 21.9044 34.9668 22.5003 34.5566C23.0962 34.9668 24.3771 38.1374 24.3771 44.3344C24.3771 50.5313 23.0962 53.702 22.5003 54.1121ZM28.1858 50.4001H25.7647C25.9219 49.4835 26.0363 48.5331 26.1132 47.6002H30.2253L29.6624 49.3249C29.459 49.9659 28.8608 50.4012 28.1847 50.4001H28.1858ZM42.0262 54.0465C42.0174 54.0968 41.9734 54.134 41.9217 54.1329C41.8722 54.1471 41.8195 54.1187 41.8052 54.0695C41.8052 54.0684 41.8052 54.0662 41.8041 54.0651C40.1691 50.5029 37.637 47.4197 34.4518 45.1175C35.8382 41.9293 36.7497 38.5563 37.1587 35.1068C44.7837 39.6347 43.5281 48.8131 42.0251 54.0465H42.0262ZM22.1616 1.99039C22.3596 1.82962 22.6443 1.82962 22.8422 1.99039C25.702 4.33967 28.1572 7.13519 30.1143 10.2687H14.8863C16.8445 7.13519 19.3008 4.33967 22.1616 1.99039ZM13.7857 12.1345H31.2149C34.1637 17.5309 35.6854 23.5856 35.6359 29.7279C35.7118 35.0532 34.598 40.3281 32.3759 45.1732C32.2209 45.5079 31.8877 45.7256 31.5172 45.7332H26.2254C26.243 45.2454 26.254 44.7708 26.254 44.3333C26.254 40 25.4634 32.6667 22.5014 32.6667C19.5394 32.6667 18.7488 40 18.7488 44.3333C18.7488 44.7708 18.7587 45.2454 18.7774 45.7332H13.4856C13.1183 45.7267 12.7874 45.5134 12.6313 45.1831C10.4059 40.3358 9.29099 35.0564 9.36686 29.7279C9.31738 23.5856 10.8391 17.5309 13.7879 12.1345H13.7857ZM7.83967 35.1068C8.24978 38.5563 9.16125 41.9282 10.5466 45.1175C7.36249 47.4197 4.82926 50.5018 3.19431 54.0651C3.18002 54.0913 3.16902 54.1526 3.07667 54.1329C3.02499 54.1329 2.98211 54.0946 2.97441 54.0443C1.47141 48.8142 0.21579 39.6347 7.83967 35.1068Z" fill="#061D8B"/>
</svg>
