<svg width="86" height="86" viewBox="0 0 86 86" fill="none" xmlns="http://www.w3.org/2000/svg">
<path d="M70.8828 40.6484H77.3983L52.8413 65.0375L32.685 49.9203L0 82.6054L3.56262 86L33.1587 56.5719L53.315 71.6891L80.9609 44.2111V50.7266H86V35.6094H70.8828V40.6484Z" fill="#80D4FF"/>
<path d="M40.4805 49.4668V10.0781H32.9219V43.7979L40.4805 49.4668Z" fill="#80D4FF"/>
<path d="M7.55859 67.7536L15.2852 60.195V40.6484H7.55859V67.7536Z" fill="#80D4FF"/>
<path d="M27.8828 47.5973V25.3633H20.3242V55.1559L27.8828 47.5973Z" fill="#80D4FF"/>
<path d="M52.3693 58.3843L53.0781 57.6754V40.6484H45.5195V53.2461L52.3693 58.3843Z" fill="#80D4FF"/>
<path d="M65.8438 45.0778V0H58.1172V52.6364L65.8438 45.0778Z" fill="#80D4FF"/>
</svg>
