<svg width="86" height="86" viewBox="0 0 86 86" fill="none" xmlns="http://www.w3.org/2000/svg">
<path d="M17.7207 79.7012H0V86H17.7207V79.7012Z" fill="#80D4FF"/>
<path d="M17.7207 68.3633H0V74.6621H17.7207V68.3633Z" fill="#80D4FF"/>
<path d="M86 68.3633H68.2793V74.6621H86V68.3633Z" fill="#80D4FF"/>
<path d="M86 79.7012H68.2793V86H86V79.7012Z" fill="#80D4FF"/>
<path d="M63.2402 57.0254H45.5195V63.3242H63.2402V57.0254Z" fill="#80D4FF"/>
<path d="M63.1562 45.6875H45.5195V51.9863H63.2402L63.1562 45.6875Z" fill="#80D4FF"/>
<path d="M40.4805 45.6875H22.7598V51.9863H40.4805V45.6875Z" fill="#80D4FF"/>
<path d="M40.4805 57.0254H22.7598V63.3242H40.4805V57.0254Z" fill="#80D4FF"/>
<path d="M40.4805 79.7012H22.7598V86H40.4805V79.7012Z" fill="#80D4FF"/>
<path d="M63.2402 79.7012H45.5195V86H63.2402V79.7012Z" fill="#80D4FF"/>
<path d="M40.4805 68.3633H22.7598V74.6621H40.4805V68.3633Z" fill="#80D4FF"/>
<path d="M63.2402 68.3633H45.5195V74.6621H63.2402V68.3633Z" fill="#80D4FF"/>
<path d="M15.2012 0H12.6816V2.51953C12.6816 16.6289 22.3684 28.5177 35.4414 31.8838V30.3184C35.4414 24.0011 37.1093 18.0667 40.0236 12.9286C34.5327 5.11633 25.454 0 15.2012 0Z" fill="#80D4FF"/>
<path d="M70.7988 0C54.0809 0 40.4805 13.6004 40.4805 30.3184V40.6484H45.5195V32.7321C61.0634 31.4471 73.3184 18.3892 73.3184 2.51953V0H70.7988Z" fill="#80D4FF"/>
</svg>
