<svg width="89" height="74" viewBox="0 0 89 74" fill="none" xmlns="http://www.w3.org/2000/svg">
<path fill-rule="evenodd" clip-rule="evenodd" d="M20.6815 57.5106L29.5537 72.8772C30.1725 73.9501 31.5551 74.3209 32.6282 73.7022L36.6825 71.3624C37.7556 70.7437 38.1264 69.3615 37.5076 68.2886L29.8656 55.053L20.6839 57.5131L20.6815 57.5106ZM78.2786 25.0268C77.2964 25.2895 76.2896 24.7052 76.0268 23.7256C75.7641 22.746 76.3485 21.7369 77.3283 21.4742L86.6868 18.9676C87.669 18.7049 88.6759 19.2892 88.9386 20.2688C89.2014 21.2484 88.6169 22.2574 87.6371 22.5201L78.2786 25.0268ZM67.6997 11.0154C67.437 11.9974 66.4302 12.5793 65.4479 12.3166C64.4656 12.0539 63.8837 11.0473 64.1464 10.0653L66.4768 1.36428C66.7396 0.382234 67.7464 -0.199632 68.7286 0.0630671C69.7109 0.325766 70.2929 1.33237 70.0301 2.31442L67.6997 11.0154ZM74.8211 16.7825C74.1016 17.5018 72.9352 17.5018 72.2157 16.7825C71.4962 16.0631 71.4962 14.8969 72.2157 14.1776L78.9368 7.45791C79.6563 6.73856 80.8227 6.73856 81.5422 7.45791C82.2617 8.17726 82.2617 9.34345 81.5422 10.0603L74.8211 16.78V16.7825ZM72.5668 41.4983C71.8473 40.7789 71.8473 39.6127 72.5668 38.8958C73.2863 38.1789 74.4528 38.1765 75.1723 38.8958L81.5422 45.2644C82.2617 45.9838 82.2617 47.15 81.5422 47.8669C80.8227 48.5838 79.6563 48.5862 78.9368 47.8669L72.5668 41.4983ZM77.5027 33.8972C76.5204 33.6345 75.9384 32.6279 76.2012 31.6458C76.4639 30.6638 77.4707 30.0819 78.453 30.3446L87.6347 32.8046C88.6169 33.0673 89.1989 34.0739 88.9362 35.056C88.6734 36.0381 87.6666 36.6199 86.6843 36.3572L77.5027 33.8972ZM50.1443 0.49517C48.138 1.03284 46.9372 3.11234 47.475 5.11818L60.6078 54.1152C61.1456 56.121 63.2255 57.3216 65.2318 56.7839C67.2381 56.2462 68.4389 54.1667 67.9011 52.1633L54.7683 3.16389C54.2305 1.15805 52.1506 -0.0425033 50.1443 0.49517ZM21.3862 23.2198L28.9594 51.4808L17.7936 54.4711C15.3085 55.1365 12.7399 53.6536 12.0744 51.1715L6.91757 31.9306C6.25209 29.446 7.7353 26.878 10.218 26.2126L21.3838 23.2223L21.3862 23.2198ZM32.6626 51.0904L24.7873 21.7075L44.7026 8.99728L56.2662 52.1461L32.6626 51.0929V51.0904ZM67.1423 35.1076L62.6386 18.3071C66.9041 19.4856 70.0375 23.3941 70.0375 28.0343C70.0375 30.789 68.9325 33.2883 67.1398 35.1076H67.1423ZM7.94894 50.0053L3.92659 34.9995C0.918421 36.809 -0.677749 40.4696 0.275042 44.0197C1.22783 47.5698 4.43736 49.9414 7.94894 50.0053Z" fill="#80D4FF"/>
</svg>
