<svg width="2199" height="1732" viewBox="0 0 2199 1732" fill="none" xmlns="http://www.w3.org/2000/svg">
<path d="M2.65625 1685.73C2.65625 1685.73 98.0562 1573.93 275.656 1646.23C453.256 1718.63 606.256 1704.93 622.656 1685.73C639.056 1666.53 653.356 1331.03 664.356 1324.43C675.356 1317.83 804.656 1328.53 800.556 1321.43C796.456 1314.33 675.556 1310.73 656.056 1311.83C636.556 1312.93 509.156 1114.43 494.856 1111.13C480.556 1107.83 441.656 1182.43 446.056 1236.63C450.456 1290.93 504.756 1364.33 565.856 1364.33C626.956 1364.33 633.256 1302.63 626.456 1302.93C619.556 1303.23 585.856 1352.83 545.356 1344.33C504.756 1335.83 494.656 1248.63 505.856 1249.53C517.056 1250.33 530.256 1279.93 557.756 1289.73C585.256 1299.43 603.356 1275.93 600.656 1266.33C597.956 1256.73 565.856 1210.43 561.556 1216.13C557.356 1221.93 590.756 1258.53 582.956 1263.93C575.156 1269.43 542.956 1232.03 549.056 1231.43C555.256 1230.93 594.156 1266.03 574.656 1278.53C555.056 1290.93 508.456 1235.23 504.456 1221.33C500.456 1207.43 525.156 1172.23 517.256 1157.73C509.356 1143.23 462.456 1148.13 472.556 1162.63C482.656 1177.13 507.956 1155.53 501.356 1133.33C494.756 1111.13 458.556 1064.83 457.456 1058.23C456.356 1051.63 459.956 1047.23 462.656 1046.73C465.356 1046.23 518.556 1045.93 522.656 1046.73C526.756 1047.53 529.556 1075.53 533.356 1077.43C537.156 1079.33 776.356 1085.03 783.256 1081.03C790.156 1077.03 774.856 1052.53 779.956 1048.13C785.056 1043.73 847.556 1047.73 855.956 1049.63C864.356 1051.43 960.356 1248.83 968.356 1245.23C976.256 1241.63 876.556 1051.43 871.756 1044.53C866.956 1037.63 857.356 1033.83 847.756 1033.43C838.156 1033.03 524.856 1034.23 520.456 1033.43C516.056 1032.63 545.656 722.434 566.556 689.534C587.456 656.634 800.056 565.634 803.356 577.734C806.656 589.834 717.856 645.134 717.256 662.134C716.756 679.134 772.056 677.534 767.156 690.634C762.256 703.734 721.056 703.834 722.756 725.734C724.356 747.634 797.856 1001.63 808.856 1013.33C819.856 1025.03 856.756 1017.73 857.456 1012.93C858.156 1008.13 817.056 778.334 817.056 694.934C817.056 611.534 837.256 538.734 840.356 541.334C843.456 543.934 851.056 668.634 863.656 674.134C876.256 679.634 914.356 618.234 923.956 623.434C933.556 628.634 901.756 667.034 902.256 677.134C902.756 687.234 922.256 687.534 920.356 697.134C918.456 706.734 907.456 702.934 905.556 714.634C903.656 726.434 879.656 824.634 869.456 907.634C859.256 990.634 868.756 1001.23 874.256 1014.33C879.756 1027.53 898.356 1071.03 906.756 1066.23C915.156 1061.43 950.556 850.834 953.856 781.834C957.156 712.734 931.056 702.334 936.856 697.934C942.656 693.534 950.256 696.834 951.356 692.134C952.456 687.434 933.856 630.134 943.156 629.634C952.456 629.134 983.956 695.434 993.556 689.934C1003.16 684.434 1051.16 615.234 1071.96 572.034C1092.76 528.934 1096.46 521.234 1093.56 546.834C1090.66 572.434 934.156 1029.23 926.756 1054.73C919.356 1080.23 944.056 1077.73 950.556 1070.33C957.156 1062.93 1180.86 669.834 1186.56 654.234C1192.36 638.634 1128.16 633.634 1144.66 622.134C1161.06 610.634 1189.06 611.434 1190.76 600.734C1192.36 590.034 1098.66 478.234 1087.16 474.134C1075.66 470.034 951.456 611.434 935.856 609.034C920.256 606.534 846.056 531.934 855.956 528.634C865.856 525.334 900.756 548.434 939.156 535.034C977.556 521.634 1041.36 416.334 1046.06 421.834C1050.76 427.334 1006.56 535.634 916.656 530.134C826.756 524.634 777.156 408.734 769.156 367.834C761.256 327.034 781.756 322.634 771.856 277.634C761.956 232.634 742.556 153.734 781.956 144.434C821.456 135.134 825.256 172.134 886.956 138.934C948.656 105.734 977.156 117.234 983.156 134.034C989.156 150.734 974.156 203.634 983.656 219.334C993.256 234.934 1015.16 240.434 1023.36 262.934C1031.56 285.434 1024.76 332.334 1033.26 319.434C1041.76 306.534 1055.16 228.934 1076.26 226.534C1097.36 224.034 1081.16 107.534 1049.36 69.7337C1017.56 31.9337 983.256 31.6336 995.056 28.9336C1006.86 26.2336 1028.26 36.0336 1023.56 28.9336C1018.86 21.8336 975.856 -14.9664 863.456 15.2336C751.056 45.4336 743.256 166.534 750.856 159.934C758.556 153.334 793.656 94.5337 817.056 106.234C840.456 117.934 825.856 144.634 854.656 127.434C883.556 110.234 966.856 74.8336 994.256 94.9336C1021.66 115.034 1005.56 198.734 1023.16 219.234C1040.66 239.734 1080.56 200.234 1089.36 238.234C1098.16 276.234 1086.76 338.334 1066.66 344.634C1046.56 350.834 1042.56 334.734 1050.26 333.334C1057.96 331.834 1043.36 446.534 1109.96 518.134C1176.56 589.634 1396.96 618.434 1429.06 673.534C1461.16 728.634 1564.76 1276.33 1523.66 1347.03C1482.56 1417.73 1155.26 1531.23 1108.66 1531.23C1062.06 1531.23 1058.26 1452.33 1075.26 1458.83C1092.26 1465.43 1122.36 1533.43 1145.96 1492.83C1169.56 1452.23 1125.66 1304.23 1108.66 1295.43C1091.66 1286.63 1081.26 1304.73 1071.36 1275.73C1061.46 1246.63 1051.36 1244.73 1011.56 1233.83C971.856 1222.83 964.956 1225.03 976.156 1237.93C987.356 1250.83 1016.96 1262.33 1011.26 1252.43C1005.46 1242.53 981.956 1264.23 922.756 1245.53C863.556 1226.93 841.856 1233.43 858.356 1257.63C874.756 1281.73 984.756 1309.13 980.356 1299.33C975.956 1289.53 892.356 1268.63 836.456 1266.13C780.556 1263.63 786.856 1286.93 816.956 1301.53C847.156 1316.03 972.956 1339.13 957.256 1330.83C941.656 1322.63 801.856 1285.63 804.556 1305.33C807.256 1325.03 948.756 1375.53 950.356 1368.93C951.956 1362.33 890.856 1339.03 895.556 1366.43C900.256 1393.83 982.756 1436.33 1018.06 1435.23C1053.46 1434.13 1073.96 1415.23 1092.06 1422.33C1110.16 1429.43 1124.96 1438.73 1130.76 1425.93C1136.56 1413.03 1130.76 1320.63 1111.86 1296.03C1092.96 1271.33 1186.46 1272.73 1227.86 1276.53C1269.26 1280.33 1286.56 1225.23 1310.96 1218.43C1335.36 1211.53 1349.66 1230.73 1333.76 1237.03C1317.86 1243.33 1253.16 1077.23 1289.36 933.334C1325.56 789.434 1397.06 672.634 1418.46 688.234C1439.86 703.834 1329.66 936.334 1330.76 1042.63C1331.86 1149.03 1494.16 1232.33 1472.16 1274.03C1450.26 1315.73 1224.36 1283.93 1208.96 1344.23C1193.56 1404.53 1303.26 1434.13 1307.66 1456.43C1312.06 1478.73 1332.86 1637.03 1321.96 1670.93C1310.96 1704.93 926.156 1679.73 889.956 1668.73C853.756 1657.73 853.756 1351.83 841.756 1372.73C829.656 1393.53 859.256 1656.73 835.156 1674.23C811.056 1691.73 641.056 1727.93 652.056 1689.63C663.056 1651.23 1156.46 1735.73 1319.86 1726.93C1483.26 1718.13 1382.36 1457.23 1494.16 1486.83C1605.96 1516.43 1709.06 1622.83 1757.36 1566.83C1805.56 1510.93 1587.36 1264.83 1613.76 1169.93C1659.86 1004.33 1832.46 1096.43 1837.96 1054.83C1843.46 1013.13 1504.06 899.134 1517.26 885.434C1530.46 871.734 2056.76 892.034 2057.26 884.334C2057.76 876.634 2072.66 549.334 2068.26 536.234C2063.86 523.034 1515.66 521.934 1501.96 527.434C1488.26 532.934 1492.06 868.834 1514.06 865.634C1535.96 862.434 1532.16 578.434 1528.86 574.834C1525.56 571.234 1511.86 584.934 1511.06 578.434C1510.26 571.834 1526.96 545.834 1532.76 547.434C1538.56 549.034 1560.46 575.434 1556.86 578.634C1553.26 581.934 1541.46 579.134 1541.76 582.234C1542.06 585.234 1551.06 811.634 1551.06 829.734C1551.06 847.834 2014.06 842.434 2018.06 840.634C2022.06 838.834 1998.66 822.734 2007.06 822.034C2015.46 821.334 2042.86 830.434 2041.76 837.034C2040.66 843.634 2020.76 864.634 2014.76 864.634C2008.76 864.634 2010.36 835.934 1999.96 834.634C1989.56 833.334 1579.06 826.434 1573.26 818.334C1567.46 810.234 1590.76 694.434 1597.06 690.434C1603.26 686.434 1636.86 720.034 1646.76 710.534C1656.66 701.034 1680.76 609.634 1696.46 614.734C1712.16 619.834 1744.66 714.834 1758.56 714.134C1772.46 713.434 1792.16 664.834 1806.06 675.034C1819.96 685.234 1833.46 755.834 1846.96 744.834C1860.46 733.834 1897.06 603.734 1911.66 617.634C1926.26 631.534 1927.36 709.334 1951.86 701.334C1976.36 693.334 2029.66 547.634 2106.06 558.334C2182.56 569.034 2069.86 780.334 2197.36 740.034" stroke="white" stroke-width="7" stroke-miterlimit="10"/>
</svg>
