<svg width="10" height="5" viewBox="0 0 10 5" fill="none" xmlns="http://www.w3.org/2000/svg">
<path fill-rule="evenodd" clip-rule="evenodd" d="M0.679086 0.179086C0.902243 -0.0440704 1.26405 -0.0440704 1.48721 0.179086L4.99972 3.6916L8.51223 0.179086C8.73539 -0.0440704 9.09719 -0.0440704 9.32035 0.179086C9.54351 0.402243 9.54351 0.764052 9.32035 0.987208L5.80886 4.4987C5.80876 4.49879 5.80896 4.4986 5.80886 4.4987C5.70276 4.60499 5.57645 4.68962 5.43774 4.74718C5.2989 4.8048 5.15005 4.83445 4.99972 4.83445C4.84939 4.83445 4.70054 4.8048 4.5617 4.74718C4.42298 4.68962 4.29697 4.60528 4.19087 4.49899C4.19077 4.49889 4.19097 4.49909 4.19087 4.49899L0.679086 0.987208C0.45593 0.764052 0.45593 0.402243 0.679086 0.179086Z" fill="white" fill-opacity="0.7"/>
</svg>
