<svg width="24" height="24" viewBox="0 0 24 24" fill="none" xmlns="http://www.w3.org/2000/svg">
<g opacity="0.3">
<path d="M1 9.5557C1 10.6793 1.2213 11.7918 1.65126 12.8298C2.08123 13.8679 2.71144 14.811 3.50591 15.6055C4.30038 16.4 5.24355 17.0302 6.28158 17.4601C7.3196 17.8901 8.43215 18.1114 9.5557 18.1114C10.6793 18.1114 11.7918 17.8901 12.8298 17.4601C13.8679 17.0302 14.811 16.4 15.6055 15.6055C16.4 14.811 17.0302 13.8679 17.4601 12.8298C17.8901 11.7918 18.1114 10.6793 18.1114 9.5557C18.1114 8.43215 17.8901 7.3196 17.4601 6.28158C17.0302 5.24355 16.4 4.30038 15.6055 3.50591C14.811 2.71144 13.8679 2.08123 12.8298 1.65126C11.7918 1.2213 10.6793 1 9.5557 1C8.43215 1 7.3196 1.2213 6.28158 1.65126C5.24355 2.08123 4.30038 2.71144 3.50591 3.50591C2.71144 4.30038 2.08123 5.24355 1.65126 6.28158C1.2213 7.3196 1 8.43215 1 9.5557Z" stroke="#061D8B" stroke-width="2" stroke-linecap="round" stroke-linejoin="round"/>
<path d="M23.0014 23.0003L15.668 15.6668" stroke="#061D8B" stroke-width="2" stroke-linecap="round" stroke-linejoin="round"/>
</g>
</svg>
