<svg width="1600" height="1725" viewBox="0 0 1600 1725" fill="none" xmlns="http://www.w3.org/2000/svg">
<path d="M1.90625 1682.71C31.9062 1663.21 61.8062 1643.81 106.406 1643.01C151.006 1642.31 210.106 1660.21 273.006 1670.01C335.906 1679.71 402.606 1681.21 506.606 1641.91C610.706 1602.61 752.206 1522.51 858.906 1465.01C965.606 1407.51 1037.31 1372.61 1072.21 1350.51C1107.11 1328.41 1105.11 1319.01 1089.11 1291.71C1073.11 1264.41 1043.11 1219.11 1020.91 1179.21C998.706 1139.31 984.506 1104.91 979.506 1086.61C974.606 1068.41 979.006 1066.41 985.706 1065.41C992.306 1064.41 1001.21 1064.41 1018.91 1090.51C1036.61 1116.61 1063.21 1168.81 1074.81 1197.31C1086.41 1225.91 1082.91 1230.81 1077.51 1233.71C1072.11 1236.71 1064.71 1237.61 1066.71 1229.31C1068.71 1220.91 1080.01 1203.21 1092.81 1191.11C1105.61 1179.01 1119.91 1172.61 1146.51 1163.31C1173.11 1154.01 1212.11 1141.71 1240.31 1121.81C1268.51 1101.91 1286.01 1074.41 1294.41 1056.61C1302.81 1038.81 1302.21 1030.71 1299.71 1023.41C1297.31 1016.11 1293.11 1009.61 1293.51 1002.01C1294.01 994.413 1299.21 985.713 1300.91 977.413C1302.71 969.113 1301.11 961.413 1296.21 955.213C1291.31 949.013 1283.31 944.513 1283.91 937.113C1284.51 929.713 1293.91 919.313 1297.01 910.713C1300.11 902.113 1296.81 895.313 1290.71 888.813C1284.51 882.313 1275.51 876.213 1267.21 873.713C1258.91 871.313 1251.51 872.613 1250.81 867.213C1250.21 861.913 1256.31 849.913 1274.41 822.213C1292.51 794.513 1322.61 751.113 1336.41 726.013C1350.21 700.913 1347.61 694.113 1341.71 691.513C1335.91 688.913 1326.81 690.513 1316.01 698.913C1305.21 707.313 1292.51 722.513 1280.11 736.513C1267.61 750.413 1255.31 763.013 1241.61 780.713C1227.81 798.313 1212.61 821.013 1196.41 840.313C1180.21 859.613 1163.11 875.413 1148.31 888.413C1133.51 901.413 1121.31 911.413 1107.21 929.013C1093.11 946.613 1077.31 971.913 1066.41 989.213C1055.61 1006.51 1049.71 1015.91 1037.61 1026.41C1025.51 1036.91 1007.01 1048.61 994.406 1055.51C981.806 1062.51 975.006 1064.71 963.606 1072.71C952.306 1080.61 936.406 1094.21 911.306 1109.81C886.206 1125.41 852.006 1143.01 834.506 1168.71C817.106 1194.51 816.506 1228.41 807.106 1256.81C797.606 1285.21 779.306 1308.01 773.106 1310.21C767.006 1312.41 773.106 1294.11 783.406 1267.11C793.706 1240.11 808.206 1204.51 805.106 1188.91C802.006 1173.31 781.406 1177.81 769.206 1186.11C757.006 1194.41 753.106 1206.71 751.906 1226.51C750.706 1246.31 752.506 1273.51 741.306 1291.31C730.206 1309.11 706.206 1317.51 706.806 1310.21C707.406 1303.01 732.406 1280.11 743.006 1260.11C753.606 1240.11 749.706 1222.81 741.106 1221.41C732.506 1220.01 719.106 1234.51 691.806 1245.61C664.506 1256.71 623.306 1264.51 587.406 1276.21C551.506 1287.91 520.906 1303.51 505.306 1333.01C489.706 1362.51 489.206 1405.91 493.306 1405.11C497.506 1404.31 506.406 1359.21 504.206 1338.31C502.006 1317.41 488.606 1320.81 475.306 1328.61C461.906 1336.41 448.606 1348.61 441.106 1360.61C433.606 1372.61 431.906 1384.31 441.406 1374.01C450.906 1363.71 471.506 1331.41 501.506 1309.41C531.606 1287.41 571.106 1275.71 593.306 1266.81C615.606 1257.91 620.606 1251.81 618.906 1237.61C617.206 1223.41 608.906 1201.11 598.906 1187.21C588.906 1173.31 577.206 1167.71 559.706 1169.11C542.206 1170.51 518.806 1178.81 516.006 1174.71C513.206 1170.51 531.006 1153.81 548.306 1145.81C565.606 1137.71 582.306 1138.31 593.406 1148.01C604.506 1157.71 610.106 1176.71 608.706 1185.31C607.306 1193.91 599.006 1192.31 594.206 1178.91C589.506 1165.51 588.406 1140.51 585.306 1121.81C582.206 1103.21 577.206 1090.91 556.106 1078.71C535.006 1066.51 497.706 1054.21 487.906 1042.01C478.206 1029.81 496.006 1017.51 514.306 1015.31C532.706 1013.11 551.606 1020.91 560.206 1036.71C568.806 1052.61 567.206 1076.51 563.806 1078.41C560.506 1080.31 555.506 1060.31 547.906 1038.01C540.406 1015.71 530.406 991.213 512.806 961.713C495.306 932.213 470.206 897.713 450.206 875.113C430.206 852.613 415.106 842.013 402.306 838.413C389.506 834.813 378.906 838.113 368.106 854.813C357.206 871.513 346.106 901.613 340.306 927.413C334.506 953.313 333.906 975.013 342.206 984.213C350.506 993.413 367.806 990.013 376.406 992.013C385.006 993.913 385.006 1001.21 378.306 1004.81C371.606 1008.41 358.306 1008.41 349.606 1000.61C341.006 992.813 337.106 977.213 335.706 984.513C334.306 991.713 335.406 1021.81 337.406 1042.71C339.306 1063.61 342.106 1075.31 365.006 1080.01C387.806 1084.71 430.706 1082.51 439.606 1085.01C448.506 1087.51 423.506 1094.71 400.106 1094.21C376.706 1093.61 355.006 1085.31 344.706 1085.61C334.406 1085.91 335.506 1094.81 338.306 1120.41C341.106 1146.01 345.506 1188.31 350.806 1236.51C356.106 1284.61 362.206 1338.61 372.006 1386.21C381.706 1433.81 395.106 1475.01 411.006 1504.51C426.906 1534.01 445.206 1551.81 461.906 1572.11C478.606 1592.41 493.606 1615.21 537.306 1609.71C581.006 1604.11 653.406 1570.21 697.906 1558.81C742.406 1547.41 759.106 1558.51 776.906 1565.21C794.706 1571.91 813.606 1574.11 826.206 1566.91C838.706 1559.71 844.806 1543.01 847.106 1526.31C849.306 1509.61 847.706 1492.91 843.506 1497.91C839.306 1502.91 832.606 1529.61 829.906 1552.71C827.106 1575.81 828.206 1595.31 835.206 1607.51C842.206 1619.71 855.006 1624.81 865.006 1624.21C875.006 1623.61 882.306 1617.51 886.406 1601.71C890.606 1585.81 891.706 1560.21 887.506 1533.51C883.306 1506.81 873.906 1479.01 872.206 1483.41C870.506 1487.91 876.706 1524.61 883.906 1572.51C891.106 1620.41 899.506 1679.41 908.906 1704.41C918.406 1729.41 928.906 1720.51 972.406 1712.21C1015.81 1703.91 1092.11 1696.11 1177.51 1690.21C1262.91 1684.41 1357.61 1680.51 1424.11 1676.61C1490.61 1672.71 1529.01 1668.81 1554.11 1640.41C1579.11 1612.01 1590.81 1559.11 1594.71 1510.71C1598.61 1462.31 1594.71 1418.31 1589.41 1364.61C1584.11 1310.91 1577.41 1247.41 1568.81 1210.71C1560.21 1174.01 1549.61 1163.91 1528.21 1153.41C1506.81 1142.81 1474.51 1131.71 1467.31 1122.21C1460.11 1112.71 1477.91 1104.91 1491.81 1104.71C1505.71 1104.41 1515.71 1111.71 1524.11 1123.31C1532.41 1135.01 1539.11 1151.11 1540.51 1147.01C1541.91 1142.81 1538.01 1118.31 1535.21 1098.61C1532.41 1078.81 1530.71 1063.81 1519.31 1062.11C1507.91 1060.41 1486.71 1072.11 1467.51 1076.91C1448.31 1081.61 1431.01 1079.41 1441.31 1075.21C1451.61 1071.01 1489.41 1064.91 1505.91 1052.41C1522.31 1039.91 1517.31 1021.01 1504.81 974.813C1492.31 928.613 1472.21 855.113 1457.21 817.313C1442.21 779.413 1432.21 777.213 1422.41 780.813C1412.71 784.413 1403.21 793.913 1387.31 790.513C1371.41 787.213 1349.21 771.013 1343.91 763.513C1338.61 756.013 1350.31 757.113 1367.01 760.713C1383.71 764.313 1405.41 770.413 1413.21 776.813C1421.01 783.213 1414.91 789.913 1401.81 808.513C1388.71 827.113 1368.71 857.813 1353.41 902.013C1338.11 946.313 1327.51 1004.11 1323.61 1040.01C1319.71 1075.91 1322.51 1089.81 1332.81 1104.31C1343.11 1118.81 1360.91 1133.81 1378.21 1142.11C1395.51 1150.41 1412.21 1152.11 1409.91 1154.11C1407.71 1156.01 1386.51 1158.31 1370.11 1149.41C1353.71 1140.51 1342.01 1120.51 1333.11 1119.31C1324.21 1118.11 1318.11 1136.01 1311.91 1175.01C1305.81 1214.01 1299.61 1274.31 1299.41 1310.91C1299.21 1347.41 1305.01 1360.21 1327.01 1351.91C1349.11 1343.61 1387.51 1314.11 1424.91 1303.91C1462.31 1293.71 1498.81 1302.61 1514.51 1318.61C1530.21 1334.61 1525.11 1357.61 1509.41 1367.91C1493.71 1378.11 1467.51 1375.61 1440.31 1370.51C1413.11 1365.41 1384.91 1357.71 1387.51 1353.91C1390.11 1350.11 1423.31 1350.11 1453.41 1358.71C1483.51 1367.31 1510.41 1384.61 1522.91 1408.01C1535.41 1431.41 1533.51 1460.81 1528.01 1465.01C1522.61 1469.21 1513.61 1448.01 1498.21 1429.51C1482.81 1410.91 1461.11 1394.91 1434.21 1384.41C1407.31 1373.81 1375.31 1368.71 1351.31 1372.21C1327.31 1375.71 1311.31 1387.91 1295.91 1399.41C1280.51 1410.91 1265.81 1421.81 1241.81 1424.41C1217.81 1427.01 1184.51 1421.21 1155.71 1419.31C1126.91 1417.41 1102.61 1419.31 1109.91 1426.71C1117.31 1434.11 1156.31 1446.91 1167.51 1457.11C1178.71 1467.31 1162.11 1475.01 1138.71 1468.61C1115.31 1462.21 1085.31 1441.71 1050.01 1431.51C1014.81 1421.31 974.506 1421.31 941.706 1421.41C909.006 1421.61 883.806 1421.91 868.106 1413.41C852.406 1404.91 846.106 1387.71 847.706 1375.31C849.406 1362.91 859.106 1355.31 867.906 1355.91C876.706 1356.51 884.706 1365.41 887.306 1374.61C889.806 1383.91 886.906 1393.51 879.906 1398.01C873.006 1402.41 862.006 1401.61 856.506 1394.41C851.006 1387.21 851.006 1373.81 858.006 1363.51C864.906 1353.21 878.806 1346.01 891.006 1343.31C903.206 1340.61 913.706 1342.21 920.706 1348.31C927.606 1354.41 931.006 1364.91 929.306 1373.31C927.606 1381.71 920.906 1388.01 913.106 1387.21C905.306 1386.41 896.506 1378.41 895.806 1367.21C895.206 1356.01 902.706 1341.71 913.906 1334.61C925.106 1327.41 939.806 1327.41 951.106 1331.21C962.506 1335.01 970.506 1342.61 970.006 1350.31C969.606 1358.11 960.706 1366.11 951.106 1365.91C941.406 1365.71 930.906 1357.31 930.906 1346.51C930.906 1335.71 941.406 1322.71 951.306 1314.91C961.206 1307.11 970.506 1304.61 979.106 1306.71C987.706 1308.81 995.706 1315.51 999.306 1323.31C1002.91 1331.11 1002.01 1339.91 994.906 1342.91C987.706 1345.81 974.306 1342.91 966.306 1336.21C958.306 1329.51 955.806 1318.91 961.206 1311.61C966.706 1304.21 980.106 1300.01 1002.91 1302.81C1025.61 1305.51 1057.61 1315.21 1071.31 1314.21C1085.01 1313.11 1080.31 1301.41 1059.91 1263.51C1039.51 1225.61 1003.31 1161.61 984.806 1119.61C966.306 1077.51 965.406 1057.31 979.506 996.513C993.606 935.713 1022.61 834.213 1033.61 769.613C1044.51 705.013 1037.41 677.213 1033.81 655.513C1030.21 633.813 1030.21 618.313 1032.71 616.613C1035.21 614.913 1040.31 627.113 1049.71 640.213C1059.21 653.213 1073.11 667.113 1089.91 678.113C1106.71 689.013 1126.51 697.013 1145.91 703.613C1165.31 710.113 1184.21 715.213 1207.81 720.913C1231.41 726.613 1259.61 732.913 1265.51 735.213C1271.41 737.513 1255.01 735.813 1234.61 731.813C1214.21 727.813 1189.81 721.513 1172.11 715.613C1154.41 709.713 1143.51 704.213 1142.61 703.613C1141.81 703.013 1151.01 707.213 1156.71 711.213C1162.41 715.213 1164.51 719.013 1159.01 724.913C1153.51 730.813 1140.51 738.813 1129.71 746.413C1119.01 754.013 1110.51 761.113 1111.41 764.713C1112.21 768.313 1122.31 768.313 1134.81 769.513C1147.21 770.813 1161.91 773.313 1169.51 779.213C1177.11 785.113 1177.51 794.413 1171.21 813.513C1164.91 832.713 1151.81 861.713 1134.41 888.613C1116.91 915.513 1095.01 940.413 1072.71 967.713C1050.41 995.113 1027.71 1024.91 1004.31 1045.11C980.906 1065.31 957.006 1075.81 929.406 1091.81C901.806 1107.81 870.706 1129.31 852.606 1141.91C834.506 1154.51 829.506 1158.31 820.006 1147.41C810.506 1136.51 796.606 1110.81 774.506 1069.51C752.406 1028.31 722.106 971.413 697.906 932.313C673.706 893.213 655.606 871.713 641.506 855.913C627.406 840.113 617.306 830.013 623.606 824.113C629.906 818.213 652.606 816.513 668.806 809.613C685.006 802.713 694.706 790.513 690.106 787.313C685.506 784.113 666.506 790.013 649.506 791.113C632.506 792.213 617.306 788.413 612.006 782.513C606.706 776.613 611.406 768.613 618.106 761.013C624.806 753.413 633.706 746.313 620.606 750.113C607.606 753.913 572.606 768.613 531.606 784.013C490.606 799.413 443.406 815.413 428.306 821.713C413.106 828.013 430.006 824.613 469.506 809.913C509.106 795.213 571.406 769.113 609.706 750.313C648.006 731.613 662.306 720.213 677.506 701.113C692.706 682.013 708.606 655.013 715.006 647.913C721.306 640.713 717.906 653.413 720.006 673.413C722.106 693.413 729.706 720.813 745.706 752.913C761.706 785.113 786.106 822.113 808.006 860.213C829.906 898.313 849.206 937.413 865.206 972.813C881.206 1008.21 893.806 1039.71 901.006 1061.61C908.206 1083.51 909.806 1095.71 903.506 1081.01C897.206 1066.31 882.906 1024.61 871.706 986.913C860.506 949.213 852.506 915.613 860.106 882.313C867.706 849.113 890.806 816.213 909.306 803.413C927.806 790.613 941.706 797.713 956.206 822.513C970.706 847.313 985.906 889.813 986.106 900.613C986.306 911.313 971.606 890.313 960.006 868.613C948.406 846.913 940.006 824.613 944.206 804.213C948.406 783.813 965.206 765.313 968.406 751.813C971.606 738.313 961.006 729.913 945.306 724.713C929.506 719.413 908.506 717.313 885.506 721.113C862.606 724.913 837.706 734.613 823.206 746.113C808.706 757.713 804.506 771.113 819.606 785.513C834.806 799.813 869.306 815.013 876.606 814.313C884.006 813.713 864.206 797.313 848.006 786.313C831.806 775.413 819.206 769.913 807.606 776.413C796.006 782.913 785.506 801.413 783.406 801.213C781.306 801.013 787.606 782.013 799.606 766.113C811.606 750.113 829.306 737.113 844.406 729.313C859.606 721.513 872.206 719.013 872.806 715.413C873.406 711.813 862.106 707.213 836.406 697.313C810.706 687.413 770.706 672.313 749.506 657.113C728.206 641.913 725.706 626.813 724.506 609.813C723.206 592.813 723.206 573.813 730.406 557.213C737.606 540.613 751.906 526.313 756.306 525.213C760.706 524.113 755.206 536.413 743.006 542.913C730.806 549.413 711.906 550.313 689.506 538.313C667.206 526.313 641.506 501.513 627.606 479.613C613.706 457.713 611.606 438.813 616.006 425.913C620.406 413.113 631.406 406.313 646.306 408.413C661.206 410.513 680.206 421.413 685.706 428.613C691.206 435.813 683.206 439.113 667.006 437.413C650.806 435.713 626.406 429.013 607.206 420.613C588.006 412.213 574.206 402.113 558.406 367.713C542.606 333.313 524.906 274.613 523.306 240.213C521.706 205.813 536.206 195.813 539.806 196.413C543.406 197.013 536.206 208.113 527.806 209.813C519.506 211.513 510.006 203.713 517.806 189.513C525.606 175.313 550.606 154.713 559.806 135.013C569.006 115.213 562.306 96.3134 577.106 80.7134C591.906 65.1134 628.006 52.9134 657.806 39.0134C687.606 25.1134 711.006 9.51339 735.706 5.01339C760.506 0.513386 786.606 7.21339 811.106 10.0134C835.606 12.8134 858.406 11.7134 881.306 32.6134C904.206 53.5134 927.206 96.5134 921.106 114.613C915.006 132.713 879.706 125.913 852.106 125.013C824.506 124.113 804.406 129.113 778.906 161.313C753.306 193.513 722.306 252.813 724.506 248.913C726.706 245.013 762.306 177.913 802.006 145.013C841.706 112.113 885.606 113.313 918.206 123.013C950.806 132.713 972.006 151.013 984.006 175.213C996.006 199.413 998.806 229.413 1009.61 255.913C1020.51 282.313 1039.41 305.213 1051.91 337.413C1064.41 369.713 1070.51 411.413 1078.31 451.213C1086.11 491.013 1095.61 528.813 1090.01 552.813C1084.41 576.713 1063.81 586.813 1043.21 594.813C1022.61 602.913 1002.01 609.013 973.306 610.913C944.606 612.813 907.906 610.613 873.406 601.213C838.906 591.713 806.606 575.013 785.206 552.513C763.806 530.013 753.206 501.613 760.406 474.913C767.606 448.213 792.706 423.113 828.006 419.013C863.306 414.813 909.006 431.513 940.406 458.013C971.806 484.413 989.106 520.613 995.506 548.213C1001.91 575.813 997.406 594.713 987.206 613.013C976.906 631.413 960.806 649.213 943.206 668.713C925.706 688.213 906.706 709.313 905.406 710.213C904.006 711.013 920.106 691.613 942.106 671.813C964.106 652.013 991.906 632.013 1007.21 619.813C1022.51 607.613 1025.31 603.113 1027.01 607.313C1028.71 611.513 1029.21 624.313 1029.81 637.113" stroke="white" stroke-width="7" stroke-miterlimit="22.9"/>
</svg>
