<svg width="1677" height="1677" viewBox="0 0 1677 1677" fill="none" xmlns="http://www.w3.org/2000/svg">
<path d="M1672.7 1667.16C1638.1 1668.36 1603.5 1669.36 1568.9 1670.26C1504.8 1671.86 1440.7 1672.76 1376.5 1673.06C1323.9 1673.36 1259.6 1677.26 1214.9 1643.96C1202.8 1634.96 1192 1620.36 1195.9 1605.86C1199.8 1591.56 1220 1576.86 1231.7 1564.96C1253 1567.36 1272.1 1573.16 1291.8 1564.36C1309.3 1556.46 1320.4 1538.96 1329.4 1522.86C1344.2 1496.46 1356.7 1468.86 1366.9 1440.36C1370.4 1430.66 1373.5 1419.46 1368.4 1410.46C1366.5 1407.06 1363.5 1404.16 1362.7 1400.36C1361.5 1394.46 1366.1 1389.06 1370.3 1384.66C1408.7 1344.96 1443.1 1301.36 1472.8 1254.76C1476.7 1248.66 1480.6 1242.16 1481.1 1234.86C1481.5 1228.56 1479.1 1222.36 1476.3 1216.76C1462.1 1188.26 1436.6 1167.46 1411.8 1147.56C1374.4 1117.56 1337.1 1087.56 1299.7 1057.46C1278.3 1040.26 1252.9 1017.76 1239.3 993.955C1246.8 909.155 1238.5 824.055 1215 742.155C1213.7 737.655 1212.3 733.055 1209 729.655C1204.2 724.655 1196.6 723.855 1189.7 723.055C1153.8 718.855 1118.8 707.855 1087 690.655C1071.3 682.155 1035.8 650.655 1053.6 651.755C1082.6 653.555 1125.4 756.355 1132 818.655C1134.6 843.655 1133.9 868.855 1133.2 893.955C1131.9 941.255 1130.5 988.555 1129.2 1035.96C1128.4 1063.46 1128 1074.76 1118.3 1100.56C1121.4 1002.86 1121.5 921.855 1119.5 824.155C1119.4 818.455 1119.2 812.555 1116.7 807.455C1114.3 802.555 1110.1 798.855 1105.9 795.255C1082.6 775.255 1059.3 755.255 1036 735.255C1029.8 729.955 1003.2 704.955 1014.2 729.355C1033.7 754.755 1066.6 769.155 1098.5 766.355C1103.3 765.955 1109 764.355 1110.4 759.755C1111.9 754.755 1107.4 750.255 1103.4 746.955C1087.4 733.555 1072.5 718.855 1058.9 702.955C1031.3 670.755 1010 633.055 979.302 603.655C971.402 596.055 962.902 589.055 956.102 580.455C949.302 571.955 944.102 561.555 944.102 550.555C944.102 549.155 944.302 547.555 945.502 546.755C947.302 545.655 949.402 547.455 950.602 549.155C958.802 561.155 957.102 577.055 954.502 591.355C952.902 600.555 957.002 634.655 959.302 642.855C991.702 753.355 1019.2 865.255 1041.7 978.055C1051.3 1026.06 1060 1074.66 1057.8 1123.56C1055.6 1172.46 1041.6 1222.06 1010.2 1259.56C1007.6 1262.66 1004 1266.06 1000 1265.16C994.202 1263.86 999.802 1253.56 1008.7 1243.66C1075 1163.46 1133 1093.26 1199.3 1013.06C1203.2 1008.36 1208.2 1003.26 1214.2 1004.26C1217.1 1004.76 1219.6 1006.76 1221.9 1008.66C1307.2 1078.96 1391.7 1150.26 1475.3 1222.56C1433.5 1167.86 1398.5 1108.46 1363.5 1049.16C1343.8 1015.66 1323.8 981.355 1316.7 943.155C1375.5 1037.66 1430 1134.86 1480 1234.26" stroke="white" stroke-width="7" stroke-linecap="round" stroke-linejoin="round"/>
<path d="M1118.7 130.955C1149.9 159.055 1155.1 194.655 1146 235.655C1140.8 258.955 1128.7 280.555 1125.3 304.255C1122.6 322.455 1125.3 341.555 1133.3 358.155C1137.4 366.755 1142.9 374.755 1145.4 383.955C1148 393.155 1146.9 404.155 1139.7 410.355C1133.1 415.955 1122.2 417.155 1119.2 425.255C1115.8 434.455 1125.9 444.855 1121.9 453.755C1119.6 458.955 1113.1 461.455 1111 466.755C1108.5 473.355 1113.6 481.755 1109.3 487.355C1106.8 490.755 1102.1 491.355 1098.5 493.555C1080 504.755 1098.3 548.655 1082 562.755C1075.7 568.155 1066.4 567.655 1058.2 566.455C1010.8 560.055 962.204 542.655 919.104 521.855C904.504 514.755 889.904 506.555 880.204 493.655C861.304 468.655 869.604 423.055 842.904 406.555C835.504 402.055 826.904 399.955 819.204 396.155C795.104 384.155 780.904 364.455 776.804 337.855C773.504 316.655 773.004 289.955 793.104 284.355C803.104 281.555 807.304 289.155 806.704 299.555C806.104 309.955 802.704 319.955 801.604 330.255C800.004 345.455 803.704 361.155 811.804 374.155C816.204 381.255 825.004 388.255 832.304 383.955C837.104 381.155 838.304 374.655 837.904 369.055C836.004 344.355 812.304 323.855 815.304 299.255C815.704 296.255 816.604 293.055 819.004 291.155C821.704 289.055 825.604 288.255 828.704 289.555C849.204 297.755 873.204 312.855 893.004 300.855C905.204 293.455 915.004 269.055 924.304 258.155C950.704 227.055 997.604 224.755 1032.6 203.855C1053.4 191.355 1069.5 172.555 1084.6 153.655C1093.9 141.955 1104.2 129.255 1118.8 125.855C1139.5 121.055 1160 137.955 1168.1 157.655C1176.2 177.355 1175.8 199.255 1178.2 220.455C1182.8 261.155 1198.7 300.655 1223.8 333.055" stroke="white" stroke-width="7" stroke-linecap="round" stroke-linejoin="round"/>
<path d="M470.102 700.155C544.302 685.655 616.202 659.555 682.502 623.155C700.902 613.055 719.202 601.855 732.702 585.955C735.702 582.455 738.602 578.255 738.502 573.655C738.502 569.055 734.102 564.255 729.602 565.555C727.602 566.155 726.102 567.655 724.702 569.155C696.902 598.455 663.402 636.155 665.902 682.955C667.502 702.155 671.302 721.155 677.202 739.555C680.202 748.955 683.902 758.055 687.802 767.055C690.902 774.055 691.802 780.855 696.502 787.355C697.702 789.055 699.202 790.755 701.202 791.255C702.702 791.655 704.302 791.255 705.802 790.855C734.002 783.755 759.902 767.755 778.802 745.655C782.102 741.755 784.802 734.755 780.202 732.455C776.402 730.555 772.402 734.555 770.102 738.055C753.502 762.955 738.102 788.755 724.202 815.255C722.802 817.955 721.402 820.755 720.802 823.755C719.002 833.655 742.502 867.355 753.402 883.655C817.002 979.455 862.302 1099.06 943.802 1239.46C949.102 1248.56 960.702 1258.76 968.302 1251.46C970.702 1249.16 971.602 1245.66 972.202 1242.36C975.302 1224.86 972.702 1206.96 969.702 1189.46C950.102 1074.76 907.202 964.755 860.402 858.155C829.702 788.255 793.402 720.655 769.502 648.155C762.502 627.055 746.702 602.355 746.802 580.155C746.902 559.555 762.102 542.355 765.902 522.055C777.602 458.255 773.802 391.655 754.802 329.555C775.502 360.855 786.002 398.955 784.202 436.455C783.002 462.755 771.802 493.055 746.202 499.655C722.302 505.855 698.502 487.355 685.902 466.055C664.302 429.455 658.002 397.655 660.902 354.255C661.502 347.255 664.402 340.155 669.802 338.455C675.802 336.555 678.902 339.155 681.802 343.955C684.702 348.755 685.102 354.655 684.902 360.255C684.102 380.855 674.902 402.655 656.402 411.755C638.302 420.755 616.202 415.555 598.602 405.755C543.302 375.155 519.202 301.155 539.802 241.455C544.002 229.455 550.602 218.455 558.802 208.655C587.502 174.155 635.402 164.255 660.002 178.255C670.102 184.055 678.002 192.955 683.602 203.155C697.502 228.255 701.502 258.555 694.802 286.455C690.302 304.855 679.702 323.555 661.702 329.755C640.102 337.155 616.002 323.255 603.302 304.155C598.002 296.155 594.002 287.055 592.402 277.555C588.702 254.155 600.602 229.855 619.602 215.755C638.602 201.655 675.102 200.755 687.702 185.755C700.002 168.755 703.102 154.055 710.302 134.255C734.902 67.3551 803.902 20.5551 874.002 7.45509C944.102 -5.64491 1018.2 14.6551 1076.6 55.6551C1096.9 69.9551 1116.5 88.2551 1121.7 112.555C1122.5 116.255 1122.8 120.555 1120.4 123.555C1118.3 126.155 1114.6 127.055 1111.2 127.155C1094.1 127.855 1079.4 115.755 1066.3 104.655C1034.9 78.0551 1001.1 53.3551 963.102 37.6551C925.002 21.9551 882.102 15.5551 842.302 26.0551C791.002 39.5551 754.402 85.1551 723.702 131.255C721.302 134.755 718.902 142.555 718.702 146.855C718.502 151.055 721.502 151.455 725.702 150.855C727.802 150.555 729.402 149.055 731.002 147.655C768.202 113.955 797.402 63.5551 845.202 48.2551C892.602 33.0551 944.002 45.2551 992.202 57.5551C1026.7 66.2551 1062 75.4551 1091.1 95.7551C1097.9 100.555 1105 107.355 1104.2 115.655C1102.9 128.955 1084.7 131.455 1071.3 131.255C1006.5 130.555 944.702 156.955 880.902 168.355C837.302 176.155 792.802 176.955 749.102 184.155C736.702 186.255 723.902 188.955 713.702 196.455C703.502 203.955 696.702 217.255 700.402 229.255C706.202 248.155 731.102 251.655 750.902 251.555C786.402 251.555 821.802 251.355 857.302 251.355C869.202 251.355 883.802 253.155 888.102 264.155C891.902 274.055 883.602 285.255 873.502 288.555C863.402 291.855 852.402 289.455 842.102 287.055C822.902 282.655 809.302 274.655 790.202 269.555C771.002 264.455 746.402 262.355 727.602 256.055C720.202 253.555 711.602 249.455 711.002 241.755C710.702 238.255 712.302 234.955 714.002 231.955C725.402 212.955 747.302 202.955 768.702 196.955C831.402 179.355 897.902 186.755 963.002 186.555C990.702 186.555 1018.8 184.955 1044.9 175.755C1071 166.555 1106.8 156.255 1118.2 131.055" stroke="white" stroke-width="7" stroke-linecap="round" stroke-linejoin="round"/>
<path d="M1475 1229.95C1451.2 1262.95 1426.1 1294.85 1400.8 1326.65C1384.4 1346.05 1377.4 1358.05 1364.3 1372.75C1358.9 1378.75 1351.7 1389.65 1345 1394.05C1323.9 1407.85 1305.8 1393.85 1289.5 1381.45C1279.2 1373.65 1266.3 1358.25 1262.3 1345.75C1259.7 1327.45 1299.9 1355.45 1314.6 1365.45C1324.2 1372.05 1333.5 1379.05 1342.5 1386.45C1347.6 1390.65 1352.9 1395.35 1355 1401.85C1357.6 1409.65 1355 1418.55 1351.9 1426.55C1348.4 1435.75 1344.1 1444.65 1339.2 1453.15C1337.7 1455.85 1335.9 1458.65 1333.3 1460.15C1330.4 1461.85 1327 1461.85 1323.8 1461.65C1299.1 1460.05 1276.2 1449.25 1256.6 1434.85C1237.1 1420.35 1218.4 1395.45 1202.2 1377.35C1197 1371.55 1191.6 1363.05 1196.2 1356.15C1199.8 1350.85 1207.3 1350.35 1213.3 1351.35C1227.5 1353.75 1242.2 1367.95 1254.4 1375.15C1278.5 1389.35 1302.5 1403.45 1326.6 1417.65C1335.7 1423.05 1345.8 1429.95 1346.5 1440.85C1347.1 1451.15 1339.1 1460.15 1331.6 1467.65C1325.7 1473.55 1319.9 1479.45 1314 1485.35C1308.1 1491.25 1301.7 1497.45 1293.8 1499.35C1285.2 1501.35 1276.7 1497.85 1268.9 1494.15C1241 1480.75 1211.9 1456.85 1193.3 1432.05C1187 1423.65 1181.7 1414.35 1179.1 1403.95C1178.2 1400.35 1177.8 1396.35 1179.7 1393.05C1182 1389.25 1187 1387.75 1191.3 1388.55C1195.5 1389.35 1199.1 1391.85 1202.5 1394.25C1229.4 1413.25 1258.6 1439.25 1285.5 1458.25C1291.7 1462.65 1298.3 1467.55 1300.2 1475.15C1302.8 1485.75 1295.2 1496.45 1288 1505.25C1280.1 1515.05 1270.7 1525.55 1258.6 1526.75C1249.5 1527.65 1241.2 1522.95 1234 1517.85C1208 1499.35 1185.7 1465.75 1174.9 1435.05C1173.9 1432.35 1173.2 1428.95 1175.2 1426.65C1177.9 1423.55 1182.8 1425.55 1186 1427.75C1212.8 1446.15 1241.9 1471.55 1264.4 1494.95C1270.1 1500.85 1275.8 1508.05 1275 1516.55C1273.9 1528.15 1261.7 1535.45 1251.1 1540.55C1245.9 1543.05 1240.4 1545.55 1234.8 1545.25C1231.3 1545.05 1228 1543.75 1224.9 1542.25C1196.4 1528.75 1174.5 1492.05 1172.7 1459.55C1179 1455.35 1186.5 1460.75 1191.5 1465.85C1202.9 1477.85 1216.1 1497.25 1226.6 1510.15C1231.8 1516.55 1236.5 1523.65 1242 1529.75C1246.9 1535.15 1250.9 1539.65 1251.9 1547.55C1252.3 1550.55 1252.1 1554.05 1249.9 1556.35C1248.4 1557.85 1246.4 1558.55 1244.4 1559.05C1233.4 1561.95 1221.9 1562.35 1211.1 1560.05C1207.5 1559.35 1203.7 1558.35 1200.2 1559.55C1197.6 1560.45 1195.4 1562.55 1193.4 1564.45C1183 1574.55 1170.5 1587.95 1160.1 1598.05C1156.1 1602.15 1152.5 1605.85 1149.4 1608.95C1122.8 1596.55 1098 1573.55 1070.8 1552.75C1044.5 1531.05 1006.3 1510.65 977.6 1501.35C970.1 1498.95 962.6 1496.45 954.9 1494.65C946.3 1492.55 937.5 1491.25 928.8 1490.15C913.2 1488.25 897.5 1486.95 881.8 1486.45C855.5 1485.55 828.7 1486.85 803.5 1494.45C801 1495.25 798.4 1496.05 796.5 1497.75C794.5 1499.45 793.3 1502.35 794.2 1504.75C795.2 1507.45 798.2 1508.75 801 1509.15C806.8 1510.05 812.7 1508.45 818.4 1506.85C849.1 1498.35 880.3 1492.05 911.9 1487.95C943.2 1483.85 974.8 1484.05 1006.3 1484.55C1014.8 1484.75 1023.5 1484.85 1031.6 1482.25C1038.6 1479.95 1044.8 1475.75 1050.9 1471.55C1069.4 1458.75 1088 1445.95 1104.5 1430.55C1106.5 1428.75 1108.5 1426.75 1109.1 1424.15C1109.8 1421.55 1108.5 1418.25 1105.9 1417.75C1104.4 1417.45 1102.9 1418.05 1101.5 1418.65C1065.6 1434.15 1026.8 1450.35 988.6 1442.15C1002.8 1438.25 1017.7 1438.05 1032.4 1436.35C1077.3 1431.15 1120.5 1412.05 1154.6 1382.25C1157.6 1379.65 1160.7 1375.65 1158.8 1372.25C1157.3 1369.55 1153.8 1369.15 1150.7 1369.15C1136.8 1369.45 1123.5 1374.25 1110.4 1378.65C1078.5 1389.25 1045.7 1397.45 1012.6 1403.15C1002.5 1404.85 991.5 1406.25 982.5 1401.45C1004.8 1394.45 1028.4 1392.85 1051.6 1389.55C1084.6 1384.95 1117.1 1377.05 1148.7 1366.15C1156.3 1363.55 1165.4 1358.35 1164.2 1350.35C1163 1341.95 1152 1339.95 1143.5 1340.05C1086.3 1341.05 1029.4 1348.75 972.8 1356.95C1025.5 1338.95 1081.6 1330.85 1137.2 1333.15C1143.3 1333.45 1149.6 1333.75 1155.1 1331.05C1160.5 1328.35 1164.5 1321.55 1161.8 1316.15C1160 1312.55 1156.1 1310.65 1152.4 1309.15C1121.4 1296.55 1087.4 1292.75 1054 1293.65C1020.6 1294.65 987.4 1300.15 954.5 1305.75C951.4 1306.25 948.1 1306.85 945.7 1308.85C943.2 1310.85 942 1314.65 943.9 1317.25C945.4 1319.25 948.1 1319.75 950.6 1319.95C989.8 1323.65 1030.5 1308.45 1057.6 1279.85C1060 1277.35 1062.3 1274.55 1063 1271.25C1063.7 1267.95 1062.2 1263.75 1058.9 1262.85C1057.2 1262.35 1055.4 1262.75 1053.7 1263.15C1016.7 1271.55 980.8 1285.05 943.2 1289.35C937.1 1290.05 931 1290.55 925.2 1292.55C918.3 1294.95 912.3 1299.45 906.4 1303.75C888.2 1317.15 869.4 1329.85 850.2 1341.85C831.9 1353.25 810.9 1362.15 793.5 1374.35C793 1374.65 792.5 1375.05 792.2 1375.55C791.9 1376.15 791.9 1376.85 791.9 1377.55C792.6 1391.55 793.3 1405.45 794 1419.45C794 1465.05 788.7 1513.15 776.6 1558.15C774.2 1567.15 771.1 1576.65 763.6 1582.15C756.9 1587.05 748.2 1587.55 740 1587.95C608.6 1594.35 474.2 1594.05 342.8 1600.45C324.4 1601.35 294.6 1594.85 278.3 1586.15C242.8 1567.05 242 1517.65 238.6 1481.85C233.9 1432.35 246.3 1375.95 254.9 1327.05C270.3 1239.35 299.4 1154.65 315.6 1067.05C335.1 962.053 336.7 851.253 383.9 755.453C389.4 744.253 395.7 733.153 405.4 725.153C422.3 711.253 444.9 711.953 456.3 730.853C475.1 762.053 484.2 798.053 491.3 833.753C508.3 919.253 515 1006.65 511.4 1093.75C511.1 1181.45 502.9 1269.35 498.1 1348.95C408.6 1316.55 295.7 1375.25 348.8 1391.05C382.7 1391.05 412.5 1369.25 444.1 1359.75C488.9 1347.45 505.4 1355.45 461.9 1385.15C443.5 1394.65 378.2 1441.25 420.3 1444.05C447.8 1445.95 471.7 1393.85 494.2 1376.75C526.9 1358.45 561.6 1396.85 585 1377.05C596.9 1366.95 577.1 1323.95 572.3 1284.55C556.9 1206.25 537.8 1113.85 532.4 1149.85C524.9 1223.35 557 1374.05 602.1 1371.35C661.9 1373.15 715.6 1363.65 775.8 1359.75C788.5 1414.45 776 1476.85 766.5 1532.25C765.2 1539.95 763.4 1548.05 757.8 1553.45C752.7 1558.25 745.5 1559.95 738.6 1561.15C700.6 1567.65 661.7 1565.45 623.4 1569.55C585.1 1573.75 545.4 1585.45 519.4 1613.95C515.2 1618.45 511.3 1623.85 511.1 1630.05C510.6 1644.05 527.7 1650.95 541.5 1653.25C624.8 1667.45 746.5 1652.65 792.2 1636.05C823.8 1624.55 728.4 1624.75 695.1 1628.95C465.2 1657.95 235.2 1666.15 3.5 1672.35" stroke="white" stroke-width="7" stroke-linecap="round" stroke-linejoin="round"/>
</svg>
