<svg width="2027" height="1655" viewBox="0 0 2027 1655" fill="none" xmlns="http://www.w3.org/2000/svg">
<path d="M2.82812 1375.65L144.028 1181.55L465.728 1373.45L684.528 958.954L904.928 1201.05L1030.43 920.054L1114.03 311.354L1158.53 304.654L1167.83 316.354L1131.93 307.354L1154.43 293.454L1166.13 313.754C1166.13 313.754 1146.03 293.554 1161.83 282.854C1177.63 272.154 1189.03 271.354 1196.63 293.254C1204.23 315.154 1187.03 310.954 1176.43 303.054C1165.93 295.154 1164.93 290.154 1173.93 283.654C1182.93 277.154 1193.33 286.554 1200.53 302.554C1207.73 318.554 1209.73 313.754 1222.43 329.354C1235.13 344.854 1238.93 360.954 1238.93 360.954C1238.93 360.954 1239.83 337.454 1230.13 330.554C1220.53 323.654 1211.83 316.954 1211.83 316.954L1328.73 326.754L1327.73 311.954L1203.63 295.054C1203.63 295.054 1198.33 279.754 1189.43 275.454C1180.53 271.154 1195.33 265.254 1213.13 274.354C1230.83 283.554 1241.63 293.954 1241.63 293.954C1241.63 293.954 1219.73 272.554 1207.93 271.854C1196.23 271.154 1206.63 260.954 1220.13 257.854C1233.73 254.754 1254.13 261.754 1270.23 272.254C1286.33 282.754 1302.33 285.354 1310.13 295.954C1317.93 306.554 1310.33 308.654 1310.33 308.654C1310.33 308.654 1312.23 329.554 1312.93 336.554C1313.53 343.554 1320.23 348.954 1311.53 369.054C1302.83 389.154 1301.43 385.454 1305.23 407.054C1309.13 428.754 1323.93 436.554 1286.23 440.954C1248.53 445.354 1241.63 457.454 1232.53 449.454C1223.43 441.454 1223.73 423.454 1213.83 419.954C1203.93 416.454 1204.43 399.854 1201.33 392.154C1198.23 384.354 1182.83 378.254 1178.73 355.854C1174.53 333.454 1167.43 315.754 1167.43 315.754C1167.43 315.754 1178.63 338.454 1181.13 356.854C1183.53 375.154 1189.83 380.054 1198.33 387.654C1206.83 395.254 1201.23 405.354 1208.73 414.954C1216.23 424.554 1221.63 424.054 1225.63 437.554C1229.63 451.054 1235.63 471.254 1233.83 499.054C1231.93 526.854 1238.33 552.454 1273.33 530.254C1308.23 508.054 1312.83 505.054 1329.33 502.854C1345.83 500.554 1335.33 475.454 1321.43 460.754C1307.53 446.054 1288.33 444.954 1315.43 471.254C1342.53 497.554 1354.13 516.754 1373.63 536.954C1393.13 557.254 1395.43 560.954 1342.03 598.954C1288.63 636.854 1277.43 642.054 1274.03 659.454C1270.63 676.854 1249.83 625.654 1232.03 606.954C1214.23 588.154 1214.83 577.654 1271.53 544.754C1328.23 511.754 1340.53 519.654 1285.43 552.454C1230.33 585.254 1199.33 572.654 1249.43 634.254C1299.53 695.854 1378.63 828.654 1391.63 862.254C1404.63 895.954 1436.03 780.654 1482.83 736.654C1529.63 692.654 1519.43 688.854 1477.73 669.254C1436.03 649.554 1395.93 573.554 1395.93 573.554C1395.93 573.554 1457.43 713.054 1501.03 692.454C1544.63 671.854 1527.73 647.454 1561.63 645.854C1595.53 644.154 1606.93 589.154 1597.23 569.454C1587.53 549.754 1586.23 522.454 1560.43 522.254C1534.63 522.054 1499.53 539.154 1493.93 496.854C1488.43 454.554 1494.63 441.654 1480.83 427.754C1467.03 413.854 1462.73 408.254 1465.63 392.554C1468.53 376.754 1463.23 350.754 1450.13 351.454C1437.03 352.154 1429.53 349.054 1444.93 314.954C1460.33 280.854 1466.43 287.354 1453.53 240.454C1440.73 193.454 1438.23 150.254 1466.43 119.854C1494.63 89.4539 1469.83 53.0539 1604.23 20.4539C1738.63 -12.1461 1808.23 1.55394 1865.23 67.7539C1922.33 133.854 1918.23 289.554 1872.93 355.754C1827.73 421.954 1829.13 437.054 1793.63 398.854C1758.13 360.554 1730.13 429.154 1689.63 369.654C1649.13 310.154 1641.63 222.654 1593.63 230.354C1545.53 238.054 1499.93 258.354 1496.23 202.854C1492.53 147.354 1454.53 149.954 1475.73 113.754C1496.83 77.5539 1735.63 -6.44606 1804.53 96.7539C1873.43 199.954 1842.53 309.454 1830.33 353.554C1818.23 397.654 1812.03 442.954 1830.33 467.654C1848.63 492.354 1866.73 503.254 1827.63 516.054C1788.53 528.854 1724.63 557.554 1698.63 577.954C1672.63 598.454 1658.03 615.554 1622.63 626.354C1587.23 637.054 1556.93 654.054 1558.33 691.454C1559.73 728.854 1552.23 777.854 1544.53 790.854C1536.83 803.954 1542.53 776.454 1626.03 701.054C1709.53 625.654 1743.83 603.754 1786.43 564.254C1829.13 524.754 1860.33 488.654 1873.73 522.654C1887.13 556.654 1900.53 583.254 1856.53 607.354C1812.53 631.454 1693.83 760.254 1668.83 790.654C1643.73 821.054 1643.73 801.254 1591.33 811.154C1538.93 821.054 1541.13 837.054 1541.13 837.054C1541.13 837.054 1609.53 801.354 1607.23 848.454C1604.93 895.554 1572.43 940.554 1496.53 1014.85C1420.53 1089.15 1376.13 1173.65 1376.13 1173.65C1376.13 1173.65 1373.53 1107.95 1397.43 1050.75C1421.33 993.554 1454.63 938.054 1495.63 889.454C1536.63 840.754 1555.33 781.054 1555.33 781.054C1555.33 781.054 1546.83 709.354 1557.93 675.254C1569.03 641.154 1537.43 649.654 1524.63 679.554C1511.83 709.454 1505.83 786.254 1477.73 820.354C1449.53 854.454 1504.13 796.454 1523.83 799.854C1543.43 803.254 1512.73 828.054 1493.13 857.954C1473.53 887.854 1434.23 950.154 1414.63 991.154C1395.03 1032.15 1382.23 1050.05 1382.23 1050.05C1382.23 1050.05 1400.13 942.454 1414.63 898.954C1429.13 855.454 1481.13 783.554 1501.53 730.254C1521.93 676.954 1523.83 683.754 1549.93 668.254C1576.13 652.754 1509.23 802.954 1567.43 753.554C1625.53 704.154 1747.63 614.954 1803.83 553.954C1860.03 492.954 1886.23 516.154 1888.13 583.954C1890.03 651.754 1884.23 675.054 1921.13 714.754C1957.93 754.454 2004.43 918.254 2009.33 991.854C2014.13 1065.45 2046.83 1118.15 1986.93 1292.95C1926.93 1467.75 1925.73 1461.35 1907.83 1530.25C1889.93 1599.15 2080.03 1050.65 1895.13 937.054C1710.13 823.554 1651.53 1102.85 1650.23 1129.65C1648.93 1156.45 1609.43 1437.05 1619.63 1508.55C1629.83 1579.95 1567.33 1618.25 1526.53 1586.35C1485.73 1554.45 1354.33 1545.55 1307.13 1579.95C1259.93 1614.45 1305.83 1451.15 1339.03 1347.75C1372.23 1244.45 1391.33 1201.05 1391.33 1201.05C1391.33 1201.05 1351.83 1322.25 1350.53 1383.45C1349.23 1444.65 1289.33 1636.05 1266.33 1647.45L1904.63 1651.35" stroke="white" stroke-width="7" stroke-linejoin="round"/>
</svg>
