<svg width="49" height="48" viewBox="0 0 49 48" fill="none" xmlns="http://www.w3.org/2000/svg">
<path fill-rule="evenodd" clip-rule="evenodd" d="M48.177 45.1845L46.1959 47.1735L43.142 44.1171L45.1231 42.1281L48.1779 45.1845H48.177ZM41.4662 40.4492C41.5131 40.4003 41.5572 40.3494 41.606 40.3033L41.7467 40.1689L42.6434 41.0646L42.0816 41.628L41.1897 40.7334L41.3208 40.5913C41.3667 40.5414 41.4165 40.4953 41.4662 40.4492ZM44.5575 41.5589L43.9201 40.9158L41.939 42.9047L42.5735 43.5479L44.5565 41.5589H44.5575ZM48.5913 47.5901C49.0048 47.1745 49.1168 46.5438 48.8708 46.0101L48.7502 45.749L46.75 47.7543L47.0113 47.8743C47.196 47.9578 47.396 48.001 47.5979 48C47.9702 48.0019 48.3272 47.8541 48.5894 47.5901H48.5913ZM40.76 39.7389C45.3461 35.1389 45.3461 27.6803 40.76 23.0794C36.1739 18.4795 28.7377 18.4795 24.1507 23.0794C19.5646 27.6794 19.5646 35.138 24.1507 39.7389C28.7406 44.3321 36.17 44.3321 40.76 39.7389ZM37.3319 19.3818C32.5104 17.4168 26.9845 18.5371 23.3018 22.2261C23.0511 22.4766 22.8128 22.7348 22.5879 22.9998H11.0642C10.7312 23.0017 10.4632 23.2743 10.4651 23.6084C10.4661 23.9386 10.7341 24.2045 11.0633 24.2035H11.0652H21.6835C20.6843 25.7087 20.0115 27.4077 19.7072 29.1903H11.0662C10.735 29.1903 10.4661 29.46 10.4661 29.7922C10.4661 30.1243 10.735 30.394 11.0662 30.394H19.5588C19.4287 32.0758 19.6239 33.7672 20.135 35.3741H11.0662C10.735 35.378 10.469 35.6515 10.4738 35.9837C10.4776 36.3101 10.7408 36.574 11.0662 36.5779H20.5848C21.2317 38.0754 22.1553 39.4365 23.3056 40.5904C23.6511 40.9311 24.0138 41.2546 24.3919 41.558H11.0633C10.7321 41.558 10.4632 41.8277 10.4632 42.1598C10.4632 42.492 10.7321 42.7617 11.0633 42.7617H26.1796C29.6077 44.6537 33.7019 44.9004 37.3319 43.4356V46.4449H6.13936V6.16175H37.3319V19.3818ZM0 0H31.1925V4.958H5.93264C5.38426 4.958 4.9402 5.40245 4.93924 5.95248C4.93924 5.95248 4.93924 5.95344 4.93924 5.9544V40.2899H0V0ZM10.9446 20.9868C10.6135 20.9858 10.3455 20.7171 10.3446 20.3849V11.2349C10.3455 10.9028 10.6135 10.634 10.9446 10.6331H20.0651C20.3963 10.634 20.6633 10.9028 20.6642 11.2349V20.3849C20.6642 20.7171 20.3953 20.9858 20.0651 20.9868H10.9446ZM11.5447 11.8368V19.7831H19.4641V11.8368H11.5447ZM21.2059 11.2349C21.2059 11.5671 21.4748 11.8359 21.806 11.8368H32.406C32.7372 11.8368 33.0061 11.5671 33.0061 11.2349C33.0061 10.9028 32.7372 10.6331 32.406 10.6331H21.806C21.4748 10.6331 21.2069 10.9028 21.2059 11.2349ZM21.2059 17.4188C21.204 17.749 21.47 18.0187 21.7993 18.0206C21.8012 18.0206 21.804 18.0206 21.806 18.0206H32.406C32.7372 18.0206 33.0061 17.7519 33.0071 17.4197C33.0071 17.0876 32.7391 16.8179 32.4079 16.8169H21.806C21.4748 16.8169 21.2069 17.0866 21.2059 17.4188ZM25.3853 38.4987C29.289 42.4152 35.6188 42.4152 39.5235 38.4996C43.4282 34.5841 43.4282 28.2352 39.5244 24.3187C35.6207 20.4022 29.2909 20.4022 25.3862 24.3177H25.3853C21.4815 28.192 21.4471 34.5064 25.3087 38.4219C25.3345 38.4478 25.3604 38.4737 25.3853 38.4987ZM38.6755 25.1644C35.2388 21.7163 29.667 21.7154 26.2294 25.1625C22.7917 28.6096 22.7907 34.1982 26.2274 37.6463C29.6641 41.0943 35.236 41.0953 38.6736 37.6482L38.6755 37.6463C42.1065 34.1973 42.1065 28.6134 38.6755 25.1644Z" fill="white"/>
</svg>
