<svg width="46" height="42" viewBox="0 0 46 42" fill="none" xmlns="http://www.w3.org/2000/svg">
<path d="M45.9215 0.62C45.8215 0.38 45.6215 0.18 45.3815 0.08C45.2615 0.03 45.1315 0 45.0015 0H37.0015C36.4515 0 36.0015 0.45 36.0015 1C36.0015 1.55 36.4515 2 37.0015 2H42.5915L24.9415 19.65L13.6415 10.23C13.3315 9.98 12.9115 9.93 12.5515 10.1L0.551459 16.11C0.061459 16.36 -0.138541 16.96 0.101459 17.45C0.341459 17.94 0.951459 18.15 1.44146 17.9L12.8515 12.19L24.3515 21.77C24.5415 21.92 24.7615 22 24.9915 22C25.2515 22 25.5015 21.9 25.7015 21.71L44.0015 3.41V9C44.0015 9.55 44.4515 10 45.0015 10C45.5515 10 46.0015 9.55 46.0015 9V1C46.0015 0.87 45.9715 0.74 45.9215 0.62Z" fill="white"/>
<path d="M45.3815 12.08C45.0115 11.92 44.5815 12.01 44.2915 12.3L24.9415 31.65L13.6415 22.23C13.3315 21.98 12.9115 21.93 12.5515 22.1L0.551465 28.1C0.211465 28.27 0.00146484 28.62 0.00146484 29V41C0.00146484 41.55 0.451465 42 1.00146 42H45.0015C45.5515 42 46.0015 41.55 46.0015 41V13C46.0015 12.6 45.7615 12.23 45.3815 12.08Z" fill="white"/>
</svg>
