<?xml version="1.0" encoding="UTF-8"?>
<svg id="Layer_1" data-name="Layer 1" xmlns="http://www.w3.org/2000/svg" viewBox="0 0 369.59 67.23">
  <g>
    <path d="M193.08,25.06l-.19.19c-1.48,0-2.31.4-2.5,1.18-.1.44-.18,1.39-.23,2.86-.04,1.09-.06,2.66-.06,4.72v5.79c0,3.72-.73,6.38-2.2,7.97-1.94,2.11-4.71,3.16-8.31,3.16-3.28,0-5.85-.55-7.69-1.63-1.55-.93-2.57-2.24-3.04-3.95-.3-1.09-.45-3.94-.45-8.54v-4.85c0-2.98-.08-4.92-.25-5.83-.07-.36-.28-.6-.64-.7-.19-.05-.92-.11-2.2-.19l-.19-.19v-1.26l.19-.19c1.2.08,3.13.12,5.79.12s4.63-.04,5.77-.12l.19.19v1.26l-.19.19c-1.28.08-2.01.14-2.2.19-.36.1-.58.33-.64.7-.16.9-.25,2.84-.25,5.83v3.87c0,4.74.21,7.64.64,8.7.85,2.11,2.95,3.16,6.3,3.16,2.19,0,3.9-.54,5.13-1.61.58-.51.98-1.03,1.2-1.56.23-.53.4-1.34.53-2.44.11-1.03.17-2.07.17-3.12v-3.91c0-3.28-.01-5.53-.04-6.73-.03-1.13-.1-1.86-.23-2.2-.1-.25-.32-.45-.66-.58-.29-.12-1.06-.21-2.31-.28l-.19-.19v-1.26l.19-.19c1.09.08,2.21.12,3.36.12.86,0,2.52-.04,4.98-.12l.19.19v1.26h.01Z" style="fill: #fff;"/>
    <path d="M178.76,24.53c0,.75-.27,1.4-.81,1.94-.54.54-1.18.81-1.92.81s-1.41-.27-1.94-.8-.79-1.18-.79-1.95.27-1.45.81-1.99c.54-.53,1.18-.8,1.92-.8s1.38.27,1.92.82c.54.55.81,1.2.81,1.97Z" style="fill: #fff;"/>
    <path d="M185.9,24.53c0,.76-.27,1.41-.8,1.95s-1.18.8-1.95.8-1.39-.27-1.93-.8-.8-1.18-.8-1.95.27-1.42.81-1.97c.54-.55,1.18-.82,1.92-.82s1.38.27,1.93.8.82,1.19.82,1.99Z" style="fill: #fff;"/>
    <path d="M272.96,24.53c0,.75-.27,1.4-.81,1.94-.54.54-1.18.81-1.92.81s-1.41-.27-1.94-.8-.79-1.18-.79-1.95.27-1.45.81-1.99c.54-.53,1.18-.8,1.92-.8s1.38.27,1.92.82c.54.55.81,1.2.81,1.97Z" style="fill: #fff;"/>
    <path d="M280.09,24.53c0,.76-.27,1.41-.8,1.95s-1.18.8-1.95.8-1.39-.27-1.93-.8-.8-1.18-.8-1.95.27-1.42.81-1.97,1.18-.82,1.92-.82,1.38.27,1.93.8.82,1.19.82,1.99h0Z" style="fill: #fff;"/>
    <path d="M227.36,25.06l-.21.19c-1.28.08-2.01.14-2.2.19-.37.1-.58.33-.64.7-.16.9-.25,2.84-.25,5.83v7.63c0,5.63.08,9.29.25,11l-.25.17c-1.41-.24-2.49-.41-3.21-.51-3.36-3.77-9.09-10.65-17.2-20.64v12.29c0,2.98.08,4.92.25,5.83.06.36.28.6.64.7.19.05.92.12,2.2.19l.19.19v1.28l-.19.17c-1.44-.08-2.78-.12-4.02-.12-1.44,0-2.89.04-4.34.12l-.19-.17v-1.28l.19-.19c1.28-.08,2.01-.14,2.2-.19.36-.1.58-.33.64-.7.16-.9.25-2.84.25-5.83v-9.94c0-2.98-.08-4.92-.25-5.83-.07-.36-.28-.6-.64-.7-.19-.05-.92-.11-2.2-.19l-.19-.19v-1.28l.19-.17c1.19.08,2.32.12,3.4.12,1.69,0,3.09-.04,4.21-.12,4.51,6.02,9.81,12.46,15.9,19.34v-11c0-2.98-.08-4.92-.25-5.83-.07-.36-.28-.6-.64-.7-.19-.05-.92-.11-2.2-.19l-.19-.19v-1.28l.19-.17c1.4.08,2.74.12,4,.12,1.61,0,3.07-.04,4.36-.12l.19.17v1.28h0Z" style="fill: #fff;"/>
    <path d="M253.25,43.86c-.28,1.83-.41,3.9-.41,6.2l-.19.19-13.67-.12c-2.28,0-3.89.04-4.83.12l-.19-.19v-.53l.1-.23c.93-.59,1.43-.96,1.5-1.11.12-.23.18-1.06.21-2.5l.06-4.21v-9.53c0-2.98-.08-4.92-.25-5.83-.07-.36-.28-.6-.64-.7-.19-.05-.92-.11-2.2-.19l-.19-.19v-1.28l.19-.17c1.29.08,3.18.12,5.68.12s4.54-.04,5.88-.12l.19.17v1.3l-.19.17c-1.28.08-2.01.14-2.2.19-.36.1-.58.33-.64.7-.16.9-.25,2.84-.25,5.83v11.24c0,1.64.03,3.23.1,4.77h2.56c3.66,0,5.9-.15,6.73-.43.14-.05.24-.12.3-.21.13-.18.25-.55.36-1.13l.45-2.33.19-.21h1.15l.21.19h0Z" style="fill: #fff;"/>
    <path d="M286.94,25.06l-.19.19c-1.48,0-2.31.4-2.5,1.18-.1.44-.18,1.39-.23,2.86-.04,1.09-.06,2.66-.06,4.72v5.79c0,3.72-.73,6.38-2.2,7.97-1.94,2.11-4.71,3.16-8.31,3.16-3.28,0-5.85-.55-7.69-1.63-1.55-.93-2.57-2.24-3.04-3.95-.3-1.09-.45-3.94-.45-8.54v-4.85c0-2.98-.08-4.92-.25-5.83-.07-.36-.28-.6-.64-.7-.19-.05-.92-.11-2.2-.19l-.19-.19v-1.26l.19-.19c1.2.08,3.13.12,5.79.12s4.63-.04,5.77-.12l.19.19v1.26l-.19.19c-1.28.08-2.01.14-2.2.19-.36.1-.58.33-.64.7-.16.9-.25,2.84-.25,5.83v3.87c0,4.74.21,7.64.64,8.7.85,2.11,2.95,3.16,6.3,3.16,2.19,0,3.9-.54,5.13-1.61.58-.51.98-1.03,1.2-1.56s.4-1.34.53-2.44c.11-1.03.17-2.07.17-3.12v-3.91c0-3.28-.01-5.53-.04-6.73-.03-1.13-.1-1.86-.23-2.2-.1-.25-.32-.45-.66-.58-.29-.12-1.06-.21-2.31-.28l-.19-.19v-1.26l.19-.19c1.09.08,2.21.12,3.36.12.86,0,2.52-.04,4.98-.12l.19.19v1.26h.01Z" style="fill: #fff;"/>
    <path d="M313.14,41.65l.23.52-.04.17c-.15.14-.49.49-1.02,1.07-.54.58-.88.98-1.04,1.2-.54.13-.97.19-1.31.19-.84,0-1.61-.17-2.33-.51-.71-.34-1.35-.72-1.91-1.15-1.35,1.11-2.94,1.67-4.76,1.67-1.68,0-2.97-.46-3.89-1.38s-1.37-2-1.37-3.23c0-1.07.33-1.97.99-2.71.66-.74,1.53-1.37,2.62-1.9-.51-1.13-.76-2.17-.76-3.1,0-.66.13-1.13.38-1.42l1.07-1.26c.46-.54.77-.87.95-.99.18-.12.46-.24.85-.37.39-.13.79-.19,1.19-.19.81,0,1.44.23,1.91.69s.7,1.07.7,1.83-.27,1.5-.82,2.21-1.49,1.47-2.83,2.32c.58.91,1.31,1.88,2.21,2.91.9,1.03,1.76,1.85,2.58,2.46.48-.78.72-1.51.72-2.21,0-.32-.05-.62-.13-.93s-.19-.56-.31-.76h-2.02l-.1-.14c.2-.3.44-.78.73-1.43,1.13.04,1.94.06,2.42.06,2.21,0,3.81-.06,4.79-.18l.11.09c-.26.69-.39,1.24-.4,1.67l-.11.11c-1-.09-2.09-.14-3.27-.16.08.34.11.65.11.95,0,.52-.11,1.06-.32,1.6-.21.55-.62,1.19-1.22,1.94.46.34,1.02.62,1.68.82s1.28.31,1.86.31c.17,0,.32-.02.45-.06s.55-.3,1.25-.77l.16.07v.02ZM299.77,36.55c-.34.21-.65.51-.91.9s-.39.85-.39,1.36c0,.78.2,1.5.6,2.16.4.66.9,1.19,1.49,1.59.59.4,1.25.61,1.98.61.77,0,1.51-.24,2.23-.72-1.08-.93-2-1.83-2.74-2.7s-1.5-1.95-2.25-3.2h0ZM301.47,34.35c.68-.47,1.2-.95,1.56-1.44.36-.49.54-1.03.54-1.6,0-.46-.13-.85-.39-1.15-.26-.3-.6-.46-1.02-.46-.46,0-.82.16-1.09.49-.27.33-.41.73-.41,1.21,0,.84.27,1.83.81,2.94h0Z" style="fill: #fff;"/>
    <path d="M345.49,47.08l-.86,1.92c-2.64,1.45-5.6,2.18-8.87,2.18-6.54,0-11.01-2.36-13.42-7.07-1.11-2.18-1.67-4.54-1.67-7.09,0-4.11,1.36-7.39,4.1-9.83,2.79-2.52,6.61-3.78,11.45-3.78,3.07,0,6.07.56,9,1.67l.25.28c-.43,1.73-.69,3.75-.79,6.07l-.17.19h-1.11l-.19-.21c-.04-1.51-.11-2.57-.21-3.16-1.56-1.77-3.83-2.65-6.79-2.65s-5.43.97-7.16,2.89c-1.73,1.93-2.59,4.55-2.59,7.86,0,4.47,1.54,7.91,4.62,10.3,1.64,1.28,3.84,1.92,6.6,1.92,2.51,0,4.95-.65,7.35-1.94l.47.43h-.01Z" style="fill: #fff;"/>
    <path d="M369.59,41.05c0,4.44-1.49,7.44-4.47,9-1.45.76-3.11,1.15-4.98,1.15-2.88,0-5.08-.83-6.59-2.5s-2.27-4.05-2.27-7.16c0-4.3,1.46-7.16,4.4-8.59,1.44-.7,3.11-1.05,5.02-1.05,4,0,6.65,1.38,7.95,4.15.63,1.33.94,2.99.94,5h0ZM364.38,42.59c0-3.12-.34-5.36-1.02-6.7-.68-1.35-1.73-2.02-3.13-2.02-2.49,0-3.74,2.25-3.74,6.75,0,5.78,1.4,8.67,4.19,8.67,1.74,0,2.85-.96,3.32-2.87.25-1,.38-2.28.38-3.82h0Z" style="fill: #fff;"/>
  </g>
  <path d="M152.94,67.23c-.28,0-.51-.23-.51-.51V.51c0-.28.23-.51.51-.51s.51.23.51.51v66.21c0,.28-.23.51-.51.51h0Z" style="fill: #fff;"/>
  <g>
    <path d="M62.62,23.71v27.69H27.16v-27.69h-15.35v34.36c.05,4.77,3.93,8.64,8.73,8.65h7.36s50.07,0,50.07,0V23.71h-15.35Z" style="fill: #fff;"/>
    <path d="M77.89,2.18c-18.39,12.4-35.94,14.71-54.15,12.44C15.11,13.54,6.59,10.46,0,7.36c8.15,4.83,18.95,8.44,31.47,10,21.74,2.72,42.96-1.43,56.15-9.8.2-.11.39-.23.56-.35.02-.02.06-.03.07-.04h0c.66-.5,1.15-1.1,1.39-1.77.78-2.21-1.47-4.37-5.05-4.81-.45-.06-.88-.08-1.31-.08-2.13,0-4.11.64-5.38,1.66h0Z" style="fill: #fff;"/>
  </g>
  <path d="M124.42,25.88c4.73,0,9.24,1.87,12.58,5.21,3.34,3.34,5.21,7.85,5.21,12.58s-1.87,9.24-5.21,12.58c-3.34,3.34-7.85,5.21-12.58,5.21s-9.24-1.87-12.58-5.21c-1.21-1.21-2.23-2.57-3.04-4.07-.43-.78-.8-1.6-1.09-2.42-.38-1.07-.54-2.04-.86-3.12-.31-1.04-.88-2-1.66-2.78-1.71-1.71-4.21-2.33-6.52-1.73l-1.68.44-1.72-2.97-.9-1.41,5.36-6.08h-10.27v-6.25h24.09l-9.13,10.41c.87.28,1.72.65,2.51,1.11.8.46,1.55,1.01,2.23,1.63,1.09.99,2.01,2.17,2.7,3.47.5.93.88,1.92,1.13,2.94.25,1,.35,1.73.77,2.72.58,1.37,1.41,2.62,2.49,3.7,2.18,2.18,5.1,3.39,8.18,3.39s6-1.21,8.18-3.39,3.39-5.1,3.39-8.18-1.21-6-3.39-8.18c-2.18-2.18-5.1-3.39-8.18-3.39s-6,1.21-8.18,3.39c-1.57,1.57-2.64,3.54-3.11,5.66-1.48-2.39-3.08-4.08-4.79-5.09.86-1.83,2.05-3.51,3.51-4.97,3.34-3.34,7.85-5.21,12.58-5.21h0ZM110.2,57.03c-.2.22-.4.44-.61.65-5.04,5.04-13.33,5.04-18.38,0-1.62-1.62-2.79-3.66-3.36-5.88l-.74-2.85h6.38l.5,1.6c.32,1.02.89,1.96,1.64,2.71,2.6,2.61,6.94,2.61,9.54,0,.54-.54.98-1.17,1.3-1.84,1.05,2.46,2.29,4.34,3.72,5.61h0Z" style="fill: #fff; fill-rule: evenodd;"/>
</svg>