<svg width="373" height="78" viewBox="0 0 373 78" fill="none" xmlns="http://www.w3.org/2000/svg">
<path d="M164.678 27.1791C163.844 27.1791 163.021 27.1566 162.21 27.1228C162.063 26.6387 161.815 26.1996 161.421 25.828C160.801 25.2201 160.057 24.9161 159.211 24.9161C158.366 24.9161 157.633 25.2313 157.014 25.8506C156.394 26.4811 156.089 27.2242 156.089 28.1024C156.089 28.9806 156.394 29.7236 157.002 30.3316C157.611 30.9396 158.355 31.2436 159.211 31.2436C160.068 31.2436 160.835 30.9396 161.443 30.3316C161.826 29.9488 162.063 29.521 162.21 29.0368C162.841 29.1044 163.258 29.172 163.461 29.2508C163.844 29.4084 164.103 29.6336 164.216 29.915C164.363 30.2979 164.441 31.1423 164.475 32.4371C164.509 33.8106 164.52 36.3889 164.52 40.1494V44.6305C164.52 45.8352 164.453 47.0287 164.329 48.1996C164.182 49.4606 163.979 50.3951 163.72 51.0031C163.461 51.6111 162.999 52.1965 162.345 52.7932C160.936 54.0317 158.975 54.6397 156.461 54.6397C152.629 54.6397 150.217 53.435 149.236 51.0256C148.751 49.8096 148.503 46.4882 148.503 41.0614V36.6254C148.503 33.4729 148.582 31.3562 148.74 30.2303C148.774 30.2641 148.796 30.3091 148.83 30.3429C149.439 30.9509 150.172 31.2549 151.051 31.2549C151.93 31.2549 152.629 30.9509 153.249 30.3316C153.869 29.7124 154.173 28.9806 154.173 28.1136C154.173 27.2467 153.869 26.4923 153.249 25.8618C152.629 25.2426 151.896 24.9273 151.051 24.9273C150.205 24.9273 149.473 25.2313 148.853 25.8393C148.458 26.2221 148.21 26.6837 148.064 27.1791C147.264 27.1791 146.396 27.1904 145.415 27.1904C142.372 27.1904 140.151 27.1453 138.776 27.0665L138.562 27.2805V28.7216L138.776 28.9355C140.241 29.0256 141.087 29.0931 141.301 29.1494C141.718 29.262 141.966 29.5322 142.034 29.9488C142.225 30.9846 142.315 33.2027 142.315 36.6254V42.176C142.315 47.4452 142.484 50.6991 142.834 51.9488C143.375 53.8966 144.547 55.4053 146.328 56.4749C148.436 57.7247 151.378 58.3439 155.142 58.3439C159.268 58.3439 162.446 57.1392 164.667 54.7298C166.346 52.9058 167.192 49.8659 167.192 45.5988V38.9672C167.192 36.6141 167.214 34.8127 167.259 33.5629C167.316 31.8854 167.406 30.7932 167.519 30.2866C167.733 29.3859 168.691 28.9355 170.382 28.9355L170.596 28.7216V27.2805L170.382 27.0665C167.564 27.1566 165.659 27.1904 164.667 27.1904L164.678 27.1791Z" fill="white"/>
<path d="M204.704 27.1791C203.25 27.1791 201.717 27.1341 200.116 27.0553L199.902 27.2467V28.7103L200.116 28.9243C201.581 29.0143 202.427 29.0819 202.641 29.1382C203.058 29.2508 203.306 29.521 203.374 29.9376C203.565 30.9734 203.655 33.1914 203.655 36.6141V49.2129C196.667 41.3316 190.592 33.9458 185.418 27.0553C184.144 27.1453 182.532 27.1791 180.594 27.1791C179.354 27.1791 178.058 27.1341 176.694 27.0553L176.48 27.2467V28.7103L176.694 28.9243C178.159 29.0143 179.004 29.0819 179.219 29.1382C179.636 29.2508 179.884 29.521 179.951 29.9376C180.143 30.9734 180.233 33.1914 180.233 36.6141V48.0082C180.233 51.4197 180.143 53.6489 179.951 54.6848C179.884 55.1013 179.636 55.3715 179.219 55.4841C179.004 55.5404 178.159 55.608 176.694 55.6981L176.48 55.912V57.3756L176.694 57.567C178.362 57.477 180.019 57.4432 181.676 57.4432C183.096 57.4432 184.64 57.4882 186.286 57.567L186.5 57.3756V55.912L186.286 55.6981C184.821 55.608 183.975 55.5404 183.761 55.4841C183.344 55.3715 183.096 55.1013 183.028 54.6848C182.837 53.6489 182.747 51.4309 182.747 48.0082V33.9345C192.046 45.3736 198.617 53.2549 202.472 57.567C203.306 57.6796 204.535 57.871 206.158 58.1525L206.44 57.9611C206.248 56.0133 206.158 51.8137 206.158 45.3623V36.6254C206.158 33.2139 206.248 30.9847 206.44 29.9488C206.507 29.5322 206.755 29.262 207.172 29.1494C207.386 29.0931 208.232 29.0256 209.697 28.9355L209.934 28.7216V27.2579L209.72 27.0665C208.243 27.1566 206.575 27.1904 204.715 27.1904L204.704 27.1791Z" fill="white"/>
<path d="M238.045 50.0123L237.831 50.2487L237.312 52.9171C237.188 53.5814 237.042 54.0092 236.907 54.2119C236.839 54.3132 236.715 54.392 236.557 54.4483C235.61 54.7748 233.041 54.9437 228.836 54.9437H225.906C225.838 53.1761 225.793 51.3521 225.793 49.4719V36.6029C225.793 33.1914 225.883 30.9621 226.075 29.9263C226.142 29.5097 226.39 29.2395 226.807 29.1269C227.022 29.0706 227.867 29.0031 229.332 28.913L229.546 28.7216V27.2354L229.332 27.044C227.799 27.1341 225.545 27.1679 222.592 27.1679C219.639 27.1679 217.565 27.1228 216.088 27.044L215.874 27.2354V28.6991L216.088 28.913C217.553 29.0031 218.399 29.0706 218.613 29.1269C219.03 29.2395 219.278 29.5097 219.346 29.9263C219.537 30.9621 219.627 33.1801 219.627 36.6029V47.5241L219.56 52.3429C219.526 53.998 219.447 54.9437 219.323 55.2027C219.233 55.3715 218.658 55.7994 217.598 56.4749L217.486 56.7339V57.3306L217.7 57.5445C218.782 57.4545 220.619 57.4207 223.234 57.4207L238.902 57.5445L239.116 57.3306C239.116 54.696 239.274 52.3204 239.589 50.2262L239.353 50.0123H238.034H238.045Z" fill="white"/>
<path d="M272.311 27.1791C271.612 27.1791 270.913 27.1679 270.237 27.1453C270.09 26.6499 269.831 26.2109 269.448 25.828C268.828 25.2201 268.084 24.9161 267.239 24.9161C266.393 24.9161 265.66 25.2313 265.041 25.8506C264.421 26.4811 264.116 27.2242 264.116 28.1024C264.116 28.9806 264.421 29.7236 265.029 30.3316C265.638 30.9396 266.382 31.2436 267.239 31.2436C268.095 31.2436 268.862 30.9396 269.47 30.3316C269.842 29.9601 270.079 29.5435 270.225 29.0819C270.654 29.1382 270.947 29.1945 271.105 29.2508C271.488 29.4084 271.747 29.6336 271.86 29.915C272.006 30.2979 272.085 31.1423 272.119 32.4371C272.153 33.8106 272.164 36.3889 272.164 40.1494V44.6305C272.164 45.8352 272.097 47.0287 271.973 48.1996C271.826 49.4606 271.623 50.3951 271.364 51.0031C271.105 51.6111 270.643 52.1965 269.989 52.7932C268.58 54.0317 266.619 54.6397 264.105 54.6397C260.273 54.6397 257.861 53.435 256.88 51.0256C256.395 49.8096 256.147 46.4882 256.147 41.0614V36.6254C256.147 33.2139 256.237 30.9846 256.429 29.9488C256.429 29.915 256.452 29.8813 256.463 29.8475C256.576 30.0164 256.711 30.1853 256.857 30.3429C257.466 30.9509 258.199 31.2549 259.078 31.2549C259.957 31.2549 260.656 30.9509 261.276 30.3316C261.896 29.7124 262.2 28.9806 262.2 28.1136C262.2 27.2467 261.896 26.4923 261.276 25.8618C260.656 25.2426 259.923 24.9273 259.078 24.9273C258.233 24.9273 257.5 25.2313 256.88 25.8393C256.485 26.2221 256.237 26.6725 256.091 27.1791C255.2 27.1904 254.197 27.2016 253.059 27.2016C250.015 27.2016 247.795 27.1566 246.42 27.0778L246.206 27.2917V28.7329L246.42 28.9468C247.885 29.0368 248.731 29.1044 248.945 29.1607C249.362 29.2733 249.61 29.5435 249.677 29.9601C249.869 30.9959 249.959 33.2139 249.959 36.6366V42.1873C249.959 47.4565 250.128 50.7103 250.478 51.9601C251.019 53.9079 252.191 55.4166 253.972 56.4862C256.08 57.7359 259.022 58.3552 262.786 58.3552C266.912 58.3552 270.09 57.1505 272.311 54.741C273.99 52.9171 274.836 49.8772 274.836 45.61V38.9785C274.836 36.6254 274.858 34.824 274.903 33.5742C274.96 31.8966 275.05 30.8045 275.162 30.2979C275.377 29.3971 276.335 28.9468 278.025 28.9468L278.24 28.7329V27.2917L278.025 27.0778C275.208 27.1679 273.303 27.2016 272.311 27.2016V27.1791Z" fill="white"/>
<path d="M308.098 47.6366C307.298 48.1883 306.813 48.4811 306.667 48.5261C306.52 48.5711 306.34 48.5937 306.148 48.5937C305.483 48.5937 304.784 48.4811 304.018 48.2446C303.263 48.0082 302.62 47.6929 302.079 47.2989C302.778 46.4432 303.24 45.7001 303.477 45.0809C303.713 44.4616 303.837 43.8424 303.837 43.2456C303.837 42.9079 303.792 42.5363 303.713 42.1535C305.066 42.176 306.317 42.2323 307.467 42.3337L307.591 42.2098C307.613 41.7257 307.76 41.0839 308.053 40.2958L307.929 40.1945C306.802 40.3296 304.965 40.3971 302.428 40.3971C301.876 40.3971 300.952 40.3746 299.656 40.3296C299.318 41.0839 299.047 41.6244 298.822 41.9734L298.934 42.131H301.245C301.38 42.3674 301.504 42.6489 301.594 43.0092C301.696 43.3582 301.741 43.7185 301.741 44.0788C301.741 44.8782 301.47 45.7114 300.918 46.6008C299.971 45.9028 298.991 44.957 297.965 43.7861C296.939 42.6151 296.094 41.5005 295.44 40.4534C296.984 39.4852 298.066 38.607 298.686 37.7963C299.306 36.9969 299.622 36.1525 299.622 35.2743C299.622 34.3961 299.351 33.6981 298.822 33.1801C298.292 32.651 297.559 32.392 296.635 32.392C296.173 32.392 295.722 32.4596 295.271 32.6059C294.82 32.7523 294.493 32.8874 294.29 33.0338C294.088 33.1689 293.727 33.5517 293.208 34.1597L291.98 35.6121C291.687 35.9498 291.54 36.4903 291.54 37.2446C291.54 38.3142 291.833 39.4964 292.408 40.8025C291.157 41.3992 290.154 42.1197 289.399 42.9754C288.643 43.8199 288.271 44.8557 288.271 46.0829C288.271 47.4903 288.79 48.7288 289.838 49.7871C290.886 50.8454 292.363 51.3746 294.29 51.3746C296.376 51.3746 298.202 50.7329 299.746 49.4606C300.388 49.956 301.121 50.3951 301.933 50.7779C302.755 51.1607 303.635 51.3521 304.593 51.3521C304.976 51.3521 305.483 51.2845 306.092 51.1382C306.272 50.8905 306.667 50.4289 307.275 49.7646C307.884 49.1003 308.278 48.6837 308.448 48.5374L308.481 48.346L308.222 47.7605L308.042 47.6817L308.098 47.6366ZM294.437 34.5762C294.753 34.2047 295.17 34.0133 295.688 34.0133C296.173 34.0133 296.556 34.1822 296.86 34.5312C297.165 34.8802 297.311 35.3193 297.311 35.8485C297.311 36.5128 297.108 37.1208 296.691 37.6837C296.274 38.2467 295.677 38.7984 294.899 39.3388C294.279 38.0553 293.975 36.9294 293.975 35.9611C293.975 35.4094 294.133 34.9365 294.448 34.565L294.437 34.5762ZM296.116 49.4381C295.282 49.4381 294.527 49.2129 293.851 48.74C293.175 48.2784 292.6 47.6704 292.138 46.9161C291.675 46.1617 291.45 45.3398 291.45 44.4391C291.45 43.8536 291.596 43.3245 291.901 42.8854C292.205 42.435 292.543 42.0972 292.938 41.8495C293.806 43.2907 294.662 44.5066 295.519 45.5087C296.376 46.5107 297.424 47.5466 298.664 48.6049C297.841 49.1566 296.984 49.4268 296.105 49.4268L296.116 49.4381Z" fill="white"/>
<path d="M336.401 55.653C333.245 55.653 330.72 54.9212 328.838 53.4575C325.299 50.7216 323.54 46.781 323.54 41.6581C323.54 37.8639 324.532 34.869 326.516 32.6622C328.5 30.4555 331.239 29.3521 334.733 29.3521C338.227 29.3521 340.718 30.3654 342.51 32.392C342.623 33.0676 342.702 34.2723 342.747 36.0061L342.961 36.2426H344.235L344.427 36.0287C344.539 33.3715 344.844 31.0522 345.328 29.0706L345.046 28.7441C341.688 27.4719 338.238 26.8301 334.722 26.8301C329.176 26.8301 324.803 28.2712 321.602 31.1535C318.468 33.957 316.901 37.7062 316.901 42.4125C316.901 45.3286 317.544 48.0307 318.817 50.5302C321.579 55.9232 326.708 58.6254 334.203 58.6254C337.957 58.6254 341.349 57.7922 344.381 56.1259L345.373 53.9304L344.832 53.435C342.082 54.9099 339.275 55.653 336.401 55.653Z" fill="white"/>
<path d="M371.929 41.2866C370.43 38.1116 367.398 36.524 362.81 36.524C360.624 36.524 358.708 36.9294 357.051 37.7288C353.692 39.3613 352.012 42.6489 352.012 47.5691C352.012 51.1269 352.88 53.8628 354.605 55.7769C356.341 57.6909 358.854 58.6366 362.157 58.6366C364.298 58.6366 366.203 58.1975 367.871 57.3193C371.287 55.5292 373 52.0839 373 47.0061C373 44.7093 372.639 42.7953 371.918 41.2753L371.929 41.2866ZM366.598 53.1535C366.057 55.349 364.783 56.4524 362.788 56.4524C359.587 56.4524 357.986 53.1423 357.986 46.5333C357.986 41.3767 359.418 38.7984 362.281 38.7984C363.892 38.7984 365.087 39.5752 365.865 41.1177C366.643 42.6602 367.037 45.216 367.037 48.7963C367.037 50.564 366.891 52.0164 366.609 53.1648L366.598 53.1535Z" fill="white"/>
<path d="M120.55 0C120.223 0 119.964 0.258956 119.964 0.585466V76.4258C119.964 76.7523 120.223 77.0113 120.55 77.0113C120.877 77.0113 121.136 76.7523 121.136 76.4258V0.585466C121.136 0.258956 120.877 0 120.55 0Z" fill="white"/>
<path d="M71.8001 27.1566V58.8731H31.1434V27.1566H13.5485V66.5066C13.6048 71.9785 18.0571 76.4033 23.5576 76.4145H32.0001H89.4176V27.1566H71.8114H71.8001Z" fill="white"/>
<path d="M89.3049 2.48823C68.2158 16.6858 48.0959 19.3429 27.2209 16.7421C17.3357 15.5036 7.56325 11.9795 0 8.43296C9.34416 13.9724 21.7204 18.1044 36.0804 19.8946C61.0132 23.0133 85.3373 18.2508 100.464 8.66939C100.689 8.54555 100.903 8.41044 101.106 8.26407C101.129 8.24155 101.174 8.2303 101.174 8.21904C101.929 7.64483 102.493 6.95803 102.774 6.19242C103.676 3.65916 101.084 1.19345 96.9809 0.675536C96.4737 0.607982 95.9664 0.585464 95.4705 0.585464C93.0246 0.585464 90.7477 1.3173 89.3049 2.48823Z" fill="white"/>
</svg>
