<?xml version="1.0" encoding="UTF-8"?>
<svg id="Layer_1" xmlns="http://www.w3.org/2000/svg" version="1.1" viewBox="0 0 373 78">
  <!-- Generator: Adobe Illustrator 30.0.0, SVG Export Plug-In . SVG Version: 2.1.1 Build 123)  -->
  <defs>
    <style>
      .st0 {
        fill: #061d8b;
      }
    </style>
  </defs>
  <path class="st0" d="M164.68,27.18c-.83,0-1.66-.02-2.47-.06-.15-.48-.4-.92-.79-1.29-.62-.61-1.36-.91-2.21-.91s-1.58.32-2.2.93c-.62.63-.93,1.37-.93,2.25s.3,1.62.91,2.23c.61.61,1.35.91,2.21.91s1.62-.3,2.23-.91c.38-.38.62-.81.77-1.29.63.07,1.05.14,1.25.21.38.16.64.38.76.66.15.38.22,1.23.26,2.52.03,1.37.04,3.95.04,7.71v4.48c0,1.2-.07,2.4-.19,3.57-.15,1.26-.35,2.2-.61,2.8-.26.61-.72,1.19-1.38,1.79-1.41,1.24-3.37,1.85-5.88,1.85-3.83,0-6.24-1.2-7.23-3.61-.48-1.22-.73-4.54-.73-9.96v-4.44c0-3.15.08-5.27.24-6.4.03.03.06.08.09.11.61.61,1.34.91,2.22.91s1.58-.3,2.2-.92.92-1.35.92-2.22-.3-1.62-.92-2.25c-.62-.62-1.35-.93-2.2-.93s-1.58.3-2.2.91c-.4.38-.64.84-.79,1.34-.8,0-1.67.01-2.65.01-3.04,0-5.26-.05-6.64-.12l-.21.21v1.44l.21.21c1.46.09,2.31.16,2.52.21.42.11.67.38.73.8.19,1.04.28,3.25.28,6.68v5.55c0,5.27.17,8.52.52,9.77.54,1.95,1.71,3.46,3.49,4.53,2.11,1.25,5.05,1.87,8.81,1.87,4.13,0,7.3-1.2,9.53-3.61,1.68-1.82,2.52-4.86,2.52-9.13v-6.63c0-2.35.02-4.15.07-5.4.06-1.68.15-2.77.26-3.28.21-.9,1.17-1.35,2.86-1.35l.21-.21v-1.44l-.21-.21c-2.82.09-4.72.12-5.71.12h.04Z"/>
  <path class="st0" d="M204.7,27.18c-1.45,0-2.99-.05-4.59-.12l-.21.19v1.46l.21.21c1.46.09,2.31.16,2.53.21.42.11.66.38.73.8.19,1.04.28,3.25.28,6.68v12.6c-6.99-7.88-13.06-15.27-18.24-22.16-1.27.09-2.89.12-4.82.12-1.24,0-2.54-.05-3.9-.12l-.21.19v1.46l.21.21c1.46.09,2.31.16,2.52.21.42.11.67.38.73.8.19,1.04.28,3.25.28,6.68v11.39c0,3.41-.09,5.64-.28,6.68-.07.42-.32.69-.73.8-.21.06-1.06.12-2.52.21l-.21.21v1.46l.21.19c1.67-.09,3.32-.12,4.98-.12,1.42,0,2.96.05,4.61.12l.21-.19v-1.46l-.21-.21c-1.46-.09-2.31-.16-2.52-.21-.42-.11-.67-.38-.73-.8-.19-1.04-.28-3.25-.28-6.68v-14.07c9.3,11.44,15.87,19.32,19.73,23.63.83.11,2.06.3,3.69.59l.28-.19c-.19-1.95-.28-6.15-.28-12.6v-8.74c0-3.41.09-5.64.28-6.68.07-.42.32-.69.73-.8.21-.06,1.06-.12,2.53-.21l.24-.21v-1.46l-.21-.19c-1.48.09-3.15.12-5.01.12h-.03Z"/>
  <path class="st0" d="M238.04,50.01l-.21.24-.52,2.67c-.12.66-.27,1.09-.4,1.29-.07.1-.19.18-.35.24-.95.33-3.52.5-7.72.5h-2.93c-.07-1.77-.11-3.59-.11-5.47v-12.87c0-3.41.09-5.64.28-6.68.07-.42.32-.69.73-.8.21-.06,1.06-.12,2.52-.21l.21-.19v-1.49l-.21-.19c-1.53.09-3.79.12-6.74.12s-5.03-.05-6.5-.12l-.21.19v1.46l.21.21c1.46.09,2.31.16,2.53.21.42.11.66.38.73.8.19,1.04.28,3.25.28,6.68v10.92l-.07,4.82c-.03,1.66-.11,2.6-.24,2.86-.09.17-.66.6-1.72,1.27l-.11.26v.6l.21.21c1.08-.09,2.92-.12,5.53-.12l15.67.12.21-.21c0-2.63.16-5.01.47-7.1l-.24-.21h-1.32.02Z"/>
  <path class="st0" d="M272.31,27.18c-.7,0-1.4-.01-2.07-.03-.15-.5-.41-.93-.79-1.32-.62-.61-1.36-.91-2.21-.91s-1.58.32-2.2.93c-.62.63-.92,1.37-.92,2.25s.3,1.62.91,2.23c.61.61,1.35.91,2.21.91s1.62-.3,2.23-.91c.37-.37.61-.79.76-1.25.43.06.72.11.88.17.38.16.64.38.75.66.15.38.23,1.23.26,2.52.03,1.37.05,3.95.05,7.71v4.48c0,1.2-.07,2.4-.19,3.57-.15,1.26-.35,2.2-.61,2.8-.26.61-.72,1.19-1.38,1.79-1.41,1.24-3.37,1.85-5.88,1.85-3.83,0-6.24-1.2-7.23-3.61-.49-1.22-.73-4.54-.73-9.96v-4.44c0-3.41.09-5.64.28-6.68,0-.03.02-.07.03-.1.11.17.25.34.39.5.61.61,1.34.91,2.22.91s1.58-.3,2.2-.92c.62-.62.92-1.35.92-2.22s-.3-1.62-.92-2.25c-.62-.62-1.35-.93-2.2-.93s-1.58.3-2.2.91c-.4.38-.64.83-.79,1.34-.89.01-1.89.02-3.03.02-3.04,0-5.26-.04-6.64-.12l-.21.21v1.44l.21.21c1.46.09,2.31.16,2.53.21.42.11.66.38.73.8.19,1.04.28,3.25.28,6.68v5.55c0,5.27.17,8.52.52,9.77.54,1.95,1.71,3.46,3.49,4.53,2.11,1.25,5.05,1.87,8.81,1.87,4.13,0,7.3-1.2,9.52-3.61,1.68-1.82,2.52-4.86,2.52-9.13v-6.63c0-2.35.02-4.15.07-5.4.06-1.68.15-2.77.26-3.28.22-.9,1.17-1.35,2.86-1.35l.21-.21v-1.44l-.21-.21c-2.82.09-4.72.12-5.71.12v-.02h.02Z"/>
  <path class="st0" d="M308.1,47.64c-.8.55-1.29.84-1.43.89-.15.04-.33.07-.52.07-.67,0-1.36-.11-2.13-.35-.76-.24-1.4-.55-1.94-.95.7-.86,1.16-1.6,1.4-2.22.24-.62.36-1.24.36-1.84,0-.34-.05-.71-.12-1.09,1.35.02,2.6.08,3.75.18l.12-.12c.02-.48.17-1.13.46-1.91l-.12-.1c-1.13.14-2.96.2-5.5.2-.55,0-1.48-.02-2.77-.07-.34.75-.61,1.29-.83,1.64l.11.16h2.31c.14.24.26.52.35.88.1.35.15.71.15,1.07,0,.8-.27,1.63-.82,2.52-.95-.7-1.93-1.64-2.95-2.81-1.03-1.17-1.87-2.29-2.52-3.33,1.54-.97,2.63-1.85,3.25-2.66.62-.8.94-1.64.94-2.52s-.27-1.58-.8-2.09c-.53-.53-1.26-.79-2.19-.79-.46,0-.91.07-1.36.21-.45.15-.78.28-.98.43-.2.14-.56.52-1.08,1.13l-1.23,1.45c-.29.34-.44.88-.44,1.63,0,1.07.29,2.25.87,3.56-1.25.6-2.25,1.32-3.01,2.17-.76.84-1.13,1.88-1.13,3.11,0,1.41.52,2.65,1.57,3.7,1.05,1.06,2.52,1.59,4.45,1.59,2.09,0,3.91-.64,5.46-1.91.64.5,1.38.93,2.19,1.32.82.38,1.7.57,2.66.57.38,0,.89-.07,1.5-.21.18-.25.57-.71,1.18-1.37s1-1.08,1.17-1.23l.03-.19-.26-.59-.18-.08.06-.05h-.03ZM294.44,34.58c.32-.37.73-.56,1.25-.56.49,0,.87.17,1.17.52.31.35.45.79.45,1.32,0,.66-.2,1.27-.62,1.84-.42.56-1.01,1.11-1.79,1.66-.62-1.28-.92-2.41-.92-3.38,0-.55.16-1.02.47-1.4,0,0-.01,0-.01,0ZM296.12,49.44c-.83,0-1.59-.23-2.26-.7-.68-.46-1.25-1.07-1.71-1.82s-.69-1.58-.69-2.48c0-.59.15-1.11.45-1.55.3-.45.64-.79,1.04-1.04.87,1.44,1.72,2.66,2.58,3.66s1.9,2.04,3.14,3.1c-.82.55-1.68.82-2.56.82h.01,0Z"/>
  <path class="st0" d="M336.4,55.65c-3.16,0-5.68-.73-7.56-2.2-3.54-2.74-5.3-6.68-5.3-11.8,0-3.79.99-6.79,2.98-9,1.98-2.21,4.72-3.31,8.22-3.31s5.98,1.01,7.78,3.04c.11.68.19,1.88.24,3.61l.21.24h1.27l.19-.21c.11-2.66.42-4.98.9-6.96l-.28-.33c-3.36-1.27-6.81-1.91-10.32-1.91-5.55,0-9.92,1.44-13.12,4.32-3.13,2.8-4.7,6.55-4.7,11.26,0,2.92.64,5.62,1.92,8.12,2.76,5.39,7.89,8.1,15.39,8.1,3.75,0,7.15-.83,10.18-2.5l.99-2.2-.54-.5c-2.75,1.47-5.56,2.22-8.43,2.22h-.02Z"/>
  <path class="st0" d="M371.93,41.29c-1.5-3.17-4.53-4.76-9.12-4.76-2.19,0-4.1.41-5.76,1.2-3.36,1.63-5.04,4.92-5.04,9.84,0,3.56.87,6.29,2.59,8.21,1.74,1.91,4.25,2.86,7.55,2.86,2.14,0,4.05-.44,5.71-1.32,3.42-1.79,5.13-5.24,5.13-10.31,0-2.3-.36-4.21-1.08-5.73h.02ZM366.6,53.15c-.54,2.2-1.82,3.3-3.81,3.3-3.2,0-4.8-3.31-4.8-9.92,0-5.16,1.43-7.73,4.3-7.73,1.61,0,2.81.78,3.58,2.32.78,1.54,1.17,4.1,1.17,7.68,0,1.77-.15,3.22-.43,4.37h-.01v-.02Z"/>
  <path class="st0" d="M120.55,0c-.33,0-.59.26-.59.59v75.84c0,.33.26.59.59.59s.59-.26.59-.59V.59c0-.33-.26-.59-.59-.59Z"/>
  <path class="st0" d="M71.8,27.16v31.72H31.14v-31.72H13.55v39.35c.06,5.47,4.51,9.9,10.01,9.91h65.86V27.16s-17.62,0-17.62,0Z"/>
  <path class="st0" d="M89.3,2.49c-21.09,14.2-41.21,16.85-62.08,14.25C17.34,15.5,7.56,11.98,0,8.43c9.34,5.54,21.72,9.67,36.08,11.46,24.93,3.12,49.26-1.64,64.38-11.23.23-.12.44-.26.64-.41.02-.02.07-.03.07-.05.75-.57,1.32-1.26,1.6-2.03.9-2.53-1.69-5-5.79-5.52-.51-.07-1.01-.09-1.51-.09-2.45,0-4.72.73-6.17,1.9v.03Z"/>
</svg>