<svg width="292" height="215" viewBox="0 0 292 215" fill="none" xmlns="http://www.w3.org/2000/svg">
<g clip-path="url(#clip0_1116_1687)">
<path d="M203.652 75.3325V165.256H88.3322V75.3325H38.4194V186.912C38.5894 202.414 51.2105 214.954 66.7976 214.985L90.7422 215H253.596V75.3325H203.668H203.652Z" fill="white"/>
<path d="M253.302 5.39872C193.472 45.6408 136.422 53.1679 77.2096 45.8105C49.1559 42.2938 21.442 32.2988 0 22.2421C26.4935 37.9441 61.607 49.6666 102.344 54.7412C173.065 63.5639 242.072 50.0985 284.956 22.9054C285.604 22.5506 286.207 22.165 286.763 21.7794C286.825 21.7177 286.933 21.6868 286.979 21.6406V21.6097C289.127 20.021 290.718 18.0775 291.506 15.9027C294.055 8.73038 286.717 1.72773 275.069 0.262415C273.617 0.0773224 272.196 0.015625 270.805 0.015625C263.884 0.015625 257.427 2.09791 253.318 5.41415" fill="white"/>
</g>
<defs>
<clipPath id="clip0_1116_1687">
<rect width="292" height="215" fill="white"/>
</clipPath>
</defs>
</svg>
