<svg width="1097" height="807" viewBox="0 0 1097 807" fill="none" xmlns="http://www.w3.org/2000/svg">
<g opacity="0.1">
<g clip-path="url(#clip0_1224_128)">
<path d="M764.406 282.76V620.288H331.554V282.76H144.207V701.573C144.845 759.758 192.218 806.826 250.724 806.942L340.599 807H951.87V282.76H764.464H764.406Z" fill="white"/>
<path d="M950.768 20.2633C726.195 171.312 512.059 199.565 289.805 171.949C184.506 158.748 80.4822 121.232 0 83.4848C99.443 142.422 231.241 186.422 384.146 205.47C649.598 238.586 908.613 188.043 1069.58 85.9743C1072.01 84.6427 1074.27 83.1953 1076.36 81.748C1076.59 81.5164 1077 81.4006 1077.17 81.2269V81.1111C1085.23 75.1479 1091.21 67.8531 1094.16 59.6899C1103.73 32.7687 1076.19 6.48431 1032.47 0.984275C1027.02 0.289533 1021.68 0.0579529 1016.46 0.0579529C990.487 0.0579529 966.25 7.87379 950.826 20.3212" fill="white"/>
</g>
</g>
<defs>
<clipPath id="clip0_1224_128">
<rect width="1096.02" height="807" fill="white"/>
</clipPath>
</defs>
</svg>
