<svg width="349" height="98" viewBox="0 0 349 98" fill="none" xmlns="http://www.w3.org/2000/svg">
<path d="M345.982 41.0993H348.986V64.1536H345.982V41.0993Z" fill="white"/>
<path d="M338.688 64.1536V62.2228C338.05 62.9159 337.319 63.455 336.493 63.84C335.679 64.2251 334.865 64.4176 334.051 64.4176C333.094 64.4176 332.208 64.1811 331.394 63.708C330.591 63.2239 329.98 62.5748 329.562 61.7607C329.155 60.9355 328.952 59.5713 328.952 57.668V48.9711H331.955V57.635C331.955 59.2303 332.181 60.347 332.632 60.9851C333.094 61.6122 333.897 61.9257 335.041 61.9257C336.471 61.9257 337.687 61.2271 338.688 59.8299V48.9711H341.692V64.1536H338.688Z" fill="white"/>
<path d="M322.681 48.9711H326.262L319.776 56.4138L327.582 64.1536H323.555L315.948 56.4138L322.681 48.9711ZM312.812 41.0993H315.816V64.1536H312.812V41.0993Z" fill="white"/>
<path d="M298.917 48.9711V50.9019C300.259 49.4167 301.783 48.6741 303.488 48.6741C304.434 48.6741 305.314 48.9216 306.128 49.4167C306.942 49.9008 307.559 50.5719 307.977 51.43C308.406 52.2772 308.62 53.6249 308.62 55.4732V64.1536H305.617V55.5062C305.617 53.9549 305.38 52.8493 304.907 52.1891C304.434 51.518 303.642 51.1825 302.531 51.1825C301.112 51.1825 299.907 51.8921 298.917 53.3113V64.1536H295.847V48.9711H298.917Z" fill="white"/>
<path d="M292.646 56.8264H281.969C282.046 58.2786 282.53 59.4338 283.421 60.292C284.323 61.1501 285.484 61.5792 286.903 61.5792C288.883 61.5792 290.71 60.9631 292.382 59.7309V62.6684C291.458 63.2845 290.539 63.7245 289.626 63.9886C288.724 64.2526 287.662 64.3846 286.441 64.3846C284.769 64.3846 283.416 64.0381 282.381 63.345C281.347 62.6518 280.517 61.7222 279.889 60.556C279.273 59.3788 278.965 58.0201 278.965 56.4798C278.965 54.1695 279.62 52.2937 280.929 50.8524C282.238 49.4002 283.938 48.6741 286.028 48.6741C288.042 48.6741 289.648 49.3782 290.847 50.7864C292.046 52.1946 292.646 54.0815 292.646 56.4468V56.8264ZM282.035 55.0276H289.676C289.599 53.8284 289.241 52.9043 288.603 52.2552C287.965 51.606 287.107 51.2815 286.028 51.2815C284.95 51.2815 284.065 51.606 283.372 52.2552C282.689 52.9043 282.244 53.8284 282.035 55.0276Z" fill="white"/>
<path d="M272.067 41.0993H275.136V64.1536H271.819V46.2152L264.723 55.1266H264.113L256.95 46.2152V64.1536H253.65V41.0993H256.752L264.426 50.5719L272.067 41.0993Z" fill="white"/>
<path d="M236.421 41.0993H239.738V54.186C239.738 55.9572 239.606 57.294 239.342 58.1961C239.089 59.0983 238.77 59.8519 238.385 60.457C238.011 61.0511 237.549 61.5847 236.999 62.0577C235.172 63.631 232.785 64.4176 229.836 64.4176C226.833 64.4176 224.424 63.6365 222.608 62.0742C222.058 61.5902 221.591 61.0511 221.206 60.457C220.832 59.8519 220.518 59.1148 220.265 58.2456C220.023 57.3765 219.902 56.0123 219.902 54.153V41.0993H223.219V54.186C223.219 56.3533 223.466 57.8606 223.962 58.7077C224.457 59.5548 225.21 60.2369 226.222 60.754C227.235 61.2601 228.428 61.5131 229.803 61.5131C231.762 61.5131 233.357 61.0016 234.589 59.9784C235.238 59.4283 235.706 58.7792 235.992 58.0311C236.278 57.283 236.421 56.0013 236.421 54.186V41.0993ZM226.635 36C227.064 36 227.433 36.154 227.741 36.4621C228.06 36.7701 228.219 37.1442 228.219 37.5843C228.219 38.0243 228.071 38.3984 227.774 38.7064C227.477 39.0035 227.114 39.152 226.684 39.152C226.244 39.152 225.87 38.998 225.562 38.6899C225.254 38.3709 225.1 37.9968 225.1 37.5678C225.1 37.1277 225.249 36.7591 225.546 36.4621C225.854 36.154 226.217 36 226.635 36ZM232.988 36C233.418 36 233.786 36.154 234.094 36.4621C234.413 36.7701 234.573 37.1442 234.573 37.5843C234.573 38.0243 234.424 38.3984 234.127 38.7064C233.83 39.0035 233.467 39.152 233.038 39.152C232.598 39.152 232.224 38.998 231.916 38.6899C231.608 38.3709 231.454 37.9968 231.454 37.5678C231.454 37.1277 231.602 36.7591 231.899 36.4621C232.207 36.154 232.57 36 232.988 36Z" fill="white"/>
<path d="M203.812 41.0993H207.113V61.1501H217.493V64.1536H203.812V41.0993Z" fill="white"/>
<path d="M195.725 41.0993H198.861V64.1536H196.022L180.609 46.4132V64.1536H177.506V41.0993H180.18L195.725 58.9882V41.0993Z" fill="white"/>
<path d="M169.519 41.0993H172.836V54.186C172.836 55.9572 172.704 57.294 172.44 58.1961C172.187 59.0983 171.868 59.8519 171.483 60.457C171.109 61.0511 170.647 61.5847 170.097 62.0577C168.27 63.631 165.883 64.4176 162.935 64.4176C159.931 64.4176 157.522 63.6365 155.706 62.0742C155.156 61.5902 154.689 61.0511 154.304 60.457C153.93 59.8519 153.616 59.1148 153.363 58.2456C153.121 57.3765 153 56.0123 153 54.153V41.0993H156.317V54.186C156.317 56.3533 156.565 57.8606 157.06 58.7077C157.555 59.5548 158.308 60.2369 159.321 60.754C160.333 61.2601 161.526 61.5131 162.902 61.5131C164.86 61.5131 166.455 61.0016 167.687 59.9784C168.336 59.4283 168.804 58.7792 169.09 58.0311C169.376 57.283 169.519 56.0013 169.519 54.186V41.0993ZM159.733 36C160.162 36 160.531 36.154 160.839 36.4621C161.158 36.7701 161.317 37.1442 161.317 37.5843C161.317 38.0243 161.169 38.3984 160.872 38.7064C160.575 39.0035 160.212 39.152 159.783 39.152C159.343 39.152 158.968 38.998 158.66 38.6899C158.352 38.3709 158.198 37.9968 158.198 37.5678C158.198 37.1277 158.347 36.7591 158.644 36.4621C158.952 36.154 159.315 36 159.733 36ZM166.087 36C166.516 36 166.884 36.154 167.192 36.4621C167.511 36.7701 167.671 37.1442 167.671 37.5843C167.671 38.0243 167.522 38.3984 167.225 38.7064C166.928 39.0035 166.565 39.152 166.136 39.152C165.696 39.152 165.322 38.998 165.014 38.6899C164.706 38.3709 164.552 37.9968 164.552 37.5678C164.552 37.1277 164.7 36.7591 164.997 36.4621C165.306 36.154 165.669 36 166.087 36Z" fill="white"/>
<path d="M11.8083 83.0232C11.4312 83.0232 11.0592 83.013 10.6922 82.9978C10.626 82.7789 10.5139 82.5803 10.3355 82.4123C10.0552 82.1374 9.71882 82 9.33659 82C8.95436 82 8.6231 82.1425 8.3428 82.4225C8.0625 82.7076 7.92489 83.0436 7.92489 83.4407C7.92489 83.8377 8.06249 84.1737 8.3377 84.4486C8.6129 84.7235 8.94927 84.861 9.33659 84.861C9.72392 84.861 10.0705 84.7235 10.3457 84.4486C10.519 84.2755 10.626 84.0821 10.6922 83.8632C10.9776 83.8937 11.1662 83.9243 11.2579 83.9599C11.4312 84.0312 11.5484 84.133 11.5994 84.2603C11.6656 84.4333 11.7013 84.8151 11.7166 85.4006C11.7319 86.0216 11.737 87.1874 11.737 88.8877V90.9138C11.737 91.4585 11.7064 91.9981 11.6504 92.5275C11.5841 93.0977 11.4924 93.5202 11.3752 93.7951C11.2579 94.07 11.049 94.3347 10.7534 94.6045C10.1163 95.1645 9.22957 95.4394 8.09307 95.4394C6.3603 95.4394 5.26967 94.8947 4.82628 93.8053C4.60714 93.2555 4.49502 91.7537 4.49502 89.3V87.2943C4.49502 85.8689 4.5307 84.9119 4.60205 84.4028C4.61734 84.4181 4.62752 84.4384 4.64281 84.4537C4.91802 84.7286 5.24928 84.8661 5.6468 84.8661C6.04432 84.8661 6.3603 84.7286 6.64061 84.4486C6.92091 84.1686 7.05851 83.8377 7.05851 83.4458C7.05851 83.0538 6.92091 82.7127 6.64061 82.4276C6.3603 82.1476 6.02903 82.0051 5.6468 82.0051C5.26457 82.0051 4.93331 82.1425 4.65301 82.4174C4.47463 82.5905 4.36251 82.7992 4.29626 83.0232C3.93442 83.0232 3.54199 83.0283 3.0986 83.0283C1.72258 83.0283 0.718593 83.008 0.0968327 82.9723L0 83.069V83.7206L0.0968327 83.8174C0.759364 83.8581 1.14159 83.8886 1.23842 83.9141C1.42699 83.965 1.53911 84.0872 1.56969 84.2755C1.65633 84.7439 1.6971 85.7467 1.6971 87.2943V89.804C1.6971 92.1864 1.77355 93.6576 1.93153 94.2227C2.17616 95.1034 2.70619 95.7855 3.51142 96.2692C4.46445 96.8342 5.7946 97.1142 7.4968 97.1142C9.36208 97.1142 10.7993 96.5695 11.8032 95.4801C12.5626 94.6554 12.9448 93.2809 12.9448 91.3516V88.3532C12.9448 87.2892 12.955 86.4747 12.9754 85.9096C13.0009 85.1511 13.0417 84.6573 13.0926 84.4283C13.1895 84.021 13.6227 83.8174 14.3871 83.8174L14.484 83.7206V83.069L14.3871 82.9723C13.113 83.013 12.2517 83.0283 11.8032 83.0283L11.8083 83.0232Z" fill="white"/>
<path d="M29.9054 83.0232C29.248 83.0232 28.5549 83.0029 27.8312 82.9672L27.7343 83.0538V83.7156L27.8312 83.8123C28.4937 83.853 28.8759 83.8835 28.9728 83.909C29.1613 83.9599 29.2735 84.0821 29.304 84.2704C29.3907 84.7388 29.4314 85.7416 29.4314 87.2892V92.9857C26.2717 89.4222 23.5247 86.0827 21.1855 82.9672C20.6096 83.0079 19.8808 83.0232 19.0042 83.0232C18.4436 83.0232 17.8575 83.0029 17.2409 82.9672L17.144 83.0538V83.7156L17.2409 83.8123C17.9034 83.853 18.2856 83.8835 18.3825 83.909C18.571 83.9599 18.6831 84.0821 18.7137 84.2704C18.8004 84.7388 18.8411 85.7416 18.8411 87.2892V92.441C18.8411 93.9834 18.8004 94.9914 18.7137 95.4597C18.6831 95.6481 18.571 95.7703 18.3825 95.8212C18.2856 95.8466 17.9034 95.8772 17.2409 95.9179L17.144 96.0146V96.6764L17.2409 96.763C17.9951 96.7222 18.7443 96.707 19.4935 96.707C20.1356 96.707 20.8338 96.7273 21.5779 96.763L21.6747 96.6764V96.0146L21.5779 95.9179C20.9154 95.8772 20.5331 95.8466 20.4363 95.8212C20.2477 95.7703 20.1356 95.6481 20.105 95.4597C20.0184 94.9914 19.9776 93.9885 19.9776 92.441V86.0776C24.1822 91.2498 27.1534 94.8132 28.8963 96.763C29.2735 96.8139 29.829 96.9004 30.5628 97.0277L30.6903 96.9411C30.6036 96.0604 30.5628 94.1616 30.5628 91.2447V87.2943C30.5628 85.7518 30.6036 84.7439 30.6903 84.2755C30.7208 84.0872 30.833 83.965 31.0215 83.9141C31.1184 83.8886 31.5006 83.8581 32.1631 83.8174L32.2701 83.7206V83.0589L32.1733 82.9723C31.5057 83.013 30.7514 83.0283 29.9105 83.0283L29.9054 83.0232Z" fill="white"/>
<path d="M44.9807 93.3471L44.8838 93.454L44.6494 94.6605C44.5933 94.9609 44.5271 95.1543 44.4659 95.246C44.4353 95.2918 44.3793 95.3274 44.3079 95.3529C43.8798 95.5005 42.7179 95.5769 40.8169 95.5769H39.4918C39.4613 94.7776 39.4409 93.9529 39.4409 93.1028V87.2841C39.4409 85.7417 39.4817 84.7337 39.5683 84.2654C39.5989 84.077 39.711 83.9548 39.8996 83.9039C39.9964 83.8785 40.3786 83.8479 41.0412 83.8072L41.138 83.7207V83.0487L41.0412 82.9622C40.348 83.0029 39.3288 83.0182 37.9935 83.0182C36.6582 83.0182 35.7205 82.9978 35.0529 82.9622L34.9561 83.0487V83.7105L35.0529 83.8072C35.7154 83.8479 36.0976 83.8785 36.1945 83.9039C36.383 83.9548 36.4952 84.077 36.5257 84.2654C36.6124 84.7337 36.6532 85.7366 36.6532 87.2841V92.2221L36.6226 94.4009C36.6073 95.1492 36.5716 95.5769 36.5156 95.6939C36.4748 95.7703 36.2149 95.9637 35.7358 96.2692L35.6848 96.3863V96.6561L35.7817 96.7528C36.2709 96.7121 37.1016 96.6968 38.284 96.6968L45.368 96.7528L45.4648 96.6561C45.4648 95.4649 45.5362 94.3907 45.6789 93.4439L45.5718 93.3471H44.9756H44.9807Z" fill="white"/>
<path d="M60.4737 83.0232C60.1577 83.0232 59.8417 83.0181 59.5359 83.008C59.4697 82.784 59.3525 82.5854 59.1792 82.4123C58.8989 82.1374 58.5625 82 58.1803 82C57.7981 82 57.4668 82.1425 57.1865 82.4225C56.9062 82.7076 56.7686 83.0436 56.7686 83.4407C56.7686 83.8377 56.9062 84.1737 57.1814 84.4486C57.4566 84.7235 57.793 84.861 58.1803 84.861C58.5676 84.861 58.9142 84.7235 59.1894 84.4486C59.3576 84.2806 59.4646 84.0923 59.5308 83.8836C59.7245 83.909 59.857 83.9345 59.9284 83.9599C60.1016 84.0312 60.2188 84.133 60.2698 84.2603C60.3361 84.4333 60.3717 84.8151 60.387 85.4006C60.4023 86.0216 60.4074 87.1874 60.4074 88.8877V90.9138C60.4074 91.4585 60.3768 91.9981 60.3208 92.5275C60.2545 93.0977 60.1628 93.5202 60.0456 93.7951C59.9284 94.07 59.7194 94.3347 59.4238 94.6045C58.7868 95.1645 57.9 95.4394 56.7635 95.4394C55.0307 95.4394 53.9401 94.8947 53.4967 93.8053C53.2776 93.2555 53.1654 91.7537 53.1654 89.3V87.2943C53.1654 85.7518 53.2062 84.7439 53.2928 84.2755C53.2928 84.2603 53.303 84.245 53.3081 84.2297C53.3591 84.3061 53.4203 84.3824 53.4865 84.4537C53.7617 84.7286 54.093 84.8661 54.4905 84.8661C54.888 84.8661 55.204 84.7286 55.4843 84.4486C55.7646 84.1686 55.9022 83.8377 55.9022 83.4458C55.9022 83.0538 55.7646 82.7127 55.4843 82.4276C55.204 82.1476 54.8727 82.0051 54.4905 82.0051C54.1083 82.0051 53.777 82.1425 53.4967 82.4174C53.3183 82.5905 53.2062 82.7941 53.14 83.0232C52.7373 83.0283 52.2838 83.0334 51.769 83.0334C50.393 83.0334 49.389 83.013 48.7672 82.9774L48.6704 83.0741V83.7257L48.7672 83.8225C49.4298 83.8632 49.812 83.8937 49.9088 83.9192C50.0974 83.9701 50.2095 84.0923 50.2401 84.2806C50.3267 84.749 50.3675 85.7518 50.3675 87.2994V89.8091C50.3675 92.1915 50.444 93.6627 50.6019 94.2278C50.8466 95.1085 51.3766 95.7906 52.1818 96.2743C53.1349 96.8393 54.465 97.1193 56.1672 97.1193C58.0325 97.1193 59.4697 96.5746 60.4737 95.4852C61.233 94.6605 61.6153 93.286 61.6153 91.3567V88.3583C61.6153 87.2943 61.6254 86.4798 61.6458 85.9147C61.6713 85.1562 61.7121 84.6624 61.7631 84.4333C61.8599 84.0261 62.2931 83.8225 63.0575 83.8225L63.1544 83.7257V83.0741L63.0575 82.9774C61.7834 83.0181 60.9221 83.0334 60.4737 83.0334V83.0232Z" fill="white"/>
<path d="M76.655 92.273C76.2931 92.5224 76.074 92.6548 76.0078 92.6752C75.9415 92.6955 75.8599 92.7057 75.7733 92.7057C75.4726 92.7057 75.1566 92.6548 74.8101 92.5479C74.4686 92.441 74.1781 92.2984 73.9335 92.1203C74.2495 91.7334 74.4584 91.3974 74.5655 91.1174C74.6725 90.8374 74.7285 90.5574 74.7285 90.2876C74.7285 90.1349 74.7082 89.9669 74.6725 89.7938C75.2841 89.804 75.8498 89.8295 76.3696 89.8753L76.4257 89.8193C76.4359 89.6004 76.5021 89.3102 76.6346 88.9539L76.5785 88.9081C76.0689 88.9691 75.2382 88.9997 74.0915 88.9997C73.8418 88.9997 73.4239 88.9895 72.8378 88.9691C72.6849 89.3102 72.5626 89.5546 72.4606 89.7124L72.5116 89.7837H73.5564C73.6175 89.8906 73.6736 90.0178 73.7144 90.1807C73.7602 90.3385 73.7806 90.5014 73.7806 90.6643C73.7806 91.0258 73.6583 91.4025 73.4086 91.8046C72.9805 91.489 72.5371 91.0614 72.0733 90.532C71.6096 90.0026 71.2273 89.4986 70.9317 89.0251C71.6299 88.5873 72.1192 88.1903 72.3995 87.8237C72.6798 87.4623 72.8225 87.0805 72.8225 86.6834C72.8225 86.2864 72.7002 85.9707 72.4606 85.7366C72.2211 85.4973 71.8899 85.3802 71.472 85.3802C71.263 85.3802 71.0591 85.4108 70.8553 85.4769C70.6514 85.5431 70.5036 85.6042 70.4119 85.6704C70.3202 85.7315 70.1571 85.9046 69.9227 86.1795L69.3671 86.8362C69.2346 86.9889 69.1684 87.2332 69.1684 87.5743C69.1684 88.0579 69.3009 88.5924 69.5608 89.183C68.9951 89.4528 68.5415 89.7786 68.2001 90.1655C67.8586 90.5473 67.6904 91.0156 67.6904 91.5705C67.6904 92.2068 67.9249 92.7668 68.3988 93.2453C68.8728 93.7238 69.5404 93.9631 70.4119 93.9631C71.3547 93.9631 72.1803 93.6729 72.8786 93.0977C73.1691 93.3217 73.5003 93.5202 73.8673 93.6933C74.2393 93.8664 74.6368 93.9529 75.07 93.9529C75.2433 93.9529 75.4726 93.9224 75.7478 93.8562C75.8294 93.7442 76.0077 93.5355 76.2829 93.2351C76.5581 92.9348 76.7365 92.7464 76.813 92.6802L76.8283 92.5937L76.7111 92.329L76.6295 92.2934L76.655 92.273ZM70.4782 86.3678C70.6209 86.1998 70.8094 86.1133 71.0439 86.1133C71.263 86.1133 71.4363 86.1896 71.5739 86.3474C71.7115 86.5053 71.7777 86.7038 71.7777 86.9431C71.7777 87.2434 71.686 87.5183 71.4974 87.7728C71.3089 88.0274 71.0388 88.2768 70.6871 88.5212C70.4068 87.9408 70.2692 87.4318 70.2692 86.994C70.2692 86.7445 70.3406 86.5307 70.4833 86.3627L70.4782 86.3678ZM71.2375 93.0875C70.8604 93.0875 70.5189 92.9857 70.2132 92.7719C69.9074 92.5632 69.6474 92.2883 69.4385 91.9472C69.2295 91.6061 69.1276 91.2345 69.1276 90.8272C69.1276 90.5625 69.1939 90.3233 69.3315 90.1247C69.4691 89.9211 69.622 89.7684 69.8003 89.6564C70.1928 90.308 70.5801 90.8578 70.9674 91.3109C71.3547 91.7639 71.8287 92.2323 72.3893 92.7108C72.0173 92.9602 71.6299 93.0824 71.2324 93.0824L71.2375 93.0875Z" fill="white"/>
<path d="M89.452 95.8975C88.025 95.8975 86.8834 95.5667 86.0323 94.9049C84.4321 93.6678 83.637 91.8861 83.637 89.5698C83.637 87.8543 84.0855 86.5002 84.9825 85.5024C85.8794 84.5046 87.1179 84.0057 88.6978 84.0057C90.2776 84.0057 91.4039 84.4639 92.2143 85.3802C92.2652 85.6857 92.3009 86.2304 92.3213 87.0143L92.4181 87.1212H92.994L93.0807 87.0245C93.1316 85.8231 93.2692 84.7744 93.4884 83.8785L93.361 83.7308C91.8422 83.1556 90.2827 82.8654 88.6927 82.8654C86.1852 82.8654 84.2078 83.517 82.7605 84.8202C81.3437 86.0878 80.6353 87.783 80.6353 89.9109C80.6353 91.2294 80.9258 92.4512 81.5016 93.5813C82.7503 96.0197 85.0691 97.2415 88.4582 97.2415C90.1553 97.2415 91.6893 96.8648 93.0603 96.1114L93.5088 95.1187L93.2641 94.8947C92.0206 95.5616 90.7516 95.8975 89.452 95.8975Z" fill="white"/>
<path d="M105.516 89.4018C104.838 87.9663 103.467 87.2485 101.393 87.2485C100.404 87.2485 99.538 87.4317 98.7888 87.7932C97.2701 88.5313 96.5107 90.0178 96.5107 92.2424C96.5107 93.8511 96.9032 95.0881 97.6829 95.9535C98.4678 96.8189 99.6043 97.2466 101.097 97.2466C102.066 97.2466 102.927 97.048 103.681 96.651C105.226 95.8415 106 94.2838 106 91.9879C106 90.9494 105.837 90.084 105.511 89.3967L105.516 89.4018ZM103.105 94.7674C102.861 95.7601 102.285 96.259 101.383 96.259C99.9355 96.259 99.2118 94.7623 99.2118 91.7741C99.2118 89.4426 99.8591 88.2768 101.154 88.2768C101.882 88.2768 102.423 88.628 102.774 89.3255C103.126 90.0229 103.304 91.1785 103.304 92.7973C103.304 93.5965 103.238 94.2532 103.111 94.7725L103.105 94.7674Z" fill="white"/>
<path d="M129.55 0.011261C129.271 0.011261 129.05 0.334068 129.05 0.741086V95.2814C129.05 95.6885 129.271 96.0113 129.55 96.0113C129.829 96.0113 130.05 95.6885 130.05 95.2814V0.741086C130.05 0.334068 129.829 0.011261 129.55 0.011261Z" fill="white"/>
<path d="M72.8 26.5711V58.2876H32.1433V26.5711H14.5483V65.9212C14.6047 71.393 19.057 75.8178 24.5575 75.8291H33H90.4175V26.5711H72.8113H72.8Z" fill="white"/>
<path d="M90.3049 1.90276C69.2158 16.1003 49.0959 18.7574 28.2209 16.1566C18.3357 14.9181 8.56325 11.3941 1 7.84749C10.3442 13.3869 22.7204 17.5189 37.0804 19.3091C62.0132 22.4278 86.3373 17.6653 101.464 8.08393C101.689 7.96008 101.903 7.82497 102.106 7.67861C102.129 7.65609 102.174 7.64483 102.174 7.63357C102.929 7.05937 103.493 6.37257 103.774 5.60696C104.676 3.0737 102.084 0.607984 97.9809 0.0900717C97.4737 0.022518 96.9664 0 96.4705 0C94.0246 0 91.7477 0.731832 90.3049 1.90276Z" fill="white"/>
</svg>
