<svg width="70" height="70" viewBox="0 0 70 70" fill="none" xmlns="http://www.w3.org/2000/svg">
<path d="M68.4883 0H1.5117C0.703923 0 0 0.703923 0 1.5117V68.4883C0 69.3076 0.703923 70 1.5117 70H68.4883C69.3076 70 70 69.2961 70 68.4883V1.5117C69.8846 0.692384 69.1807 0 68.4883 0ZM66.9766 58.241H2.90801V52.4135H66.965V58.241H66.9766ZM2.90801 2.90801H66.965V49.4939H2.90801V2.90801ZM2.90801 66.9766V61.149H66.965V66.9766H2.90801Z" fill="#93D5FE"/>
<path d="M62.6608 13.8595C59.0489 13.8595 56.0255 10.9514 56.0255 7.22411C56.0255 6.40479 55.3215 5.7124 54.5138 5.7124H15.371C14.5517 5.7124 13.9747 6.41633 13.9747 7.22411C13.9747 10.836 11.0667 13.8595 7.33934 13.8595C6.52002 13.8595 5.82764 14.5634 5.82764 15.3712V37.1582C5.82764 37.9775 6.53156 38.6699 7.33934 38.6699C10.9513 38.6699 13.9747 41.5779 13.9747 45.3052C13.9747 46.1245 14.6786 46.8169 15.371 46.8169H54.6176C55.4369 46.8169 56.1293 46.113 56.1293 45.3052C56.1293 41.6933 59.0373 38.6699 62.7647 38.6699C63.584 38.6699 64.2764 37.9659 64.2764 37.1582V15.3712C64.0456 14.5518 63.3417 13.8595 62.6493 13.8595H62.6608ZM37.6196 13.2825C39.8352 20.3909 39.8352 32.0345 37.6196 39.143C36.6849 42.5241 35.5194 43.6897 34.9424 43.6897C34.3654 43.6897 33.1999 42.5241 32.2652 39.143C30.0495 32.0345 30.0495 20.3909 32.2652 13.2825C33.1999 9.90132 34.3654 8.73581 34.9424 8.73581C35.5194 8.73581 36.6849 9.90132 37.6196 13.2825ZM8.73565 35.7619V16.6521C12.8092 16.0751 16.0749 12.8093 16.6519 8.73581H30.9727C30.3957 9.67053 29.9226 10.836 29.461 12.3477C26.4376 21.9026 27.3608 37.5044 30.9727 43.6781H16.6519C16.0749 39.6046 12.8092 36.3388 8.73565 35.7619ZM61.1491 35.7619C57.0756 36.3388 53.8098 39.6046 53.2328 43.6781H38.9005C43.3318 36.108 43.2048 16.1905 38.9005 8.73581H53.2328C53.8098 12.8093 57.0756 16.0751 61.1491 16.6521V35.7503V35.7619Z" fill="#93D5FE"/>
<path d="M18.983 21.9023C16.5366 21.9023 14.5518 23.8872 14.5518 26.3336C14.5518 28.78 16.5366 30.7533 18.983 30.7533C21.4294 30.7533 23.4143 28.7685 23.4143 26.3336C23.4143 23.8987 21.314 21.9023 18.983 21.9023ZM18.983 27.7184C18.1637 27.7184 17.4713 27.0144 17.4713 26.2067C17.4713 25.3989 18.1752 24.695 18.983 24.695C19.7908 24.695 20.4947 25.3989 20.4947 26.2067C20.4947 27.0144 19.6754 27.7184 18.983 27.7184Z" fill="#93D5FE"/>
<path d="M51.0172 21.9023C48.5708 21.9023 46.5859 23.8872 46.5859 26.3336C46.5859 28.78 48.5708 30.7533 51.0172 30.7533C53.4636 30.7533 55.4485 28.7685 55.4485 26.3336C55.4485 23.8987 53.3482 21.9023 51.0172 21.9023ZM51.0172 27.7184C50.1979 27.7184 49.5055 27.0144 49.5055 26.2067C49.5055 25.3989 50.2094 24.695 51.0172 24.695C51.825 24.695 52.5289 25.3989 52.5289 26.2067C52.5289 27.0144 51.7096 27.7184 51.0172 27.7184Z" fill="#93D5FE"/>
</svg>
