<svg width="83" height="83" viewBox="0 0 83 83" fill="none" xmlns="http://www.w3.org/2000/svg">
<path d="M41.5 0C18.5434 0 0 18.5297 0 41.5C0 64.4703 18.5434 83 41.5 83C64.4566 83 83 64.4566 83 41.5C83 18.5434 64.4703 0 41.5 0ZM79.5462 39.8416H42.199L15.912 13.4176C22.6962 7.19534 31.6869 3.45376 41.5 3.45376C61.8388 3.45376 78.5732 19.6399 79.5462 39.8416ZM13.4176 15.912L39.0056 41.5L13.4176 67.088C0.137055 52.5603 0.137055 30.4397 13.4176 15.912ZM41.5 79.5462C31.6732 79.5462 22.6825 75.8047 15.912 69.5824L42.336 43.2954H79.6833C78.5732 63.3601 61.8388 79.5325 41.5 79.5325V79.5462Z" fill="#93D5FE"/>
</svg>
