<svg width="83" height="83" viewBox="0 0 83 83" fill="none" xmlns="http://www.w3.org/2000/svg">
<path d="M41.5 0C18.5297 0 0 18.5297 0 41.5C0 64.4703 18.5297 83 41.5 83C64.4703 83 83 64.4566 83 41.5C83 18.5434 64.4703 0 41.5 0ZM41.5 79.5462C20.4759 79.5462 3.45376 62.5241 3.45376 41.5C3.45376 20.4759 20.4759 3.45376 41.5 3.45376C62.5241 3.45376 79.5462 20.4622 79.5462 41.5C79.5462 62.5378 62.5378 79.5462 41.5 79.5462Z" fill="#93D5FE"/>
<path d="M61.7017 21.2981C61.0164 20.6129 59.9063 20.6129 59.2073 21.2981L21.2981 59.3444C20.6129 60.0296 20.6129 61.1398 21.2981 61.8387C21.9834 62.524 23.0935 62.524 23.7925 61.8387L61.8387 23.7925C62.387 22.9565 62.387 21.9971 61.7017 21.2981Z" fill="#93D5FE"/>
<path d="M31.1248 38.0461C35.8258 38.0461 39.8415 34.1674 39.8415 29.3294C39.8415 24.4914 35.9629 20.6128 31.1248 20.6128C26.2868 20.6128 22.4082 24.4914 22.4082 29.3294C22.4082 34.1674 26.4239 38.0461 31.1248 38.0461ZM31.1248 24.2036C34.0304 24.2036 36.3877 26.5609 36.3877 29.4665C36.3877 32.372 34.0304 34.7294 31.1248 34.7294C28.2193 34.7294 25.862 32.372 25.862 29.4665C25.862 26.5609 28.2193 24.2036 31.1248 24.2036Z" fill="#93D5FE"/>
<path d="M55.3289 43.2954C50.628 43.2954 46.6123 47.174 46.6123 52.0121C46.6123 56.8501 50.4909 60.7287 55.3289 60.7287C60.167 60.7287 64.0456 56.8501 64.0456 52.0121C64.0456 47.174 60.0299 43.2954 55.3289 43.2954ZM55.3289 57.1379C52.4234 57.1379 50.0661 54.7805 50.0661 51.875C50.0661 48.9694 52.4234 46.6121 55.3289 46.6121C58.2345 46.6121 60.5918 48.9694 60.5918 51.875C60.5918 54.7805 58.2345 57.1379 55.3289 57.1379Z" fill="#93D5FE"/>
</svg>
