<svg width="57" height="66" viewBox="0 0 57 66" fill="none" xmlns="http://www.w3.org/2000/svg">
<g clip-path="url(#clip0_1116_617)">
<path d="M1.30766 65.9598H17.0301C17.4429 65.9598 17.787 65.6317 17.787 65.2132C17.787 64.7947 17.4544 64.4666 17.0301 64.4666H2.05307V55.5642C2.05307 55.304 2.12188 49.2974 8.21132 47.6346C8.22278 47.6346 8.32599 47.6006 8.33746 47.6006C8.40627 47.6006 8.47508 47.5667 8.49801 47.5554C8.6815 47.5102 8.86498 47.4649 9.05994 47.4083C9.25489 47.3631 9.44985 47.3065 9.66774 47.25L12.1104 46.5486C12.1104 46.5486 12.2136 46.5147 12.2824 46.4921L12.3856 46.4582C12.787 46.3337 13.1884 46.2093 13.5668 46.0736L13.8764 45.9717C14.6333 45.7116 15.3329 45.4514 15.998 45.2025L17.959 49.501L16.4567 51.8313C16.2732 52.1141 16.3076 52.4761 16.5255 52.7249L27.0989 64.4666H22.3053C21.8925 64.4666 21.5484 64.7947 21.5484 65.2132C21.5484 65.6317 21.881 65.9598 22.3053 65.9598H55.5621C55.975 65.9598 56.319 65.6317 56.319 65.2132V55.5642C56.319 55.2588 56.2273 47.94 48.7388 46.1188C48.2227 45.9831 47.7181 45.8473 47.2135 45.7116C46.5369 41.9334 46.2846 33.9586 46.0667 26.8887C45.8947 21.5834 45.7571 17.0021 45.4589 15.1809C44.5071 9.31006 36.9269 0.418945 27.6379 0.418945C18.3489 0.418945 10.8833 6.6744 9.71361 15.6221C9.65627 16.0293 9.95443 16.4026 10.3673 16.4591C10.7801 16.5157 11.1586 16.2216 11.2159 15.8144C12.4659 6.25586 20.6081 1.91211 27.6493 1.91211C35.8603 1.91211 43.0966 9.97745 43.9796 15.4185C44.2663 17.1492 44.4154 21.9001 44.5645 26.9339C44.7709 33.6305 45.0117 41.1416 45.6195 45.2478C45.5736 45.2478 45.5392 45.2252 45.4934 45.2138C44.7823 44.9989 44.0828 44.7727 43.3947 44.5351C43.2457 44.4899 43.108 44.4333 42.9704 44.3881C42.2709 44.1392 41.5828 43.8904 40.9406 43.6415C40.9062 43.6415 40.8718 43.6076 40.8374 43.5963C40.8374 43.5963 40.803 43.5736 40.7801 43.5736C40.5507 43.4831 40.3443 43.3926 40.1379 43.3248L39.5301 43.0759C39.3122 42.9854 39.1058 42.9062 38.8879 42.7931C37.1906 42.0578 35.9636 41.4357 35.3787 41.1303V34.1622C35.3787 34.1622 35.436 34.0943 35.459 34.0491C35.6539 33.8002 35.8489 33.54 36.0324 33.2685C36.1356 33.1102 36.2388 32.9405 36.342 32.7821C36.4452 32.6238 36.5484 32.4767 36.6402 32.307C37.0415 31.617 37.4085 30.8704 37.7296 30.0786C39.6791 25.3163 38.9567 20.5993 37.959 17.398C37.5691 16.165 37.1447 15.147 36.8236 14.4456C36.6058 14.0045 36.2158 13.7443 35.7113 13.733H35.6425C35.5507 13.733 35.459 13.7556 35.3672 13.7782C35.3443 13.7782 35.3099 13.7782 35.2755 13.7895C34.92 13.9027 34.6333 14.1741 34.4842 14.5248C33.6241 16.6854 31.8237 17.7034 30.4704 18.1672C27.9475 19.0496 24.8741 18.8007 22.6379 17.5451C21.3191 16.8098 20.092 16.6062 18.9796 16.9569C18.3374 17.1605 17.8558 17.5111 17.4888 17.8618C16.9613 18.3708 16.709 18.8799 16.6975 18.9138C16.6631 18.9817 16.6517 19.0496 16.6402 19.1174C16.365 20.8255 16.2503 22.3187 16.2962 23.8005C16.2962 23.8684 16.3076 23.925 16.3076 23.9928C16.3306 24.6263 16.3764 25.2371 16.4452 25.814C16.4567 25.9045 16.4682 26.0063 16.4796 26.1081C16.5599 26.7077 16.6746 27.2733 16.8007 27.8162C16.8237 27.9067 16.8466 28.0085 16.8696 28.099C17.0072 28.6307 17.1677 29.1284 17.3397 29.6035C17.3741 29.6827 17.3971 29.7732 17.4315 29.8524C17.615 30.3162 17.8099 30.746 18.0163 31.1645C18.0507 31.2437 18.0966 31.3116 18.131 31.3908C18.3489 31.798 18.5783 32.1713 18.8076 32.522C18.8535 32.5898 18.8879 32.6464 18.9338 32.7143C19.1746 33.0536 19.4154 33.3817 19.6677 33.6758C19.7136 33.7323 19.7595 33.7889 19.8168 33.8454C20.0691 34.1282 20.3214 34.3997 20.5737 34.6486L20.7342 34.807C20.9865 35.0445 21.2273 35.2594 21.4682 35.4517L21.537 35.5196V41.1303C21.537 41.1303 21.4223 41.1981 21.3535 41.2321C21.2617 41.2773 21.17 41.3226 21.0668 41.3678L20.9062 41.447C20.654 41.5714 20.3558 41.7185 20.0232 41.8769C20.0003 41.8769 19.9773 41.8995 19.9659 41.9108C19.8283 41.9674 19.6792 42.0352 19.5645 42.1031C18.7159 42.4877 17.5576 43.008 16.1585 43.5623H16.1356C15.3099 43.8904 14.404 44.2184 13.4292 44.5578C12.9361 44.7274 12.4086 44.8971 11.8696 45.0668C11.7434 45.112 11.6058 45.146 11.4682 45.1912L9.23196 45.836C9.10581 45.8699 8.99113 45.9039 8.86498 45.9265C9.02553 44.0035 9.27783 41.5827 9.56452 38.8453C9.86269 35.9834 10.1838 32.85 10.459 29.7506C10.4934 29.3433 10.1838 28.9814 9.77095 28.9474C9.3581 28.9135 8.99113 29.2189 8.95673 29.6261C8.6815 32.7256 8.3604 35.8476 8.06223 38.6982C7.7526 41.7185 7.47737 44.3428 7.31682 46.379C0.653992 48.5395 0.550781 55.2814 0.550781 55.5755V65.2245C0.550781 65.6317 0.883349 65.9711 1.30766 65.9711V65.9598ZM19.4498 18.3822C20.1379 18.1672 20.9636 18.3256 21.8925 18.8573C22.5003 19.1966 23.1654 19.4681 23.865 19.683C23.9108 19.6943 23.9567 19.717 24.0026 19.7283C24.1058 19.7622 24.2205 19.7735 24.3351 19.8074C24.6104 19.8753 24.8741 19.9432 25.1494 19.9997H25.1952C25.5622 20.0676 25.9406 20.1129 26.3191 20.1468C26.537 20.1694 26.7434 20.1581 26.9613 20.1694C27.1448 20.1694 27.3283 20.192 27.5117 20.1807C28.7044 20.1581 29.8971 19.9658 30.9865 19.5812C33.1769 18.812 34.7824 17.432 35.6769 15.5655C36.2273 16.8211 36.9383 18.8007 37.2709 21.1422C37.6264 23.6535 37.5461 26.5946 36.3305 29.5356C35.998 30.3501 35.6195 31.0967 35.1952 31.798C34.8397 32.3749 34.4613 32.9292 34.037 33.4269C34.037 33.4269 34.0255 33.4608 34.014 33.4722C34.014 33.4722 34.014 33.4722 34.0025 33.4948C33.8305 33.6984 33.647 33.8907 33.475 34.0717C33.4292 34.1169 33.3833 34.1735 33.3374 34.2187C32.6149 34.9314 31.8351 35.5083 31.0324 35.9155C29.1975 36.8544 27.0072 36.8657 25.0003 35.9155C24.4039 35.6327 23.8535 35.316 23.3374 34.9653C23.1425 34.8409 22.9361 34.7165 22.7526 34.5694C19.5645 32.1826 17.9017 28.5628 17.7985 23.7892C17.764 22.4092 17.8558 21.0404 18.0966 19.502C18.1769 19.3663 18.3718 19.0948 18.6585 18.8459C18.865 18.665 19.1173 18.4953 19.4384 18.3935H19.4498V18.3822ZM23.0507 36.5603C23.2228 36.6621 23.4062 36.7413 23.5783 36.8431C23.8306 36.9788 24.0714 37.1259 24.3466 37.2503C24.9544 37.5331 25.5851 37.748 26.2159 37.8838C26.2847 37.8838 26.365 37.9064 26.4338 37.9177C26.6746 37.963 26.9154 38.0082 27.1448 38.0421C27.2709 38.0421 27.3971 38.0421 27.5232 38.0648C27.7067 38.0648 27.8902 38.0987 28.0622 38.0987H28.0851C28.2686 38.0987 28.4406 38.0761 28.6241 38.0648C28.7617 38.0648 28.8879 38.0648 29.0255 38.0421C29.209 38.0195 29.381 37.9856 29.553 37.9516C29.6906 37.929 29.8168 37.9064 29.9544 37.8838C30.0805 37.8498 30.2067 37.8046 30.3328 37.7707C30.803 37.6349 31.2732 37.4652 31.7204 37.239C32.0759 37.058 32.42 36.8544 32.7526 36.6282C32.8672 36.549 32.9704 36.4698 33.0851 36.3906C33.303 36.2322 33.5209 36.0626 33.7388 35.8929C33.7847 35.8476 33.842 35.825 33.8879 35.7798V41.5149L28.475 61.9101L23.0622 41.5036V36.5603H23.0507ZM54.8511 55.5642V64.4666H29.7824L40.3557 52.7249C40.5851 52.4761 40.608 52.1141 40.4246 51.8313L38.9223 49.501L40.8833 45.2025C42.6379 45.8812 44.4842 46.4921 46.3764 47.0124C47.03 47.2047 47.6952 47.3857 48.3947 47.5554C54.7594 49.1051 54.8397 55.304 54.8397 55.5642H54.8511ZM38.2457 44.1279C38.475 44.2297 38.6929 44.3315 38.9337 44.4333L39.2548 44.5691C39.3236 44.603 39.4039 44.6256 39.4727 44.6596L37.3741 49.2522C37.2709 49.4784 37.2938 49.7499 37.42 49.9535L38.842 52.148L29.9773 61.9893L35.1035 42.6461C35.7915 42.9967 36.8466 43.5171 38.2457 44.1166V44.1279ZM21.5828 42.7705L21.7549 42.68C21.7549 42.68 21.7893 42.68 21.8007 42.6574L26.9269 61.9893L18.0622 52.148L19.4842 49.9535C19.6218 49.7386 19.6448 49.4784 19.5301 49.2522L17.4315 44.6483C18.5324 44.1958 19.4728 43.7772 20.1838 43.4492C20.3443 43.3813 20.5049 43.3021 20.6425 43.2343C20.6654 43.2343 20.6884 43.2117 20.7228 43.189C21.0439 43.0307 21.3306 42.8949 21.5714 42.7705H21.5828Z" fill="#93D5FE"/>
<path d="M10.0575 25.1807H10.1034C10.5048 25.1807 10.8374 24.8753 10.8603 24.4794V24.2645C10.9406 23.1333 10.9979 22.0361 11.0323 20.984C11.0438 20.5768 10.7227 20.2262 10.2984 20.2148C9.89699 20.2148 9.53001 20.5203 9.51855 20.9388C9.48414 21.9795 9.4268 23.0654 9.358 24.1853V24.4002C9.32359 24.8075 9.64469 25.1581 10.0575 25.1807Z" fill="#93D5FE"/>
</g>
<defs>
<clipPath id="clip0_1116_617">
<rect width="55.7682" height="65.5521" fill="white" transform="translate(0.550781 0.418945)"/>
</clipPath>
</defs>
</svg>
