<svg width="56" height="66" viewBox="0 0 56 66" fill="none" xmlns="http://www.w3.org/2000/svg">
<path d="M10.237 65.9497C9.93803 65.9497 9.70312 65.7133 9.70312 65.4124V59.0505C9.70312 58.7496 9.93803 58.5132 10.237 58.5132C10.536 58.5132 10.7709 58.7496 10.7709 59.0505V65.4124C10.7709 65.7133 10.536 65.9497 10.237 65.9497Z" fill="#93D5FE"/>
<path d="M27.8659 35.8812C26.2323 35.8812 24.588 35.3332 23.2213 34.2263C22.7088 33.8179 22.2283 33.3666 21.7905 32.883C19.527 30.422 18.1816 27.2411 17.4449 25.0166C16.58 22.4374 16.281 20.4494 16.2704 20.3634C16.1956 19.3317 15.7151 10.6164 19.8793 10.208C19.9861 10.208 20.1035 10.2188 20.2103 10.2832C20.2103 10.2832 20.3171 10.3477 20.4879 10.4337L20.7015 10.5519C20.8509 10.6271 21.0325 10.7131 21.2353 10.8098C21.3848 10.885 21.4489 10.9173 21.5236 10.9388C21.7158 11.0247 21.8439 11.0785 21.9721 11.1429L22.1109 11.2074C22.3778 11.3256 22.5059 11.648 22.3885 11.9167C22.271 12.1854 21.9507 12.3143 21.6838 12.1961L21.545 12.1316C21.3955 12.0671 21.246 12.0027 21.1179 11.9382C21.0645 11.9274 20.947 11.8737 20.8403 11.82C20.5627 11.691 20.3811 11.5943 20.221 11.5191L20.0715 11.4438C19.9647 11.3901 19.8793 11.3471 19.8152 11.3041C17.3061 11.7877 17.1566 17.8917 17.3274 20.2559C17.4983 22.6201 17.6264 22.201 18.4485 24.6835C19.1532 26.8112 20.4345 29.8417 22.5593 32.163C22.9651 32.6036 23.4135 33.0227 23.8833 33.3988C26.2323 35.2902 29.4996 35.2902 31.8272 33.3988C32.3611 32.969 32.8629 32.4746 33.3754 31.9051C33.6637 31.5719 33.9413 31.228 34.1869 30.8734C34.3578 30.6262 34.6888 30.5725 34.9343 30.7444C35.1799 30.9164 35.2333 31.2495 35.0625 31.4967C34.7955 31.8728 34.5072 32.2489 34.1869 32.6143C33.6424 33.2269 33.0765 33.7749 32.5106 34.237C31.1439 35.3439 29.5102 35.892 27.8766 35.892H27.8659V35.8812Z" fill="#93D5FE"/>
<path d="M37.0496 27.3696C36.9856 27.3696 36.9108 27.3588 36.8468 27.3266C36.5798 27.2084 36.441 26.8967 36.5585 26.6281C36.8468 25.9296 37.0923 25.274 37.2845 24.683C37.2845 24.6615 37.2845 24.6507 37.2845 24.6292C38.1067 22.1576 38.395 20.2232 38.395 20.2017C38.395 13.9043 36.9215 11.9484 36.3236 11.4111C34.3269 13.1413 31.7964 13.9688 28.7854 13.8721C28.6786 13.8506 28.5078 13.8613 28.369 13.8506C27.7924 13.8183 27.2478 13.7538 26.6926 13.6679L26.084 13.5604C25.7957 13.5174 25.5929 13.238 25.6356 12.9479C25.6783 12.6577 25.9559 12.4535 26.2442 12.4965L26.8528 12.604C27.376 12.69 27.8885 12.7544 28.3796 12.7867C28.5612 12.7867 28.6786 12.8082 28.7961 12.8082C31.6896 12.9049 34.0707 12.0774 35.9072 10.3472C36.0566 10.2075 36.2595 10.1645 36.4517 10.229C36.7613 10.3365 39.452 11.5508 39.452 20.2769C39.4307 20.4381 39.1424 22.3725 38.3095 24.9194C38.3095 24.9409 38.3095 24.9516 38.3095 24.9731C38.1067 25.5964 37.8397 26.2949 37.5408 27.0257C37.4554 27.2299 37.2525 27.3588 37.0496 27.3588V27.3696Z" fill="#93D5FE"/>
<path d="M38.3188 25.5216C37.9878 25.5216 37.6996 25.4249 37.4647 25.2314C37.3472 25.1347 37.2725 24.9735 37.2725 24.8231C37.2725 24.7693 37.2725 24.6941 37.3045 24.6404C38.1266 22.1687 38.4149 20.2343 38.4149 20.2129C38.4149 20.1269 38.4576 20.0409 38.511 19.9764C38.511 19.9764 38.8634 19.4713 39.2905 18.2033C39.3652 17.9883 39.5681 17.8379 39.7923 17.8379C40.3048 17.8379 41.0949 18.0636 41.6075 18.6976C42.12 19.3209 42.2694 20.1806 42.0559 21.2445C41.5968 23.5228 40.198 24.9735 39.0129 25.4034C38.7673 25.4894 38.5324 25.5323 38.3188 25.5323V25.5216ZM39.4506 20.4923C39.3759 20.9221 39.109 22.4589 38.4897 24.4255C38.5431 24.4255 38.5964 24.404 38.6605 24.3825C39.3866 24.1246 40.6145 23.0177 41.0095 21.0296C41.159 20.2881 41.0843 19.7293 40.7853 19.3746C40.6038 19.1597 40.3582 19.0307 40.1553 18.9663C39.8457 19.8152 39.5788 20.2881 39.4506 20.4923Z" fill="#93D5FE"/>
<path d="M17.4764 25.5216C17.2308 25.5216 16.9532 25.4678 16.6756 25.3496C15.5331 24.8875 14.1877 23.4367 13.75 21.2337C13.5364 20.1913 13.6966 19.3316 14.2198 18.7083C14.8177 17.9883 15.768 17.8056 16.1737 17.8164C16.4086 17.8164 16.6115 17.9776 16.6756 18.2032C16.9959 19.3424 17.2842 20.0731 17.2842 20.0839C17.2948 20.1268 17.3055 20.1591 17.3162 20.2021C17.3162 20.2236 17.6045 22.1794 18.448 24.6618C18.5227 24.8875 18.448 25.1347 18.2451 25.2744C18.0209 25.4248 17.754 25.5108 17.4657 25.5108H17.4764V25.5216ZM15.7787 18.9447C15.5438 19.0092 15.2448 19.1382 15.0419 19.3961C14.743 19.7615 14.6575 20.3095 14.807 21.0188C15.1594 22.8134 16.2271 24.0063 17.0813 24.3502C17.1454 24.3717 17.1987 24.3932 17.2521 24.4039C16.6008 22.3299 16.3339 20.7609 16.2805 20.4277C16.2164 20.2558 16.0136 19.7292 15.7893 18.9447H15.7787Z" fill="#93D5FE"/>
<path d="M26.0833 41.4154C25.9765 41.4154 25.8697 41.3832 25.7843 41.3187C25.6562 41.2327 22.6025 39.1264 21.0649 37.3748C20.9368 37.2243 20.8941 37.0201 20.9581 36.8374C21.193 36.1604 21.5988 34.6882 21.6415 32.4959C21.6415 32.281 21.7803 32.0875 21.9832 32.0016C22.186 31.9263 22.4209 31.9801 22.5597 32.1413C22.9655 32.5819 23.4139 33.001 23.8837 33.3771C26.2327 35.2685 29.5 35.2685 31.8277 33.3771C32.3615 32.9472 32.8634 32.4529 33.3759 31.8833C33.5254 31.7114 33.7496 31.6577 33.9631 31.7329C34.166 31.8081 34.3048 32.0123 34.3155 32.2272C34.3368 34.3873 34.7105 35.881 35.0202 36.7515C35.0842 36.9342 35.0522 37.1383 34.9241 37.278C33.4186 39.0405 30.3008 41.1897 30.1727 41.2865C30.0873 41.3402 30.0018 41.3724 29.9057 41.3832C29.5427 41.4047 27.119 41.4047 26.0833 41.4047V41.4154ZM22.0686 36.8912C23.3926 38.299 25.6775 39.9432 26.2541 40.3408C27.6635 40.3408 29.1904 40.3408 29.7029 40.3408C30.2688 39.9432 32.6178 38.256 33.9204 36.8374C33.6748 36.0744 33.4186 34.9783 33.3118 33.5383C33.0449 33.7855 32.7779 34.0219 32.511 34.2368C29.7883 36.4506 25.9658 36.4506 23.2217 34.2368C23.0295 34.0756 22.8374 33.9144 22.6452 33.7425C22.5277 35.1717 22.2715 36.2356 22.0686 36.8912Z" fill="#93D5FE"/>
<path d="M45.9216 65.9497C45.6226 65.9497 45.3877 65.7133 45.3877 65.4124V59.0505C45.3877 58.7496 45.6226 58.5132 45.9216 58.5132C46.2205 58.5132 46.4554 58.7496 46.4554 59.0505V65.4124C46.4554 65.7133 46.2205 65.9497 45.9216 65.9497Z" fill="#93D5FE"/>
<path d="M23.8189 65.9499H1.44988C1.3004 65.9499 1.16159 65.8854 1.0655 65.7779C0.969402 65.6705 0.916016 65.5308 0.916016 65.3803C1.85562 48.8523 4.27937 43.8445 4.30073 43.8015C4.4075 43.608 4.5036 43.4146 7.95237 41.9746C8.21931 41.8564 8.53963 41.9746 8.6464 42.2647C8.76385 42.5334 8.62504 42.8558 8.35811 42.9633C6.03045 43.9304 5.37914 44.2851 5.19762 44.3925C4.89866 45.0911 2.88064 50.3676 2.0051 64.8645H23.2743C23.2957 62.9731 23.4665 60.7809 23.7655 58.3414C23.7975 58.0513 24.0645 57.8363 24.3634 57.8793C24.6517 57.9116 24.8653 58.1802 24.8225 58.4811C24.5022 61.114 24.3314 63.446 24.3314 65.4126C24.3314 65.7135 24.0965 65.9499 23.7975 65.9499H23.8189Z" fill="#93D5FE"/>
<path d="M25.0455 54.0746H24.9494C24.6611 54.0209 24.4689 53.7415 24.5116 53.4514C25.0882 50.1522 25.6968 47.5193 25.889 46.6918C25.2911 45.9611 24.5971 44.5855 24.1913 43.7151C23.1663 44.9617 21.3084 47.1539 21.3084 47.1539C21.1803 47.3044 20.9668 47.3796 20.7746 47.3259C20.5824 47.2722 20.4222 47.1217 20.3795 46.9175C20.3795 46.8745 19.3545 42.4255 17.219 39.4058C16.226 39.7926 14.7846 40.3515 13.2364 40.9747C12.9588 41.0822 12.6491 40.9532 12.5424 40.6738C12.4356 40.3944 12.5637 40.0828 12.8413 39.9753C14.6031 39.2661 16.2367 38.632 17.219 38.2559C17.4432 38.1699 17.6888 38.2559 17.8276 38.4278C19.6321 40.7921 20.6998 44.0267 21.159 45.6602C21.8423 44.8542 22.878 43.6184 23.4973 42.8661C23.6254 42.7049 23.7749 42.533 23.9351 42.361C24.0632 42.2321 24.2447 42.1676 24.4155 42.1998C24.5971 42.2321 24.7465 42.3503 24.8213 42.5115C25.4406 43.9408 26.3481 45.6602 26.85 46.1545C26.9888 46.2835 27.0422 46.4769 26.9888 46.6704C26.9888 46.7026 26.252 49.6901 25.558 53.6448C25.5153 53.9027 25.2911 54.0854 25.0348 54.0854H25.0455V54.0746Z" fill="#93D5FE"/>
<path d="M53.8964 56.525C53.6295 56.525 53.3946 56.3208 53.3626 56.0521C53.2238 54.8808 53.0743 53.7846 52.9141 52.8067C52.8714 52.5165 53.0636 52.2371 53.3519 52.1941C53.6402 52.1404 53.9178 52.3446 53.9605 52.6348C54.1207 53.6342 54.2702 54.7411 54.409 55.9232C54.441 56.2133 54.2274 56.482 53.9392 56.5142H53.8751H53.8964V56.525Z" fill="#93D5FE"/>
<path d="M54.7096 65.9501H32.1057C31.8067 65.9501 31.5718 65.7137 31.5718 65.4128C31.5718 57.4497 28.9452 46.7677 28.9132 46.6602C28.8704 46.4776 28.9132 46.2734 29.0626 46.1444C29.4897 45.7253 30.1517 44.468 31.0166 42.4154C31.0913 42.2435 31.2408 42.1252 31.4223 42.093C31.6038 42.0608 31.7854 42.1252 31.9135 42.265C32.063 42.4369 32.2125 42.6088 32.3513 42.7808C33.0133 43.5868 34.0703 44.8441 34.7537 45.6608C35.2021 44.0489 36.2485 40.8787 37.9996 38.5252C37.9996 38.493 38.0209 38.4607 38.0316 38.4392C38.149 38.2028 38.3946 38.0631 38.6509 38.1491L38.5548 38.5574L38.7683 38.1921C51.5171 43.1891 51.7199 43.5545 51.8694 43.8232C52.0509 44.1563 52.5314 45.3922 53.0546 47.6919C53.1187 47.9821 52.9371 48.2722 52.6489 48.3367C52.3606 48.4012 52.0723 48.2185 52.0082 47.9283C51.5064 45.6931 51.09 44.6829 50.9618 44.4142C50.3959 44.0489 46.9151 42.5444 38.7363 39.3312C36.5581 42.3509 35.5438 46.8644 35.5331 46.9182C35.4904 47.1116 35.3409 47.2728 35.138 47.3265C34.9458 47.3695 34.7323 47.305 34.6042 47.1546C34.6042 47.1546 32.6609 44.8656 31.6572 43.6405C30.9846 45.1772 30.4614 46.1444 30.0236 46.6925C30.4293 48.4012 32.5328 57.6001 32.6395 64.8862H54.1437C54.0583 63.4999 53.9728 62.2103 53.8554 60.9852C53.8234 60.6951 54.0476 60.4264 54.3359 60.4049C54.6242 60.3834 54.8911 60.5984 54.9124 60.8885C55.0406 62.2856 55.1367 63.7901 55.2328 65.402C55.2328 65.5525 55.1901 65.6922 55.094 65.7996C54.9979 65.9071 54.8484 65.9716 54.7096 65.9716V65.9501Z" fill="#93D5FE"/>
<path d="M32.1056 65.9498H23.82C23.521 65.9498 23.2861 65.7133 23.2861 65.4124C23.2861 63.4029 23.457 61.0279 23.7773 58.352C23.8093 58.0619 24.0763 57.847 24.3752 57.8899C24.6635 57.9222 24.8771 58.1908 24.8343 58.4917C24.5354 60.8882 24.3752 63.0375 24.3539 64.8859H31.5611C31.465 57.8792 29.479 49.0564 29.0092 47.079H26.9057C26.6815 48.0247 26.1156 50.5394 25.5711 53.6451C25.5177 53.9353 25.2401 54.1394 24.9518 54.0857C24.6635 54.032 24.4713 53.7526 24.514 53.4624C25.2187 49.4755 25.9555 46.445 25.9661 46.4235C26.0302 46.1871 26.2438 46.0151 26.4893 46.0151H29.4363C29.6818 46.0151 29.8954 46.1871 29.9595 46.4235C29.9808 46.531 32.6395 57.3419 32.6395 65.4339C32.6395 65.7348 32.4046 65.9713 32.1056 65.9713V65.9498Z" fill="#93D5FE"/>
<path d="M29.4351 47.0681H26.4881C26.3493 47.0681 26.2105 47.0144 26.1144 46.9177C25.2175 46.0364 23.9896 43.2531 23.8508 42.9307C23.7654 42.7373 23.7974 42.5224 23.9362 42.3612C24.8011 41.351 25.6767 40.5128 25.7194 40.4805C25.8155 40.3838 25.9543 40.3301 26.0824 40.3301C27.7267 40.3301 29.5739 40.3301 29.8408 40.3086C29.9903 40.3086 30.1398 40.3516 30.2465 40.459C30.2786 40.4913 31.0687 41.2758 31.9122 42.2537C32.0403 42.4041 32.083 42.6298 31.9976 42.8125C31.0367 45.1015 30.364 46.3588 29.8088 46.8962C29.7127 46.9929 29.5739 47.0466 29.4351 47.0466V47.0681ZM26.723 45.9935H29.2002C29.6059 45.4991 30.1718 44.403 30.8872 42.7158C30.3747 42.1355 29.8942 41.6412 29.6593 41.394C28.9759 41.394 27.2569 41.394 26.2959 41.394C26.0397 41.6412 25.5165 42.1677 24.9719 42.791C25.5272 44.0269 26.2426 45.3809 26.723 45.972V45.9935Z" fill="#93D5FE"/>
<path d="M38.9384 20.8252C38.9384 20.8252 38.8316 20.8252 38.7675 20.7929C38.5433 20.7177 38.4045 20.5135 38.4045 20.2879C38.4045 13.926 36.931 11.9594 36.3438 11.422C34.3471 13.1522 31.8166 13.9797 28.8056 13.883C28.6668 13.8615 28.56 13.883 28.4212 13.8615C27.8126 13.8292 27.268 13.7648 26.7128 13.6681C26.4993 13.6358 26.2964 13.6036 26.0829 13.5606C25.7946 13.4961 25.6131 13.2167 25.6664 12.9265C25.7305 12.6364 26.0081 12.443 26.2964 12.5074C26.4886 12.5504 26.6808 12.5827 26.8837 12.6149C27.4068 12.7009 27.9194 12.7654 28.4105 12.7976C28.6134 12.8083 28.7202 12.8191 28.8269 12.8191C31.7205 12.9158 34.1015 12.0883 35.938 10.3581C36.0875 10.2184 36.2904 10.1755 36.4826 10.2399C36.7602 10.3367 38.9597 11.3253 39.4082 17.8592C39.7605 16.72 40.0488 15.409 40.2837 13.9475C40.5933 11.9486 40.3264 10.3689 39.5043 9.25127C38.5113 7.90796 37.0058 7.69303 36.9844 7.69303C36.7388 7.66079 36.5466 7.46736 36.5253 7.22019C36.5039 7.04825 35.8953 2.88938 29.9374 1.72876C23.4883 0.460685 18.6194 4.31865 16.7402 6.31749C16.9324 6.33898 17.0926 6.38197 17.1993 6.42495C17.3595 6.48943 17.4876 6.62914 17.5196 6.81183C17.5624 6.98377 17.509 7.16646 17.3915 7.29542C15.2133 9.63814 15.6831 13.9152 16.2918 16.6663C16.516 13.8615 17.3168 10.4656 19.8793 10.2184C19.9861 10.2184 20.1036 10.2292 20.2103 10.2937C20.2103 10.2937 20.3171 10.3581 20.4879 10.4441L20.7015 10.5623C20.851 10.6376 21.0325 10.7235 21.2354 10.8202L21.5557 10.9599C21.7158 11.0352 21.844 11.0889 21.9721 11.1534L22.1109 11.2179C22.3778 11.3361 22.506 11.6585 22.3885 11.9271C22.2711 12.1958 21.9507 12.3247 21.6838 12.2065L21.545 12.1421C21.3955 12.0776 21.246 12.0131 21.1179 11.9486L20.8937 11.8519C20.8937 11.8519 20.7976 11.8089 20.7869 11.7982C20.5627 11.6907 20.3812 11.6047 20.221 11.5295L20.0715 11.4543C19.9648 11.4006 19.8793 11.3576 19.8153 11.3146C17.3061 11.7982 17.1566 17.9021 17.3275 20.2664C17.3488 20.535 17.1673 20.7714 16.911 20.8252C16.6548 20.8897 16.3879 20.75 16.2918 20.5028C16.2811 20.4705 15.9821 19.7075 15.6404 18.5147C14.829 15.6884 13.8787 10.745 15.8753 7.51034C15.822 7.53184 15.7579 7.56408 15.6938 7.59632C15.491 7.71453 15.2133 7.68229 15.0425 7.51034C14.8717 7.3384 14.8503 7.0375 14.9678 6.83332C15.5337 5.74793 21.3421 -1.02232 30.1082 0.697106C35.8419 1.81474 37.1873 5.50076 37.4756 6.72585C38.1055 6.88705 39.3761 7.34915 40.3157 8.60648C41.3301 9.96053 41.6718 11.8197 41.3087 14.1301C41.0418 15.7958 40.7001 17.2896 40.2837 18.5577C39.8032 19.9977 39.3975 20.5673 39.3548 20.6317C39.248 20.7714 39.0878 20.8467 38.9277 20.8467V20.8252H38.9384Z" fill="#93D5FE"/>
<path d="M20.9141 47.3259C20.9141 47.3259 20.8287 47.3259 20.786 47.3259C20.5938 47.2722 20.4337 47.1218 20.391 46.9176C20.391 46.8746 19.3019 42.1032 16.9956 39.0942C16.9742 39.0619 16.9529 39.0297 16.9422 38.9975C16.8354 38.89 16.8141 38.7718 16.8247 38.6106C16.8354 38.4601 16.9529 38.3527 17.0703 38.256L20.5618 35.7628C20.6792 35.6768 20.8394 35.6446 20.9782 35.6768C21.1277 35.7091 21.2451 35.795 21.3306 35.924L21.4267 36.0852C21.5441 36.2786 21.7043 36.472 21.8751 36.687C23.3165 38.3204 26.3596 40.416 26.3916 40.4375C26.5197 40.5342 26.6052 40.6739 26.6265 40.8351C26.6372 40.9963 26.5838 41.1575 26.4557 41.265C26.4557 41.265 25.5801 42.0924 24.758 43.0596C24.6085 43.2316 24.4697 43.3713 24.3522 43.5325C23.3699 44.7361 21.3306 47.1325 21.3306 47.1325C21.2238 47.2507 21.0743 47.3152 20.9248 47.3152V47.3367L20.9141 47.3259ZM18.1274 38.8148C19.761 41.1253 20.7433 44.1128 21.1704 45.6602C21.8537 44.8543 22.8894 43.6184 23.5087 42.8662C23.6369 42.705 23.7863 42.533 23.9465 42.3611C24.4163 41.8023 24.9075 41.2972 25.2491 40.9533C24.2775 40.2548 22.2275 38.7181 21.0636 37.3855C20.9462 37.235 20.8287 37.0953 20.7326 36.9664L18.138 38.8255H18.1274V38.8148Z" fill="#93D5FE"/>
<path d="M35.0098 47.3259C34.8603 47.3259 34.7108 47.2615 34.6041 47.1433C34.6041 47.1433 32.554 44.7361 31.5824 43.5432C31.3902 43.3068 31.2514 43.1456 31.1019 42.9844C30.2904 42.0387 29.5003 41.2542 29.4896 41.2435C29.3722 41.1253 29.3188 40.9748 29.3295 40.8136C29.3401 40.6524 29.4256 40.5127 29.5644 40.416C29.5964 40.3945 32.6928 38.256 34.1022 36.601C34.3051 36.3753 34.4653 36.1497 34.572 35.9455C34.6468 35.8058 34.7749 35.7091 34.9244 35.6768C35.0739 35.6446 35.234 35.6768 35.3621 35.7628L38.7789 38.213C38.8963 38.2989 39.0138 38.4494 39.0351 38.5891C39.0565 38.7288 39.0351 38.9007 38.9604 39.019C36.6328 42.028 35.533 46.8638 35.5223 46.9068C35.4796 47.1003 35.3301 47.2615 35.1272 47.3152C35.0845 47.3152 35.0418 47.3152 34.9991 47.3152L35.0098 47.3259ZM30.6962 40.9318C31.0058 41.265 31.4542 41.7378 31.9134 42.2644C32.0629 42.4256 32.2017 42.5975 32.3511 42.7695C33.0131 43.5754 34.0702 44.8328 34.7535 45.6495C35.1806 44.102 36.1629 41.1253 37.7966 38.804L35.202 36.9556C35.1166 37.0738 35.0205 37.1813 34.9244 37.2995C33.7712 38.6536 31.6785 40.2333 30.6962 40.9318Z" fill="#93D5FE"/>
</svg>
