<svg width="66" height="66" viewBox="0 0 66 66" fill="none" xmlns="http://www.w3.org/2000/svg">
<path d="M32.9245 65.9115C14.8527 65.9115 0.148438 51.2073 0.148438 33.1354C0.148438 27.1717 1.76796 21.3315 4.82897 16.248C5.18007 15.662 5.94161 15.474 6.52513 15.8276C7.11113 16.1787 7.29904 16.9403 6.94547 17.5238C4.1144 22.2216 2.61851 27.6217 2.61851 33.1354C2.61851 49.8449 16.2126 63.439 32.922 63.439C49.6315 63.439 63.2256 49.8449 63.2256 33.1354C63.2256 16.426 49.634 2.83192 32.9245 2.83192C25.5538 2.83192 18.4502 5.50969 12.9216 10.3707C12.4098 10.8207 11.6285 10.7713 11.176 10.2594C10.726 9.74763 10.7754 8.96631 11.2873 8.51383C17.2683 3.25473 24.953 0.359375 32.9245 0.359375C50.9963 0.359375 65.7006 15.0636 65.7006 33.1354C65.7006 51.2073 50.9963 65.9115 32.9245 65.9115Z" fill="#93D5FE"/>
<path d="M41.0838 41.7104L33.9579 34.5845V17.3632C33.9579 16.6808 33.404 16.127 32.7216 16.127C32.0392 16.127 31.4854 16.6808 31.4854 17.3632V35.0246C31.4854 35.121 31.5002 35.215 31.52 35.3065C31.5595 35.5537 31.6708 35.7936 31.8637 35.9864L39.3357 43.4585C39.578 43.7008 39.8945 43.8195 40.211 43.8195C40.5275 43.8195 40.8439 43.6983 41.0863 43.4585C41.5684 42.9763 41.5684 42.1925 41.0863 41.7104H41.0838Z" fill="#93D5FE"/>
</svg>
