<svg width="66" height="66" viewBox="0 0 66 66" fill="none" xmlns="http://www.w3.org/2000/svg">
<path d="M33.7158 45.9634L33.7158 21.0439" stroke="#93D5FE" stroke-width="3" stroke-linecap="round" stroke-linejoin="round"/>
<path d="M44.3956 31.7241L33.7158 21.0444" stroke="#93D5FE" stroke-width="3" stroke-linecap="round" stroke-linejoin="round"/>
<path d="M23.0381 31.7241L33.7178 21.0444" stroke="#93D5FE" stroke-width="3" stroke-linecap="round" stroke-linejoin="round"/>
<path d="M32.9811 65.9115C14.9093 65.9115 0.205078 51.2073 0.205078 33.1354C0.205078 27.1717 1.82212 21.3315 4.88561 16.248C5.23671 15.662 5.99825 15.474 6.58177 15.8276C7.16777 16.1787 7.35568 16.9403 7.00211 17.5238C4.17351 22.2216 2.67762 27.6217 2.67762 33.1354C2.67762 49.8449 16.2717 63.439 32.9811 63.439C49.6906 63.439 63.2847 49.8449 63.2847 33.1354C63.2847 16.426 49.6906 2.83192 32.9811 2.83192C25.6105 2.83192 18.5069 5.50969 12.9783 10.3707C12.4664 10.8207 11.6851 10.7713 11.2326 10.2594C10.7826 9.74763 10.8321 8.96631 11.3439 8.51383C17.325 3.25473 25.0097 0.359375 32.9811 0.359375C51.053 0.359375 65.7572 15.0636 65.7572 33.1354C65.7572 51.2073 51.053 65.9115 32.9811 65.9115Z" fill="#93D5FE"/>
</svg>
