<svg width="84" height="72" viewBox="0 0 84 72" fill="none" xmlns="http://www.w3.org/2000/svg">
<path fill-rule="evenodd" clip-rule="evenodd" d="M79.7344 8.50909H4.26562C1.96875 8.50909 0 6.54545 0 4.25455C0 1.96364 1.96875 0 4.26562 0H79.7344C82.0312 0 84 1.96364 84 4.25455C84 6.54545 82.0312 8.50909 79.7344 8.50909ZM4.26562 1.96364C2.95312 1.96364 1.96875 2.94545 1.96875 4.25455C1.96875 5.4 2.95312 6.54545 4.26562 6.54545H79.7344C81.0469 6.54545 82.0312 5.4 82.0312 4.25455C82.0312 2.94545 81.0469 1.96364 79.7344 1.96364H4.26562Z" fill="#93D5FE"/>
<path fill-rule="evenodd" clip-rule="evenodd" d="M78.5859 51.0545H5.41406C4.92188 51.0545 4.42969 50.7272 4.42969 50.0727V7.52723C4.42969 6.87268 4.92188 6.54541 5.41406 6.54541H78.5859C79.0781 6.54541 79.5703 6.87268 79.5703 7.52723V50.0727C79.5703 50.7272 79.0781 51.0545 78.5859 51.0545ZM6.39844 49.0909H77.6016V8.50905H6.39844V49.0909Z" fill="#93D5FE"/>
<path fill-rule="evenodd" clip-rule="evenodd" d="M79.7344 57.6H4.26562C1.96875 57.6 0 55.6364 0 53.3455C0 51.0546 1.96875 49.0909 4.26562 49.0909H79.7344C82.0312 49.0909 84 51.0546 84 53.3455C84 55.6364 82.0312 57.6 79.7344 57.6ZM4.26562 51.0546C2.95312 51.0546 1.96875 52.0364 1.96875 53.3455C1.96875 54.6546 2.95312 55.6364 4.26562 55.6364H79.7344C81.0469 55.6364 82.0312 54.6546 82.0312 53.3455C82.0312 52.0364 81.0469 51.0546 79.7344 51.0546H4.26562Z" fill="#93D5FE"/>
<path fill-rule="evenodd" clip-rule="evenodd" d="M42 72C41.5078 72 41.0156 71.5091 41.0156 71.0182V56.6182C41.0156 56.1273 41.5078 55.6364 42 55.6364C42.4922 55.6364 42.9844 56.1273 42.9844 56.6182V71.0182C42.9844 71.5091 42.4922 72 42 72Z" fill="#93D5FE"/>
<path fill-rule="evenodd" clip-rule="evenodd" d="M13.125 71.0182H12.6328C12.1406 70.6909 11.9766 70.2 12.1406 69.7091L19.0312 56.1273C19.1953 55.6364 19.8516 55.4728 20.3438 55.8C20.8359 55.9637 21 56.6182 20.8359 57.1091L13.9453 70.5273C13.7812 70.8546 13.4531 71.0182 13.125 71.0182Z" fill="#93D5FE"/>
<path fill-rule="evenodd" clip-rule="evenodd" d="M70.875 71.0182C70.5469 71.0182 70.2188 70.8546 70.0547 70.5273L63.1641 57.1091C63 56.6182 63.1641 55.9637 63.6562 55.8C64.1484 55.4728 64.8047 55.6364 64.9688 56.1273L71.8594 69.7091C72.0234 70.2 71.8594 70.6909 71.3672 71.0182H70.875Z" fill="#93D5FE"/>
<path fill-rule="evenodd" clip-rule="evenodd" d="M19.0312 38.9455C16.5703 38.9455 14.4375 36.8182 14.4375 34.3637C14.4375 31.9091 16.5703 29.7819 19.0312 29.7819C21.6562 29.7819 23.625 31.9091 23.625 34.3637C23.625 36.8182 21.6562 38.9455 19.0312 38.9455ZM19.0312 31.7455C17.7188 31.7455 16.4062 32.891 16.4062 34.3637C16.4062 35.8364 17.7188 36.9819 19.0312 36.9819C20.5078 36.9819 21.6562 35.8364 21.6562 34.3637C21.6562 32.891 20.5078 31.7455 19.0312 31.7455Z" fill="#93D5FE"/>
<path fill-rule="evenodd" clip-rule="evenodd" d="M21.3281 32.5637C20.8359 32.5637 20.5078 32.4001 20.3438 32.0728C20.1797 31.5819 20.3438 30.9273 20.8359 30.6001L31.3359 24.5455C31.8281 24.3819 32.4844 24.5455 32.6484 24.8728C32.9766 25.3637 32.8125 26.0182 32.3203 26.3455L21.8203 32.4001C21.6562 32.4001 21.4922 32.5637 21.3281 32.5637Z" fill="#93D5FE"/>
<path fill-rule="evenodd" clip-rule="evenodd" d="M35.4375 29.9456C32.9766 29.9456 30.8438 27.9819 30.8438 25.3637C30.8438 22.9092 32.9766 20.9456 35.4375 20.9456C37.8984 20.9456 40.0312 22.9092 40.0312 25.3637C40.0312 27.9819 37.8984 29.9456 35.4375 29.9456ZM35.4375 22.9092C33.9609 22.9092 32.8125 24.0546 32.8125 25.3637C32.8125 26.8365 33.9609 27.9819 35.4375 27.9819C36.9141 27.9819 38.0625 26.8365 38.0625 25.3637C38.0625 24.0546 36.9141 22.9092 35.4375 22.9092Z" fill="#93D5FE"/>
<path fill-rule="evenodd" clip-rule="evenodd" d="M51.5156 39.4365C49.0547 39.4365 46.9219 37.3092 46.9219 34.8546C46.9219 32.2365 49.0547 30.2728 51.5156 30.2728C53.9766 30.2728 56.1094 32.2365 56.1094 34.8546C56.1094 37.3092 53.9766 39.4365 51.5156 39.4365ZM51.5156 32.2365C50.0391 32.2365 48.8906 33.3819 48.8906 34.8546C48.8906 36.1637 50.0391 37.4728 51.5156 37.4728C52.9922 37.4728 54.1406 36.1637 54.1406 34.8546C54.1406 33.3819 52.9922 32.2365 51.5156 32.2365Z" fill="#93D5FE"/>
<path fill-rule="evenodd" clip-rule="evenodd" d="M47.9064 35.8365C47.7424 35.8365 47.4142 35.6728 47.2502 35.5092L38.2267 26.1819C37.8986 25.691 37.8986 25.0365 38.3908 24.7092C38.7189 24.3819 39.3752 24.3819 39.7033 24.7092L48.7267 34.2001C49.0549 34.5274 49.0549 35.1819 48.5627 35.5092C48.3986 35.6728 48.2345 35.8365 47.9064 35.8365Z" fill="#93D5FE"/>
<path fill-rule="evenodd" clip-rule="evenodd" d="M64.9688 27.3273C62.3438 27.3273 60.375 25.2001 60.375 22.7455C60.375 20.291 62.3438 18.1637 64.9688 18.1637C67.4297 18.1637 69.5625 20.291 69.5625 22.7455C69.5625 25.2001 67.4297 27.3273 64.9688 27.3273ZM64.9688 20.1273C63.4922 20.1273 62.3438 21.2728 62.3438 22.7455C62.3438 24.2182 63.4922 25.3637 64.9688 25.3637C66.2812 25.3637 67.5938 24.2182 67.5938 22.7455C67.5938 21.2728 66.2812 20.1273 64.9688 20.1273Z" fill="#93D5FE"/>
<path fill-rule="evenodd" clip-rule="evenodd" d="M53.8127 33.0546C53.4845 33.0546 53.3205 32.8909 53.1564 32.7273C52.6642 32.4 52.6642 31.9091 52.9924 31.4182L60.5392 22.0909C60.8674 21.7637 61.5236 21.6 62.0158 21.9273C62.3439 22.4182 62.508 22.9091 62.1799 23.4L54.4689 32.7273C54.3049 32.8909 53.9767 33.0546 53.8127 33.0546Z" fill="#93D5FE"/>
</svg>
