<svg width="73" height="50" viewBox="0 0 73 50" fill="none" xmlns="http://www.w3.org/2000/svg">
<g clip-path="url(#clip0_1116_905)">
<path d="M73 24.4066C73 20.4906 69.9457 17.2121 66.0447 16.9389V5.73737C66.0447 2.5803 63.4743 0 60.3293 0C59.6943 0 59.0895 0.0910693 58.4847 0.303564L20.4122 13.3265C18.4768 14.0247 17.0555 15.7246 16.6926 17.7585H6.71334C2.99379 17.7585 0 20.7942 0 24.4976C0 24.4976 0 24.4976 0 24.528V25.5905C0 29.294 2.96355 32.2992 6.65286 32.3296C6.65286 32.3296 6.6831 32.3296 6.71334 32.3296H8.67896V43.7133C8.67896 44.5632 9.34424 45.2311 10.191 45.2311C11.0377 45.2311 11.703 44.5632 11.703 43.7133V32.3296H16.5414C16.7833 34.6367 18.3861 36.5795 20.5936 37.217L58.6661 48.7828C59.2104 48.9649 59.785 49.056 60.3596 49.056C63.5046 49.0256 66.0447 46.4453 66.0447 43.2883V31.8743C69.9457 31.601 72.9698 28.3226 73 24.4066ZM3.11475 25.5905V24.528C3.11475 22.5245 4.71748 20.8549 6.71334 20.7942H16.5112V29.294H6.71334C4.71748 29.2332 3.11475 27.594 3.11475 25.5905ZM63.0207 43.2883C63.0207 44.7757 61.8413 45.99 60.3596 46.0204C60.0874 46.0204 59.8152 45.99 59.5431 45.8989L21.4706 34.3028C20.3215 33.9689 19.5352 32.9064 19.5352 31.7225V18.7603C19.5352 17.6067 20.2912 16.5746 21.3799 16.2103L59.4524 3.15707C59.7548 3.12671 60.0269 3.12671 60.3293 3.15707C60.9039 3.15707 61.4482 3.30885 61.9018 3.64277C62.6276 4.15883 63.0207 4.97846 63.0207 5.85879V43.2883ZM66.0447 28.8386V19.9745C68.4942 20.2477 70.2179 22.4638 69.9457 24.9226C69.7038 26.9869 68.1011 28.5958 66.0447 28.8386Z" fill="#93D5FE"/>
</g>
<defs>
<clipPath id="clip0_1116_905">
<rect width="73" height="49.056" fill="white"/>
</clipPath>
</defs>
</svg>
