<svg width="70" height="70" viewBox="0 0 70 70" fill="none" xmlns="http://www.w3.org/2000/svg">
<path d="M66.3838 41.4721C65.8059 36.9104 61.9459 33.5296 57.4041 33.5296H53.5556L50.4006 7.94244C49.8228 3.38075 45.9628 0 41.4209 0H29.76C25.2066 0 21.3582 3.39233 20.7803 7.94244L17.6369 33.5296H12.3901C7.83665 33.5296 3.98821 36.9219 3.41036 41.4721L0.0126428 68.3559C-0.102926 69.178 0.590487 69.9884 1.41102 69.9884C3.86108 69.9884 71.0528 69.9884 68.4871 69.9884C69.3077 69.9884 70.0011 69.2822 70.0011 68.4717C69.7699 68.4717 66.3838 41.4721 66.3838 41.4721ZM23.5771 8.174C23.9238 5.14059 26.605 2.80185 29.6445 2.80185H41.3054C44.4604 2.80185 47.026 5.14059 47.3727 8.174L50.5162 33.4138H20.3065L23.5771 8.174ZM34.7757 56.778L32.9151 41.4721C32.6839 39.4807 31.8634 37.7324 30.5806 36.4472H39.098C37.8152 37.8482 36.9946 39.608 36.7635 41.4721L34.7757 56.778ZM2.92498 67.0708L6.06845 41.831C6.41515 38.7976 9.09635 36.4588 12.1358 36.4588H23.7967C26.9402 36.4588 29.5173 38.7976 29.8641 41.831L33.1347 67.0708H2.92498ZM36.4052 67.0708L39.5603 41.831C39.907 38.7976 42.5882 36.4588 45.6276 36.4588H57.2885C60.4435 36.4588 63.0092 38.7976 63.3559 41.831L66.6265 67.0708H36.4168H36.4052Z" fill="#93D5FE"/>
<path d="M28.9393 13.0715C29.7599 13.0715 30.4533 12.3653 30.4533 11.5548V10.0381C30.4533 9.33185 31.0311 8.63717 31.8517 8.63717H33.3656C34.1862 8.63717 34.8796 7.93092 34.8796 7.12047C34.8796 6.31001 34.1746 5.60376 33.3656 5.60376H31.8517C29.5172 5.60376 27.541 7.4678 27.541 9.92232V11.439C27.4254 12.3768 28.1188 13.0715 28.9393 13.0715Z" fill="#93D5FE"/>
<path d="M14.3667 39.3765H12.8527C10.5182 39.3765 8.54199 41.2405 8.54199 43.695V45.2117C8.54199 46.0338 9.24696 46.7284 10.0559 46.7284C10.8649 46.7284 11.5699 46.0222 11.5699 45.2117V43.695C11.5699 42.9888 12.1477 42.2941 12.9683 42.2941H14.3667C15.1872 42.2941 15.8806 41.5878 15.8806 40.7774C15.8806 39.9669 15.1756 39.3765 14.3667 39.3765Z" fill="#93D5FE"/>
<path d="M47.8352 39.3765H46.3213C43.9868 39.3765 41.999 41.2405 41.999 43.695V45.2117C41.999 46.0338 42.704 46.7284 43.513 46.7284C44.322 46.7284 45.0269 46.0222 45.0269 45.2117V43.695C45.0269 42.9888 45.6048 42.2941 46.4253 42.2941H47.9393C48.7598 42.2941 49.4532 41.5878 49.4532 40.7774C49.4532 39.9669 48.6327 39.3765 47.8237 39.3765H47.8352Z" fill="#93D5FE"/>
</svg>
