<svg width="77" height="71" viewBox="0 0 77 71" fill="none" xmlns="http://www.w3.org/2000/svg">
<path d="M75.8589 68.6746H1.14113C0.50912 68.6746 0 69.1931 0 69.8368C0 70.4805 0.50912 70.999 1.14113 70.999H75.8589C76.4909 70.999 77 70.4805 77 69.8368C77 69.1931 76.4909 68.6746 75.8589 68.6746Z" fill="#93D5FE"/>
<path d="M4.07277 66.6184H72.9268C73.5589 66.6184 74.068 66.0999 74.068 65.4562C74.068 64.8125 73.5589 64.2939 72.9268 64.2939H4.07277C3.44076 64.2939 2.93164 64.8125 2.93164 65.4562C2.93164 66.0999 3.44076 66.6184 4.07277 66.6184Z" fill="#93D5FE"/>
<path d="M68.0467 35.9353C68.6787 35.9353 69.1878 35.4168 69.1878 34.7731C69.1878 34.1294 68.6787 33.6108 68.0467 33.6108H8.95363C8.32162 33.6108 7.8125 34.1294 7.8125 34.7731C7.8125 35.4168 8.32162 35.9353 8.95363 35.9353H11.903V60.2886H11.0252C10.3932 60.2886 9.88409 60.8071 9.88409 61.4508C9.88409 62.0945 10.3932 62.6131 11.0252 62.6131H18.188C18.82 62.6131 19.3291 62.0945 19.3291 61.4508C19.3291 60.8071 18.82 60.2886 18.188 60.2886H17.3102V43.2484C17.2751 42.7657 17.3804 41.371 18.1178 40.5664C18.5391 40.1015 19.1536 39.869 19.9787 39.869C20.6107 39.869 21.1198 39.3505 21.1198 38.7068C21.1198 38.0631 20.6107 37.5446 19.9787 37.5446C18.504 37.5446 17.3102 38.0273 16.4324 38.975C14.9577 40.5842 15.0104 42.9087 15.028 43.3378V60.2707H14.2028V35.9353H23.8586V60.2886H22.9808C22.3488 60.2886 21.8396 60.8071 21.8396 61.4508C21.8396 62.0945 22.3488 62.6131 22.9808 62.6131H30.1436C30.7756 62.6131 31.2847 62.0945 31.2847 61.4508C31.2847 60.8071 30.7756 60.2886 30.1436 60.2886H29.2658V43.2484C29.2306 42.7657 29.336 41.371 30.0733 40.5664C30.4947 40.1015 31.1091 39.869 31.9342 39.869C32.5663 39.869 33.0754 39.3505 33.0754 38.7068C33.0754 38.0631 32.5663 37.5446 31.9342 37.5446C30.4596 37.5446 29.2658 38.0273 28.388 38.975C26.9133 40.5842 26.9659 42.9087 26.9835 43.3378V60.2707H26.1584V35.9353H35.8141V60.2886H34.9363C34.3043 60.2886 33.7952 60.8071 33.7952 61.4508C33.7952 62.0945 34.3043 62.6131 34.9363 62.6131H42.0991C42.7311 62.6131 43.2402 62.0945 43.2402 61.4508C43.2402 60.8071 42.7311 60.2886 42.0991 60.2886H41.2213V43.2484C41.1862 42.7657 41.2915 41.371 42.0289 40.5664C42.4502 40.1015 43.0647 39.869 43.8898 39.869C44.5218 39.869 45.0309 39.3505 45.0309 38.7068C45.0309 38.0631 44.5218 37.5446 43.8898 37.5446C42.4151 37.5446 41.2213 38.0273 40.3435 38.975C38.8688 40.5842 38.9215 42.9087 38.939 43.3378V60.2707H38.1139V35.9353H47.7696V60.2886H46.8918C46.2598 60.2886 45.7507 60.8071 45.7507 61.4508C45.7507 62.0945 46.2598 62.6131 46.8918 62.6131H54.0546C54.6866 62.6131 55.1958 62.0945 55.1958 61.4508C55.1958 60.8071 54.6866 60.2886 54.0546 60.2886H53.1768V43.2484C53.1417 42.7657 53.2471 41.371 53.9844 40.5664C54.4233 40.1015 55.0202 39.869 55.8453 39.869C56.4773 39.869 56.9865 39.3505 56.9865 38.7068C56.9865 38.0631 56.4773 37.5446 55.8453 37.5446C54.3706 37.5446 53.1768 38.0273 52.299 38.975C50.8244 40.5842 50.877 42.9087 50.8946 43.3378V60.2707H50.0695V35.9353H62.8501V60.2886H62.025V42.8372C62.025 42.1935 61.5159 41.675 60.8839 41.675C60.2519 41.675 59.7427 42.1935 59.7427 42.8372V60.2707H58.8649C58.2329 60.2707 57.7238 60.7892 57.7238 61.4329C57.7238 62.0766 58.2329 62.5952 58.8649 62.5952H66.0277C66.6597 62.5952 67.1689 62.0766 67.1689 61.4329C67.1689 60.7892 66.6597 60.2707 66.0277 60.2707H65.1499V35.9353H68.0467Z" fill="#93D5FE"/>
<path d="M68.0467 28.7832H8.95363C8.32162 28.7832 7.8125 29.3017 7.8125 29.9454C7.8125 30.5891 8.32162 31.1077 8.95363 31.1077H68.0467C68.6787 31.1077 69.1878 30.5891 69.1878 29.9454C69.1878 29.3017 68.6787 28.7832 68.0467 28.7832Z" fill="#93D5FE"/>
<path d="M7.53134 25.7971V26.6733C7.53134 27.317 8.04046 27.8355 8.67247 27.8355H68.3273C68.9593 27.8355 69.4684 27.317 69.4684 26.6733V25.7971L70.3462 24.9389C70.592 24.7064 70.7149 24.3667 70.6973 24.027C70.6798 23.6872 70.5042 23.3654 70.2233 23.1687L39.167 0.227977C38.7632 -0.0759922 38.219 -0.0759922 37.8328 0.227977L6.77644 23.1687C6.49555 23.3654 6.33754 23.6872 6.30243 24.027C6.28488 24.3667 6.40777 24.7064 6.65355 24.9389L7.53134 25.7971ZM38.4999 2.60609L67.7831 24.2236L67.5373 24.4561C67.309 24.6707 67.1861 24.9746 67.1861 25.2965V25.511H9.8136V25.3144C9.8136 24.9925 9.69071 24.6885 9.46249 24.474L9.2167 24.2415L38.4999 2.60609Z" fill="#93D5FE"/>
<path d="M38.4999 20.8978C41.0981 20.8978 43.2224 18.7343 43.2224 16.0879C43.2224 15.4442 42.7133 14.9257 42.0813 14.9257C41.4493 14.9257 40.9401 15.4442 40.9401 16.0879C40.9401 17.4647 39.8517 18.5733 38.4999 18.5733C37.1481 18.5733 36.0596 17.4647 36.0596 16.0879C36.0596 14.7111 37.1481 13.6025 38.4999 13.6025C39.1319 13.6025 39.641 13.084 39.641 12.4403C39.641 11.7966 39.1319 11.2781 38.4999 11.2781C35.9016 11.2781 33.7773 13.4416 33.7773 16.0879C33.7773 18.7343 35.9016 20.8978 38.4999 20.8978Z" fill="#93D5FE"/>
</svg>
