<svg width="81" height="81" viewBox="0 0 81 81" fill="none" xmlns="http://www.w3.org/2000/svg">
<path d="M42.2754 1.03271C51.5705 1.03271 58.9092 6.30633 63.9297 11.5894C68.324 16.2135 70.9547 20.8574 71.5811 22.02L71.7266 22.2944V22.2954C71.8448 22.5325 71.8527 22.8076 71.751 23.0483L71.7012 23.1489C71.5507 23.4117 71.2758 23.5778 70.9746 23.5942H70.9736C70.8218 23.6005 55.3872 24.4351 42.4971 27.7085C34.7088 29.6785 27.3575 25.1613 26.1875 16.8452C22.5336 17.9657 18.5965 19.65 14.5381 22.1597C14.1428 22.4039 13.6226 22.3022 13.3477 21.9253H13.3418L13.3047 21.8657C13.0474 21.4446 13.177 20.8927 13.5977 20.6323C17.9595 17.9354 22.1655 16.1465 26.0439 14.9771C26.0068 11.0917 27.3792 7.61442 30.0947 5.10303C32.8315 2.57214 36.9208 1.03278 42.2754 1.03271ZM42.2754 2.82568C37.2702 2.82574 33.673 4.20426 31.3213 6.36279C29.0105 8.48385 27.8915 11.3697 27.8262 14.4761C38.9591 11.58 46.9954 13.7562 47.4688 13.8901L47.5547 13.9194C47.977 14.0859 48.212 14.5491 48.0869 14.9956C47.9535 15.4732 47.4613 15.7524 46.9834 15.6167H46.9814L46.9805 15.6157C46.9789 15.6153 46.9762 15.6145 46.9736 15.6138C46.9684 15.6124 46.9611 15.6112 46.9521 15.6089C46.9339 15.6041 46.9083 15.5967 46.875 15.5884C46.8082 15.5717 46.7113 15.549 46.5859 15.521C46.3353 15.465 45.9701 15.3894 45.5 15.3091C44.5599 15.1485 43.2006 14.9681 41.5 14.8804C38.1199 14.7061 33.3919 14.9004 27.9258 16.3491C28.8319 23.7138 35.23 27.6984 42.0576 25.9702C52.8197 23.2366 65.303 22.1867 69.4561 21.896C68.1974 19.7389 65.2015 15.0666 60.6924 10.8872C56.058 6.59176 49.8381 2.8257 42.2773 2.82568H42.2754Z" fill="#93D5FE" stroke="#93D5FE" stroke-width="0.25"/>
<path d="M42.2773 0.875C51.5975 0.875025 58.9713 6.16927 64.0205 11.4736C69.0598 16.7677 71.799 22.0885 71.8672 22.2236C72.028 22.5425 72.016 22.9186 71.8379 23.2275C71.6593 23.5373 71.3394 23.733 70.9824 23.751C70.8304 23.7588 55.4054 24.5927 42.5342 27.8613C41.2976 28.1744 40.0653 28.328 38.8623 28.3281V28.3291H38.8604V28.3281C36.2137 28.3278 33.7017 27.5805 31.5576 26.1211C28.5872 24.0992 26.6462 20.8846 26.0605 17.0488C22.116 18.2745 18.27 20.0378 14.623 22.292C14.1299 22.5964 13.4795 22.4423 13.1758 21.9463C12.8728 21.4511 13.0259 20.8017 13.5205 20.4971C17.4879 18.0446 21.6476 16.1485 25.8926 14.8584C25.8839 11.1285 27.146 7.86208 29.5576 5.4082C32.4739 2.43718 36.8804 0.875 42.2773 0.875ZM42.2754 2.41602C48.835 2.41602 55.1246 5.17032 60.9668 10.5869L61.4053 10.999C65.3098 14.7254 68.0463 18.7835 69.4004 21.0039L69.9102 21.8633L70.0361 22.082L70.1357 22.2559L69.9365 22.2695L69.6846 22.2871C66.112 22.5316 53.9162 23.5168 43.1885 26.1084L42.1553 26.3643C41.0532 26.6424 39.9581 26.78 38.8877 26.7803V26.7832C36.5172 26.7832 34.273 26.1074 32.3643 24.7861C29.7301 22.9623 28.0311 20.0701 27.5508 16.6221L27.5078 16.2871L27.4922 16.1514L27.4795 16.0439L27.584 16.0166L27.7148 15.9814L28.7451 15.7188C39.2993 13.1519 47.0045 15.1986 47.0938 15.2236C47.2195 15.2589 47.3501 15.2431 47.4619 15.1797C47.5751 15.1154 47.6582 15.0115 47.6934 14.8848V14.8838C47.7661 14.6248 47.6155 14.355 47.3584 14.2822H47.3574C47.0239 14.1879 38.9503 11.962 27.7695 14.9111H27.7686L27.5693 14.9629L27.4131 15.0039V14.6338C27.4409 11.6839 28.4385 8.62656 30.7959 6.30664C33.1542 3.98583 36.8594 2.41608 42.2754 2.41602ZM42.2754 2.9834C37.0866 2.98346 33.5515 4.46117 31.2969 6.62305C29.086 8.743 28.0946 11.5334 27.9902 14.2715C39.1288 11.4262 47.1605 13.639 47.5127 13.7383C48.0355 13.8861 48.3527 14.4084 48.2627 14.9326L48.2393 15.0381C48.1627 15.3094 47.9857 15.535 47.7412 15.6729C47.4966 15.8107 47.2117 15.8455 46.9404 15.7686V15.7676H46.9395C46.9381 15.7672 46.9359 15.7672 46.9336 15.7666C46.9288 15.7653 46.9218 15.763 46.9131 15.7607C46.8957 15.7563 46.8703 15.7501 46.8379 15.7422C46.7729 15.7263 46.6779 15.7039 46.5547 15.6768C46.3078 15.6224 45.9467 15.5493 45.4814 15.4707C44.55 15.3135 43.2007 15.1355 41.5146 15.0479C38.1646 14.8737 33.4843 15.0567 28.1006 16.4658C28.5444 19.7982 30.1682 22.579 32.6846 24.3203C35.3147 26.1417 38.6274 26.6761 42.0186 25.8164C52.6158 23.126 64.98 22.0565 69.1895 21.7549C67.7577 19.3343 64.7156 14.7216 60.25 10.6748C55.6742 6.52824 49.6155 2.9834 42.2754 2.9834ZM26.4541 15.2793L26.3662 15.3066L26.2539 15.3418H26.2529C21.9882 16.6179 17.8029 18.5164 13.8145 20.9814C13.5872 21.1217 13.5147 21.4229 13.6553 21.6533L13.7148 21.7314C13.8704 21.8977 14.1254 21.9362 14.3242 21.8125H14.3252C18.1092 19.4739 22.1083 17.6569 26.209 16.4121H26.21L26.3877 16.3584L26.5283 16.3154L26.5479 16.4619L26.5713 16.6465L26.6221 17.0029C27.1922 20.6718 29.0489 23.7316 31.873 25.6543C34.856 27.6846 38.5912 28.2757 42.3965 27.3135C55.2825 24.0408 70.7023 23.1991 70.9531 23.1875L71.0146 23.1797C71.155 23.1546 71.2773 23.0705 71.3496 22.9453C71.4224 22.8193 71.4357 22.6696 71.3877 22.5352L71.3633 22.4785C71.3137 22.3791 68.6078 17.114 63.627 11.876C58.6449 6.63669 51.4027 1.44045 42.2773 1.44043C37.0107 1.44043 32.7551 2.95602 29.9541 5.80762C27.6099 8.1935 26.3979 11.3928 26.4541 15.0654V15.2793Z" fill="#93D5FE" stroke="#93D5FE" stroke-width="0.25"/>
<path d="M8.92676 26.6262V26.6379C9.18079 26.6743 9.40938 26.819 9.55078 27.0364L9.95898 27.6555C11.7579 30.3579 19.2318 41.3406 27.3438 49.7014V49.7024C32.9642 55.4966 32.6915 64.1358 26.1123 69.2903C28.9075 71.9031 32.332 74.4799 36.5293 76.7493C36.9646 76.984 37.1275 77.5269 36.8916 77.9631C36.6572 78.3992 36.1118 78.5604 35.6797 78.3254C31.1674 75.8872 27.5189 73.1299 24.5693 70.3459C21.2405 72.3148 17.5536 72.8679 14.0254 71.7698C10.4696 70.6631 7.09063 67.886 4.4082 63.2297C-0.239177 55.1611 0.647509 46.1536 2.70117 39.1536C4.75214 32.1628 7.97305 27.1516 8.05176 27.0315C8.21655 26.7782 8.49899 26.6262 8.80078 26.6262H8.92676ZM8.8418 29.2014C7.60777 31.3731 5.07072 36.3113 3.71484 42.3157C2.32137 48.4868 2.17754 55.7694 5.95801 62.3333C8.45367 66.6678 11.44 69.1026 14.4805 70.0686C17.4683 71.0178 20.5236 70.5513 23.2471 69.051C16.1932 61.8661 13.6702 54.7991 13.0674 52.8176L12.9189 52.2932C12.7985 51.8137 13.0868 51.3257 13.5664 51.2043L13.6553 51.1868C14.0996 51.1204 14.5385 51.4033 14.6533 51.8518C14.6838 51.9697 16.8297 59.972 24.8135 68.0305C30.6965 63.5852 30.9929 56.0345 26.0615 50.9524C18.3188 42.9732 11.1689 32.6601 8.8418 29.2014Z" fill="#93D5FE" stroke="#93D5FE" stroke-width="0.25"/>
<path d="M8.80078 26.4685C9.15832 26.4685 9.48788 26.6494 9.68066 26.95H9.67969C10.0284 27.4862 18.3017 40.1614 27.4541 49.5916C30.2982 52.5237 31.7177 56.2146 31.4443 59.9841C31.1836 63.5786 29.3747 66.8729 26.3516 69.2996C29.3838 72.1115 32.8289 74.5703 36.6006 76.6101C36.8484 76.7442 37.0291 76.967 37.1094 77.2371C37.1894 77.5065 37.1613 77.7917 37.0273 78.0388C36.9104 78.256 36.7257 78.4214 36.501 78.5134L36.4023 78.5486C36.3022 78.579 36.2004 78.5935 36.1006 78.5935H35.7988L35.8359 78.5554C35.756 78.5342 35.6777 78.5048 35.6035 78.4646C31.5014 76.2476 27.7834 73.582 24.5459 70.5417C21.3293 72.4136 17.8778 72.9492 14.5498 72.0828C10.5205 71.0339 6.96824 67.9914 4.27051 63.3083C-0.399719 55.2002 0.487262 46.1515 2.54785 39.1199C4.35118 32.9661 7.05799 28.3407 7.75293 27.2097L7.91895 26.9441C8.11343 26.6475 8.44239 26.4685 8.79785 26.4685H8.80078ZM8.79883 27.031C8.63388 27.0311 8.48202 27.1129 8.3916 27.2498L8.39258 27.2507C8.32985 27.3466 5.13052 32.3186 3.09375 39.2556C1.05593 46.1962 0.187676 55.0821 4.76074 63.0212C7.39326 67.5907 10.8298 70.5268 14.6924 71.532C17.9285 72.3746 21.2983 71.828 24.4404 69.9441L24.543 69.8835L24.7324 69.7693V69.9402L24.7803 69.9861C28.0153 73.0513 31.7471 75.7361 35.8721 77.9666C35.9861 78.0281 36.1168 78.0423 36.2422 78.0046C36.3678 77.9668 36.4699 77.8826 36.5312 77.7683C36.5929 77.6519 36.6066 77.5208 36.5693 77.3972C36.5315 77.2721 36.4474 77.1675 36.334 77.1062C32.6649 75.1226 29.2983 72.7459 26.3164 70.0349L25.7256 69.488L25.5898 69.3601L25.4834 69.2595L25.5996 69.1697L25.748 69.0564C28.8053 66.7081 30.625 63.4692 30.8818 59.9412C31.1434 56.3389 29.7861 52.8028 27.0498 49.9832C17.8579 40.5112 9.55532 27.7934 9.20703 27.2546C9.12793 27.1324 9.00108 27.0534 8.86035 27.0349L8.7998 27.031H8.79883ZM8.9248 28.5964L9.06641 28.8064L10.0771 30.2947C12.9698 34.5046 19.4503 43.5535 26.3545 50.6677C28.8996 53.2909 30.158 56.5897 29.8857 59.9529C29.6196 63.2609 27.871 66.2693 24.9717 68.4246L24.8623 68.5056L24.7764 68.5691L24.7002 68.4929L24.6035 68.3972V68.3962C16.4353 60.1904 14.2838 52.0441 14.2588 51.9529V51.9509C14.2008 51.7228 13.9901 51.5738 13.7637 51.5837L13.666 51.5984C13.4061 51.6649 13.2478 51.9306 13.3125 52.1921C13.3958 52.5217 15.5252 60.6634 23.6514 68.8835L23.7959 69.03L23.9111 69.1462L23.7686 69.2263L23.5889 69.3279C21.9012 70.2845 19.9628 70.8954 17.9268 70.95L17.9346 70.9578H17.6328C13.685 70.9578 9.42644 68.8364 5.93945 63.1033L5.60449 62.5369C2.32484 56.8436 1.5605 50.006 3.31738 42.2253C4.56153 36.7133 6.81209 32.0648 8.09961 29.6951L8.58691 28.823L8.71289 28.6042L8.8125 28.4304L8.9248 28.5964ZM8.85156 29.5027C7.47578 31.9562 5.0128 36.9036 3.75 42.8035C2.45593 48.8494 2.42355 55.8821 6.09375 62.2546C8.68776 66.7589 11.7316 69.0888 14.7266 69.9656C17.6635 70.8252 20.5694 70.2896 22.9873 69.0105C14.9786 60.7804 12.8564 52.6915 12.7646 52.3318V52.3308C12.6238 51.7677 12.9642 51.193 13.5254 51.0496C14.0519 50.9151 14.5885 51.2079 14.7725 51.7078L14.8047 51.8103L14.916 52.1902C15.4359 53.8612 17.8981 60.7849 24.8271 67.8191C27.4839 65.7697 29.0746 62.9696 29.3223 59.906C29.5788 56.7128 28.3834 53.5716 25.9463 51.0613C18.3214 43.2033 11.2191 33.0057 8.85156 29.5027Z" fill="#93D5FE" stroke="#93D5FE" stroke-width="0.25"/>
<path d="M73.0008 44.007C73.9419 40.0441 74.5069 35.4785 74.3574 30.315C74.3448 29.8891 73.964 29.572 73.5658 29.5657C73.1409 29.5783 72.8073 29.9333 72.8183 30.3592C72.9583 35.2103 72.4296 39.5282 71.5483 43.3034C63.8244 40.0914 56.2201 44.1522 54.0404 51.8935C50.4193 64.7336 43.4177 78.5581 43.3469 78.6969C43.2289 78.9288 43.2352 79.2049 43.3642 79.4305C43.4933 79.6577 43.7277 79.8013 43.9874 79.817C44.0189 79.8186 44.4485 79.8407 45.1945 79.8407C50.1392 79.8407 68.9327 78.8926 76.9666 64.9434C82.2922 55.6939 79.7899 47.7964 73.0008 44.0055V44.007ZM75.6337 64.1751C68.0294 77.3781 50.0479 78.2978 45.2621 78.3009C46.9964 74.7513 52.4525 63.1938 55.5213 52.3147C57.4712 45.4206 64.2634 41.8173 71.169 44.8179C68.1978 55.8895 62.29 61.8119 62.2097 61.8923C61.906 62.1905 61.8997 62.678 62.1956 62.984C62.493 63.2885 62.9777 63.2948 63.283 62.9982C63.6277 62.6622 69.5638 56.7367 72.609 45.5484C78.1139 48.8014 80.6539 55.4573 75.6337 64.1735V64.1751Z" fill="#93D5FE"/>
<path d="M73.5615 29.283L73.668 29.2898C74.1965 29.3487 74.6223 29.7794 74.6377 30.3064C74.7724 34.9755 74.3295 39.5364 73.3223 43.865C76.5479 45.7216 78.7375 48.4499 79.6523 51.7703C80.7606 55.7948 79.9093 60.3997 77.21 65.0876C73.7495 71.0961 67.9563 75.4048 60.0059 77.8953C53.5806 79.9088 47.5075 80.1248 45.1943 80.1248C44.475 80.1248 44.0238 80.1047 43.9688 80.1013C43.6137 80.0798 43.2959 79.8825 43.1191 79.573C42.9424 79.2635 42.9333 78.8891 43.0938 78.571C43.3854 77.9942 50.2163 64.405 53.7676 51.8181C54.8749 47.8874 57.3517 44.8107 60.748 43.1609C63.985 41.588 67.7365 41.5095 71.3438 42.9197C72.2565 38.8824 72.6583 34.6618 72.5342 30.3679C72.5181 29.7865 72.9752 29.3009 73.5557 29.283H73.5615ZM73.5615 29.8503C73.3031 29.8595 73.0913 30.0833 73.0986 30.3523C73.228 34.8084 72.7974 39.1878 71.8223 43.3699L71.7803 43.5515L71.7471 43.6941L71.6104 43.6384L71.4395 43.5671H71.4385C69.7014 42.8444 67.9285 42.4851 66.1992 42.4851H66.0742V42.4841C64.3061 42.5019 62.5837 42.8966 60.9941 43.6697C57.7513 45.2444 55.3767 48.1911 54.3105 51.9714C50.7456 64.6144 43.8903 78.2485 43.6006 78.823H43.5996C43.5319 78.9566 43.527 79.1072 43.582 79.238L43.6094 79.2927C43.6906 79.4355 43.839 79.5278 44.0049 79.5378H44.0039C44.017 79.5384 44.0458 79.5402 44.082 79.5417C44.1334 79.5439 44.2102 79.5466 44.3105 79.5496C44.5112 79.5554 44.808 79.5613 45.1943 79.5613C47.8977 79.5613 53.8127 79.2944 60.0371 77.3142C66.2615 75.334 72.7833 71.6449 76.7217 64.8074C79.3543 60.2346 80.1709 55.7805 79.1074 51.9236C78.2726 48.8967 76.3259 46.3768 73.4492 44.6013L72.8613 44.2566L72.7568 44.198L72.6748 44.1521L72.6973 44.0593L72.7246 43.9431C73.7543 39.6018 74.2083 35.0205 74.0732 30.325C74.0646 30.0564 73.8078 29.8555 73.5615 29.8503ZM61.5137 44.5281C64.5035 43.107 67.9745 43.1209 71.2822 44.5583H71.2812L71.4062 44.6121L71.5049 44.6541L71.4775 44.7585L71.4424 44.8894C68.4462 56.0558 62.4771 62.0243 62.4072 62.0925L62.4062 62.0916C62.2149 62.2801 62.2124 62.5912 62.3984 62.783L62.4736 62.8455C62.6614 62.972 62.9183 62.9551 63.0869 62.7917C63.3305 62.5551 69.2964 56.642 72.3369 45.4714L72.3906 45.2732L72.4336 45.114L72.5752 45.198L72.7529 45.3035L73.2236 45.5955C75.5512 47.1054 77.4828 49.3983 78.2568 52.4041C79.0827 55.6114 78.5861 59.6122 75.8789 64.3132C72.5992 70.0065 67.0748 74.0907 59.4756 76.4548C53.323 78.3689 47.4879 78.5792 45.2627 78.5808H45.0107V78.4597L44.8965 78.4041L45.0078 78.1765C46.6314 74.8519 52.1629 63.1688 55.2441 52.2585L55.25 52.2361C56.2456 48.7171 58.4677 45.9759 61.5137 44.5281ZM70.8281 44.9822C67.7337 43.7031 64.5216 43.722 61.7549 45.0378C58.869 46.4088 56.7525 49.0102 55.7979 52.3679L55.7988 52.3689L55.7939 52.3875L55.793 52.3914C52.816 62.9442 47.5569 74.2079 45.7139 78.0125C48.52 77.9799 54.027 77.6457 59.7568 75.7917C65.6268 73.8924 71.7185 70.4045 75.3887 64.032C77.9834 59.5277 78.4748 55.72 77.7344 52.6814C77.0082 49.7016 75.092 47.4455 72.7783 45.9851C69.6716 57.0607 63.7418 62.9442 63.4785 63.2C63.064 63.6028 62.3969 63.5938 61.9932 63.1804L61.9922 63.1794C61.5893 62.7627 61.5964 62.0956 62.0107 61.6892C62.12 61.5797 67.8652 55.7974 70.8281 44.9822Z" fill="#93D5FE" stroke="#93D5FE" stroke-width="0.25"/>
</svg>
