<svg width="68" height="68" viewBox="0 0 68 68" fill="none" xmlns="http://www.w3.org/2000/svg">
<path d="M66.5315 14.1238H50.2433C49.4474 14.1238 48.7748 14.8065 48.7748 15.5899V36.7196H35.4237V1.4661C35.4237 0.671494 34.7399 0 33.9552 0H17.667C16.8711 0 16.1985 0.682686 16.1985 1.4661V22.7077H1.46851C0.672601 22.7077 0 23.3904 0 24.1738V66.5339C0 67.3285 0.683811 68 1.46851 68H66.5315C67.3274 68 68 67.3173 68 66.5339V15.7018C67.8879 14.7953 67.2041 14.1238 66.5315 14.1238ZM2.82493 25.4161H16.2882V64.9559H2.82493V25.4161ZM19.1243 2.82028H32.5875V64.9447H19.1243V2.82028ZM35.4125 39.5398H48.8757V64.9559H35.4125V39.5398ZM65.063 64.9559H51.5997V16.944H65.063V64.9559Z" fill="#93D5FE"/>
</svg>
