<svg width="1648" height="1286" viewBox="0 0 1648 1286" fill="none" xmlns="http://www.w3.org/2000/svg">
<rect x="1" y="295" width="502" height="99" fill="#004BF9"/>
<rect x="1" y="295" width="502" height="99" stroke="white" stroke-width="2"/>
<path d="M59.292 340.072C59.292 336.392 62.556 333.608 68.284 333.608C74.012 333.608 77.404 336.424 77.724 340.616V341.096H73.98C73.852 337.768 71.388 336.488 68.348 336.488C65.308 336.488 63.228 337.768 63.228 339.912C63.228 341.992 64.956 342.728 67.772 343.368L70.172 343.912C74.876 345 77.724 346.6 77.724 350.536C77.724 354.44 74.46 357.352 68.508 357.352C62.588 357.352 58.94 354.44 58.428 350.024V349.544H62.204C62.556 353.128 65.212 354.472 68.444 354.472C71.708 354.472 73.788 353.128 73.788 350.824C73.788 348.488 71.932 347.816 69.052 347.144L66.652 346.6C62.044 345.544 59.292 343.72 59.292 340.072ZM83.1288 333.992H87.4167V337.576H83.1288V333.992ZM89.9768 333.992H94.2968V337.576H89.9768V333.992ZM96.4408 357H92.7928V354.76H92.4728C91.8968 355.688 90.5528 357.352 87.1608 357.352C83.4808 357.352 80.9528 355.24 80.9528 351.368V340.456H84.7288V350.984C84.7288 353.384 86.1048 354.504 88.2168 354.504C90.5848 354.504 92.6648 353.064 92.6648 349.704V340.456H96.4408V357ZM100.674 340.488H104.291V342.632H104.611C105.219 341.32 106.307 340.424 108.547 340.424H110.275V343.336H108.515C105.699 343.336 104.451 344.872 104.451 348.008V357H100.674V340.488ZM128.515 357H124.867V354.984H124.547C123.843 355.912 122.339 357.352 119.331 357.352C115.171 357.352 111.747 354.344 111.747 348.744C111.747 343.112 115.171 340.136 119.331 340.136C122.275 340.136 123.811 341.544 124.419 342.376H124.739V333.96H128.515V357ZM124.931 348.744C124.931 345 122.979 342.952 120.259 342.952C117.507 342.952 115.587 345.032 115.587 348.744C115.587 352.456 117.507 354.536 120.259 354.536C122.979 354.536 124.931 352.456 124.931 348.744ZM134.785 333.992H139.073V337.576H134.785V333.992ZM141.633 333.992H145.953V337.576H141.633V333.992ZM148.097 357H144.449V354.76H144.129C143.553 355.688 142.209 357.352 138.817 357.352C135.137 357.352 132.609 355.24 132.609 351.368V340.456H136.385V350.984C136.385 353.384 137.761 354.504 139.873 354.504C142.241 354.504 144.321 353.064 144.321 349.704V340.456H148.097V357ZM152.331 340.488H155.947V342.632H156.267C156.875 341.32 157.963 340.424 160.203 340.424H161.931V343.336H160.171C157.355 343.336 156.107 344.872 156.107 348.008V357H152.331V340.488ZM166.754 333.992H171.042V337.576H166.754V333.992ZM173.602 333.992H177.922V337.576H173.602V333.992ZM180.066 357H176.418V354.76H176.098C175.522 355.688 174.178 357.352 170.786 357.352C167.106 357.352 164.578 355.24 164.578 351.368V340.456H168.354V350.984C168.354 353.384 169.73 354.504 171.842 354.504C174.21 354.504 176.29 353.064 176.29 349.704V340.456H180.066V357ZM184.299 333.96H188.076V357H184.299V333.96ZM191.34 348.744C191.34 343.304 194.892 340.104 199.82 340.104C204.812 340.104 207.948 343.304 207.948 348.328V349.608H195.212C195.276 352.488 197.004 354.664 199.884 354.664C202.668 354.664 203.82 352.936 204.14 351.592H207.692V352.072C207.148 354.28 204.876 357.384 199.884 357.384C194.892 357.384 191.34 354.184 191.34 348.744ZM195.212 347.144H204.236C204.108 344.712 202.668 342.792 199.82 342.792C197.004 342.792 195.404 344.712 195.212 347.144ZM211.268 333.96H215.044V342.376H215.364C215.972 341.544 217.508 340.136 220.452 340.136C224.612 340.136 228.036 343.112 228.036 348.744C228.036 354.344 224.612 357.352 220.452 357.352C217.348 357.352 215.78 355.816 214.98 354.728H214.66L213.86 357H211.268V333.96ZM214.852 348.744C214.852 352.456 216.772 354.536 219.524 354.536C222.244 354.536 224.196 352.456 224.196 348.744C224.196 345.032 222.244 342.952 219.524 342.952C216.772 342.952 214.852 345 214.852 348.744ZM230.851 333.992H235.587V337.576H230.851V333.992ZM231.331 340.456H235.107V357H231.331V340.456ZM239.299 333.96H243.076V357H239.299V333.96ZM246.788 333.992H251.524V337.576H246.788V333.992ZM247.268 340.456H251.044V357H247.268V340.456ZM255.237 340.488H258.853V342.632H259.173C259.781 341.32 260.869 340.424 263.109 340.424H264.837V343.336H263.077C260.261 343.336 259.013 344.872 259.013 348.008V357H255.237V340.488ZM267.612 333.96H271.388V357H267.612V333.96ZM275.101 333.992H279.837V337.576H275.101V333.992ZM275.581 340.456H279.357V357H275.581V340.456ZM292.99 346.92L300.318 356.52V357H296.254L290.398 349.096L287.326 351.656V357H283.549V333.96H287.326V347.144H287.646L295.422 340.456H300.126V340.936L292.99 346.92ZM322.908 342.888L332.412 356.52V357H328.092L320.124 345.416L315.804 349.32V357H311.836V333.96H315.804V344.36H316.124L327.452 333.96H332.252V334.44L322.908 342.888ZM333.465 348.744C333.465 343.304 337.049 340.072 342.041 340.072C347.001 340.072 350.617 343.304 350.617 348.744C350.617 354.184 347.001 357.384 342.041 357.384C337.049 357.384 333.465 354.184 333.465 348.744ZM337.305 348.744C337.305 352.456 339.193 354.568 342.041 354.568C344.889 354.568 346.777 352.456 346.777 348.744C346.777 345.032 344.889 342.92 342.041 342.92C339.193 342.92 337.305 345.032 337.305 348.744ZM353.924 340.456H357.573V342.408H357.893C358.533 341.384 359.717 340.136 362.693 340.136C365.797 340.136 367.205 341.768 367.749 342.92H368.069C368.837 341.64 370.309 340.136 373.509 340.136C376.869 340.136 379.397 342.056 379.397 345.736V357H375.589V346.024C375.589 344.168 374.501 343.016 372.517 343.016C370.245 343.016 368.549 344.328 368.549 347.336V357H364.741V346.024C364.741 344.168 363.653 343.016 361.669 343.016C359.397 343.016 357.701 344.328 357.701 347.336V357H353.924V340.456ZM382.976 333.992H387.712V337.576H382.976V333.992ZM383.456 340.456H387.232V357H383.456V340.456ZM389.761 340.488H393.505V337.224L396.801 335.368H397.281V340.488H401.473V343.112H397.281V353.992L397.536 354.248H401.697V357H398.049C395.169 357 393.505 355.528 393.505 352.712V343.112H389.761V340.488ZM403.372 348.744C403.372 343.304 406.924 340.104 411.852 340.104C416.844 340.104 419.98 343.304 419.98 348.328V349.608H407.244C407.308 352.488 409.036 354.664 411.916 354.664C414.7 354.664 415.852 352.936 416.172 351.592H419.724V352.072C419.18 354.28 416.908 357.384 411.916 357.384C406.924 357.384 403.372 354.184 403.372 348.744ZM407.244 347.144H416.268C416.14 344.712 414.7 342.792 411.852 342.792C409.036 342.792 407.436 344.712 407.244 347.144ZM422.66 345.032C422.66 342.088 425.316 340.104 429.828 340.104C434.34 340.104 436.868 342.088 437.316 345.032V345.512H433.796C433.636 343.624 432.1 342.792 429.86 342.792C427.62 342.792 426.276 343.592 426.276 344.904C426.276 346.184 427.396 346.664 428.868 346.92L431.812 347.464C435.14 348.072 437.444 349.256 437.444 352.232C437.444 355.176 434.98 357.384 430.148 357.384C425.316 357.384 422.628 355.176 422.148 352.04V351.56H425.668C425.924 353.8 427.716 354.728 430.084 354.728C432.484 354.728 433.796 353.8 433.796 352.456C433.796 351.176 432.74 350.664 430.916 350.344L427.972 349.8C424.836 349.256 422.66 347.944 422.66 345.032ZM440.07 333.992H444.806V337.576H440.07V333.992ZM440.549 340.456H444.326V357H440.549V340.456Z" fill="white"/>
<rect x="367" y="1" width="925" height="182" fill="white"/>
<rect x="367" y="1" width="925" height="182" stroke="#004BF9" stroke-width="2"/>
<path d="M417.52 59.732H426.736V66.964H417.52V59.732ZM432.112 59.732H441.328V66.964H432.112V59.732ZM410.416 70.42H418.352V100.052C418.352 107.348 422.32 111.124 429.424 111.124C436.464 111.124 440.496 107.348 440.496 100.052V70.42H448.432V99.604C448.432 110.612 441.776 117.268 429.424 117.268C417.2 117.268 410.416 110.612 410.416 99.604V70.42ZM457.547 70.42H466.635L487.563 105.172H488.203V70.42H495.819V116.5H486.731L465.867 81.748H465.227V116.5H457.547V70.42ZM505.172 70.42H513.108V110.42H536.596V116.5H505.172V70.42ZM549.208 59.732H558.424V66.964H549.208V59.732ZM563.8 59.732H573.016V66.964H563.8V59.732ZM542.104 70.42H550.04V100.052C550.04 107.348 554.008 111.124 561.112 111.124C568.152 111.124 572.184 107.348 572.184 100.052V70.42H580.12V99.604C580.12 110.612 573.464 117.268 561.112 117.268C548.888 117.268 542.104 110.612 542.104 99.604V70.42ZM649.494 89.62V90.58L637.27 107.028L640.598 110.804L641.494 111.188H648.982V116.5H642.774C638.422 116.5 635.734 115.22 633.494 112.66L632.982 112.084C629.91 115.028 625.878 117.268 619.862 117.268C610.838 117.268 604.438 112.276 604.438 104.66C604.438 98.068 608.854 94.356 614.806 91.348C612.118 88.148 610.134 85.012 610.134 80.724C610.134 74.132 615.51 69.652 623.83 69.652C631.894 69.652 636.886 74.132 636.886 80.212C636.886 86.42 632.022 89.876 624.982 93.076L632.918 102.1L642.262 89.62H649.494ZM623.702 75.156C619.926 75.156 617.174 77.268 617.174 80.724C617.174 83.668 618.518 85.652 621.014 88.532L621.59 88.276C626.71 86.036 629.782 83.988 629.782 80.404C629.782 77.268 627.478 75.156 623.702 75.156ZM619.99 111.572C623.318 111.572 626.07 110.036 628.758 107.284L618.71 95.828C614.614 97.812 611.734 100.116 611.734 104.084C611.734 108.628 615.318 111.572 619.99 111.572ZM670.684 93.46C670.684 78.804 680.348 69.652 694.3 69.652C708.188 69.652 714.268 78.356 714.972 85.268V86.228H707.548C707.1 81.748 703.9 75.732 694.364 75.732C684.764 75.732 678.62 82.516 678.62 93.46C678.62 104.404 684.764 111.124 694.364 111.124C703.9 111.124 707.228 105.108 707.932 100.692H715.356V101.652C714.332 108.244 708.316 117.268 694.3 117.268C680.348 117.268 670.684 108.116 670.684 93.46ZM719.618 99.988C719.618 89.108 726.786 82.644 736.77 82.644C746.69 82.644 753.922 89.108 753.922 99.988C753.922 110.868 746.69 117.268 736.77 117.268C726.786 117.268 719.618 110.868 719.618 99.988ZM727.298 99.988C727.298 107.412 731.074 111.636 736.77 111.636C742.466 111.636 746.242 107.412 746.242 99.988C746.242 92.564 742.466 88.34 736.77 88.34C731.074 88.34 727.298 92.564 727.298 99.988ZM774.332 70.42H783.1L796.092 91.732H796.732L809.724 70.42H818.492V71.38L800.38 99.604V116.5H792.444V99.604L774.332 71.38V70.42ZM822.322 70.484H830.898V77.652H822.322V70.484ZM836.018 70.484H844.658V77.652H836.018V70.484ZM816.306 99.988C816.306 89.108 823.474 82.644 833.458 82.644C843.378 82.644 850.61 89.108 850.61 99.988C850.61 110.868 843.378 117.268 833.458 117.268C823.474 117.268 816.306 110.868 816.306 99.988ZM823.986 99.988C823.986 107.412 827.762 111.636 833.458 111.636C839.154 111.636 842.93 107.412 842.93 99.988C842.93 92.564 839.154 88.34 833.458 88.34C827.762 88.34 823.986 92.564 823.986 99.988ZM857.224 83.412H864.52V87.892H865.16C866.248 86.036 869 82.772 875.784 82.772C883.144 82.772 888.2 86.932 888.2 94.676V116.5H880.648V95.444C880.648 90.644 877.832 88.468 873.672 88.468C868.936 88.468 864.776 91.284 864.776 98.004V116.5H857.224V83.412ZM894.556 99.988C894.556 89.108 901.66 82.708 911.516 82.708C921.5 82.708 927.772 89.108 927.772 99.156V101.716H902.3C902.428 107.476 905.884 111.828 911.644 111.828C917.212 111.828 919.516 108.372 920.156 105.684H927.26V106.644C926.172 111.06 921.628 117.268 911.644 117.268C901.66 117.268 894.556 110.868 894.556 99.988ZM902.3 96.788H920.348C920.092 91.924 917.212 88.084 911.516 88.084C905.884 88.084 902.684 91.924 902.3 96.788ZM930.084 83.476H937.572V76.948L944.164 73.236H945.124V83.476H953.508V88.724H945.124V110.484L945.635 110.996H953.956V116.5H946.66C940.9 116.5 937.572 113.556 937.572 107.924V88.724H930.084V83.476ZM958.827 70.484H968.299V77.652H958.827V70.484ZM959.786 83.412H967.339V116.5H959.786V83.412ZM975.724 83.412H983.02V87.316H983.66C984.94 85.268 987.308 82.772 993.26 82.772C999.468 82.772 1002.28 86.036 1003.37 88.34H1004.01C1005.55 85.78 1008.49 82.772 1014.89 82.772C1021.61 82.772 1026.67 86.612 1026.67 93.972V116.5H1019.05V94.548C1019.05 90.836 1016.88 88.532 1012.91 88.532C1008.36 88.532 1004.97 91.156 1004.97 97.172V116.5H997.356V94.548C997.356 90.836 995.18 88.532 991.212 88.532C986.668 88.532 983.276 91.156 983.276 97.172V116.5H975.724V83.412ZM1074.57 88.276L1093.57 115.54V116.5H1084.93L1069 93.332L1060.36 101.14V116.5H1052.42V70.42H1060.36V91.22H1061L1083.65 70.42H1093.25V71.38L1074.57 88.276ZM1129.01 116.5H1121.71V112.02H1121.07C1119.92 113.876 1117.23 117.204 1110.45 117.204C1103.09 117.204 1098.03 112.98 1098.03 105.236V83.412H1105.58V104.468C1105.58 109.268 1108.33 111.508 1112.56 111.508C1117.29 111.508 1121.45 108.628 1121.45 101.908V83.412H1129.01V116.5ZM1137.47 83.476H1144.71V87.764H1145.35C1146.56 85.14 1148.74 83.348 1153.22 83.348H1156.67V89.172H1153.15C1147.52 89.172 1145.03 92.244 1145.03 98.516V116.5H1137.47V83.476ZM1192.94 116.5H1185.65V112.02H1185.01C1183.86 113.876 1181.17 117.204 1174.38 117.204C1167.02 117.204 1161.97 112.98 1161.97 105.236V83.412H1169.52V104.468C1169.52 109.268 1172.27 111.508 1176.5 111.508C1181.23 111.508 1185.39 108.628 1185.39 101.908V83.412H1192.94V116.5ZM1201.41 70.42H1208.96V116.5H1201.41V70.42ZM1248.07 116.5H1240.77V112.02H1240.13C1238.98 113.876 1236.29 117.204 1229.51 117.204C1222.15 117.204 1217.09 112.98 1217.09 105.236V83.412H1224.65V104.468C1224.65 109.268 1227.4 111.508 1231.62 111.508C1236.36 111.508 1240.52 108.628 1240.52 101.908V83.412H1248.07V116.5Z" fill="#061D8B"/>
<rect x="594" y="1022" width="471" height="99" fill="white"/>
<rect x="594" y="1022" width="471" height="99" stroke="#004BF9" stroke-width="2"/>
<path d="M660.292 1067.07C660.292 1063.39 663.556 1060.61 669.284 1060.61C675.012 1060.61 678.404 1063.42 678.724 1067.62V1068.1H674.98C674.852 1064.77 672.388 1063.49 669.348 1063.49C666.308 1063.49 664.228 1064.77 664.228 1066.91C664.228 1068.99 665.956 1069.73 668.772 1070.37L671.172 1070.91C675.876 1072 678.724 1073.6 678.724 1077.54C678.724 1081.44 675.46 1084.35 669.508 1084.35C663.588 1084.35 659.94 1081.44 659.428 1077.02V1076.54H663.204C663.556 1080.13 666.212 1081.47 669.444 1081.47C672.708 1081.47 674.788 1080.13 674.788 1077.82C674.788 1075.49 672.932 1074.82 670.052 1074.14L667.652 1073.6C663.044 1072.54 660.292 1070.72 660.292 1067.07ZM681.153 1075.74C681.153 1070.3 684.737 1067.07 689.729 1067.07C694.689 1067.07 698.305 1070.3 698.305 1075.74C698.305 1081.18 694.689 1084.38 689.729 1084.38C684.737 1084.38 681.153 1081.18 681.153 1075.74ZM684.993 1075.74C684.993 1079.46 686.881 1081.57 689.729 1081.57C692.577 1081.57 694.465 1079.46 694.465 1075.74C694.465 1072.03 692.577 1069.92 689.729 1069.92C686.881 1069.92 684.993 1072.03 684.993 1075.74ZM700.972 1072.03C700.972 1069.09 703.628 1067.1 708.14 1067.1C712.652 1067.1 715.18 1069.09 715.628 1072.03V1072.51H712.108C711.948 1070.62 710.412 1069.79 708.172 1069.79C705.932 1069.79 704.588 1070.59 704.588 1071.9C704.588 1073.18 705.708 1073.66 707.18 1073.92L710.124 1074.46C713.452 1075.07 715.756 1076.26 715.756 1079.23C715.756 1082.18 713.292 1084.38 708.46 1084.38C703.628 1084.38 700.94 1082.18 700.46 1079.04V1078.56H703.98C704.236 1080.8 706.028 1081.73 708.396 1081.73C710.796 1081.73 712.108 1080.8 712.108 1079.46C712.108 1078.18 711.052 1077.66 709.228 1077.34L706.284 1076.8C703.148 1076.26 700.972 1074.94 700.972 1072.03ZM717.134 1067.46H721.102L725.678 1080.32H725.998L730.574 1067.46H734.542V1067.94L725.454 1090.4H721.518V1089.92L723.854 1084.58L717.134 1067.94V1067.46ZM736.507 1072.9V1072.42C737.019 1069.28 739.931 1067.1 744.219 1067.1C748.475 1067.1 751.547 1069.28 751.547 1073.47V1084H747.899V1081.82H747.579C746.907 1082.78 745.435 1084.32 742.171 1084.32C738.555 1084.32 736.059 1082.53 736.059 1079.52C736.059 1076.42 738.619 1074.94 741.947 1074.62L747.803 1074.02V1073.22C747.803 1070.88 746.491 1069.79 744.155 1069.79C741.787 1069.79 740.379 1070.88 740.155 1072.9H736.507ZM739.867 1079.26C739.867 1080.67 741.019 1081.6 742.971 1081.6C745.659 1081.6 747.803 1080 747.803 1076.86V1076.48L742.651 1077.02C740.923 1077.18 739.867 1077.89 739.867 1079.26ZM755.612 1060.96H759.388V1084H755.612V1060.96ZM789.935 1076.1H793.647V1076.58C793.167 1079.68 790.479 1083.84 784.367 1084.32L784.111 1085.6L784.783 1085.54C786.351 1085.44 787.887 1085.98 787.887 1087.81C787.887 1089.57 786.191 1090.78 783.759 1090.78C781.551 1090.78 780.047 1089.92 779.47 1089.6V1087.39H779.951C781.199 1088.22 782.287 1088.8 783.855 1088.8C785.007 1088.8 785.551 1088.35 785.551 1087.74C785.551 1087.17 785.103 1086.91 784.303 1086.91H781.967V1086.43L782.351 1084.35C775.791 1084.03 771.311 1079.52 771.311 1072.48C771.311 1065.15 776.143 1060.58 783.119 1060.58C790.062 1060.58 793.103 1064.93 793.455 1068.38V1068.86H789.743C789.519 1066.62 787.919 1063.62 783.151 1063.62C778.351 1063.62 775.279 1067.01 775.279 1072.48C775.279 1077.95 778.351 1081.31 783.151 1081.31C787.919 1081.31 789.583 1078.3 789.935 1076.1ZM796.226 1072.9V1072.42C796.738 1069.28 799.65 1067.1 803.938 1067.1C808.194 1067.1 811.266 1069.28 811.266 1073.47V1084H807.618V1081.82H807.298C806.626 1082.78 805.154 1084.32 801.89 1084.32C798.274 1084.32 795.778 1082.53 795.778 1079.52C795.778 1076.42 798.338 1074.94 801.666 1074.62L807.522 1074.02V1073.22C807.522 1070.88 806.21 1069.79 803.874 1069.79C801.506 1069.79 800.098 1070.88 799.874 1072.9H796.226ZM799.586 1079.26C799.586 1080.67 800.738 1081.6 802.69 1081.6C805.378 1081.6 807.522 1080 807.522 1076.86V1076.48L802.37 1077.02C800.642 1077.18 799.586 1077.89 799.586 1079.26ZM815.331 1060.96H819.107V1084H815.331V1060.96ZM823.299 1067.46H827.076V1084H823.299V1067.46ZM845.412 1079.23C845.412 1081.98 843.268 1084.1 839.044 1084.35L838.788 1085.6L839.46 1085.54C841.028 1085.44 842.564 1085.98 842.564 1087.81C842.564 1089.57 840.868 1090.78 838.436 1090.78C836.228 1090.78 834.724 1089.92 834.148 1089.6V1087.39H834.628C835.876 1088.22 836.964 1088.8 838.532 1088.8C839.684 1088.8 840.228 1088.35 840.228 1087.74C840.228 1087.17 839.78 1086.91 838.98 1086.91H836.644V1086.43L837.028 1084.35C832.868 1084.03 830.564 1081.92 830.116 1079.04V1078.56H833.636C833.892 1080.8 835.684 1081.73 838.052 1081.73C840.452 1081.73 841.764 1080.8 841.764 1079.46C841.764 1078.18 840.708 1077.66 838.884 1077.34L835.94 1076.8C832.804 1076.26 830.628 1074.94 830.628 1072.03C830.628 1069.09 833.284 1067.1 837.796 1067.1C842.308 1067.1 844.836 1069.09 845.284 1072.03V1072.51H841.764C841.604 1070.62 840.068 1069.79 837.828 1069.79C835.588 1069.79 834.244 1070.59 834.244 1071.9C834.244 1073.18 835.364 1073.66 836.836 1073.92L839.78 1074.46C843.108 1075.07 845.412 1076.26 845.412 1079.23ZM848.518 1067.46H852.166V1069.41H852.486C853.126 1068.38 854.31 1067.14 857.286 1067.14C860.39 1067.14 861.798 1068.77 862.342 1069.92H862.662C863.43 1068.64 864.902 1067.14 868.102 1067.14C871.462 1067.14 873.99 1069.06 873.99 1072.74V1084H870.182V1073.02C870.182 1071.17 869.094 1070.02 867.11 1070.02C864.838 1070.02 863.142 1071.33 863.142 1074.34V1084H859.334V1073.02C859.334 1071.17 858.246 1070.02 856.262 1070.02C853.99 1070.02 852.294 1071.33 852.294 1074.34V1084H848.518V1067.46ZM877.57 1072.9V1072.42C878.082 1069.28 880.994 1067.1 885.282 1067.1C889.538 1067.1 892.61 1069.28 892.61 1073.47V1084H888.962V1081.82H888.642C887.97 1082.78 886.498 1084.32 883.234 1084.32C879.618 1084.32 877.122 1082.53 877.122 1079.52C877.122 1076.42 879.682 1074.94 883.01 1074.62L888.866 1074.02V1073.22C888.866 1070.88 887.554 1069.79 885.218 1069.79C882.85 1069.79 881.442 1070.88 881.218 1072.9H877.57ZM880.93 1079.26C880.93 1080.67 882.082 1081.6 884.034 1081.6C886.722 1081.6 888.866 1080 888.866 1076.86V1076.48L883.714 1077.02C881.986 1077.18 880.93 1077.89 880.93 1079.26ZM904.404 1072.51C904.404 1065.15 909.268 1060.58 916.34 1060.58C923.252 1060.58 926.388 1064.9 926.772 1068.51V1068.99H923.028C922.868 1066.69 921.204 1063.62 916.372 1063.62C911.412 1063.62 908.372 1067.07 908.372 1072.51C908.372 1077.95 911.412 1081.31 916.276 1081.31C921.044 1081.31 922.9 1078.08 922.996 1075.39H915.572V1072.51H926.516V1084H923.86L923.156 1081.22H922.836C922.036 1082.24 920.212 1084.32 915.796 1084.32C909.3 1084.32 904.404 1079.81 904.404 1072.51ZM930.424 1067.49H934.041V1069.63H934.361C934.969 1068.32 936.057 1067.42 938.297 1067.42H940.025V1070.34H938.265C935.449 1070.34 934.201 1071.87 934.201 1075.01V1084H930.424V1067.49ZM958.16 1084H954.512V1081.76H954.192C953.616 1082.69 952.272 1084.35 948.88 1084.35C945.2 1084.35 942.672 1082.24 942.672 1078.37V1067.46H946.448V1077.98C946.448 1080.38 947.824 1081.5 949.936 1081.5C952.304 1081.5 954.384 1080.06 954.384 1076.7V1067.46H958.16V1084ZM962.393 1060.96H966.169V1069.38H966.489C967.097 1068.54 968.633 1067.14 971.577 1067.14C975.737 1067.14 979.161 1070.11 979.161 1075.74C979.161 1081.34 975.737 1084.35 971.577 1084.35C968.473 1084.35 966.905 1082.82 966.105 1081.73H965.785L964.985 1084H962.393V1060.96ZM965.977 1075.74C965.977 1079.46 967.897 1081.54 970.649 1081.54C973.369 1081.54 975.321 1079.46 975.321 1075.74C975.321 1072.03 973.369 1069.95 970.649 1069.95C967.897 1069.95 965.977 1072 965.977 1075.74ZM997.816 1084H994.168V1081.76H993.848C993.272 1082.69 991.928 1084.35 988.536 1084.35C984.856 1084.35 982.328 1082.24 982.328 1078.37V1067.46H986.104V1077.98C986.104 1080.38 987.48 1081.5 989.592 1081.5C991.96 1081.5 994.04 1080.06 994.04 1076.7V1067.46H997.816V1084Z" fill="#061D8B"/>
<rect x="1176" y="1022" width="471" height="99" fill="white"/>
<rect x="1176" y="1022" width="471" height="99" stroke="#004BF9" stroke-width="2"/>
<path d="M1215.42 1060.96H1219.8L1226.3 1071.62H1226.62L1233.11 1060.96H1237.5V1061.44L1228.44 1075.55V1084H1224.47V1075.55L1215.42 1061.44V1060.96ZM1239.41 1060.99H1243.7V1064.58H1239.41V1060.99ZM1246.26 1060.99H1250.58V1064.58H1246.26V1060.99ZM1236.4 1075.74C1236.4 1070.3 1239.99 1067.07 1244.98 1067.07C1249.94 1067.07 1253.55 1070.3 1253.55 1075.74C1253.55 1081.18 1249.94 1084.38 1244.98 1084.38C1239.99 1084.38 1236.4 1081.18 1236.4 1075.74ZM1240.24 1075.74C1240.24 1079.46 1242.13 1081.57 1244.98 1081.57C1247.83 1081.57 1249.71 1079.46 1249.71 1075.74C1249.71 1072.03 1247.83 1069.92 1244.98 1069.92C1242.13 1069.92 1240.24 1072.03 1240.24 1075.74ZM1256.86 1067.46H1260.51V1069.7H1260.83C1261.37 1068.77 1262.75 1067.14 1266.14 1067.14C1269.82 1067.14 1272.35 1069.22 1272.35 1073.09V1084H1268.57V1073.47C1268.57 1071.07 1267.17 1069.98 1265.09 1069.98C1262.72 1069.98 1260.64 1071.39 1260.64 1074.75V1084H1256.86V1067.46ZM1275.53 1075.74C1275.53 1070.3 1279.08 1067.1 1284.01 1067.1C1289 1067.1 1292.14 1070.3 1292.14 1075.33V1076.61H1279.4C1279.46 1079.49 1281.19 1081.66 1284.07 1081.66C1286.86 1081.66 1288.01 1079.94 1288.33 1078.59H1291.88V1079.07C1291.34 1081.28 1289.06 1084.38 1284.07 1084.38C1279.08 1084.38 1275.53 1081.18 1275.53 1075.74ZM1279.4 1074.14H1288.42C1288.3 1071.71 1286.86 1069.79 1284.01 1069.79C1281.19 1069.79 1279.59 1071.71 1279.4 1074.14ZM1293.29 1067.49H1297.04V1064.22L1300.33 1062.37H1300.81V1067.49H1305V1070.11H1300.81V1080.99L1301.07 1081.25H1305.23V1084H1301.58C1298.7 1084 1297.04 1082.53 1297.04 1079.71V1070.11H1293.29V1067.49ZM1307.66 1060.99H1312.4V1064.58H1307.66V1060.99ZM1308.14 1067.46H1311.92V1084H1308.14V1067.46ZM1330.26 1079.23C1330.26 1081.98 1328.11 1084.1 1323.89 1084.35L1323.63 1085.6L1324.3 1085.54C1325.87 1085.44 1327.41 1085.98 1327.41 1087.81C1327.41 1089.57 1325.71 1090.78 1323.28 1090.78C1321.07 1090.78 1319.57 1089.92 1318.99 1089.6V1087.39H1319.47C1320.72 1088.22 1321.81 1088.8 1323.38 1088.8C1324.53 1088.8 1325.07 1088.35 1325.07 1087.74C1325.07 1087.17 1324.62 1086.91 1323.82 1086.91H1321.49V1086.43L1321.87 1084.35C1317.71 1084.03 1315.41 1081.92 1314.96 1079.04V1078.56H1318.48C1318.74 1080.8 1320.53 1081.73 1322.9 1081.73C1325.3 1081.73 1326.61 1080.8 1326.61 1079.46C1326.61 1078.18 1325.55 1077.66 1323.73 1077.34L1320.78 1076.8C1317.65 1076.26 1315.47 1074.94 1315.47 1072.03C1315.47 1069.09 1318.13 1067.1 1322.64 1067.1C1327.15 1067.1 1329.68 1069.09 1330.13 1072.03V1072.51H1326.61C1326.45 1070.62 1324.91 1069.79 1322.67 1069.79C1320.43 1069.79 1319.09 1070.59 1319.09 1071.9C1319.09 1073.18 1320.21 1073.66 1321.68 1073.92L1324.62 1074.46C1327.95 1075.07 1330.26 1076.26 1330.26 1079.23ZM1332.88 1060.99H1337.62V1064.58H1332.88V1060.99ZM1333.36 1067.46H1337.14V1084H1333.36V1067.46ZM1341.33 1067.46H1344.98V1069.41H1345.3C1345.94 1068.38 1347.12 1067.14 1350.1 1067.14C1353.2 1067.14 1354.61 1068.77 1355.15 1069.92H1355.47C1356.24 1068.64 1357.71 1067.14 1360.91 1067.14C1364.27 1067.14 1366.8 1069.06 1366.8 1072.74V1084H1362.99V1073.02C1362.99 1071.17 1361.91 1070.02 1359.92 1070.02C1357.65 1070.02 1355.95 1071.33 1355.95 1074.34V1084H1352.15V1073.02C1352.15 1071.17 1351.06 1070.02 1349.07 1070.02C1346.8 1070.02 1345.11 1071.33 1345.11 1074.34V1084H1341.33V1067.46ZM1397.22 1076.1H1400.93V1076.58C1400.45 1079.68 1397.76 1083.84 1391.65 1084.32L1391.39 1085.6L1392.06 1085.54C1393.63 1085.44 1395.17 1085.98 1395.17 1087.81C1395.17 1089.57 1393.47 1090.78 1391.04 1090.78C1388.83 1090.78 1387.33 1089.92 1386.75 1089.6V1087.39H1387.23C1388.48 1088.22 1389.57 1088.8 1391.14 1088.8C1392.29 1088.8 1392.83 1088.35 1392.83 1087.74C1392.83 1087.17 1392.38 1086.91 1391.58 1086.91H1389.25V1086.43L1389.63 1084.35C1383.07 1084.03 1378.59 1079.52 1378.59 1072.48C1378.59 1065.15 1383.42 1060.58 1390.4 1060.58C1397.34 1060.58 1400.38 1064.93 1400.74 1068.38V1068.86H1397.02C1396.8 1066.62 1395.2 1063.62 1390.43 1063.62C1385.63 1063.62 1382.56 1067.01 1382.56 1072.48C1382.56 1077.95 1385.63 1081.31 1390.43 1081.31C1395.2 1081.31 1396.86 1078.3 1397.22 1076.1ZM1403.51 1072.9V1072.42C1404.02 1069.28 1406.93 1067.1 1411.22 1067.1C1415.48 1067.1 1418.55 1069.28 1418.55 1073.47V1084H1414.9V1081.82H1414.58C1413.91 1082.78 1412.44 1084.32 1409.17 1084.32C1405.56 1084.32 1403.06 1082.53 1403.06 1079.52C1403.06 1076.42 1405.62 1074.94 1408.95 1074.62L1414.8 1074.02V1073.22C1414.8 1070.88 1413.49 1069.79 1411.16 1069.79C1408.79 1069.79 1407.38 1070.88 1407.16 1072.9H1403.51ZM1406.87 1079.26C1406.87 1080.67 1408.02 1081.6 1409.97 1081.6C1412.66 1081.6 1414.8 1080 1414.8 1076.86V1076.48L1409.65 1077.02C1407.92 1077.18 1406.87 1077.89 1406.87 1079.26ZM1422.61 1060.96H1426.39V1084H1422.61V1060.96ZM1430.58 1067.46H1434.36V1084H1430.58V1067.46ZM1452.69 1079.23C1452.69 1081.98 1450.55 1084.1 1446.33 1084.35L1446.07 1085.6L1446.74 1085.54C1448.31 1085.44 1449.85 1085.98 1449.85 1087.81C1449.85 1089.57 1448.15 1090.78 1445.72 1090.78C1443.51 1090.78 1442.01 1089.92 1441.43 1089.6V1087.39H1441.91C1443.16 1088.22 1444.25 1088.8 1445.81 1088.8C1446.97 1088.8 1447.51 1088.35 1447.51 1087.74C1447.51 1087.17 1447.06 1086.91 1446.26 1086.91H1443.93V1086.43L1444.31 1084.35C1440.15 1084.03 1437.85 1081.92 1437.4 1079.04V1078.56H1440.92C1441.17 1080.8 1442.97 1081.73 1445.33 1081.73C1447.73 1081.73 1449.05 1080.8 1449.05 1079.46C1449.05 1078.18 1447.99 1077.66 1446.17 1077.34L1443.22 1076.8C1440.09 1076.26 1437.91 1074.94 1437.91 1072.03C1437.91 1069.09 1440.57 1067.1 1445.08 1067.1C1449.59 1067.1 1452.12 1069.09 1452.57 1072.03V1072.51H1449.05C1448.89 1070.62 1447.35 1069.79 1445.11 1069.79C1442.87 1069.79 1441.53 1070.59 1441.53 1071.9C1441.53 1073.18 1442.65 1073.66 1444.12 1073.92L1447.06 1074.46C1450.39 1075.07 1452.69 1076.26 1452.69 1079.23ZM1455.8 1067.46H1459.45V1069.41H1459.77C1460.41 1068.38 1461.59 1067.14 1464.57 1067.14C1467.67 1067.14 1469.08 1068.77 1469.62 1069.92H1469.94C1470.71 1068.64 1472.18 1067.14 1475.38 1067.14C1478.74 1067.14 1481.27 1069.06 1481.27 1072.74V1084H1477.46V1073.02C1477.46 1071.17 1476.38 1070.02 1474.39 1070.02C1472.12 1070.02 1470.42 1071.33 1470.42 1074.34V1084H1466.62V1073.02C1466.62 1071.17 1465.53 1070.02 1463.54 1070.02C1461.27 1070.02 1459.58 1071.33 1459.58 1074.34V1084H1455.8V1067.46ZM1484.85 1072.9V1072.42C1485.36 1069.28 1488.27 1067.1 1492.56 1067.1C1496.82 1067.1 1499.89 1069.28 1499.89 1073.47V1084H1496.24V1081.82H1495.92C1495.25 1082.78 1493.78 1084.32 1490.51 1084.32C1486.9 1084.32 1484.4 1082.53 1484.4 1079.52C1484.4 1076.42 1486.96 1074.94 1490.29 1074.62L1496.15 1074.02V1073.22C1496.15 1070.88 1494.83 1069.79 1492.5 1069.79C1490.13 1069.79 1488.72 1070.88 1488.5 1072.9H1484.85ZM1488.21 1079.26C1488.21 1080.67 1489.36 1081.6 1491.31 1081.6C1494 1081.6 1496.15 1080 1496.15 1076.86V1076.48L1490.99 1077.02C1489.27 1077.18 1488.21 1077.89 1488.21 1079.26ZM1511.69 1072.51C1511.69 1065.15 1516.55 1060.58 1523.62 1060.58C1530.53 1060.58 1533.67 1064.9 1534.05 1068.51V1068.99H1530.31C1530.15 1066.69 1528.49 1063.62 1523.65 1063.62C1518.69 1063.62 1515.65 1067.07 1515.65 1072.51C1515.65 1077.95 1518.69 1081.31 1523.56 1081.31C1528.33 1081.31 1530.18 1078.08 1530.28 1075.39H1522.85V1072.51H1533.8V1084H1531.14L1530.44 1081.22H1530.12C1529.32 1082.24 1527.49 1084.32 1523.08 1084.32C1516.58 1084.32 1511.69 1079.81 1511.69 1072.51ZM1537.71 1067.49H1541.32V1069.63H1541.64C1542.25 1068.32 1543.34 1067.42 1545.58 1067.42H1547.31V1070.34H1545.55C1542.73 1070.34 1541.48 1071.87 1541.48 1075.01V1084H1537.71V1067.49ZM1565.44 1084H1561.79V1081.76H1561.47C1560.9 1082.69 1559.55 1084.35 1556.16 1084.35C1552.48 1084.35 1549.95 1082.24 1549.95 1078.37V1067.46H1553.73V1077.98C1553.73 1080.38 1555.1 1081.5 1557.22 1081.5C1559.58 1081.5 1561.66 1080.06 1561.66 1076.7V1067.46H1565.44V1084ZM1569.67 1060.96H1573.45V1069.38H1573.77C1574.38 1068.54 1575.91 1067.14 1578.86 1067.14C1583.02 1067.14 1586.44 1070.11 1586.44 1075.74C1586.44 1081.34 1583.02 1084.35 1578.86 1084.35C1575.75 1084.35 1574.19 1082.82 1573.39 1081.73H1573.07L1572.27 1084H1569.67V1060.96ZM1573.26 1075.74C1573.26 1079.46 1575.18 1081.54 1577.93 1081.54C1580.65 1081.54 1582.6 1079.46 1582.6 1075.74C1582.6 1072.03 1580.65 1069.95 1577.93 1069.95C1575.18 1069.95 1573.26 1072 1573.26 1075.74ZM1605.1 1084H1601.45V1081.76H1601.13C1600.55 1082.69 1599.21 1084.35 1595.82 1084.35C1592.14 1084.35 1589.61 1082.24 1589.61 1078.37V1067.46H1593.39V1077.98C1593.39 1080.38 1594.76 1081.5 1596.87 1081.5C1599.24 1081.5 1601.32 1080.06 1601.32 1076.7V1067.46H1605.1V1084Z" fill="#061D8B"/>
<rect x="12" y="1022" width="471" height="99" fill="white"/>
<rect x="12" y="1022" width="471" height="99" stroke="#004BF9" stroke-width="2"/>
<path d="M101.872 1076.1H105.584V1076.58C105.104 1079.68 102.416 1083.84 96.304 1084.32L96.048 1085.6L96.72 1085.54C98.288 1085.44 99.824 1085.98 99.824 1087.81C99.824 1089.57 98.128 1090.78 95.696 1090.78C93.488 1090.78 91.984 1089.92 91.408 1089.6V1087.39H91.888C93.136 1088.22 94.224 1088.8 95.792 1088.8C96.944 1088.8 97.488 1088.35 97.488 1087.74C97.488 1087.17 97.04 1086.91 96.24 1086.91H93.904V1086.43L94.288 1084.35C87.728 1084.03 83.248 1079.52 83.248 1072.48C83.248 1065.15 88.08 1060.58 95.056 1060.58C102 1060.58 105.04 1064.93 105.392 1068.38V1068.86H101.68C101.456 1066.62 99.856 1063.62 95.088 1063.62C90.288 1063.62 87.216 1067.01 87.216 1072.48C87.216 1077.95 90.288 1081.31 95.088 1081.31C99.856 1081.31 101.52 1078.3 101.872 1076.1ZM107.715 1075.74C107.715 1070.3 111.267 1067.1 116.195 1067.1C121.187 1067.1 124.323 1070.3 124.323 1075.33V1076.61H111.587C111.651 1079.49 113.379 1081.66 116.259 1081.66C119.043 1081.66 120.195 1079.94 120.515 1078.59H124.067V1079.07C123.523 1081.28 121.251 1084.38 116.259 1084.38C111.267 1084.38 107.715 1081.18 107.715 1075.74ZM111.587 1074.14H120.611C120.483 1071.71 119.043 1069.79 116.195 1069.79C113.379 1069.79 111.779 1071.71 111.587 1074.14ZM125.509 1067.46H129.445L133.957 1080.03H134.277L138.789 1067.46H142.725V1067.94L136.229 1084H132.005L125.509 1067.94V1067.46ZM145.206 1067.49H148.822V1069.63H149.142C149.75 1068.32 150.838 1067.42 153.078 1067.42H154.806V1070.34H153.046C150.23 1070.34 148.982 1071.87 148.982 1075.01V1084H145.206V1067.49ZM156.278 1075.74C156.278 1070.3 159.83 1067.1 164.758 1067.1C169.75 1067.1 172.886 1070.3 172.886 1075.33V1076.61H160.15C160.214 1079.49 161.942 1081.66 164.822 1081.66C167.606 1081.66 168.758 1079.94 169.078 1078.59H172.63V1079.07C172.086 1081.28 169.814 1084.38 164.822 1084.38C159.83 1084.38 156.278 1081.18 156.278 1075.74ZM160.15 1074.14H169.174C169.046 1071.71 167.606 1069.79 164.758 1069.79C161.942 1069.79 160.342 1071.71 160.15 1074.14ZM202.56 1076.1H206.272V1076.58C205.792 1079.68 203.104 1083.84 196.992 1084.32L196.736 1085.6L197.408 1085.54C198.976 1085.44 200.512 1085.98 200.512 1087.81C200.512 1089.57 198.816 1090.78 196.384 1090.78C194.176 1090.78 192.672 1089.92 192.095 1089.6V1087.39H192.576C193.824 1088.22 194.912 1088.8 196.48 1088.8C197.632 1088.8 198.176 1088.35 198.176 1087.74C198.176 1087.17 197.728 1086.91 196.928 1086.91H194.592V1086.43L194.976 1084.35C188.416 1084.03 183.936 1079.52 183.936 1072.48C183.936 1065.15 188.768 1060.58 195.744 1060.58C202.688 1060.58 205.728 1064.93 206.08 1068.38V1068.86H202.368C202.144 1066.62 200.544 1063.62 195.776 1063.62C190.976 1063.62 187.904 1067.01 187.904 1072.48C187.904 1077.95 190.976 1081.31 195.776 1081.31C200.544 1081.31 202.208 1078.3 202.56 1076.1ZM208.851 1072.9V1072.42C209.363 1069.28 212.275 1067.1 216.563 1067.1C220.819 1067.1 223.891 1069.28 223.891 1073.47V1084H220.243V1081.82H219.923C219.251 1082.78 217.779 1084.32 214.515 1084.32C210.899 1084.32 208.403 1082.53 208.403 1079.52C208.403 1076.42 210.963 1074.94 214.291 1074.62L220.147 1074.02V1073.22C220.147 1070.88 218.835 1069.79 216.499 1069.79C214.131 1069.79 212.723 1070.88 212.499 1072.9H208.851ZM212.211 1079.26C212.211 1080.67 213.363 1081.6 215.315 1081.6C218.003 1081.6 220.147 1080 220.147 1076.86V1076.48L214.995 1077.02C213.267 1077.18 212.211 1077.89 212.211 1079.26ZM227.956 1060.96H231.732V1084H227.956V1060.96ZM235.924 1067.46H239.701V1084H235.924V1067.46ZM258.037 1079.23C258.037 1081.98 255.893 1084.1 251.669 1084.35L251.413 1085.6L252.085 1085.54C253.653 1085.44 255.189 1085.98 255.189 1087.81C255.189 1089.57 253.493 1090.78 251.061 1090.78C248.853 1090.78 247.349 1089.92 246.773 1089.6V1087.39H247.253C248.501 1088.22 249.589 1088.8 251.157 1088.8C252.309 1088.8 252.853 1088.35 252.853 1087.74C252.853 1087.17 252.405 1086.91 251.605 1086.91H249.269V1086.43L249.653 1084.35C245.493 1084.03 243.189 1081.92 242.741 1079.04V1078.56H246.261C246.517 1080.8 248.309 1081.73 250.677 1081.73C253.077 1081.73 254.389 1080.8 254.389 1079.46C254.389 1078.18 253.333 1077.66 251.509 1077.34L248.565 1076.8C245.429 1076.26 243.253 1074.94 243.253 1072.03C243.253 1069.09 245.909 1067.1 250.421 1067.1C254.933 1067.1 257.461 1069.09 257.909 1072.03V1072.51H254.389C254.229 1070.62 252.693 1069.79 250.453 1069.79C248.213 1069.79 246.869 1070.59 246.869 1071.9C246.869 1073.18 247.989 1073.66 249.461 1073.92L252.405 1074.46C255.733 1075.07 258.037 1076.26 258.037 1079.23ZM261.143 1067.46H264.791V1069.41H265.111C265.751 1068.38 266.935 1067.14 269.911 1067.14C273.015 1067.14 274.423 1068.77 274.967 1069.92H275.287C276.055 1068.64 277.527 1067.14 280.727 1067.14C284.087 1067.14 286.615 1069.06 286.615 1072.74V1084H282.807V1073.02C282.807 1071.17 281.719 1070.02 279.735 1070.02C277.463 1070.02 275.767 1071.33 275.767 1074.34V1084H271.959V1073.02C271.959 1071.17 270.871 1070.02 268.887 1070.02C266.615 1070.02 264.919 1071.33 264.919 1074.34V1084H261.143V1067.46ZM290.195 1072.9V1072.42C290.707 1069.28 293.619 1067.1 297.907 1067.1C302.163 1067.1 305.235 1069.28 305.235 1073.47V1084H301.587V1081.82H301.267C300.595 1082.78 299.123 1084.32 295.859 1084.32C292.243 1084.32 289.747 1082.53 289.747 1079.52C289.747 1076.42 292.307 1074.94 295.635 1074.62L301.491 1074.02V1073.22C301.491 1070.88 300.179 1069.79 297.843 1069.79C295.475 1069.79 294.067 1070.88 293.843 1072.9H290.195ZM293.555 1079.26C293.555 1080.67 294.707 1081.6 296.659 1081.6C299.347 1081.6 301.491 1080 301.491 1076.86V1076.48L296.339 1077.02C294.611 1077.18 293.555 1077.89 293.555 1079.26ZM317.029 1072.51C317.029 1065.15 321.893 1060.58 328.965 1060.58C335.877 1060.58 339.013 1064.9 339.397 1068.51V1068.99H335.653C335.493 1066.69 333.829 1063.62 328.997 1063.62C324.037 1063.62 320.997 1067.07 320.997 1072.51C320.997 1077.95 324.037 1081.31 328.901 1081.31C333.669 1081.31 335.525 1078.08 335.621 1075.39H328.197V1072.51H339.141V1084H336.485L335.781 1081.22H335.461C334.661 1082.24 332.837 1084.32 328.421 1084.32C321.925 1084.32 317.029 1079.81 317.029 1072.51ZM343.049 1067.49H346.666V1069.63H346.986C347.594 1068.32 348.682 1067.42 350.922 1067.42H352.65V1070.34H350.89C348.074 1070.34 346.826 1071.87 346.826 1075.01V1084H343.049V1067.49ZM370.785 1084H367.137V1081.76H366.817C366.241 1082.69 364.897 1084.35 361.505 1084.35C357.825 1084.35 355.297 1082.24 355.297 1078.37V1067.46H359.073V1077.98C359.073 1080.38 360.449 1081.5 362.561 1081.5C364.929 1081.5 367.009 1080.06 367.009 1076.7V1067.46H370.785V1084ZM375.018 1060.96H378.794V1069.38H379.114C379.722 1068.54 381.258 1067.14 384.202 1067.14C388.362 1067.14 391.786 1070.11 391.786 1075.74C391.786 1081.34 388.362 1084.35 384.202 1084.35C381.098 1084.35 379.53 1082.82 378.73 1081.73H378.41L377.61 1084H375.018V1060.96ZM378.602 1075.74C378.602 1079.46 380.522 1081.54 383.274 1081.54C385.994 1081.54 387.946 1079.46 387.946 1075.74C387.946 1072.03 385.994 1069.95 383.274 1069.95C380.522 1069.95 378.602 1072 378.602 1075.74ZM410.441 1084H406.793V1081.76H406.473C405.897 1082.69 404.553 1084.35 401.161 1084.35C397.481 1084.35 394.953 1082.24 394.953 1078.37V1067.46H398.729V1077.98C398.729 1080.38 400.105 1081.5 402.217 1081.5C404.585 1081.5 406.665 1080.06 406.665 1076.7V1067.46H410.441V1084Z" fill="#061D8B"/>
<rect x="579" y="764" width="502" height="99" fill="#004BF9"/>
<rect x="579" y="764" width="502" height="99" stroke="white" stroke-width="2"/>
<path d="M661.792 809.072C661.792 805.392 665.056 802.608 670.784 802.608C676.512 802.608 679.904 805.424 680.224 809.616V810.096H676.48C676.352 806.768 673.888 805.488 670.848 805.488C667.808 805.488 665.728 806.768 665.728 808.912C665.728 810.992 667.456 811.728 670.272 812.368L672.672 812.912C677.376 814 680.224 815.6 680.224 819.536C680.224 823.44 676.96 826.352 671.008 826.352C665.088 826.352 661.44 823.44 660.928 819.024V818.544H664.704C665.056 822.128 667.712 823.472 670.944 823.472C674.208 823.472 676.288 822.128 676.288 819.824C676.288 817.488 674.432 816.816 671.552 816.144L669.152 815.6C664.544 814.544 661.792 812.72 661.792 809.072ZM685.629 802.992H689.917V806.576H685.629V802.992ZM692.477 802.992H696.797V806.576H692.477V802.992ZM698.941 826H695.293V823.76H694.973C694.397 824.688 693.053 826.352 689.661 826.352C685.981 826.352 683.453 824.24 683.453 820.368V809.456H687.229V819.984C687.229 822.384 688.605 823.504 690.717 823.504C693.085 823.504 695.165 822.064 695.165 818.704V809.456H698.941V826ZM703.174 809.488H706.791V811.632H707.111C707.719 810.32 708.807 809.424 711.047 809.424H712.775V812.336H711.015C708.199 812.336 706.951 813.872 706.951 817.008V826H703.174V809.488ZM731.015 826H727.367V823.984H727.047C726.343 824.912 724.839 826.352 721.831 826.352C717.671 826.352 714.247 823.344 714.247 817.744C714.247 812.112 717.671 809.136 721.831 809.136C724.775 809.136 726.311 810.544 726.919 811.376H727.239V802.96H731.015V826ZM727.431 817.744C727.431 814 725.479 811.952 722.759 811.952C720.007 811.952 718.087 814.032 718.087 817.744C718.087 821.456 720.007 823.536 722.759 823.536C725.479 823.536 727.431 821.456 727.431 817.744ZM737.285 802.992H741.573V806.576H737.285V802.992ZM744.133 802.992H748.453V806.576H744.133V802.992ZM750.597 826H746.949V823.76H746.629C746.053 824.688 744.709 826.352 741.317 826.352C737.637 826.352 735.109 824.24 735.109 820.368V809.456H738.885V819.984C738.885 822.384 740.261 823.504 742.373 823.504C744.741 823.504 746.821 822.064 746.821 818.704V809.456H750.597V826ZM754.831 809.488H758.447V811.632H758.767C759.375 810.32 760.463 809.424 762.703 809.424H764.431V812.336H762.671C759.855 812.336 758.607 813.872 758.607 817.008V826H754.831V809.488ZM769.254 802.992H773.542V806.576H769.254V802.992ZM776.102 802.992H780.422V806.576H776.102V802.992ZM782.566 826H778.918V823.76H778.598C778.022 824.688 776.678 826.352 773.286 826.352C769.606 826.352 767.078 824.24 767.078 820.368V809.456H770.854V819.984C770.854 822.384 772.23 823.504 774.342 823.504C776.71 823.504 778.79 822.064 778.79 818.704V809.456H782.566V826ZM786.799 802.96H790.576V826H786.799V802.96ZM793.84 817.744C793.84 812.304 797.392 809.104 802.32 809.104C807.312 809.104 810.448 812.304 810.448 817.328V818.608H797.712C797.776 821.488 799.504 823.664 802.384 823.664C805.168 823.664 806.32 821.936 806.64 820.592H810.192V821.072C809.648 823.28 807.376 826.384 802.384 826.384C797.392 826.384 793.84 823.184 793.84 817.744ZM797.712 816.144H806.736C806.608 813.712 805.168 811.792 802.32 811.792C799.504 811.792 797.904 813.712 797.712 816.144ZM813.768 802.96H817.544V811.376H817.864C818.472 810.544 820.008 809.136 822.952 809.136C827.112 809.136 830.536 812.112 830.536 817.744C830.536 823.344 827.112 826.352 822.952 826.352C819.848 826.352 818.28 824.816 817.48 823.728H817.16L816.36 826H813.768V802.96ZM817.352 817.744C817.352 821.456 819.272 823.536 822.024 823.536C824.744 823.536 826.696 821.456 826.696 817.744C826.696 814.032 824.744 811.952 822.024 811.952C819.272 811.952 817.352 814 817.352 817.744ZM833.351 802.992H838.087V806.576H833.351V802.992ZM833.831 809.456H837.607V826H833.831V809.456ZM841.799 802.96H845.576V826H841.799V802.96ZM849.288 802.992H854.024V806.576H849.288V802.992ZM849.768 809.456H853.544V826H849.768V809.456ZM857.737 809.488H861.353V811.632H861.673C862.281 810.32 863.369 809.424 865.609 809.424H867.337V812.336H865.577C862.761 812.336 861.513 813.872 861.513 817.008V826H857.737V809.488ZM870.112 802.96H873.888V826H870.112V802.96ZM877.601 802.992H882.337V806.576H877.601V802.992ZM878.081 809.456H881.857V826H878.081V809.456ZM895.49 815.92L902.818 825.52V826H898.754L892.898 818.096L889.826 820.656V826H886.049V802.96H889.826V816.144H890.146L897.922 809.456H902.626V809.936L895.49 815.92ZM914.336 802.96H925.248C929.216 802.96 932.32 804.912 932.32 808.72C932.32 812.4 929.6 813.648 928.16 814V814.32C929.728 814.672 932.64 815.792 932.64 819.824C932.64 823.92 929.344 826 925.248 826H914.336V802.96ZM918.304 806V812.752H924.288C926.624 812.752 928.416 811.728 928.416 809.392C928.416 807.056 926.624 806 924.288 806H918.304ZM918.304 815.792V822.96H924.352C926.848 822.96 928.736 821.84 928.736 819.408C928.736 816.944 926.848 815.792 924.352 815.792H918.304ZM935.288 802.992H940.024V806.576H935.288V802.992ZM935.768 809.456H939.544V826H935.768V809.456ZM943.737 809.488H947.353V811.632H947.673C948.281 810.32 949.369 809.424 951.609 809.424H953.337V812.336H951.577C948.761 812.336 947.513 813.872 947.513 817.008V826H943.737V809.488ZM955.632 802.992H960.368V806.576H955.632V802.992ZM956.112 809.456H959.888V826H956.112V809.456ZM964.081 809.456H967.729V811.408H968.049C968.689 810.384 969.873 809.136 972.849 809.136C975.953 809.136 977.361 810.768 977.905 811.92H978.225C978.993 810.64 980.465 809.136 983.665 809.136C987.025 809.136 989.553 811.056 989.553 814.736V826H985.745V815.024C985.745 813.168 984.657 812.016 982.673 812.016C980.401 812.016 978.705 813.328 978.705 816.336V826H974.897V815.024C974.897 813.168 973.809 812.016 971.825 812.016C969.553 812.016 967.857 813.328 967.857 816.336V826H964.081V809.456ZM993.132 802.992H997.868V806.576H993.132V802.992ZM993.612 809.456H997.388V826H993.612V809.456Z" fill="white"/>
<line x1="248" y1="946" x2="1412" y2="946" stroke="#004BF9" stroke-width="2"/>
<line x1="248" y1="91" x2="366" y2="91" stroke="#004BF9" stroke-width="2"/>
<line x1="251" y1="814" x2="251" y2="381" stroke="#004BF9" stroke-width="2" stroke-dasharray="10 10"/>
<line x1="829" y1="788" x2="829" y2="561" stroke="#004BF9" stroke-width="2" stroke-dasharray="10 10"/>
<line x1="252" y1="813" x2="653" y2="813" stroke="#004BF9" stroke-width="2" stroke-dasharray="10 10"/>
<line x1="829" y1="549" x2="829" y2="184" stroke="#004BF9" stroke-width="2"/>
<line x1="829" y1="1021" x2="829" y2="828" stroke="#004BF9" stroke-width="2"/>
<line x1="1411" y1="1021" x2="1411" y2="947" stroke="#004BF9" stroke-width="2"/>
<line x1="247" y1="1021" x2="247" y2="947" stroke="#004BF9" stroke-width="2"/>
<line x1="247" y1="294" x2="247" y2="92" stroke="#004BF9" stroke-width="2"/>
<rect x="579" y="481" width="502" height="99" fill="#004BF9"/>
<rect x="579" y="481" width="502" height="99" stroke="white" stroke-width="2"/>
<path d="M747.356 514.616H752.316V518.232H747.356V514.616ZM747.836 519.96H751.804V543H747.836V519.96ZM755.372 534.744C755.372 529.272 759.02 526.072 763.948 526.072C768.684 526.072 771.052 528.952 771.468 531.672V532.152H768.044C767.852 530.712 766.732 528.92 764.012 528.92C761.132 528.92 759.212 531.032 759.212 534.744C759.212 538.456 761.132 540.568 764.012 540.568C766.796 540.568 767.884 538.84 768.172 537.048H771.628V537.528C771.244 540.472 768.716 543.384 763.948 543.384C758.988 543.384 755.372 540.216 755.372 534.744ZM774.674 526.488H778.291V528.632H778.611C779.219 527.32 780.307 526.424 782.547 526.424H784.275V529.336H782.515C779.699 529.336 778.451 530.872 778.451 534.008V543H774.674V526.488ZM786.195 531.896V531.416C786.707 528.28 789.619 526.104 793.907 526.104C798.163 526.104 801.235 528.28 801.235 532.472V543H797.587V540.824H797.267C796.595 541.784 795.123 543.32 791.859 543.32C788.243 543.32 785.747 541.528 785.747 538.52C785.747 535.416 788.307 533.944 791.635 533.624L797.491 533.016V532.216C797.491 529.88 796.179 528.792 793.843 528.792C791.475 528.792 790.067 529.88 789.843 531.896H786.195ZM789.555 538.264C789.555 539.672 790.707 540.6 792.659 540.6C795.347 540.6 797.491 539 797.491 535.864V535.48L792.339 536.024C790.611 536.184 789.555 536.888 789.555 538.264ZM825.189 528.888L834.693 542.52V543H830.373L822.405 531.416L818.085 535.32V543H814.117V519.96H818.085V530.36H818.405L829.733 519.96H834.533V520.44L825.189 528.888ZM852.41 543H848.762V540.76H848.442C847.866 541.688 846.522 543.352 843.13 543.352C839.45 543.352 836.922 541.24 836.922 537.368V526.456H840.698V536.984C840.698 539.384 842.074 540.504 844.186 540.504C846.554 540.504 848.634 539.064 848.634 535.704V526.456H852.41V543ZM856.643 526.488H860.259V528.632H860.579C861.187 527.32 862.275 526.424 864.515 526.424H866.243V529.336H864.483C861.667 529.336 860.419 530.872 860.419 534.008V543H856.643V526.488ZM884.378 543H880.73V540.76H880.41C879.834 541.688 878.49 543.352 875.098 543.352C871.418 543.352 868.89 541.24 868.89 537.368V526.456H872.666V536.984C872.666 539.384 874.042 540.504 876.154 540.504C878.522 540.504 880.602 539.064 880.602 535.704V526.456H884.378V543ZM888.612 519.96H892.388V543H888.612V519.96ZM911.941 543H908.293V540.76H907.973C907.397 541.688 906.053 543.352 902.661 543.352C898.981 543.352 896.453 541.24 896.453 537.368V526.456H900.229V536.984C900.229 539.384 901.605 540.504 903.717 540.504C906.085 540.504 908.165 539.064 908.165 535.704V526.456H911.941V543Z" fill="white"/>
<path d="M406.944 1262.72H414.696C417.672 1262.72 419.976 1264.26 419.976 1267.06C419.976 1269.75 417.96 1270.74 416.856 1271V1271.24C418.08 1271.5 420.216 1272.39 420.216 1275.39C420.216 1278.44 417.768 1280 414.696 1280H406.944V1262.72ZM409.152 1264.54V1270.26H414.24C416.208 1270.26 417.792 1269.39 417.792 1267.4C417.792 1265.41 416.208 1264.54 414.24 1264.54H409.152ZM409.152 1272.08V1278.18H414.288C416.424 1278.18 418.032 1277.22 418.032 1275.15C418.032 1273.09 416.424 1272.08 414.288 1272.08H409.152ZM422.516 1263.13H425.444V1265.48H422.516V1263.13ZM422.924 1267.78H425.036V1280H422.924V1267.78ZM428.525 1262.72H430.637V1280H428.525V1262.72ZM433.383 1273.69C433.383 1269.82 435.879 1267.5 438.951 1267.5C441.111 1267.5 442.335 1268.53 442.983 1269.49H443.223L443.703 1267.78H445.191V1279.3C445.191 1282.81 443.199 1285.06 439.311 1285.06C435.615 1285.06 433.983 1283.1 433.527 1281.22V1280.86H435.471C435.783 1282.16 436.719 1283.48 439.263 1283.48C441.903 1283.48 443.079 1281.9 443.079 1279.4V1278.01H442.839C442.143 1278.97 440.919 1279.86 438.903 1279.86C435.831 1279.86 433.383 1277.53 433.383 1273.69ZM435.495 1273.69C435.495 1276.59 437.127 1278.22 439.335 1278.22C441.543 1278.22 443.175 1276.59 443.175 1273.69C443.175 1270.78 441.543 1269.13 439.335 1269.13C437.127 1269.13 435.495 1270.78 435.495 1273.69ZM448.274 1263.13H451.202V1265.48H448.274V1263.13ZM448.682 1267.78H450.794V1280H448.682V1267.78ZM454.283 1262.72H456.395V1280H454.283V1262.72ZM459.141 1273.88C459.141 1270.02 461.517 1267.5 465.189 1267.5C468.885 1267.5 470.973 1270.02 470.973 1273.47V1274.38H461.301C461.349 1276.9 462.837 1278.7 465.237 1278.7C467.541 1278.7 468.549 1277.22 468.789 1275.99H470.805V1276.35C470.469 1277.89 468.933 1280.29 465.237 1280.29C461.517 1280.29 459.141 1277.77 459.141 1273.88ZM461.301 1272.8H468.885C468.813 1270.69 467.565 1269.08 465.189 1269.08C462.861 1269.08 461.493 1270.69 461.301 1272.8ZM473.736 1267.78H475.776V1269.58H476.016C476.472 1268.79 477.528 1267.5 480.12 1267.5C482.832 1267.5 484.704 1269.03 484.704 1271.89V1280H482.592V1272.1C482.592 1270.04 481.368 1269.15 479.616 1269.15C477.6 1269.15 475.848 1270.4 475.848 1273.16V1280H473.736V1267.78ZM499.336 1280H497.272V1278.27H497.032C496.48 1279.11 495.256 1280.26 492.952 1280.26C489.784 1280.26 487.36 1277.91 487.36 1273.88C487.36 1269.85 489.784 1267.5 492.952 1267.5C495.232 1267.5 496.456 1268.65 496.984 1269.46H497.224V1262.72H499.336V1280ZM497.32 1273.88C497.32 1270.86 495.688 1269.13 493.408 1269.13C491.128 1269.13 489.472 1270.86 489.472 1273.88C489.472 1276.93 491.128 1278.63 493.408 1278.63C495.688 1278.63 497.32 1276.93 497.32 1273.88ZM502.438 1263.13H505.366V1265.48H502.438V1263.13ZM502.846 1267.78H504.958V1280H502.846V1267.78ZM508.447 1267.78H510.487V1269.44H510.727C511.159 1268.53 511.903 1267.74 513.727 1267.74H514.975V1269.42H513.751C511.447 1269.42 510.559 1270.74 510.559 1273.23V1280H508.447V1267.78ZM516.899 1263.13H519.827V1265.48H516.899V1263.13ZM517.307 1267.78H519.419V1280H517.307V1267.78ZM522.908 1267.78H524.948V1269.44H525.188C525.62 1268.53 526.364 1267.74 528.188 1267.74H529.436V1269.42H528.212C525.908 1269.42 525.02 1270.74 525.02 1273.23V1280H522.908V1267.78ZM920.846 1267.71C920.846 1270.59 918.83 1272.37 916.19 1272.66L920.63 1279.64V1280H918.302L913.742 1272.7H909.566V1280H907.358V1262.72H915.446C918.422 1262.72 920.846 1264.57 920.846 1267.71ZM909.566 1264.54V1270.88H915.062C917.174 1270.88 918.638 1269.75 918.638 1267.71C918.638 1265.67 917.174 1264.54 915.062 1264.54H909.566ZM923.117 1271.7V1271.34C923.525 1269.06 925.565 1267.5 928.613 1267.5C931.661 1267.5 933.773 1269.06 933.773 1272.03V1280H931.733V1278.2H931.493C930.965 1279.06 929.789 1280.26 927.245 1280.26C924.629 1280.26 922.781 1278.94 922.781 1276.76C922.781 1274.48 924.629 1273.4 927.125 1273.16L931.685 1272.73V1271.98C931.685 1269.99 930.509 1269.08 928.565 1269.08C926.597 1269.08 925.373 1269.99 925.157 1271.7H923.117ZM924.893 1276.66C924.893 1277.89 925.949 1278.68 927.605 1278.68C929.837 1278.68 931.685 1277.38 931.685 1274.62V1274.29L927.413 1274.7C925.829 1274.84 924.893 1275.44 924.893 1276.66ZM937.19 1267.78H939.23V1269.51H939.47C940.046 1268.67 941.27 1267.5 943.574 1267.5C946.718 1267.5 949.166 1269.85 949.166 1273.88C949.166 1277.91 946.718 1280.26 943.574 1280.26C941.294 1280.26 940.07 1279.11 939.542 1278.32H939.302V1284.8H937.19V1267.78ZM939.182 1273.88C939.182 1276.93 940.838 1278.63 943.118 1278.63C945.374 1278.63 947.03 1276.93 947.03 1273.88C947.03 1270.86 945.374 1269.13 943.118 1269.13C940.838 1269.13 939.182 1270.86 939.182 1273.88ZM951.188 1273.88C951.188 1270.02 953.612 1267.5 957.284 1267.5C960.956 1267.5 963.38 1270.02 963.38 1273.88C963.38 1277.77 960.956 1280.29 957.284 1280.29C953.612 1280.29 951.188 1277.77 951.188 1273.88ZM953.3 1273.88C953.3 1276.93 954.908 1278.66 957.284 1278.66C959.66 1278.66 961.244 1276.93 961.244 1273.88C961.244 1270.86 959.66 1269.13 957.284 1269.13C954.908 1269.13 953.3 1270.86 953.3 1273.88ZM966.135 1267.78H968.175V1269.44H968.415C968.847 1268.53 969.591 1267.74 971.415 1267.74H972.663V1269.42H971.439C969.135 1269.42 968.247 1270.74 968.247 1273.23V1280H966.135V1267.78ZM974.994 1262.72H977.106V1280H974.994V1262.72ZM980.188 1271.7V1271.34C980.596 1269.06 982.636 1267.5 985.684 1267.5C988.732 1267.5 990.844 1269.06 990.844 1272.03V1280H988.804V1278.2H988.564C988.036 1279.06 986.86 1280.26 984.316 1280.26C981.7 1280.26 979.852 1278.94 979.852 1276.76C979.852 1274.48 981.7 1273.4 984.196 1273.16L988.756 1272.73V1271.98C988.756 1269.99 987.58 1269.08 985.636 1269.08C983.668 1269.08 982.444 1269.99 982.228 1271.7H980.188ZM981.964 1276.66C981.964 1277.89 983.02 1278.68 984.676 1278.68C986.908 1278.68 988.756 1277.38 988.756 1274.62V1274.29L984.484 1274.7C982.9 1274.84 981.964 1275.44 981.964 1276.66ZM994.26 1267.78H996.3V1269.44H996.54C996.972 1268.53 997.716 1267.74 999.54 1267.74H1000.79V1269.42H999.564C997.26 1269.42 996.372 1270.74 996.372 1273.23V1280H994.26V1267.78Z" fill="#061D8B"/>
<line x1="570" y1="1273" x2="766" y2="1273" stroke="#004BF9" stroke-width="2" stroke-dasharray="10 10"/>
<line x1="1040" y1="1273" x2="1236" y2="1273" stroke="#004BF9" stroke-width="2"/>
<rect x="552.5" y="1261.5" width="231" height="24" stroke="#A9A9A9"/>
<rect x="1022.5" y="1261.5" width="231" height="24" stroke="#A9A9A9"/>
</svg>
